#N canvas 827 239 527 327 12;
#X obj 71 182 scaleProvider/rj/u_listmap;
#X obj 303 96 + 36;
#X obj 303 122 midi2note;
#X obj 303 174 t a a;
#X obj 363 211 list length;
#X obj 363 237 - 1;
#X obj 303 261 list split;
#X obj 303 148 else/separate empty;
#X obj 303 287 else/unite empty;
#X connect 0 1 1 0;
#X connect 1 0 2 0;
#X connect 2 0 7 0;
#X connect 3 0 6 0;
#X connect 3 1 4 0;
#X connect 4 0 5 0;
#X connect 5 0 6 1;
#X connect 6 0 8 0;
#X connect 7 0 3 0;
#X connect 8 0 0 1;
