#N struct 1102-symarray float x array symbols 1102-sym;
#N struct 1102-sym symbol name float on;
#N struct 1160-symarray float x array symbols 1160-sym;
#N struct 1160-sym symbol name float on;
#N struct 1172-symarray float x array symbols 1172-sym;
#N struct 1172-sym symbol name float on;
#N struct 1173-symarray float x array symbols 1173-sym;
#N struct 1173-sym symbol name float on;
#N struct 1174-symarray float x array symbols 1174-sym;
#N struct 1174-sym symbol name float on;
#N struct 1175-symarray float x array symbols 1175-sym;
#N struct 1175-sym symbol name float on;
#N struct 1176-symarray float x array symbols 1176-sym;
#N struct 1176-sym symbol name float on;
#N struct 1177-symarray float x array symbols 1177-sym;
#N struct 1177-sym symbol name float on;
#N struct 1178-symarray float x array symbols 1178-sym;
#N struct 1178-sym symbol name float on;
#N canvas 637 216 811 297 12;
#X declare -path scaleProvider;
#X obj 603 119 tgl 52 0 empty \$0-recTgl Rec -47 22 0 28 #b37200 #000000 #373737 0 1;
#X obj 80 3 scaleSeq \$0;
#X obj 2 241 cnv 15 794 41 empty \$0-randread randRead:6 217 25 0 14 #f1f1f1 #4d4d4d 0;
#N canvas 0 22 450 300 run 0;
#X obj 597 258 inlet;
#X obj 295 160 playhead;
#X obj 444 190 unpack f f f;
#X obj 444 295 spigot;
#X obj 443 347 i;
#X obj 568 352 r \$0-readSpeed;
#X obj 568 378 + 1;
#X obj 568 404 sel 3;
#X msg 568 430 4;
#X obj 443 430 change;
#X obj 505 456 r \$0-grid-length;
#X obj 443 722 outlet;
#X obj 443 321 * 1;
#X obj 302 333 change;
#X obj 302 462 f;
#X obj 302 359 expr 60000 / $f1;
#X obj 302 514 s \$0-grid-ms;
#X obj 443 456 + 1;
#X obj 302 488 / 4;
#X obj 302 385 t b f;
#X obj 189 359 sel 1;
#X obj 189 312 change;
#X msg 189 396 set -1;
#X obj 546 507 prepend set;
#X msg 443 567 16;
#X obj 443 482 % 16;
#X obj 443 508 sel 0;
#X obj 443 593 t f b;
#X obj 532 613 random 100;
#X obj 532 639 moses 0;
#X msg 573 662 1;
#X obj 532 665 t b;
#X obj 532 691 random 16;
#X obj 532 717 + 1;
#X msg 604 655 0;
#X obj 658 616 inlet randread;
#X obj 443 649 spigot 1;
#X obj 658 296 outlet;
#X obj 355 436 t b f;
#X connect 0 0 3 1 32.................I....72+++eB....+8+++KA....;
#X connect 1 0 21 0 32.................a....b4++++F....W9+++WC....;
#X connect 1 5 13 0 32.................Y....L6+++eF....y9+++qD....;
#X connect 1 8 2 0 32.................F....v....fA....L....r.....;
#X connect 2 0 37 0 32.................D....XM....A....VC...b.....;
#X connect 2 0 3 0;
#X connect 3 0 12 0 32.................D..........A.........b.....;
#X connect 4 0 9 0 32.................f..........H..........D....;
#X connect 5 0 6 0 32.................D..........A.........b.....;
#X connect 6 0 7 0 32.................D..........A.........b.....;
#X connect 7 0 8 0 32.................D....7++++OA....+++++e.....;
#X connect 7 1 12 1 48......................X8+++O.....V++++u4+++ef++++a9+++G3++++l++++;
#X connect 7 1 38 0 32.................G....3w++++A....d7+++2.....;
#X connect 8 0 12 1 48......................D8+++O.....Q++++G3+++ej++++A9+++G4+++ef++++;
#X connect 8 0 38 0 48......................b4+++O.....W9+++S++++uK++++z++++6x+++O8++++;
#X connect 9 0 17 0 32.................D..........A.........b.....;
#X connect 10 0 23 0 32.................P....jB....D....o.....B....;
#X connect 10 0 25 1 32.................D....H8+++OA....R++++e.....;
#X connect 10 0 32 1 32.................HA...nD....R....JA...fM....;
#X connect 12 0 4 0 32.................D..........A.........b.....;
#X connect 13 0 15 0 32.................D..........A.........b.....;
#X connect 14 0 18 0 32.................D..........A.........b.....;
#X connect 15 0 19 0 32.................D..........A.........b.....;
#X connect 17 0 25 0 32.................D..........A.........b.....;
#X connect 18 0 16 0 32.................D..........A.........b.....;
#X connect 19 0 14 0 32.................c.........PG.........nC....;
#X connect 19 1 14 1 32.................c.........PG.........nC....;
#X connect 20 0 22 0 32.................I.........PB.........HA....;
#X connect 21 0 20 0 32.................N.........fC.........vA....;
#X connect 22 0 9 0 32.................E....3O...PA....9C...7.....;
#X connect 23 0 24 0 32.................N....f4+++uC....X9+++mB....;
#X connect 24 0 27 0;
#X connect 25 0 26 0 32.................D..........A.........b.....;
#X connect 26 0 24 0 32.................T....7++++OE....+++++iB....;
#X connect 26 1 27 0 32.................g....H++++eH....x++++KD....;
#X connect 27 0 36 0 32.................S.........vD.........TB....;
#X connect 27 1 28 0 32......................3D.........NA...D.....;
#X connect 28 0 29 0 32.................D..........A.........b.....;
#X connect 29 0 31 0 32.................D..........A.........b.....;
#X connect 29 1 30 0;
#X connect 30 0 36 1 48......................z7+++O.....M++++G9+++el++++g++++m4+++e3++++;
#X connect 31 0 34 0 48......................LB.........i....P9+++uQ....j++++aD....4++++;
#X connect 31 0 32 0 32.................D..........A.........b.....;
#X connect 32 0 33 0 32.................D..........A.........b.....;
#X connect 33 0 11 0 48......................L9+++O.....i++++29+++Op++++s++++i5++++7++++;
#X connect 34 0 36 1 48......................z6+++O.....89+++i9+++ed++++n++++m2+++O5++++;
#X connect 35 0 29 1 32.................A....b5+++e.....m9+++S.....;
#X connect 36 0 11 0 32.................G.........vA.........3.....;
#X connect 38 0 14 0 32.................D....v7+++OA....L++++e.....;
#X connect 38 1 18 1 32.................Q....n7+++eD....J++++GB....;
#X restore 216 298 pd run;
#X obj 440 240 hradio 31 1 1 3 empty empty speed:16th -70 25 0 14 #3c3c3c #eeeeee #555555 2;
#N canvas 0 22 450 300 readspeed 0;
#X obj 289 115 inlet;
#X obj 289 141 sel 0 1 2;
#X obj 285 270 outlet;
#X obj 464 152 s \$0-readSpeed;
#X msg 289 167 label speed:4th;
#X msg 305 195 label speed:8th;
#X msg 322 224 label speed:16th;
#X obj 746 282 daw_storage \$0-readSpeed;
#X connect 0 0 1 0;
#X connect 0 0 3 0 32.................I....7J...PB....uB...HA....;
#X connect 1 0 4 0;
#X connect 1 1 5 0;
#X connect 1 2 6 0;
#X connect 4 0 2 0;
#X connect 5 0 2 0;
#X connect 6 0 2 0;
#X restore 440 317 pd readspeed;
#X obj 143 240 tgl 31 1 empty empty RUN -57 21 0 28 #333333 #eeeeee #3d3d3d 1 1;
#N canvas 0 22 450 300 noteout 0;
#X obj 116 47 inlet;
#X msg 116 88 \$1 102 \$2;
#X obj 280 187 r \$0-midiOut;
#X obj 115 220 noteout;
#X obj 116 155 pack;
#X msg 237 77 clear;
#X obj 116 123 makenote 102 500;
#X connect 0 0 1 0 32.................K.........vB.........XA....;
#X connect 1 0 6 0 32.................H..........B..........A....;
#X connect 2 0 3 2 32.................E....r2+++eA....68+++6.....;
#X connect 4 0 3 0;
#X connect 5 0 6 0 32.................N....f3+++uC....H9+++uA....;
#X connect 6 0 4 0 32.................M.........PC.........jA....;
#X connect 6 1 4 1 32.................G....D6++++A....w9+++2.....;
#X restore 77 551 pd noteout;
#X obj 142 467 s \$0-grid-length;
#X obj 613 541 t b a;
#X obj 1021 348 daw_storage \$0-presets;
#X obj 985 465 route 0;
#X obj 1053 437 list;
#X obj 327 630 route dummy;
#X obj 282 546 t b s;
#X msg 802 519 set;
#X obj 953 398 t a b;
#X obj 208 497 symbol;
#X obj 645 751 route 0;
#X obj 713 723 list;
#X obj 613 790 list trim;
#X obj 77 409 route symbol length callPreset writePreset deletePreset overwritePreset;
#X obj 613 694 gate 2 1;
#X obj 1055 761 route 0;
#X obj 1123 733 list;
#X msg 599 661 0;
#X msg 564 661 1;
#X msg 1206 685 2;
#X obj 1087 870 list;
#X obj 1137 868 list;
#X obj 1018 900 list;
#X obj 1104 949 list;
#X obj 1043 975 route 0;
#X obj 1296 469 t b s b s;
#X obj 289 482 symbol;
#X obj 275 456 t b a b;
#X obj 1296 442 symbol;
#X obj 1023 820 route dummy;
#X obj 1001 647 t b b b b s b;
#X obj 1023 791 list trim;
#X obj 1001 606 symbol;
#X obj 969 977 route 0;
#X msg 971 1023 0;
#X obj 1021 374 route 0;
#X obj 1060 1086 print \$0-empty;
#N canvas 0 22 450 300 midiNtime 0;
#X obj 168 -10 inlet;
#X obj 167 535 outlet;
#X obj 168 95 rj/u_symbol2list -;
#X obj 168 121 route list;
#X obj 168 147 unpack s s;
#X obj 168 174 rj/u_symbol2float;
#X obj 573 177 rj/u_symbol2float;
#X obj 573 246 *;
#X obj 634 220 r \$0-grid-ms;
#X obj 167 490 pack;
#X obj 168 16 rj/u_symbol2list _;
#X obj 168 42 rj/u_listdrip;
#X obj 573 272 i;
#N canvas 0 22 450 300 2midiNote 0;
#X obj 91 -50 inlet;
#X obj 60 418 outlet;
#X obj 98 -25 sel 1 2 3 4 5 6 7;
#X obj 1095 70 vanillaMenu \$0-drumSeq drum1 5 22 75 12 none kick rim snare clap hihat o_hihat ride bell tom1 tom2 tom3;
#X obj 1095 117 vanillaMenu \$0-drumSeq drum2 5 53 75 12 none kick rim snare clap hihat o_hihat ride bell tom1 tom2 tom3;
#X obj 1095 156 vanillaMenu \$0-drumSeq drum3 5 84 75 12 none kick rim snare clap hihat o_hihat ride bell tom1 tom2 tom3;
#X obj 1095 198 vanillaMenu \$0-drumSeq drum4 5 115 75 12 none kick rim snare clap hihat o_hihat ride bell tom1 tom2 tom3;
#X obj 1095 237 vanillaMenu \$0-drumSeq drum5 5 146 75 12 none kick rim snare clap hihat o_hihat ride bell tom1 tom2 tom3;
#X obj 1095 280 vanillaMenu \$0-drumSeq drum6 5 177 75 12 none kick rim snare clap hihat o_hihat ride bell tom1 tom2 tom3;
#X obj 1095 321 vanillaMenu \$0-drumSeq drum7 5 208 75 12 none kick rim snare clap hihat o_hihat ride bell tom1 tom2 tom3;
#X msg 549 438 36;
#X msg 580 458 37;
#X msg 619 488 38;
#X msg 650 508 39;
#X msg 685 419 42;
#X msg 715 439 46;
#X msg 755 469 49;
#X msg 785 489 51;
#X msg 813 425 45;
#X msg 853 455 43;
#X msg 883 475 41;
#X obj 199 322 f;
#X obj 229 272 f;
#X obj 259 222 f;
#X obj 289 172 f;
#X obj 319 122 f;
#X obj 349 72 f;
#X obj 379 22 f;
#X msg 574 55 0;
#X obj 91 42 f;
#X obj 101 72 f;
#X obj 121 112 f;
#X obj 131 142 f;
#X obj 151 182 f;
#X obj 171 222 f;
#X obj 181 252 f;
#X obj 964 73 t b a;
#X msg 994 98 \$2;
#X obj 574 29 route none kick rim snare clap hihat o_hihat ride bell tom1 tom2 tom3;
#X obj 934 103 t b a;
#X msg 964 128 \$2;
#X obj 1024 153 t b a;
#X msg 1054 178 \$2;
#X obj 994 203 t b a;
#X msg 1024 228 \$2;
#X obj 964 233 t b a;
#X msg 994 258 \$2;
#X obj 934 283 t b a;
#X msg 964 308 \$2;
#X obj 1004 333 t b a;
#X msg 1034 358 \$2;
#X obj 55 377 sel 0;
#X msg 204 494 \; drum\$1_r label drum\$1;
#X obj 204 411 sel 0;
#X obj 204 437 f;
#X obj 199 348 t f b;
#X obj 244 300 t f b;
#X obj 277 250 t f b;
#X obj 310 200 t f b;
#X obj 343 150 t f b;
#X obj 376 100 t f b;
#X obj 409 50 t f b;
#X msg 329 224 4;
#X obj 204 463 pipe 10;
#X msg 428 74 1;
#X msg 395 124 2;
#X msg 362 174 3;
#X msg 296 274 5;
#X msg 263 324 6;
#X msg 218 372 7;
#X obj 1097 447 f 0;
#X obj 1097 479 pack 0 0 0 0 0 0 0;
#X obj 1097 505 rj/u_list2symbol -;
#X obj 1097 542 outlet drumsounds;
#X obj 1097 -136 r \$0-drumSelections;
#X obj 1097 -107 rj/u_symbol2list -;
#X obj 1097 -41 unpack f f f f f f f;
#X msg 1030 99 \$1;
#X msg 1000 127 \$1;
#X msg 1010 175 \$1;
#X msg 1060 223 \$1;
#X msg 1030 256 \$1;
#X msg 1000 304 \$1;
#X msg 990 358 \$1;
#X obj 1097 -81 rj/u_listmap;
#X obj 1314 -79 rj/u_symbol2float;
#X floatatom 1366 10 5 0 0 0 - - - 12;
#X connect 0 0 2 0 32.................C....b....v.....G....X.....;
#X connect 2 0 35 0 64......................vA.........b....rB...fJ....q....nB...fU....SA...XE...vT....BD....;
#X connect 2 1 34 0 32.................xA...fC...fb....3....PN....;
#X connect 2 2 33 0 32.................dA...LA...fW....S....vK....;
#X connect 2 3 32 0 32.................JA...79+++uR....u++++SI....;
#X connect 2 4 31 0 32.................6....P8++++N....T++++aG....;
#X connect 2 5 30 0 32.................m....75++++I....u9+++6D....;
#X connect 2 6 29 0 32.................X....P4+++OF....T9+++CC....;
#X connect 3 0 36 0 48......................76+++O.....+9+++K9+++ue++++h++++62+++u3++++;
#X connect 4 0 39 0 32.......................1+++O.....f8+++G8+++O;
#X connect 5 0 41 0 48......................z8+++O.....c++++y8+++ut++++b++++q6+++O2++++;
#X connect 6 0 43 0 48......................37+++O.....N++++S9+++Om++++j++++y4+++O4++++;
#X connect 7 0 45 0 48......................76+++O.....+9+++u8+++ue++++a++++62++++1++++;
#X connect 8 0 47 0 48.......................6+++O.....v9+++K9+++OX++++h++++C1+++u3++++;
#X connect 9 0 49 0 48......................L8+++O.....S++++u9+++uo++++q++++a5++++5++++;
#X connect 10 0 21 1 64......................P2+++O.....z8+++y4+++ux9+++b9+++qr+++eg++++t5+++W3+++uq9+++58+++C;
#X connect 10 0 22 1 48......................X1+++O.....l8+++iz+++Oy9+++H8+++yr+++OR++++;
#X connect 10 0 23 1 48......................T2+++O.....08+++aw+++u59+++V7+++qt+++uE++++;
#X connect 10 0 24 1 48......................P3+++O.....D9+++St+++OB++++j6+++iv+++O49+++;
#X connect 10 0 25 1 48......................L4+++O.....S9+++Kq+++uI++++x5+++ax+++ur9+++;
#X connect 10 0 26 1 48......................H5+++O.....h9+++Cn+++OQ++++.5+++Sz+++Of9+++;
#X connect 10 0 27 1 48......................v7+++O.....L++++6j+++uX++++N4+++K1+++uS9+++;
#X connect 11 0 21 1 64......................X0+++O.....V8+++q3++++p9+++J9+++up+++ub++++O5+++K2++++i9+++l8+++C;
#X connect 11 0 22 1 64......................j2+++O.....48+++20++++y9+++c8++++r+++OR++++s5+++iz+++eq9+++z7+++C;
#X connect 11 0 23 1 48......................X1+++O.....l8+++Kv++++x9+++B7+++ur+++u.++++;
#X connect 11 0 24 1 48......................T2+++O.....08+++Cs+++e59+++P6+++mt+++Oz9+++;
#X connect 11 0 25 1 48......................P3+++O.....D9+++6o++++A++++d5+++ev+++um9+++;
#X connect 11 0 26 1 48......................L4+++O.....S9+++yl+++eI++++r4+++Wx+++Oa9+++;
#X connect 11 0 27 1 48......................n6+++O.....59+++qi++++P++++53+++Oz+++uN9+++;
#X connect 12 0 21 1 48......................z0+++O.....c8+++21+++OZ9+++s8+++il+++OR++++;
#X connect 12 0 22 1 48......................Lz+++O.....C8+++aw+++ug9+++V7+++an+++uE++++;
#X connect 12 0 23 1 48......................H0+++O.....R8+++St+++Oo9+++j6+++Sp+++O49+++;
#X connect 12 0 24 1 48......................D1+++O.....g8+++Kq+++uv9+++x5+++Kr+++ur9+++;
#X connect 12 0 25 1 48.......................2+++O.....v8+++Cn+++O39+++.5+++Ct+++Of9+++;
#X connect 12 0 26 1 48......................72+++O.....+8+++6j+++u+9+++N4+++6u+++uS9+++;
#X connect 12 0 27 1 64......................P9+++O.....j++++i3++++p++++H9+++u5+++OG9+++b7+++yg+++OG++++b3+++C;
#X connect 13 0 21 1 48......................Tx+++O.....k7+++Sy+++eR9+++z7+++mj+++OM++++;
#X connect 13 0 22 1 48......................Py+++O.....z7+++Kv++++Y9+++B7+++el+++u.++++;
#X connect 13 0 23 1 48......................Lz+++O.....C8+++Cs+++eg9+++P6+++Wn+++Oz9+++;
#X connect 13 0 24 1 48......................H0+++O.....R8+++6o++++n9+++d5+++Op+++um9+++;
#X connect 13 0 25 1 48.................58+++a4+++ud++++V9++++p+++ev9+++u5+++Gr+++Oa9+++;
#X connect 13 0 26 1 48.......................2+++O.....v8+++qi++++29+++53++++s+++uN9+++;
#X connect 13 0 27 1 48......................74+++O.....e9+++if+++e+9+++H3+++2u+++OB9+++;
#X connect 14 0 21 1 48......................Lw+++O.....S7+++23+++uI9+++M9+++ah+++ei++++;
#X connect 14 0 22 1 48......................Hx+++O.....h7+++u0+++OQ9+++a8+++Sj++++V++++;
#X connect 14 0 23 1 48......................Dy+++O.....w7+++mx+++uX9+++o7+++Kl+++eJ++++;
#X connect 14 0 24 1 48.......................z+++O......8+++eu+++Of9+++26+++Cn++++89+++;
#X connect 14 0 25 1 48......................7z+++O.....O8+++Wr+++um9+++E6+++6o+++ew9+++;
#X connect 14 0 26 1 48......................30+++O.....d8+++Oo+++Ou9+++S5+++yq++++j9+++;
#X connect 14 0 27 1 64......................H4+++O.....R9+++mr+++ea++++I6+++21+++eX9+++Z6+++Gl+++u19+++g4+++C;
#X connect 15 0 21 1 48......................Pv+++O.....D7+++m2+++OB9+++48+++if+++ed++++;
#X connect 15 0 22 1 48......................Lw+++O.....S7+++ez+++uI9+++G8+++ah++++Q++++;
#X connect 15 0 23 1 48......................Hx+++O.....h7+++Ww+++OQ9+++U7+++Sj+++eE++++;
#X connect 15 0 24 1 48......................Dy+++O.....w7+++Ot+++uX9+++i6+++Kl++++39+++;
#X connect 15 0 25 1 48.......................z+++O......8+++Gq+++Of9+++w5+++Cn+++er9+++;
#X connect 15 0 26 1 48......................7z+++O.....O8++++m+++um9++++4+++6o++++e9+++;
#X connect 15 0 27 1 64......................b3+++O.....G9+++On+++uW++++C5+++60+++eS9+++75+++2j+++Ou9+++M4+++C;
#X connect 16 0 21 1 48.......................u+++O.....v6+++u0+++O38+++a8+++Cd++++V++++;
#X connect 16 0 22 1 48.................U9+++W0+++ek++++U8+++mx+++u+8+++o7+++6e+++eJ++++;
#X connect 16 0 23 1 48......................70+++O.....e8+++eu+++OG9+++26+++yg++++89+++;
#X connect 16 0 24 1 48......................zw+++O.....c7+++Wr+++uN9+++E6+++qi+++ew9+++;
#X connect 16 0 25 1 48......................L2+++O.....y8+++Cs+++OV9+++P6+++ik++++j9+++;
#X connect 16 0 26 1 48.................18+++22+++uc++++88+++ap+++uc9+++l5+++am+++eX9+++;
#X connect 16 0 27 1 64......................f2+++O.....38+++Op+++eG++++i5+++2w++++K9+++T5++++h+++Ok9+++u3+++C;
#X connect 17 0 21 1 64......................D5+++O.....g9+++O7+++eP++++C++++Gz++++Q++++B2+++ez+++uv8+++G8+++C;
#X connect 17 0 22 1 64......................X5+++O.....l9+++q8++++R++++Z++++uz+++eE++++f2+++Ww+++O38+++U7+++C;
#X connect 17 0 23 1 48......................7u+++O.....+6+++Ot+++u+8+++i6+++6e++++39+++;
#X connect 17 0 24 1 48......................70+++O.....e8+++Gq+++OG9+++w5+++yg+++er9+++;
#X connect 17 0 25 1 48..................9+++m1+++Of++++o8++++q+++uN9++++5+++qi++++e9+++;
#X connect 17 0 26 1 48......................H1+++O.....h8+++On+++OV9+++C5+++ik+++eS9+++;
#X connect 17 0 27 1 64......................z2+++O.....88+++yl+++u99+++r4+++qu++++F9+++14+++ug+++uc9+++a3+++C;
#X connect 18 0 21 1 48.................s++++iy+++e6++++37+++e3+++uo8+++G9+++aZ++++g++++;
#X connect 18 0 22 1 48.................n++++uv+++O5++++K7+++W0+++Ow8+++U8+++Sb+++eU++++;
#X connect 18 0 23 1 48......................vz+++O.....L8+++Ox+++u38+++i7+++Kd++++H++++;
#X connect 18 0 24 1 48.................T++++a0+++O0++++V8+++Gu+++O.9+++w6+++Cf+++e79+++;
#X connect 18 0 25 1 48......................7v+++O.....O7++++q+++uG9++++5+++6g++++u9+++;
#X connect 18 0 26 1 48......................n1+++O.....p8+++ur+++OO9+++K6+++yi+++ei9+++;
#X connect 18 0 27 1 80......................n6+++O.....59+++u6+++Oc++++69+++S2+++en9+++m6+++Gp++++49+++a4+++qk++++V9+++Z4+++uk+++O;
#X connect 19 0 21 1 48.......................w+++O.....P7+++m1+++ue8+++o8+++6W+++eZ++++;
#X connect 19 0 22 1 48.................j++++qu+++O4++++56+++ey+++Om8+++27+++yY++++M++++;
#X connect 19 0 23 1 48......................bv+++O.....G7+++Wv+++ut8+++E7+++qa+++eA++++;
#X connect 19 0 24 1 48......................vt+++O.....r6+++Os+++O18+++S6+++ic++++z9+++;
#X connect 19 0 25 1 48......................ru+++O.....66+++Gp+++u88+++g5+++ae+++en9+++;
#X connect 19 0 26 1 48......................nv+++O.....J7++++l+++OE9+++u4+++Sg++++a9+++;
#X connect 19 0 27 1 80......................z3+++O.....M9+++C4++++T++++P9+++O0+++uq9+++l5+++6p+++uo9+++83+++Ki+++eO9+++x3+++2i+++O;
#X connect 20 0 21 1 48......................Tv+++O.....E7+++W0+++OX8+++U8+++CV+++eU++++;
#X connect 20 0 22 1 48.......................w+++O.....P7+++Ox+++ue8+++i7+++6W++++H++++;
#X connect 20 0 23 1 64.................Z++++m5+++u1++++o9+++y3+++u99+++L9+++qu+++e79+++b1+++Gu+++Om8+++w6+++C;
#X connect 20 0 24 1 48......................bv+++O.....G7++++q+++ut8++++5+++qa++++u9+++;
#X connect 20 0 25 1 48......................vt+++O.....r6+++2n+++O18+++M5+++ic+++ei9+++;
#X connect 20 0 26 1 48......................ru+++O.....66+++uk+++u88+++a4+++ae++++V9+++;
#X connect 20 0 27 1 80......................X3+++O.....F9+++u3+++OR++++K9+++iz+++OY9+++O5+++Sl++++i9+++o3+++Sg+++eJ9+++T3+++mh+++O;
#X connect 21 0 35 1 48......................z++++O.....8++++i5+++u9++++n9+++q++++Op++++;
#X connect 21 0 55 0 32.................D..........A.........b.....;
#X connect 22 0 34 1 48......................j9+++O.....o++++y6+++uz++++79+++K8+++Ou++++;
#X connect 22 0 56 0 32.................E....7....PA....O....j.....;
#X connect 23 0 33 1 48.......................8+++O.....P++++a7+++On++++F++++C5+++uw++++;
#X connect 23 0 57 0 32.................E....HA...PA....R....j.....;
#X connect 24 0 32 1 48......................b6+++O.....29+++C8+++ua++++P++++61+++Oz++++;
#X connect 24 0 58 0 32.................E....TA...PA....U....j.....;
#X connect 25 0 31 1 48......................L5+++O.....i9+++S9+++uQ++++j++++az+++O4++++;
#X connect 25 0 59 0 32.................E....fA...PA....X....j.....;
#X connect 26 0 30 1 48......................n3+++O.....J9+++69+++OE++++t++++Sw+++u6++++;
#X connect 26 0 60 0 32.................E....rA...PA....a....j.....;
#X connect 27 0 29 1 32.................A....vt+++e.....r6+++G.....;
#X connect 27 0 61 0 32.................E....3A...PA....d....j.....;
#X connect 28 0 27 1 48......................X5+++O.....l9+++27++++R++++M++++uz+++ey++++;
#X connect 28 0 26 1 32......................zx+++O.....s7++++++++O;
#X connect 28 0 25 1 48......................by+++O.....27+++CA...vC++++P....7v+++OL....;
#X connect 28 0 24 1 64......................7y+++O.....+7+++6.....F++++N....fw+++uJ....w6+++qB...P79+++hA....;
#X connect 28 0 23 1 64......................Pz+++O.....D8+++OA...fG++++S....3w+++eI....S6+++WB...vz9+++TB....;
#X connect 28 0 22 1 48.................g....Px+++eH....j7+++KD...Ps9+++BA...Tq+++uw....;
#X connect 28 0 21 1 48.................SA....w++++T....P7++++L...vk9+++OC...bo+++O9....;
#X connect 29 0 51 0 32.................dB...z8+++um....c++++yS....;
#X connect 30 0 51 0 32.................OB...L8++++i....S++++6Q....;
#X connect 31 0 51 0 32.................6A...76++++d....+9+++aO....;
#X connect 32 0 51 0 32.................rA...T6+++Oa....09+++iM....;
#X connect 33 0 51 0 32.................6....D5++++N....g9+++CK....;
#X connect 34 0 51 0 32.................y....z3++++L....M9+++iH....;
#X connect 35 0 51 0 32.................n....L3+++OJ....C9+++qF....;
#X connect 36 0 27 0 64......................Xv+++O.....F7+++O9++++W9+++i+++++k++++t++++31+++u6+++Ot8+++69+++C;
#X connect 36 1 37 0 32.................C....HA...v.....R....X.....;
#X connect 36 1 77 0 32.................D....XC....A....1....b.....;
#X connect 37 0 38 0 48.................n++++2z+++O5++++M8+++m5+++eW9+++o9+++2k+++ep++++;
#X connect 38 0 28 0 32.................D....7++++OA....+++++e.....;
#X connect 38 1 10 0 32.................CC...f7++++v....H++++aX....;
#X connect 38 2 11 0 32.................MC...b7+++ey....G++++qY....;
#X connect 38 3 12 0 32.................bC...z7+++O2....M++++ia....;
#X connect 38 4 13 0 32.................lC...v7+++u4....L++++yb....;
#X connect 38 5 14 0 32.................5B...77+++ut....O++++OW....;
#X connect 38 6 15 0 32.................DC...v7+++Ow....L++++eX....;
#X connect 38 7 16 0 32.................SC...P8++++z....T++++WZ....;
#X connect 38 8 17 0 32.................cC...H8+++e2....R++++ma....;
#X connect 38 9 18 0 32.................8B...z7+++eu....M++++mW....;
#X connect 38 10 19 0 32.................LC...T8+++Oy....U++++eY....;
#X connect 38 11 20 0 32.................VC...L8+++u0....S++++uZ....;
#X connect 39 0 26 0 48......................3y+++O.....97++++7+++Ot8+++O++++ia++++y++++;
#X connect 39 0 70 0 48......................nG.........5A...jB...vn....o....LJ...PQA...;
#X connect 39 1 40 0 32.................C....HA...v.....R....X.....;
#X connect 39 1 78 0 32.................C....XC...v.....1....T.....;
#X connect 40 0 38 0 48......................71+++O.....u8+++u3++++d9+++K9+++um++++h++++;
#X connect 41 0 25 0 48......................Xw+++O.....V7++++7+++OP8+++O++++CT++++y++++;
#X connect 41 0 70 0 32.................JB...jD...fh....IA...LQ....;
#X connect 41 1 42 0 32.................C....HA...v.....R....X.....;
#X connect 41 1 79 0 32.................B....b9+++u.....m++++O.....;
#X connect 42 0 38 0 48......................D1+++O.....g8+++m0+++eH9+++Y8+++Gh+++eV++++;
#X connect 43 0 24 0 48......................Xw+++O.....V7++++7+++OP8+++O++++CT++++y++++;
#X connect 43 0 70 0 64.................b....nA....G....Z....fC...vI....3....bB....U....mA...PE...vY....gC....;
#X connect 43 1 44 0 32.................C....HA...v.....R....X.....;
#X connect 43 1 80 0 32.................A....XC...P.....1....D.....;
#X connect 44 0 38 0 48.................c++++u1+++e2++++q8+++ex++++O9+++m7++++i++++I++++;
#X connect 45 0 23 0 48......................Xw+++O.....V7+++O9+++OP8+++i++++CT++++3++++;
#X connect 45 0 70 0 64.................TA...jC....U....4....7F....S....uA...vD...vh....EB...rH...Pg....CC....;
#X connect 45 1 46 0 32.................C....HA...v.....R....X.....;
#X connect 45 1 81 0 32.................B....XC...f.....1....P.....;
#X connect 46 0 38 0 48.................X++++W2+++O1++++08+++mv+++eW9+++I7+++2k+++eB++++;
#X connect 47 0 22 0 48......................Xw+++O.....V7+++O9+++OP8+++i++++CT++++3++++;
#X connect 47 0 70 0 64......................XF.........lA...PB...vi....j....7H...fM....iB...XC...vn....QB....;
#X connect 47 1 48 0 32.................C....HA...v.....R....X.....;
#X connect 47 1 82 0 32.................A....XC...P.....1....H.....;
#X connect 48 0 38 0 48......................71+++O.....u8+++es++++d9+++W6+++um++++09+++;
#X connect 49 0 21 0 48......................3l+++O.....t4+++O9+++O27+++i++++yM++++3++++;
#X connect 49 0 70 0 48.................f....7B....H....u.....C...PW....v....zE...vW....;
#X connect 49 1 50 0 32.................C....HA...v.....R....X.....;
#X connect 49 1 83 0 32.................C....b9++++.....m++++a.....;
#X connect 50 0 38 0 48......................P0+++O.....T8+++Wp+++eM9+++k5+++Wi+++eo9+++;
#X connect 51 1 1 0 32.................K....b+++++B....2++++aA....;
#X connect 53 0 54 0 32.................D..........A.........b.....;
#X connect 54 0 63 0 32.................D..........A.........b.....;
#X connect 55 0 53 0 32.................V....T....fE....E....vB....;
#X connect 55 1 69 0 32.................C....X....v.....F....T.....;
#X connect 56 0 53 0 32.................t....j8+++uK....Y++++yE....;
#X connect 56 1 68 0 32.................C....X....v.....F....T.....;
#X connect 57 0 53 0 32.................GA...f6++++Q....39+++6H....;
#X connect 57 1 67 0 32.................C....X....v.....F....T.....;
#X connect 58 0 53 0 48......................D6+++O.....w9+++iA...vk++++X....b4+++Ov....;
#X connect 58 1 62 0 32.................C....X....v.....F....T.....;
#X connect 59 0 53 0 64......................T7+++O.....E++++OB...fh++++i....n3+++eQ....18+++WD...fc++++xC....;
#X connect 59 1 66 0 32.................C....X....v.....F....T.....;
#X connect 60 0 53 0 80.......................7+++O......++++WB...Pk++++k....T4+++eR....p8+++mD...fZ++++tA...T0+++ua....U8+++SR....;
#X connect 60 1 65 0 32.................C....X....v.....F....T.....;
#X connect 61 0 53 0 80.................SB...v3++++j....L9+++OL...va++++CC...71+++O8....Q8+++SO...PT++++kD...Py+++eIA...z7+++aU....;
#X connect 61 1 64 0 32.................C....T....v.....E....T.....;
#X connect 62 0 54 1 48.................X....j7+++OF....I++++GC...Pj++++w....D4+++uv....;
#X connect 63 0 52 0 32.................F.........fA.........v.....;
#X connect 64 0 54 1 80.................yA...f4++++b....X9+++yJ...Pc++++rB...T2+++e4....R8+++WN...fT++++eD...7x++++GA...u7+++iU....;
#X connect 65 0 54 1 64......................r2+++O.....68+++WB...PY++++k....T1+++ua....O8+++6F...vS++++lD....;
#X connect 66 0 54 1 48.................8....X5+++eO....l9+++yE....b++++bA....2+++O8....;
#X connect 67 0 54 1 32.................HA...H6+++OR....x9+++CI....;
#X connect 68 0 54 1 32.................u....L8++++K....S++++6E....;
#X connect 69 0 54 1 32.................W.........vE.........3B....;
#X connect 70 0 71 0 32.................G.........vA.........z.....;
#X connect 71 0 72 0 32.................D..........A.........b.....;
#X connect 72 0 73 0 32.................I.........PB.........HA....;
#X connect 74 0 75 0 32.................E.........PA.........n.....;
#X connect 75 0 84 0 32.................D..........A.........b.....;
#X connect 76 0 3 0 32.................t....7++++uK....+++++yE....;
#X connect 76 1 4 0 32.................FA...79+++uQ....u++++uH....;
#X connect 76 2 5 0 32.................YA...38+++eV....d++++KK....;
#X connect 76 3 6 0 32.................tA...z7+++ua....M++++yM....;
#X connect 76 4 7 0 32.................BB...v6+++uf....79+++OP....;
#X connect 76 5 8 0 32.................kA...r5+++eY....q9+++6R....;
#X connect 76 6 9 0 32.................AB...n4+++ef....Z9+++eU....;
#X connect 77 0 70 0 32.................kB...LD...Po....CA...jT....;
#X connect 78 0 71 1 64......................XB.........l....fC...PN....3....jC...va....wA...7F...Pb....ME....;
#X connect 79 0 71 2 32.................eA...fG...vW....3A...zQ....;
#X connect 80 0 71 3 32.................OA...bE...vS....WA...zN....;
#X connect 81 0 71 4 48.................h....XA...fH....V....PD...fg....DA...XH....y....;
#X connect 82 0 71 5 32.................CA...TK...vP....0B...vI....;
#X connect 83 0 71 6 32.................l.....M...fI....PC...XF....;
#X connect 84 0 76 0 32.................K.........vB.........TA....;
#X connect 84 1 85 0 48......................rA.........a.....++++OT....v++++CE....7++++;
#X connect 85 0 84 1 48......................X9+++O.....l++++y9+++er++++r++++G6+++O6++++;
#X connect 86 0 3 0;
#X connect 86 0 9 0;
#X connect 86 0 8 0;
#X connect 86 0 7 0;
#X connect 86 0 6 0;
#X connect 86 0 5 0;
#X connect 86 0 4 0;
#X restore 168 200 pd 2midiNote;
#X obj 243 235 outlet drumsounds;
#X connect 0 0 10 0 32.................D..........A.........b.....;
#X connect 2 0 3 0 32.................D..........A.........b.....;
#X connect 3 0 4 0 32.................D..........A.........b.....;
#X connect 4 0 5 0 32.................D..........A.........f.....;
#X connect 4 1 6 0 32.................F....LV...fA....iE...r.....;
#X connect 5 0 13 0 32.................D..........A.........b.....;
#X connect 6 0 7 0 32.................Y.........PF.........HC....;
#X connect 7 0 12 0 32.................D..........A.........b.....;
#X connect 8 0 7 1 32.................D....77+++OA....O++++e.....;
#X connect 9 0 1 0 32.................M.........PC.........nA....;
#X connect 10 0 11 0 32.................D..........A.........b.....;
#X connect 11 0 2 0 32.................Q.........PD.........HB....;
#X connect 12 0 9 1 32.................KA...nm++++R....54+++eL....;
#X connect 13 0 9 0 32.................HB.........h.........7P....;
#X connect 13 1 14 0 32.................H....n.....B....J.....A....;
#X restore 77 525 pd midiNtime;
#X obj 1223 375 namecanvas \$0-drumSeq;
#N canvas 0 22 450 300 show 0;
#X obj 108 31 inlet;
#X obj 108 117 t f f b;
#X obj 228 157 f 7;
#X obj 122 178 pack f f \$0;
#X obj 434 49 cnv 15 18 16 empty \$0-timeGrid_-1 empty 20 12 0 14 #b8b8b8 #b8b8b8 0;
#X obj 108 57 moses -1;
#X obj 160 84 moses 8;
#X obj 204 51 r \$0-grid-length;
#X msg 207 107 -1;
#X msg 122 204 \; \$3-timeGrid_\$1 color #B8B8B8 #B8B8B8 #B8B8B8 \; \$3-timeGrid_\$2 color #E1E1E1 #E1E1E1 #E1E1E1;
#X connect 0 0 5 0 32.................D..........A.........b.....;
#X connect 1 0 2 1 32.................G....LH...vA....CB...TA....;
#X connect 1 1 3 0 32.................U.........PE.........nB....;
#X connect 1 2 2 0 32.................K....rE...vB....aA...TA....;
#X connect 2 0 3 1 32.......................6+++O.....v9+++K.....;
#X connect 3 0 9 0 32.................D..........A.........b.....;
#X connect 5 1 6 0 32.................D....z.....A....M....f.....;
#X connect 6 0 1 0 32.................G....z7++++A....M++++6.....;
#X connect 6 1 8 0 32.................B....j....f.....I....P.....;
#X connect 7 0 6 1 32.................G....j+++++A....4++++6.....;
#X connect 8 0 1 0 48.......................8+++O.....P++++i++++On++++3++++C5+++O9++++;
#X restore 216 364 pd show;
#X obj 143 307 sel 0;
#X msg 143 333 -1;
#X obj 70 146 vsl 8 2 0 127 0 0 drum5-10_s drum5-10_r x 3 3 0 4 #d9d9d9 #d9d9d9 #606060 0 0;
#X obj 216 324 - 1;
#X obj 70 208 vsl 8 2 0 127 0 0 drum7-1_s drum7-1_r x 3 3 0 4 #d9d9d9 #d9d9d9 #606060 0 0;
#X obj 70 208 vsl 8 2 0 127 0 0 drum7-2_s drum7-2_r x 3 3 0 4 #d9d9d9 #d9d9d9 #606060 0 0;
#X obj 70 208 vsl 8 2 0 127 0 0 drum7-3_s drum7-3_r x 3 3 0 4 #d9d9d9 #d9d9d9 #606060 0 0;
#X obj 70 208 vsl 8 2 0 127 0 0 drum7-4_s drum7-4_r x 3 3 0 4 #d9d9d9 #d9d9d9 #606060 0 0;
#X obj 70 208 vsl 8 2 0 127 0 0 drum7-5_s drum7-5_r x 3 3 0 4 #d9d9d9 #d9d9d9 #606060 0 0;
#X obj 70 208 vsl 8 2 0 127 0 0 drum7-6_s drum7-6_r x 3 3 0 4 #d9d9d9 #d9d9d9 #606060 0 0;
#X obj 70 208 vsl 8 2 0 127 0 0 drum7-7_s drum7-7_r x 3 3 0 4 #d9d9d9 #d9d9d9 #606060 0 0;
#X obj 70 208 vsl 8 2 0 127 0 0 drum7-8_s drum7-8_r x 3 3 0 4 #d9d9d9 #d9d9d9 #606060 0 0;
#X obj 70 208 vsl 8 2 0 127 0 0 drum7-9_s drum7-9_r x 3 3 0 4 #d9d9d9 #d9d9d9 #606060 0 0;
#X obj 70 208 vsl 8 2 0 127 0 0 drum7-10_s drum7-10_r x 3 3 0 4 #d9d9d9 #d9d9d9 #606060 0 0;
#X obj 70 208 vsl 8 2 1 0 0 1 drum7_scroll_s drum7_scroll_r empty 0 -9 0 10 #dcdcdc #dfdfdf #000000 0 0;
#X obj 70 208 cnv 9 1 1 empty drum7_scrollIndicator empty 20 12 0 14 #bbbbbb #404040 0;
#X obj 5 208 vsl 75 12 0 127 0 0 drum7_s drum7_r drum7 3 4 0 9 #ffffff #fcfcfc #000000 0 0;
#X obj 70 177 vsl 8 2 0 127 0 0 drum6-1_s drum6-1_r x 3 3 0 4 #d9d9d9 #d9d9d9 #606060 0 0;
#X obj 70 177 vsl 8 2 0 127 0 0 drum6-2_s drum6-2_r x 3 3 0 4 #d9d9d9 #d9d9d9 #606060 0 0;
#X obj 70 177 vsl 8 2 0 127 0 0 drum6-3_s drum6-3_r x 3 3 0 4 #d9d9d9 #d9d9d9 #606060 0 0;
#X obj 70 177 vsl 8 2 0 127 0 0 drum6-4_s drum6-4_r x 3 3 0 4 #d9d9d9 #d9d9d9 #606060 0 0;
#X obj 70 177 vsl 8 2 0 127 0 0 drum6-5_s drum6-5_r x 3 3 0 4 #d9d9d9 #d9d9d9 #606060 0 0;
#X obj 70 177 vsl 8 2 0 127 0 0 drum6-6_s drum6-6_r x 3 3 0 4 #d9d9d9 #d9d9d9 #606060 0 0;
#X obj 70 177 vsl 8 2 0 127 0 0 drum6-7_s drum6-7_r x 3 3 0 4 #d9d9d9 #d9d9d9 #606060 0 0;
#X obj 70 177 vsl 8 2 0 127 0 0 drum6-8_s drum6-8_r x 3 3 0 4 #d9d9d9 #d9d9d9 #606060 0 0;
#X obj 70 177 vsl 8 2 0 127 0 0 drum6-9_s drum6-9_r x 3 3 0 4 #d9d9d9 #d9d9d9 #606060 0 0;
#X obj 70 177 vsl 8 2 0 127 0 0 drum6-10_s drum6-10_r x 3 3 0 4 #d9d9d9 #d9d9d9 #606060 0 0;
#X obj 70 177 vsl 8 2 1 0 0 1 drum6_scroll_s drum6_scroll_r empty 0 -9 0 10 #dcdcdc #dfdfdf #000000 0 0;
#X obj 70 177 cnv 9 1 1 empty drum6_scrollIndicator empty 20 12 0 14 #bbbbbb #404040 0;
#X obj 5 177 vsl 75 12 0 127 0 0 drum6_s drum6_r drum6 3 4 0 9 #ffffff #fcfcfc #000000 0 0;
#X obj 70 146 vsl 8 2 0 127 0 0 drum5-1_s drum5-1_r x 3 3 0 4 #d9d9d9 #d9d9d9 #606060 0 0;
#X obj 70 146 vsl 8 2 0 127 0 0 drum5-2_s drum5-2_r x 3 3 0 4 #d9d9d9 #d9d9d9 #606060 0 0;
#X obj 70 146 vsl 8 2 0 127 0 0 drum5-3_s drum5-3_r x 3 3 0 4 #d9d9d9 #d9d9d9 #606060 0 0;
#X obj 70 146 vsl 8 2 0 127 0 0 drum5-4_s drum5-4_r x 3 3 0 4 #d9d9d9 #d9d9d9 #606060 0 0;
#X obj 70 146 vsl 8 2 0 127 0 0 drum5-5_s drum5-5_r x 3 3 0 4 #d9d9d9 #d9d9d9 #606060 0 0;
#X obj 70 146 vsl 8 2 0 127 0 0 drum5-6_s drum5-6_r x 3 3 0 4 #d9d9d9 #d9d9d9 #606060 0 0;
#X obj 70 146 vsl 8 2 0 127 0 0 drum5-7_s drum5-7_r x 3 3 0 4 #d9d9d9 #d9d9d9 #606060 0 0;
#X obj 70 146 vsl 8 2 0 127 0 0 drum5-8_s drum5-8_r x 3 3 0 4 #d9d9d9 #d9d9d9 #606060 0 0;
#X obj 70 146 vsl 8 2 0 127 0 0 drum5-9_s drum5-9_r x 3 3 0 4 #d9d9d9 #d9d9d9 #606060 0 0;
#X obj 70 146 vsl 8 2 0 127 0 0 drum5-10_s drum5-10_r x 3 3 0 4 #d9d9d9 #d9d9d9 #606060 0 0;
#X obj 70 146 vsl 8 2 1 0 0 1 drum5_scroll_s drum5_scroll_r empty 0 -9 0 10 #dcdcdc #dfdfdf #000000 0 0;
#X obj 70 146 cnv 9 1 1 empty drum5_scrollIndicator empty 20 12 0 14 #bbbbbb #404040 0;
#X obj 5 146 vsl 75 12 0 127 0 0 drum5_s drum5_r drum5 3 4 0 9 #ffffff #fcfcfc #000000 0 0;
#X obj 70 115 vsl 8 2 0 127 0 0 drum4-1_s drum4-1_r x 3 3 0 4 #d9d9d9 #d9d9d9 #606060 0 0;
#X obj 70 115 vsl 8 2 0 127 0 0 drum4-2_s drum4-2_r x 3 3 0 4 #d9d9d9 #d9d9d9 #606060 0 0;
#X obj 70 115 vsl 8 2 0 127 0 0 drum4-3_s drum4-3_r x 3 3 0 4 #d9d9d9 #d9d9d9 #606060 0 0;
#X obj 70 115 vsl 8 2 0 127 0 0 drum4-4_s drum4-4_r x 3 3 0 4 #d9d9d9 #d9d9d9 #606060 0 0;
#X obj 70 115 vsl 8 2 0 127 0 0 drum4-5_s drum4-5_r x 3 3 0 4 #d9d9d9 #d9d9d9 #606060 0 0;
#X obj 70 115 vsl 8 2 0 127 0 0 drum4-6_s drum4-6_r x 3 3 0 4 #d9d9d9 #d9d9d9 #606060 0 0;
#X obj 70 115 vsl 8 2 0 127 0 0 drum4-7_s drum4-7_r x 3 3 0 4 #d9d9d9 #d9d9d9 #606060 0 0;
#X obj 70 115 vsl 8 2 0 127 0 0 drum4-8_s drum4-8_r x 3 3 0 4 #d9d9d9 #d9d9d9 #606060 0 0;
#X obj 70 115 vsl 8 2 0 127 0 0 drum4-9_s drum4-9_r x 3 3 0 4 #d9d9d9 #d9d9d9 #606060 0 0;
#X obj 70 115 vsl 8 2 0 127 0 0 drum4-10_s drum4-10_r x 3 3 0 4 #d9d9d9 #d9d9d9 #606060 0 0;
#X obj 70 115 vsl 8 2 1 0 0 1 drum4_scroll_s drum4_scroll_r empty 0 -9 0 10 #dcdcdc #dfdfdf #000000 0 0;
#X obj 70 115 cnv 9 1 1 empty drum4_scrollIndicator empty 20 12 0 14 #bbbbbb #404040 0;
#X obj 5 115 vsl 75 12 0 127 0 0 drum4_s drum4_r drum4 3 4 0 9 #ffffff #fcfcfc #000000 0 0;
#X obj 70 84 vsl 8 2 0 127 0 0 drum3-1_s drum3-1_r x 3 3 0 4 #d9d9d9 #d9d9d9 #606060 0 0;
#X obj 70 84 vsl 8 2 0 127 0 0 drum3-2_s drum3-2_r x 3 3 0 4 #d9d9d9 #d9d9d9 #606060 0 0;
#X obj 70 84 vsl 8 2 0 127 0 0 drum3-3_s drum3-3_r x 3 3 0 4 #d9d9d9 #d9d9d9 #606060 0 0;
#X obj 70 84 vsl 8 2 0 127 0 0 drum3-4_s drum3-4_r x 3 3 0 4 #d9d9d9 #d9d9d9 #606060 0 0;
#X obj 70 84 vsl 8 2 0 127 0 0 drum3-5_s drum3-5_r x 3 3 0 4 #d9d9d9 #d9d9d9 #606060 0 0;
#X obj 70 84 vsl 8 2 0 127 0 0 drum3-6_s drum3-6_r x 3 3 0 4 #d9d9d9 #d9d9d9 #606060 0 0;
#X obj 70 84 vsl 8 2 0 127 0 0 drum3-7_s drum3-7_r x 3 3 0 4 #d9d9d9 #d9d9d9 #606060 0 0;
#X obj 70 84 vsl 8 2 0 127 0 0 drum3-8_s drum3-8_r x 3 3 0 4 #d9d9d9 #d9d9d9 #606060 0 0;
#X obj 70 84 vsl 8 2 0 127 0 0 drum3-9_s drum3-9_r x 3 3 0 4 #d9d9d9 #d9d9d9 #606060 0 0;
#X obj 70 84 vsl 8 2 0 127 0 0 drum3-10_s drum3-10_r x 3 3 0 4 #d9d9d9 #d9d9d9 #606060 0 0;
#X obj 70 84 vsl 8 2 1 0 0 1 drum3_scroll_s drum3_scroll_r empty 0 -9 0 10 #dcdcdc #dfdfdf #000000 0 0;
#X obj 70 84 cnv 9 1 1 empty drum3_scrollIndicator empty 20 12 0 14 #bbbbbb #404040 0;
#X obj 5 84 vsl 75 12 0 127 0 0 drum3_s drum3_r drum3 3 4 0 9 #ffffff #fcfcfc #000000 0 0;
#X obj 70 53 vsl 8 2 0 127 0 0 drum2-1_s drum2-1_r x 3 3 0 4 #d9d9d9 #d9d9d9 #606060 0 0;
#X obj 70 53 vsl 8 2 0 127 0 0 drum2-2_s drum2-2_r x 3 3 0 4 #d9d9d9 #d9d9d9 #606060 0 0;
#X obj 70 53 vsl 8 2 0 127 0 0 drum2-3_s drum2-3_r x 3 3 0 4 #d9d9d9 #d9d9d9 #606060 0 0;
#X obj 70 53 vsl 8 2 0 127 0 0 drum2-4_s drum2-4_r x 3 3 0 4 #d9d9d9 #d9d9d9 #606060 0 0;
#X obj 70 53 vsl 8 2 0 127 0 0 drum2-5_s drum2-5_r x 3 3 0 4 #d9d9d9 #d9d9d9 #606060 0 0;
#X obj 70 53 vsl 8 2 0 127 0 0 drum2-6_s drum2-6_r x 3 3 0 4 #d9d9d9 #d9d9d9 #606060 0 0;
#X obj 70 53 vsl 8 2 0 127 0 0 drum2-7_s drum2-7_r x 3 3 0 4 #d9d9d9 #d9d9d9 #606060 0 0;
#X obj 70 53 vsl 8 2 0 127 0 0 drum2-8_s drum2-8_r x 3 3 0 4 #d9d9d9 #d9d9d9 #606060 0 0;
#X obj 70 53 vsl 8 2 0 127 0 0 drum2-9_s drum2-9_r x 3 3 0 4 #d9d9d9 #d9d9d9 #606060 0 0;
#X obj 70 53 vsl 8 2 0 127 0 0 drum2-10_s drum2-10_r x 3 3 0 4 #d9d9d9 #d9d9d9 #606060 0 0;
#X obj 70 53 vsl 8 2 1 0 0 1 drum2_scroll_s drum2_scroll_r empty 0 -9 0 10 #dcdcdc #dfdfdf #000000 0 0;
#X obj 70 53 cnv 9 1 1 empty drum2_scrollIndicator empty 20 12 0 14 #bbbbbb #404040 0;
#X obj 5 53 vsl 75 12 0 127 0 0 drum2_s drum2_r drum2 3 4 0 9 #ffffff #fcfcfc #000000 0 0;
#X obj 70 22 vsl 8 2 0 127 0 0 drum1-1_s drum1-1_r x 3 3 0 4 #d9d9d9 #d9d9d9 #606060 0 0;
#X obj 70 22 vsl 8 2 0 127 0 0 drum1-2_s drum1-2_r x 3 3 0 4 #d9d9d9 #d9d9d9 #606060 0 0;
#X obj 70 22 vsl 8 2 0 127 0 0 drum1-3_s drum1-3_r x 3 3 0 4 #d9d9d9 #d9d9d9 #606060 0 0;
#X obj 70 22 vsl 8 2 0 127 0 0 drum1-4_s drum1-4_r x 3 3 0 4 #d9d9d9 #d9d9d9 #606060 0 0;
#X obj 70 22 vsl 8 2 0 127 0 0 drum1-5_s drum1-5_r x 3 3 0 4 #d9d9d9 #d9d9d9 #606060 0 0;
#X obj 70 22 vsl 8 2 0 127 0 0 drum1-6_s drum1-6_r x 3 3 0 4 #d9d9d9 #d9d9d9 #606060 0 0;
#X obj 70 22 vsl 8 2 0 127 0 0 drum1-7_s drum1-7_r x 3 3 0 4 #d9d9d9 #d9d9d9 #606060 0 0;
#X obj 70 22 vsl 8 2 0 127 0 0 drum1-8_s drum1-8_r x 3 3 0 4 #d9d9d9 #d9d9d9 #606060 0 0;
#X obj 70 22 vsl 8 2 0 127 0 0 drum1-9_s drum1-9_r x 3 3 0 4 #d9d9d9 #d9d9d9 #606060 0 0;
#X obj 70 22 vsl 8 2 0 127 0 0 drum1-10_s drum1-10_r x 3 3 0 4 #d9d9d9 #d9d9d9 #606060 0 0;
#X obj 70 22 vsl 8 2 1 0 0 1 drum1_scroll_s drum1_scroll_r empty 0 -9 0 10 #dcdcdc #dfdfdf #000000 0 0;
#X obj 70 22 cnv 9 1 1 empty drum1_scrollIndicator empty 20 12 0 14 #bbbbbb #404040 0;
#X obj 5 22 vsl 75 12 0 127 0 0 drum1_s drum1_r drum1 3 4 0 9 #ffffff #fcfcfc #000000 0 0;
#X obj 296 232 knob 48 0 100 0 0 empty \$0-randRead_sl # #696969 #4D4D4D 0 0 0 0 1 270 0 0 0;
#N canvas 0 22 450 300 randread 0;
#X obj 130 93 inlet;
#X obj 232 113 i;
#X obj 232 139 pack f \$0;
#X msg 232 165 \; \$2-randread label randRead:\$1;
#X obj 130 119 outlet;
#X connect 0 0 1 0;
#X connect 0 0 4 0;
#X connect 1 0 2 0;
#X connect 2 0 3 0;
#X restore 276 281 pd randread;
#X obj 943 37 loadbang;
#X msg 943 63 pluginmode;
#X obj 943 89 s pd;
#X obj 369 717 pack f \$0;
#X msg 369 743 \; \$2-randRead_sl \$1;
#X text 713 484 PresetName \, RUN \, speed \, randRead \, drumSounds;
#X msg 613 513 add2 \$1 \$2 \$3 \$4 \$5;
#X obj 613 487 pack s f f f s;
#X obj 953 438 list split 5;
#X msg 952 527 add2 \$1 \$2 \$3 \$4 \$5;
#X obj 1023 734 list split 5;
#X obj 1011 947 list split 5;
#X obj 613 724 list split 5;
#X obj 327 689 unpack f f f s;
#X obj 392 801 s \$0-drumSelections;
#N canvas 0 22 450 300 rec 0;
#X obj 406 81 inlet;
#X obj 334 53 inlet;
#X obj 334 106 spigot;
#X obj 34 23 notein;
#X obj 34 241 route 1 2 3 4 5 6 7 8 9 10;
#X obj 53 183 % 12;
#X obj 34 215 pack f f f;
#X obj 305 380 % 16;
#X obj 322 350 r \$0-grid-length;
#X obj 305 298 quantizer 1;
#X obj 459 287 r \$0-readSpeed;
#X obj 459 313 + 1;
#X obj 459 339 sel 3;
#X msg 459 365 4;
#X obj 334 256 * 1;
#X obj 34 103 spigot;
#X obj 305 324 change;
#X obj 34 267 recNote;
#X obj 44 297 recNote;
#X obj 124 277 recNote;
#X obj 54 327 recNote;
#X obj 134 307 recNote;
#X obj 64 357 recNote;
#X obj 144 337 recNote;
#X obj 74 387 recNote;
#X obj 154 367 recNote;
#X obj 164 397 recNote;
#X obj 34 561 outlet;
#X obj 48 148 + 6;
#X obj 167 211 s \$0-recTgl;
#X obj 167 183 doubleclick;
#X obj 280 206 s \$0-clear;
#X obj 305 406 t f f;
#X obj 316 432 sel 0;
#X msg 316 458 stop;
#X obj 34 69 poly 10;
#X text -96 149 notein offset to adjust;
#X obj 169 49 ctlin 5;
#X connect 0 0 2 1 32.................C.....8++++.....P++++a.....;
#X connect 0 0 15 1 32.................B....Pp+++u.....j5+++O.....;
#X connect 1 0 2 0 32.................Q.........PD.........HB....;
#X connect 2 0 14 0 32.................BA........fP.........LH....;
#X connect 3 0 35 0 32.................N.........fC.........rA....;
#X connect 3 1 35 1 32.................N....7....fC....O....rA....;
#X connect 4 0 17 0 32.................D..........A.........b.....;
#X connect 4 1 18 0 32.................S....n+++++D....5++++WB....;
#X connect 4 2 20 0 32.................h....L++++uH....y++++OD....;
#X connect 4 3 22 0 32.................w....v9+++eL....r++++GF....;
#X connect 4 4 24 0 32..................A...P9+++OP....j+++++G....;
#X connect 4 5 19 0 32.................I....P....PB....D....DA....;
#X connect 4 6 21 0 32.................X....3++++OF....9+++++B....;
#X connect 4 7 23 0 32.................m....X+++++I....1++++2D....;
#X connect 4 8 25 0 32.................1....79+++uM....u++++uF....;
#X connect 4 9 26 0 32.................EA...f9+++eQ....n++++mH....;
#X connect 5 0 6 1 32.................G.........vA.........z.....;
#X connect 6 0 4 0 32.................D..........A.........b.....;
#X connect 7 0 32 0 32.................D..........A.........b.....;
#X connect 8 0 7 1 32.................F....7++++uA....+++++u.....;
#X connect 9 0 16 0 32.................D..........A.........b.....;
#X connect 10 0 11 0 32.................D..........A.........b.....;
#X connect 11 0 12 0 32.................D..........A.........b.....;
#X connect 12 0 13 0 32.................D....7++++OA....+++++e.....;
#X connect 12 1 14 1 48......................X8+++O.....V++++u4+++ef++++a9+++G3++++l++++;
#X connect 13 0 14 1 64......................D9+++O.....g++++q7+++ez++++J++++G8+++ef++++Q9+++G3+++ej++++A9+++C;
#X connect 14 0 9 0 32.................L....P9+++OC....j++++eA....;
#X connect 15 0 6 0 32.................u.........vK.........zE....;
#X connect 16 0 7 0 32.................S.........vD.........TB....;
#X connect 17 0 27 0 32.................JB........fh.........LQ....;
#X connect 18 0 27 0 32.................6A...b+++++d....2++++WO....;
#X connect 19 0 27 0 48.................LA...P6+++OS....z9+++KG...vo++++xA...b5+++eBA...;
#X connect 20 0 27 0 32.................rA...z9+++Oa....s++++eM....;
#X connect 21 0 27 0 32.................kA...z4+++eY....c9+++uN....;
#X connect 22 0 27 0 32.................cA...L9+++eW....i++++mK....;
#X connect 23 0 27 0 32.................MA...L4+++eS....S9+++2L....;
#X connect 24 0 27 0 32.................NA...j8+++uS....Y++++uI....;
#X connect 25 0 27 0 32.................BA...j3+++uP....I9++++J....;
#X connect 26 0 27 0 32.................1....72+++uM....+8+++GI....;
#X connect 28 0 5 0 32.................H....T.....B....E.....A....;
#X connect 30 0 29 0 32.................E.........PA.........j.....;
#X connect 30 1 31 0 32.................A....XE...P.....VA...P.....;
#X connect 32 0 17 1 64......................z6+++O.....89+++26++++l++++89+++u4++++X++++S7+++O1++++D++++i8+++C;
#X connect 32 0 19 1 48......................j7+++O.....I++++21+++ea++++s8+++21+++ea++++;
#X connect 32 0 18 1 48......................73+++O.....O9+++G3+++eG++++A9+++2w+++ef++++;
#X connect 32 0 20 1 48......................P4+++O.....T9++++4++++I++++e9+++ex++++m++++;
#X connect 32 0 22 1 48......................j4+++O.....Y9+++26+++eL++++89+++Gy+++eu++++;
#X connect 32 0 24 1 48......................v0+++O.....b8+++G9++++N++++g++++uy++++1++++;
#X connect 32 0 21 1 48......................z7+++O.....M++++u3++++c++++K9+++e2++++h++++;
#X connect 32 0 23 1 48......................n7+++O.....J++++m5+++ef++++o9+++G3+++ep++++;
#X connect 32 0 25 1 48......................X7+++O.....F++++e7++++h++++G++++u3++++w++++;
#X connect 32 0 26 1 48......................r7+++O.....K++++W9+++ek++++k++++W4+++e4++++;
#X connect 32 1 33 0 32.................D..........A.........b.....;
#X connect 33 0 34 0 32.................D..........A.........b.....;
#X connect 34 0 35 0 64......................b4+++O.....W9+++Wy+++eK++++07+++2x+++eZ9+++m6+++ml++++49+++o4+++C;
#X connect 35 0 15 0 32.................H..........B.........7.....;
#X connect 35 1 28 0 32.................d.........fG.........vC....;
#X connect 35 2 6 2 32..................A...n.....P....J....7G....;
#X connect 37 0 30 0;
#X restore 602 295 pd rec;
#X obj 943 137 declare -path scaleProvider;
#X obj 602 321 prepend set;
#X obj 50 -135 r \$0-clear;
#X msg 50 -109 clear;
#X msg 613 573;
#X connect 0 0 160 1 32.................9....bA...fO....W....vG....;
#X connect 1 0 21 0 32.................UA...3++++eU....9++++mJ....;
#X connect 3 0 1 0 48.................K9+++67++++h++++N++++er+++ed++++G6+++m2++++w9+++;
#X connect 3 0 51 0 32.................D..........A.........b.....;
#X connect 3 1 160 0 48......................LK.........yB...r9+++uZA...q++++qV...v5++++;
#X connect 4 0 5 0 32.................W.........vE.........3B....;
#X connect 4 0 152 2 32.................cA...zL...PW....MC...fM....;
#X connect 5 0 4 0 48......................................D5+++O.....g9+++C....Pn++++;
#X connect 6 0 48 0 32.................R.........fD.........PB....;
#X connect 6 0 3 0 32.................N....jD...fC....IA...rA....;
#X connect 6 0 152 1 64......................PT.........DE...PB...PkA...j....TY....R....lG...fD...f4A...XC....;
#X connect 9 0 165 0 32.................G.........vA.........z.....;
#X connect 9 1 165 0 32.................G....T+++++A....0++++2.....;
#X connect 10 0 43 0 32.................D..........A.........b.....;
#X connect 11 1 12 0 48......................PA.........T....H8+++OJ....R++++iB...fz++++;
#X connect 12 0 153 0 48......................77+++O.....O+++++9+++em++++u++++24++++6++++;
#X connect 13 0 158 0 32.................T..........E.........fB....;
#X connect 14 0 165 0 32.................D....rT....A....KE...f.....;
#X connect 14 1 13 1 32.................g....DF...PH....gA...DD....;
#X connect 15 0 165 0 32.................L....Pz+++OC....D8+++OB....;
#X connect 16 0 153 0 32.................K.........vB.........TA....;
#X connect 16 1 15 0 48......................H8+++O.....R++++yB...fW++++r....30+++uY....;
#X connect 17 0 14 0 32.................J....nD...fB....JA...3A....;
#X connect 18 1 19 0 48......................PA.........T....H8+++OJ....R++++iB...fz++++;
#X connect 19 0 157 0 48......................77+++O.....O+++++9+++em++++u++++24++++6++++;
#X connect 20 0 13 0 64......................75+++O.....u9+++S6+++ug++++z9+++a3+++uS++++i6+++6z++++39+++N8+++C;
#X connect 21 0 45 0 32.................o.........PJ.........HE....;
#X connect 21 1 8 0 32.................L..........C.........fA....;
#X connect 21 2 17 0 32.................a.........vF.........XC....;
#X connect 21 3 35 0 32.................G....D....vA....A....z.....;
#X connect 21 4 40 0 32.................T....To....E....UJ...LJ....;
#X connect 21 5 36 0 48......................Xt.........lK........fdC........n2.........;
#X connect 22 0 157 0 32.................F.........fA.........r.....;
#X connect 22 1 155 0 48.................D....3G....A....9A...b....fdA...G....nW...PE....;
#X connect 23 1 24 0 48......................PA.........T....H8+++OJ....R++++iB...fz++++;
#X connect 24 0 155 0 48......................77+++O.....O+++++9+++em++++u++++24++++6++++;
#X connect 25 0 22 0 32.................G.....A...vA....P....3.....;
#X connect 26 0 22 0 32.................G....PC...vA....z....3.....;
#X connect 27 0 22 0 48......................js+++O.....Y6+++e++++ur8+++2++++Ka++++8++++;
#X connect 28 0 29 0 48......................jA.........Y....v9+++uL....r++++KC....6++++;
#X connect 28 0 30 1 32.................F....b7+++uA....G++++u.....;
#X connect 29 0 28 1 48......................z9+++O.....s++++C++++u1++++v++++q8+++O7++++;
#X connect 30 0 156 0 32.................N....n++++uC....5++++yA....;
#X connect 31 0 156 0 48......................H9+++O.....h++++y9+++Oo++++r++++S5+++O6++++;
#X connect 32 1 31 0 48......................DA.........Q....P8+++eH....T++++GB....0++++;
#X connect 32 1 42 0 32.................J....r4+++uB....a9+++2A....;
#X connect 33 0 26 0 48.................c....Do+++eG....Q5+++qC...fH8+++5....HR+++eq....;
#X connect 33 1 152 0 32......................bT+++O.....G0+++C.....;
#X connect 33 2 25 0 48.................V....ji+++uE....43+++GD...vI8+++AA...bR+++eq....;
#X connect 33 3 38 0 32.................0....rp+++eM....q5++++I....;
#X connect 34 0 152 0 48......................vF.........rA...L++++OQA...y++++ST...v7++++;
#X connect 35 0 26 0 48.................0....jB...PM....o.....E...fGA...PA...3Q...ft....;
#X connect 35 1 34 0 32.................D..........A.........b.....;
#X connect 35 2 25 0 32.................9....TR...fO....kD...nK....;
#X connect 36 0 33 0 32.................D..........A.........f.....;
#X connect 37 1 28 0 32.................P..........D.........7A....;
#X connect 38 0 165 0 48......................71+++O.....u8+++S5+++ee9+++j9+++2m+++Oo++++;
#X connect 38 0 26 0 48......................31+++O.....t8+++y++++eR9+++7++++mj+++O+++++;
#X connect 38 1 30 0 32.................0A...D....Pc....A....nN....;
#X connect 38 2 15 0 32.................t8+++mw+++ua++++Y7+++61+++O;
#X connect 38 3 165 0 48......................71+++O.....u8+++S5+++OS9+++j9+++yj+++Oo++++;
#X connect 38 4 37 1 32.................MA...PA...PS....T....nI....;
#X connect 38 5 27 0 32.................J....fG...fB....3A...LA....;
#X connect 38 5 28 1 32.................lA...3....fY....N....vL....;
#X connect 39 0 37 0 32.................E.........PA.........n.....;
#X connect 40 0 38 0 32.................K.........vB.........XA....;
#X connect 41 0 42 0 32.................N.........fC.........rA....;
#X connect 41 1 154 0 48......................n9+++O.....p++++yh+++O0++++r3+++S8+++OK9+++;
#X connect 42 0 10 0 48......................nA.........Z....rT+++OM....K0+++SC...vR8+++;
#X connect 42 0 44 0 32.................V....rE...fE....aA...vB....;
#X connect 43 1 16 0 32.................B....D5+++u.....g9+++W.....;
#X connect 45 0 7 0 32.................D..........A.........b.....;
#X connect 45 1 152 4 64......................LK.........yB...P9+++eCA...j++++2P....x++++YH...f7+++eFB...H++++C;
#X connect 48 0 49 0 32.................D..........A.........b.....;
#X connect 49 0 47 0 32.................D....nD....A....JA...v.....;
#X connect 51 0 47 0 32.................K.........vB.........TA....;
#X connect 143 0 144 0 32.................A....z9+++e.....s++++G.....;
#X connect 144 0 3 1 48......................79+++O.....u+++++++++e2+++++++++28+++++++++;
#X connect 144 0 152 3 32.................FA...HX...fQ....BF...rK....;
#X connect 145 0 146 0 32.................D..........A.........b.....;
#X connect 146 0 147 0 32.................D..........A.........b.....;
#X connect 148 0 149 0 32.................D..........A.........b.....;
#X connect 151 0 9 0 32.................E.........PA.........j.....;
#X connect 152 0 151 0 32.................D..........A.........b.....;
#X connect 153 0 151 0 32.................b....zp+++OG....s5+++iC....;
#X connect 153 1 11 0 32.................D....r.....A....K....f.....;
#X connect 154 0 165 0 32.................I....3p+++eB....t5+++uA....;
#X connect 155 0 39 0 32.................S.........vD.........XB....;
#X connect 155 1 23 0 32.................D....r.....A....K....f.....;
#X connect 156 0 41 0 32.................F....b8+++uA....W++++u.....;
#X connect 156 1 32 0 32.................E....r....PA....K....j.....;
#X connect 156 2 42 0 48......................b8+++O.....W++++OA...Pq++++S....z5+++eN....;
#X connect 157 0 20 0 32.................X..........F.........7B....;
#X connect 157 1 18 0 32.................D....r.....A....K....f.....;
#X connect 158 0 6 0 48......................T5+++O.....k9+++2h+++eR++++s3+++mz+++eK9+++;
#X connect 158 1 4 0 48......................jC.........4....zh+++uU....s3+++aE...PK9+++;
#X connect 158 2 148 0 32.................E....j....PA....I....j.....;
#X connect 158 3 159 0;
#X connect 160 0 162 0;
#X connect 162 0 1 0 48.................C9+++2y++++f++++87+++Cq++++88+++v5+++ee+++Or9+++;
#X connect 163 0 164 0;
#X connect 164 0 1 0;
#X connect 165 0 22 1 32.................y.....B...vL....f....XF....;
#X connect 165 0 10 0 48.................G9+++mI...vg++++YB...zv+++OlA...M7+++iY...PC++++;
#X coords 0 0 1 1 796 282 1 0 0;
