#N struct 1134-symarray float x array symbols 1134-sym;
#N struct 1134-sym symbol name float on;
#N struct 1135-symarray float x array symbols 1135-sym;
#N struct 1135-sym symbol name float on;
#N struct 1136-symarray float x array symbols 1136-sym;
#N struct 1136-sym symbol name float on;
#N struct 1137-symarray float x array symbols 1137-sym;
#N struct 1137-sym symbol name float on;
#N struct 1138-symarray float x array symbols 1138-sym;
#N struct 1138-sym symbol name float on;
#N struct 1139-symarray float x array symbols 1139-sym;
#N struct 1139-sym symbol name float on;
#N struct 1140-symarray float x array symbols 1140-sym;
#N struct 1140-sym symbol name float on;
#N struct 1174-symarray float x array symbols 1174-sym;
#N struct 1174-sym symbol name float on;
#N struct 1179-symarray float x array symbols 1179-sym;
#N struct 1179-sym symbol name float on;
#N struct 1238-symarray float x array symbols 1238-sym;
#N struct 1238-sym symbol name float on;
#N canvas 637 216 811 297 12;
#X declare -path scaleProvider;
#X declare -path scaleProvider;
#X declare -path scaleProvider/list-abs;
#X declare -path scaleProvider/rc/rc;
#X declare -path scaleProvider/rjlib/rj;
#X declare -path scaleProvider/abs;
#X obj 2 241 cnv 15 794 41 empty \$0-randread randRead:0 217 25 0 14 #f1f1f1 #4d4d4d 0;
#N canvas 0 22 450 300 run 0;
#X obj 597 258 inlet;
#X obj 295 160 playhead;
#X obj 444 190 unpack f f f;
#X obj 444 295 spigot;
#X obj 443 347 i;
#X obj 568 352 r \$0-readSpeed;
#X obj 568 378 + 1;
#X obj 568 404 sel 3;
#X msg 568 430 4;
#X obj 443 430 change;
#X obj 505 456 r \$0-grid-length;
#X obj 443 722 outlet;
#X obj 443 321 * 1;
#X obj 302 333 change;
#X obj 302 462 f;
#X obj 302 359 expr 60000 / $f1;
#X obj 302 514 s \$0-grid-ms;
#X obj 443 456 + 1;
#X obj 302 488 / 4;
#X obj 302 385 t b f;
#X obj 189 359 sel 1;
#X obj 189 312 change;
#X msg 189 396 set -1;
#X obj 546 507 prepend set;
#X msg 443 567 16;
#X obj 443 482 % 16;
#X obj 443 508 sel 0;
#X obj 443 593 t f b;
#X obj 532 613 random 100;
#X obj 532 639 moses 0;
#X msg 573 662 1;
#X obj 532 665 t b;
#X obj 532 691 random 16;
#X obj 532 717 + 1;
#X msg 604 655 0;
#X obj 658 616 inlet randread;
#X obj 443 649 spigot 1;
#X obj 658 296 outlet;
#X obj 355 436 t b f;
#X obj 776 436 outlet speedDiv;
#X obj 71 348 outlet playing;
#X connect 0 0 3 1 32.................I....72+++eB....+8+++KA....;
#X connect 1 0 21 0 32.................a....b4++++F....W9+++WC....;
#X connect 1 5 13 0 32.................Y....L6+++eF....y9+++qD....;
#X connect 1 8 2 0 32.................F....v....fA....L....r.....;
#X connect 2 0 37 0 32.................D....XM....A....VC...b.....;
#X connect 2 0 3 0;
#X connect 3 0 12 0 32.................D..........A.........b.....;
#X connect 4 0 9 0 32.................f..........H..........D....;
#X connect 5 0 6 0 32.................D..........A.........b.....;
#X connect 6 0 7 0 32.................D..........A.........b.....;
#X connect 7 0 8 0 32.................D....7++++OA....+++++e.....;
#X connect 7 1 12 1 48......................X8+++O.....V++++u4+++ef++++a9+++G3++++l++++;
#X connect 7 1 38 0 32.................G....3w++++A....d7+++2.....;
#X connect 7 1 39 0;
#X connect 8 0 12 1 48......................D8+++O.....Q++++G3+++ej++++A9+++G4+++ef++++;
#X connect 8 0 38 0 48......................b4+++O.....W9+++S++++uK++++z++++6x+++O8++++;
#X connect 8 0 39 0;
#X connect 9 0 17 0 32.................D..........A.........b.....;
#X connect 10 0 23 0 32.................P....jB....D....o.....B....;
#X connect 10 0 25 1 32.................D....H8+++OA....R++++e.....;
#X connect 10 0 32 1 32.................HA...nD....R....JA...fM....;
#X connect 12 0 4 0 32.................D..........A.........b.....;
#X connect 13 0 15 0 32.................D..........A.........b.....;
#X connect 14 0 18 0 32.................D..........A.........b.....;
#X connect 15 0 19 0 32.................D..........A.........b.....;
#X connect 17 0 25 0 32.................D..........A.........b.....;
#X connect 18 0 16 0 32.................D..........A.........b.....;
#X connect 19 0 14 0 32.................c.........PG.........nC....;
#X connect 19 1 14 1 32.................c.........PG.........nC....;
#X connect 20 0 22 0 32.................I.........PB.........HA....;
#X connect 21 0 20 0 32.................N.........fC.........vA....;
#X connect 21 0 40 0;
#X connect 22 0 9 0 32.................E....3O...PA....9C...7.....;
#X connect 23 0 24 0 32.................N....f4+++uC....X9+++mB....;
#X connect 24 0 27 0;
#X connect 25 0 26 0 32.................D..........A.........b.....;
#X connect 26 0 24 0 32.................T....7++++OE....+++++iB....;
#X connect 26 1 27 0 32.................g....H++++eH....x++++KD....;
#X connect 27 0 36 0 32.................S.........vD.........TB....;
#X connect 27 1 28 0 32......................3D.........NA...D.....;
#X connect 28 0 29 0 32.................D..........A.........b.....;
#X connect 29 0 31 0 32.................D..........A.........b.....;
#X connect 29 1 30 0;
#X connect 30 0 36 1 48......................z7+++O.....M++++G9+++el++++g++++m4+++e3++++;
#X connect 31 0 34 0 48......................LB.........i....P9+++uQ....j++++aD....4++++;
#X connect 31 0 32 0 32.................D..........A.........b.....;
#X connect 32 0 33 0 32.................D..........A.........b.....;
#X connect 33 0 11 0 48......................L9+++O.....i++++29+++Op++++s++++i5++++7++++;
#X connect 34 0 36 1 48......................z6+++O.....89+++i9+++ed++++n++++m2+++O5++++;
#X connect 35 0 29 1 32.................A....b5+++e.....m9+++S.....;
#X connect 36 0 11 0 32.................G.........vA.........3.....;
#X connect 38 0 14 0 32.................D....v7+++OA....L++++e.....;
#X connect 38 1 18 1 32.................Q....n7+++eD....J++++GB....;
#X restore 216 298 pd run;
#X obj 440 240 hradio 31 1 1 3 empty empty speed:16th -70 25 0 14 #3c3c3c #eeeeee #555555 2;
#N canvas 0 22 450 300 readspeed 0;
#X obj 289 115 inlet;
#X obj 289 141 sel 0 1 2;
#X obj 285 270 outlet;
#X obj 464 152 s \$0-readSpeed;
#X msg 289 167 label speed:4th;
#X msg 305 195 label speed:8th;
#X msg 322 224 label speed:16th;
#X connect 0 0 1 0;
#X connect 0 0 3 0 32.................I....7J...PB....uB...HA....;
#X connect 1 0 4 0;
#X connect 1 1 5 0;
#X connect 1 2 6 0;
#X connect 4 0 2 0;
#X connect 5 0 2 0;
#X connect 6 0 2 0;
#X restore 440 317 pd readspeed;
#X obj 143 240 tgl 31 1 empty empty RUN -57 21 0 28 #333333 #eeeeee #3d3d3d 1 1;
#N canvas 0 22 450 300 noteout 0;
#X obj 116 47 inlet;
#X msg 116 88 \$1 102 \$2;
#X obj 280 187 r \$0-midiOut;
#X obj 115 220 noteout;
#X obj 116 155 pack;
#X msg 237 77 clear;
#X obj 116 123 makenote 102 500;
#X obj 416 74 inlet direct;
#X connect 0 0 1 0 32.................K.........vB.........XA....;
#X connect 1 0 6 0 32.................H..........B..........A....;
#X connect 2 0 3 2 32.................E....r2+++eA....68+++6.....;
#X connect 4 0 3 0;
#X connect 5 0 6 0 32.................N....f3+++uC....H9+++uA....;
#X connect 6 0 4 0 32.................M.........PC.........jA....;
#X connect 6 1 4 1 32.................G....D6++++A....w9+++2.....;
#X connect 7 0 3 0 32.................bA...Ps+++OW....T6++++G....;
#X restore 77 551 pd noteout;
#X obj 142 467 s \$0-grid-length;
#X obj 613 541 t b a;
#X obj 1021 348 daw_storage \$0-presets;
#X obj 985 465 route 0;
#X obj 1053 437 list;
#X obj 327 630 route dummy;
#X obj 282 546 t b s;
#X msg 802 519 set;
#X obj 953 398 t a b;
#X obj 208 497 symbol;
#X obj 645 751 route 0;
#X obj 713 723 list;
#X obj 613 790 list trim;
#X obj 77 373 route symbol length callPreset writePreset deletePreset overwritePreset;
#X obj 613 694 gate 2 1;
#X obj 1055 761 route 0;
#X obj 1123 733 list;
#X msg 599 661 0;
#X msg 564 661 1;
#X msg 1206 685 2;
#X obj 1087 870 list;
#X obj 1137 868 list;
#X obj 1018 900 list;
#X obj 1104 949 list;
#X obj 1043 975 route 0;
#X obj 1296 469 t b s b s;
#X obj 289 482 symbol;
#X obj 275 456 t b a b;
#X obj 1296 442 symbol;
#X obj 1023 820 route dummy;
#X obj 1001 647 t b b b b s b;
#X obj 1023 791 list trim;
#X obj 1001 606 symbol;
#X obj 969 977 route 0;
#X msg 971 1023 0;
#X obj 1021 374 route 0;
#X obj 1060 1086 print \$0-empty;
#N canvas 0 22 450 300 midiNtime 0;
#X obj 168 -10 inlet;
#X obj 167 535 outlet;
#X obj 168 95 u_symbol2list -;
#X obj 168 121 route list;
#X obj 168 147 unpack s s;
#X obj 168 174 u_symbol2float;
#X obj 573 177 u_symbol2float;
#X obj 573 246 *;
#X obj 634 220 r \$0-grid-ms;
#X obj 167 490 pack;
#X obj 168 16 u_symbol2list _;
#X obj 168 42 u_listdrip;
#X obj 573 272 i;
#N canvas 0 22 450 300 2midiNote 0;
#X obj -369 -50 inlet;
#X obj -400 418 outlet;
#X obj -362 -25 sel 1 2 3 4 5 6 7;
#X obj 1095 70 vanillaMenu \$0-drumSeq drum1 5 22 75 12 none kick rim snare clap hihat o_hihat ride bell tom1 tom2 tom3;
#X obj 1095 117 vanillaMenu \$0-drumSeq drum2 5 53 75 12 none kick rim snare clap hihat o_hihat ride bell tom1 tom2 tom3;
#X obj 1095 156 vanillaMenu \$0-drumSeq drum3 5 84 75 12 none kick rim snare clap hihat o_hihat ride bell tom1 tom2 tom3;
#X obj 1095 198 vanillaMenu \$0-drumSeq drum4 5 115 75 12 none kick rim snare clap hihat o_hihat ride bell tom1 tom2 tom3;
#X obj 1095 237 vanillaMenu \$0-drumSeq drum5 5 146 75 12 none kick rim snare clap hihat o_hihat ride bell tom1 tom2 tom3;
#X obj 1095 280 vanillaMenu \$0-drumSeq drum6 5 177 75 12 none kick rim snare clap hihat o_hihat ride bell tom1 tom2 tom3;
#X obj 1095 321 vanillaMenu \$0-drumSeq drum7 5 208 75 12 none kick rim snare clap hihat o_hihat ride bell tom1 tom2 tom3;
#X msg 549 438 36;
#X msg 580 458 37;
#X msg 619 488 38;
#X msg 650 508 39;
#X msg 685 419 42;
#X msg 715 439 46;
#X msg 755 469 49;
#X msg 785 489 51;
#X msg 813 425 45;
#X msg 853 455 43;
#X msg 883 475 41;
#X obj 199 322 f;
#X obj 229 272 f;
#X obj 259 222 f;
#X obj 289 172 f;
#X obj 319 122 f;
#X obj 349 63 f;
#X obj 379 22 f;
#X msg 574 55 0;
#X obj -369 42 f;
#X obj -359 72 f;
#X obj -339 112 f;
#X obj -329 142 f;
#X obj -309 182 f;
#X obj -289 222 f;
#X obj -279 252 f;
#X obj 964 73 t b a;
#X msg 994 98 \$2;
#X obj 574 29 route none kick rim snare clap hihat o_hihat ride bell tom1 tom2 tom3;
#X obj 934 103 t b a;
#X msg 964 128 \$2;
#X obj 1024 153 t b a;
#X msg 1054 178 \$2;
#X obj 994 203 t b a;
#X msg 1024 228 \$2;
#X obj 964 233 t b a;
#X msg 994 258 \$2;
#X obj 934 283 t b a;
#X msg 964 308 \$2;
#X obj 1004 333 t b a;
#X msg 1034 358 \$2;
#X obj -405 377 sel 0;
#X msg 204 494 \; drum\$1_r label drum\$1;
#X obj 204 411 sel 0;
#X obj 204 437 f;
#X obj 199 348 t f b;
#X obj 244 300 t f b;
#X obj 277 244 t f b;
#X obj 310 196 t f b;
#X obj 343 150 t f b;
#X obj 376 100 t f b;
#X obj 409 50 t f b;
#X msg 329 224 4;
#X obj 204 463 pipe 10;
#X msg 428 74 1;
#X msg 395 124 2;
#X msg 362 174 3;
#X msg 296 274 5;
#X msg 263 324 6;
#X msg 218 372 7;
#X obj 1097 447 f 0;
#X obj 1097 479 pack 0 0 0 0 0 0 0;
#X obj 1097 505 u_list2symbol -;
#X obj 1097 542 outlet drumsounds;
#X obj 1097 -136 r \$0-drumSelections;
#X obj 1097 -107 u_symbol2list -;
#X obj 1097 -41 unpack f f f f f f f;
#X msg 1030 99 \$1;
#X msg 1000 127 \$1;
#X msg 1010 175 \$1;
#X msg 1060 223 \$1;
#X msg 1030 256 \$1;
#X msg 1000 304 \$1;
#X msg 990 358 \$1;
#X obj 1314 -79 u_symbol2float;
#X floatatom 1366 10 5 0 0 0 - - - 12;
#X obj -72 -35 sel 1 2 3 4 5 6 7;
#X obj -79 32 f;
#X obj -69 62 f;
#X obj -49 102 f;
#X obj -39 132 f;
#X obj -19 172 f;
#X obj 1 212 f;
#X obj 11 242 f;
#X obj -115 367 sel 0;
#X obj -69 -188 inlet direct;
#X obj -110 408 outlet direct;
#X obj 195 595 pack f f f f f f f;
#X obj 196 569 f;
#X obj 195 621 outlet drumNotesList;
#X obj 934 532 del;
#X obj 1097 -81 u_listmap;
#X connect 0 0 2 0 32.................C....b....v.....G....X.....;
#X connect 2 0 35 0 64......................vA.........b....rB...fJ....q....nB...fU....SA...XE...vT....BD....;
#X connect 2 1 34 0 32.................xA...fC...fb....3....PN....;
#X connect 2 2 33 0 32.................dA...LA...fW....S....vK....;
#X connect 2 3 32 0 32.................JA...79+++uR....u++++SI....;
#X connect 2 4 31 0 32.................6....P8++++N....T++++aG....;
#X connect 2 5 30 0 32.................m....75++++I....u9+++6D....;
#X connect 2 6 29 0 32.................X....P4+++OF....T9+++CC....;
#X connect 3 0 36 0 48......................76+++O.....+9+++K9+++ue++++h++++62+++u3++++;
#X connect 4 0 39 0 32.......................1+++O.....f8+++G8+++O;
#X connect 5 0 41 0 48......................z8+++O.....c++++y8+++ut++++b++++q6+++O2++++;
#X connect 6 0 43 0 48......................37+++O.....N++++S9+++Om++++j++++y4+++O4++++;
#X connect 7 0 45 0 48......................76+++O.....+9+++u8+++ue++++a++++62++++1++++;
#X connect 8 0 47 0 48.......................6+++O.....v9+++K9+++OX++++h++++C1+++u3++++;
#X connect 9 0 49 0 48......................L8+++O.....S++++u9+++uo++++q++++a5++++5++++;
#X connect 10 0 21 1 64......................P2+++O.....z8+++y4+++ux9+++b9+++qr+++eg++++t5+++W3+++uq9+++58+++C;
#X connect 10 0 22 1 48......................X1+++O.....l8+++iz+++Oy9+++H8+++yr+++OR++++;
#X connect 10 0 23 1 48......................T2+++O.....08+++aw+++u59+++V7+++qt+++uE++++;
#X connect 10 0 24 1 48......................P3+++O.....D9+++St+++OB++++j6+++iv+++O49+++;
#X connect 10 0 25 1 48......................L4+++O.....S9+++Kq+++uI++++x5+++ax+++ur9+++;
#X connect 10 0 26 1 48......................H5+++O.....h9+++em+++OQ++++24+++Sz++++c9+++;
#X connect 10 0 27 1 48......................v7+++O.....L++++6j+++uX++++N4+++K1+++uS9+++;
#X connect 11 0 21 1 64......................X0+++O.....V8+++q3++++p9+++J9+++up+++ub++++O5+++K2++++i9+++l8+++C;
#X connect 11 0 22 1 64......................j2+++O.....48+++20++++y9+++c8++++r+++OR++++s5+++iz+++eq9+++z7+++C;
#X connect 11 0 23 1 48......................X1+++O.....l8+++Kv++++x9+++B7+++ur+++u.++++;
#X connect 11 0 24 1 48......................T2+++O.....08+++Cs+++e59+++P6+++mt+++Oz9+++;
#X connect 11 0 25 1 48......................P3+++O.....D9+++6o++++A++++d5+++ev+++um9+++;
#X connect 11 0 26 1 48......................L4+++O.....S9+++Ol+++eI++++i4+++Wx++++X9+++;
#X connect 11 0 27 1 48......................n6+++O.....59+++qi++++P++++53+++Oz+++uN9+++;
#X connect 12 0 21 1 48......................z0+++O.....c8+++21+++OZ9+++s8+++il+++OR++++;
#X connect 12 0 22 1 48......................Lz+++O.....C8+++aw+++ug9+++V7+++an+++uE++++;
#X connect 12 0 23 1 48......................H0+++O.....R8+++St+++Oo9+++j6+++Sp+++O49+++;
#X connect 12 0 24 1 48......................D1+++O.....g8+++Kq+++uv9+++x5+++Kr+++ur9+++;
#X connect 12 0 25 1 48.......................2+++O.....v8+++Cn+++O39+++.5+++Ct+++Of9+++;
#X connect 12 0 26 1 48......................72+++O.....+8+++Wj+++u+9+++E4+++6u+++eQ9+++;
#X connect 12 0 27 1 64......................P9+++O.....j++++i3++++p++++H9+++u5+++OG9+++b7+++yg+++OG++++b3+++C;
#X connect 13 0 21 1 48......................Tx+++O.....k7+++Sy+++eR9+++z7+++mj+++OM++++;
#X connect 13 0 22 1 48......................Py+++O.....z7+++Kv++++Y9+++B7+++el+++u.++++;
#X connect 13 0 23 1 48......................Lz+++O.....C8+++Cs+++eg9+++P6+++Wn+++Oz9+++;
#X connect 13 0 24 1 48......................H0+++O.....R8+++6o++++n9+++d5+++Op+++um9+++;
#X connect 13 0 25 1 48.................58+++a4+++ud++++V9++++p+++ev9+++u5+++Gr+++Oa9+++;
#X connect 13 0 26 1 64......................D8+++O.....Q++++a1+++On++++l8+++C5+++Oy9+++e6+++yr++++29+++w3+++C;
#X connect 13 0 27 1 48......................74+++O.....e9+++if+++e+9+++H3+++2u+++OB9+++;
#X connect 14 0 21 1 48......................Lw+++O.....S7+++23+++uI9+++M9+++ah+++ei++++;
#X connect 14 0 22 1 48......................Hx+++O.....h7+++u0+++OQ9+++a8+++Sj++++V++++;
#X connect 14 0 23 1 48......................Dy+++O.....w7+++mx+++uX9+++o7+++Kl+++eJ++++;
#X connect 14 0 24 1 48.......................z+++O......8+++eu+++Of9+++26+++Cn++++89+++;
#X connect 14 0 25 1 48......................7z+++O.....O8+++Wr+++um9+++E6+++6o+++ew9+++;
#X connect 14 0 26 1 48......................30+++O.....d8+++qn+++Ou9+++J5+++yq+++uh9+++;
#X connect 14 0 27 1 64......................H4+++O.....R9+++mr+++ea++++I6+++21+++eX9+++Z6+++Gl+++u19+++g4+++C;
#X connect 15 0 21 1 48......................Pv+++O.....D7+++m2+++OB9+++48+++if+++ed++++;
#X connect 15 0 22 1 48......................Lw+++O.....S7+++ez+++uI9+++G8+++ah++++Q++++;
#X connect 15 0 23 1 48......................Hx+++O.....h7+++Ww+++OQ9+++U7+++Sj+++eE++++;
#X connect 15 0 24 1 48......................Dy+++O.....w7+++Ot+++uX9+++i6+++Kl++++39+++;
#X connect 15 0 25 1 48.......................z+++O......8+++Gq+++Of9+++w5+++Cn+++er9+++;
#X connect 15 0 26 1 48......................7z+++O.....O8+++am+++um9+++14+++6o+++uc9+++;
#X connect 15 0 27 1 64......................b3+++O.....G9+++On+++uW++++C5+++60+++eS9+++75+++2j+++Ou9+++M4+++C;
#X connect 16 0 21 1 48.......................u+++O.....v6+++u0+++O38+++a8+++Cd++++V++++;
#X connect 16 0 22 1 48.................U9+++W0+++ek++++U8+++mx+++u+8+++o7+++6e+++eJ++++;
#X connect 16 0 23 1 48......................70+++O.....e8+++eu+++OG9+++26+++yg++++89+++;
#X connect 16 0 24 1 48......................zw+++O.....c7+++Wr+++uN9+++E6+++qi+++ew9+++;
#X connect 16 0 25 1 48......................L2+++O.....y8+++Cs+++OV9+++P6+++ik++++j9+++;
#X connect 16 0 26 1 48.................y8+++22++++b++++88++++o+++uc9+++e5+++am+++OV9+++;
#X connect 16 0 27 1 64......................f2+++O.....38+++Op+++eG++++i5+++2w++++K9+++T5++++h+++Ok9+++u3+++C;
#X connect 17 0 21 1 64......................D5+++O.....g9+++O7+++eP++++C++++Gz++++Q++++B2+++ez+++uv8+++G8+++C;
#X connect 17 0 22 1 64......................X5+++O.....l9+++q8++++R++++Z++++uz+++eE++++f2+++Ww+++O38+++U7+++C;
#X connect 17 0 23 1 48......................7u+++O.....+6+++Ot+++u+8+++i6+++6e++++39+++;
#X connect 17 0 24 1 48......................70+++O.....e8+++Gq+++OG9+++w5+++yg+++er9+++;
#X connect 17 0 25 1 48..................9+++m1+++Of++++o8++++q+++uN9++++5+++qi++++e9+++;
#X connect 17 0 26 1 48......................vx+++O.....r7+++Sj+++OV9+++D4+++ik+++OQ9+++;
#X connect 17 0 27 1 64......................z2+++O.....88+++yl+++u99+++r4+++qu++++F9+++14+++ug+++uc9+++a3+++C;
#X connect 18 0 21 1 48.................s++++iy+++e6++++37+++e3+++uo8+++G9+++aZ++++g++++;
#X connect 18 0 22 1 48.................n++++uv+++O5++++K7+++W0+++Ow8+++U8+++Sb+++eU++++;
#X connect 18 0 23 1 48......................vz+++O.....L8+++Ox+++u38+++i7+++Kd++++H++++;
#X connect 18 0 24 1 48.................T++++a0+++O0++++V8+++Gu+++O.9+++w6+++Cf+++e79+++;
#X connect 18 0 25 1 48......................7v+++O.....O7++++q+++uG9++++5+++6g++++u9+++;
#X connect 18 0 26 1 48......................n1+++O.....p8+++Or+++OO9+++C6+++yi+++Og9+++;
#X connect 18 0 27 1 80......................n6+++O.....59+++u6+++Oc++++69+++S2+++en9+++m6+++Gp++++49+++a4+++qk++++V9+++Z4+++uk+++O;
#X connect 19 0 21 1 48.......................w+++O.....P7+++m1+++ue8+++o8+++6W+++eZ++++;
#X connect 19 0 22 1 48.................j++++qu+++O4++++56+++ey+++Om8+++27+++yY++++M++++;
#X connect 19 0 23 1 48......................bv+++O.....G7+++Wv+++ut8+++E7+++qa+++eA++++;
#X connect 19 0 24 1 48......................vt+++O.....r6+++Os+++O18+++S6+++ic++++z9+++;
#X connect 19 0 25 1 48......................ru+++O.....66+++Gp+++u88+++g5+++ae+++en9+++;
#X connect 19 0 26 1 48......................nv+++O.....J7+++al+++OE9+++l4+++Sg+++uY9+++;
#X connect 19 0 27 1 80......................z3+++O.....M9+++C4++++T++++P9+++O0+++uq9+++l5+++6p+++uo9+++83+++Ki+++eO9+++x3+++2i+++O;
#X connect 20 0 21 1 48......................Tv+++O.....E7+++W0+++OX8+++U8+++CV+++eU++++;
#X connect 20 0 22 1 48.......................w+++O.....P7+++Ox+++ue8+++i7+++6W++++H++++;
#X connect 20 0 23 1 64.................Z++++m5+++u1++++o9+++y3+++u99+++L9+++qu+++e79+++b1+++Gu+++Om8+++w6+++C;
#X connect 20 0 24 1 48......................bv+++O.....G7++++q+++ut8++++5+++qa++++u9+++;
#X connect 20 0 25 1 48......................vt+++O.....r6+++2n+++O18+++M5+++ic+++ei9+++;
#X connect 20 0 26 1 48......................ru+++O.....66+++Kk+++u88+++R4+++ae+++uT9+++;
#X connect 20 0 27 1 80......................X3+++O.....F9+++u3+++OR++++K9+++iz+++OY9+++O5+++Sl++++i9+++o3+++Sg+++eJ9+++T3+++mh+++O;
#X connect 21 0 35 1 48......................T1+++O.....k8+++i5+++uK9+++n9+++6h+++Op++++;
#X connect 21 0 55 0 32.................D..........A.........b.....;
#X connect 21 0 93 1 48......................X7+++O.....F++++64+++OT++++d9+++C0+++um++++;
#X connect 22 0 34 1 48......................f0+++O.....X8+++y6+++uA9+++79+++af+++Ou++++;
#X connect 22 0 56 0 32.................E....7....PA....O....j.....;
#X connect 22 0 92 1 48......................P5+++O.....j9+++K6+++OJ++++x9+++ix+++ur++++;
#X connect 23 0 33 1 64......................bz+++O.....G8+++q8+++ui9+++Z++++6n+++uw++++T2+++a7+++O08+++F++++C;
#X connect 23 0 57 0 32.................E....HA...PA....R....j.....;
#X connect 23 0 91 1 48......................f5+++O.....n9+++y6+++u89+++79+++au+++Ou++++;
#X connect 24 0 32 1 48......................Ds+++O.....Q6+++C8+++un8+++P++++KZ+++Oz++++;
#X connect 24 0 58 0 32.................E....TA...PA....U....j.....;
#X connect 24 0 90 1 48......................b4+++O.....W9+++a7+++Ow9+++F++++Sr+++uw++++;
#X connect 25 0 31 1 48......................jx+++O.....o7+++S9+++ud8+++j++++qW+++O4++++;
#X connect 25 0 59 0 32.................E....fA...PA....X....j.....;
#X connect 25 0 89 1 48......................n3+++O.....J9+++q8+++Om9+++Z++++yo+++u1++++;
#X connect 26 0 30 1 48......................Pp+++O.....j5+++e++++OR8+++2++++iT++++8++++;
#X connect 26 0 60 0 32.................I....rA...PB....a....HA....;
#X connect 26 0 88 1 48......................j2+++O.....48+++29+++uZ9+++s++++ql+++e6++++;
#X connect 27 0 29 1 32.......................R+++O.....fz+++G.....;
#X connect 27 0 61 0 32.................E....3A...PA....d....j.....;
#X connect 27 0 87 1 48......................v1+++O.....r8+++i++++uP9+++3++++Kj+++O9++++;
#X connect 28 0 27 1 48......................X5+++O.....l9+++27++++R++++M++++uz+++ey++++;
#X connect 28 0 26 1 48......................b4+++O.....W9+++a++++eK++++1++++2x+++u8++++;
#X connect 28 0 25 1 48......................by+++O.....27+++CA...vC++++P....7v+++OL....;
#X connect 28 0 24 1 64......................7y+++O.....+7+++6.....F++++N....fw+++uJ....w6+++qB...P79+++hA....;
#X connect 28 0 23 1 64......................Pz+++O.....D8+++OA...fG++++S....3w+++eI....S6+++WB...vz9+++TB....;
#X connect 28 0 22 1 48.................g....Px+++eH....j7+++KD...Ps9+++BA...Tq+++uw....;
#X connect 28 0 21 1 48.................SA....w++++T....P7++++L...vk9+++OC...bo+++O9....;
#X connect 29 0 51 0 32.................dB...z8+++um....c++++yS....;
#X connect 30 0 51 0 32.................OB...L8++++i....S++++6Q....;
#X connect 31 0 51 0 32.................6A...76++++d....+9+++aO....;
#X connect 32 0 51 0 32.................rA...T6+++Oa....09+++iM....;
#X connect 33 0 51 0 32.................6....D5++++N....g9+++CK....;
#X connect 34 0 51 0 32.................y....z3++++L....M9+++iH....;
#X connect 35 0 51 0 32.................n....L3+++OJ....C9+++qF....;
#X connect 36 0 27 0 64......................Xv+++O.....F7+++O9++++W9+++i+++++k++++t++++31+++u6+++Ot8+++69+++C;
#X connect 36 0 100 0 32.................bC...78+++O2....e++++ia....;
#X connect 36 1 37 0 32.................C....HA...v.....R....X.....;
#X connect 36 1 77 0 32.................D....XC....A....1....b.....;
#X connect 37 0 38 0 48.................n++++2z+++O5++++M8+++m5+++eW9+++o9+++2k+++ep++++;
#X connect 38 0 28 0 32.................D....7++++OA....+++++e.....;
#X connect 38 1 10 0 32.................CC...f7++++v....H++++aX....;
#X connect 38 2 11 0 32.................MC...b7+++ey....G++++qY....;
#X connect 38 3 12 0 32.................bC...z7+++O2....M++++ia....;
#X connect 38 4 13 0 32.................lC...v7+++u4....L++++yb....;
#X connect 38 5 14 0 32.................5B...77+++ut....O++++OW....;
#X connect 38 6 15 0 32.................DC...v7+++Ow....L++++eX....;
#X connect 38 7 16 0 32.................SC...P8++++z....T++++WZ....;
#X connect 38 8 17 0 32.................cC...H8+++e2....R++++ma....;
#X connect 38 9 18 0 32.................8B...z7+++eu....M++++mW....;
#X connect 38 10 19 0 32.................LC...T8+++Oy....U++++eY....;
#X connect 38 11 20 0 32.................VC...L8+++u0....S++++uZ....;
#X connect 39 0 26 0 48......................3y+++O.....97+++a7+++Ot8+++F++++ia+++uw++++;
#X connect 39 0 70 0 48......................nG.........5A...jB...vn....o....LJ...PQA...;
#X connect 39 0 100 0 32.................MC...z++++ey....8++++qY....;
#X connect 39 1 40 0 32.................C....HA...v.....R....X.....;
#X connect 39 1 78 0 32.................C....XC...v.....1....T.....;
#X connect 40 0 38 0 48......................71+++O.....u8+++u3++++d9+++K9+++um++++h++++;
#X connect 41 0 25 0 48......................Xw+++O.....V7++++7+++OP8+++O++++CT++++y++++;
#X connect 41 0 70 0 32.................JB...jD...fh....IA...LQ....;
#X connect 41 0 100 0 64......................X7+++O.....F++++qE...vq++++ZA...75++++g....i9+++eH...vn++++nE....;
#X connect 41 1 42 0 32.................C....HA...v.....R....X.....;
#X connect 41 1 79 0 32.................B....b9+++u.....m++++O.....;
#X connect 42 0 38 0 48......................D1+++O.....g8+++m0+++eH9+++Y8+++Gh+++eV++++;
#X connect 43 0 24 0 48......................Xw+++O.....V7++++7+++OP8+++O++++CT++++y++++;
#X connect 43 0 70 0 64.................b....nA....G....Z....fC...vI....3....bB....U....mA...PE...vY....gC....;
#X connect 43 0 100 0 32.................aB...D7++++l....A++++aS....;
#X connect 43 1 44 0 32.................C....HA...v.....R....X.....;
#X connect 43 1 80 0 32.................A....XC...P.....1....D.....;
#X connect 44 0 38 0 48.................c++++u1+++e2++++q8+++ex++++O9+++m7++++i++++I++++;
#X connect 45 0 23 0 48......................Xw+++O.....V7+++O9+++OP8+++i++++CT++++3++++;
#X connect 45 0 70 0 64.................TA...jC....U....4....7F....S....uA...vD...vh....EB...rH...Pg....CC....;
#X connect 45 0 100 0 32.................LB...78+++Oi....e++++iQ....;
#X connect 45 1 46 0 32.................C....HA...v.....R....X.....;
#X connect 45 1 81 0 32.................B....XC...f.....1....P.....;
#X connect 46 0 38 0 48.................X++++W2+++O1++++08+++mv+++eW9+++I7+++2k+++eB++++;
#X connect 47 0 22 0 48......................Xw+++O.....V7+++O9+++OP8+++i++++CT++++3++++;
#X connect 47 0 70 0 64......................XF.........lA...PB...vi....j....7H...fM....iB...XC...vn....QB....;
#X connect 47 0 100 0 32.................yA...z+++++b....8++++aN....;
#X connect 47 1 48 0 32.................C....HA...v.....R....X.....;
#X connect 47 1 82 0 32.................A....XC...P.....1....H.....;
#X connect 48 0 38 0 48......................71+++O.....u8+++es++++d9+++W6+++um++++09+++;
#X connect 49 0 21 0 48......................3l+++O.....t4+++O9+++O27+++i++++yM++++3++++;
#X connect 49 0 70 0 48.................f....7B....H....u.....C...PW....v....zE...vW....;
#X connect 49 0 100 0 32.................7....b6+++OO....29+++SK....;
#X connect 49 1 50 0 32.................C....HA...v.....R....X.....;
#X connect 49 1 83 0 32.................C....b9++++.....m++++a.....;
#X connect 50 0 38 0 48......................P0+++O.....T8+++Wp+++eM9+++k5+++Wi+++eo9+++;
#X connect 51 1 1 0 32.................K....b+++++B....2++++aA....;
#X connect 53 0 54 0 32.................D..........A.........b.....;
#X connect 54 0 63 0 32.................D..........A.........b.....;
#X connect 55 0 53 0 32.................V....T....fE....E....vB....;
#X connect 55 0 97 6;
#X connect 55 1 69 0 32.................C....X....v.....F....T.....;
#X connect 56 0 53 0 32.................t....j8+++uK....Y++++yE....;
#X connect 56 0 97 5;
#X connect 56 1 68 0 32.................C....X....v.....F....T.....;
#X connect 57 0 53 0 32.................GA...f6++++Q....39+++6H....;
#X connect 57 0 97 4;
#X connect 57 1 67 0 32.................C....X....v.....F....T.....;
#X connect 58 0 53 0 48......................D6+++O.....w9+++iA...vk++++X....b4+++Ov....;
#X connect 58 0 97 3;
#X connect 58 1 62 0 32.................C....X....v.....F....T.....;
#X connect 59 0 53 0 64......................T7+++O.....E++++OB...fh++++i....n3+++eQ....18+++WD...fc++++xC....;
#X connect 59 0 97 2;
#X connect 59 1 66 0 32.................C....X....v.....F....T.....;
#X connect 60 0 53 0 80.......................7+++O......++++WB...Pk++++k....T4+++eR....p8+++mD...fZ++++tA...T0+++ua....U8+++SR....;
#X connect 60 0 97 1;
#X connect 60 1 65 0 32.................C....X....v.....F....T.....;
#X connect 61 0 53 0 80.................SB...v3++++j....L9+++OL...va++++CC...71+++O8....Q8+++SO...PT++++kD...Py+++eIA...z7+++aU....;
#X connect 61 0 98 1;
#X connect 61 1 64 0 32.................C....T....v.....E....T.....;
#X connect 62 0 54 1 48.................X....j7+++OF....I++++GC...Pj++++w....D4+++uv....;
#X connect 63 0 52 0 32.................F.........fA.........v.....;
#X connect 64 0 54 1 64......................f4+++O.....X9+++mC...Pc++++4....T2++++b....u7+++OG...vK++++XE....;
#X connect 65 0 54 1 64......................r2+++O.....68+++WB...PY++++k....T1+++ua....O8+++6F...vS++++lD....;
#X connect 66 0 54 1 48.................8....X5+++eO....l9+++yE....b++++bA....2+++O8....;
#X connect 67 0 54 1 32.................HA...H6+++OR....x9+++CI....;
#X connect 68 0 54 1 32.................u....L8++++K....S++++6E....;
#X connect 69 0 54 1 32.................W.........vE.........3B....;
#X connect 70 0 71 0 32.................G.........vA.........z.....;
#X connect 71 0 72 0 32.................D..........A.........b.....;
#X connect 72 0 73 0 32.................I.........PB.........HA....;
#X connect 74 0 75 0 32.................E.........PA.........n.....;
#X connect 75 0 101 0 32.................D..........A.........b.....;
#X connect 76 0 3 0 32.................t....7++++uK....+++++yE....;
#X connect 76 1 4 0 32.................FA...79+++uQ....u++++uH....;
#X connect 76 2 5 0 32.................YA...38+++eV....d++++KK....;
#X connect 76 3 6 0 32.................tA...z7+++ua....M++++yM....;
#X connect 76 4 7 0 32.................BB...v6+++uf....79+++OP....;
#X connect 76 5 8 0 32.................kA...r5+++eY....q9+++6R....;
#X connect 76 6 9 0 32.................AB...n4+++ef....Z9+++eU....;
#X connect 77 0 70 0 32.................kB...LD...Po....CA...jT....;
#X connect 78 0 71 1 64......................XB.........l....fC...PN....3....jC...va....wA...7F...Pb....ME....;
#X connect 79 0 71 2 32.................eA...fG...vW....3A...zQ....;
#X connect 80 0 71 3 32.................OA...bE...vS....WA...zN....;
#X connect 81 0 71 4 48.................h....XA...fH....V....PD...fg....DA...XH....y....;
#X connect 82 0 71 5 32.................CA...TK...vP....0B...vI....;
#X connect 83 0 71 6 32.................l.....M...fI....PC...XF....;
#X connect 84 0 101 1 48......................75+++O.....u9+++y9+++uW++++r++++60+++O6++++;
#X connect 85 0 3 0 32.................U....Hu+++eE....x6+++qB....;
#X connect 85 0 9 0 32.................tA...Hu+++ua....x6+++WR....;
#X connect 85 0 8 0 32.................eA...Hu++++W....x6+++yO....;
#X connect 85 0 7 0 32.................NA...Hu+++uS....x6+++GM....;
#X connect 85 0 6 0 32..................A...Hu+++OP....x6+++qJ....;
#X connect 85 0 5 0 32.................v....Hu+++OL....x6+++CH....;
#X connect 85 0 4 0 32.................g....Hu+++eH....x6+++mE....;
#X connect 86 0 93 0 64......................vA.........b....rB...fJ....q....nB...fU....SA...XE...vT....BD....;
#X connect 86 1 92 0 32.................xA...fC...fb....3....PN....;
#X connect 86 2 91 0 32.................dA...LA...fW....S....vK....;
#X connect 86 3 90 0 32.................JA...79+++uR....u++++SI....;
#X connect 86 4 89 0 32.................6....P8++++N....T++++aG....;
#X connect 86 5 88 0 32.................m....75++++I....u9+++6D....;
#X connect 86 6 87 0 32.................X....P4+++OF....T9+++CC....;
#X connect 87 0 94 0 32.................dB...z8+++um....c++++yS....;
#X connect 88 0 94 0 32.................OB...L8++++i....S++++6Q....;
#X connect 89 0 94 0 32.................6A...76++++d....+9+++aO....;
#X connect 90 0 94 0 32.................rA...T6+++Oa....09+++iM....;
#X connect 91 0 94 0 32.................6....D5++++N....g9+++CK....;
#X connect 92 0 94 0 32.................y....z3++++L....M9+++iH....;
#X connect 93 0 94 0 32.................n....L3+++OJ....C9+++qF....;
#X connect 94 1 96 0 32.................K....b+++++B....2++++aA....;
#X connect 95 0 86 0 32.................C....b....v.....G....X.....;
#X connect 97 0 99 0;
#X connect 98 0 97 0;
#X connect 100 0 98 0 32.................F....LR+++uA....iz+++KA....;
#X connect 101 0 76 0 32.................K.........vB.........TA....;
#X connect 101 1 84 0 48......................HE.........RA....+++++n....v++++OJ....7++++;
#X restore 164 200 pd 2midiNote;
#X obj 243 235 outlet drumsounds;
#X obj 396 11 notein;
#X obj 396 83 % 12;
#X obj 379 295 pack;
#X obj 344 535 outlet direct;
#X obj 396 109 - 5;
#X obj 540 14 inlet direct;
#X obj 396 37 spigot 1;
#X obj 207 282 outlet drumNotesList;
#X connect 0 0 10 0 32.................D..........A.........b.....;
#X connect 2 0 3 0 32.................D..........A.........b.....;
#X connect 3 0 4 0 32.................D..........A.........b.....;
#X connect 4 0 5 0 32.................D..........A.........f.....;
#X connect 4 1 6 0 32.................F....LV...fA....iE...r.....;
#X connect 5 0 13 0 32.................D....z++++OA....8++++e.....;
#X connect 6 0 7 0 32.................Y.........PF.........HC....;
#X connect 7 0 12 0 32.................D..........A.........b.....;
#X connect 8 0 7 1 32.................D....77+++OA....O++++e.....;
#X connect 9 0 1 0 32.................M.........PC.........nA....;
#X connect 10 0 11 0 32.................D..........A.........b.....;
#X connect 11 0 2 0 32.................Q.........PD.........HB....;
#X connect 12 0 9 1 32.................KA...nm++++R....54+++eL....;
#X connect 13 0 9 0 32.................HB...L.....h....C....7P....;
#X connect 13 1 17 0 32.................l....bK...fI....2B...vD....;
#X connect 13 2 22 0;
#X connect 13 3 14 0 32.................H....3.....B....N.....A....;
#X connect 15 0 21 0;
#X connect 15 1 17 1 32.................EB...D++++eg....w++++mP....;
#X connect 16 0 19 0 32.................D..........A.........b.....;
#X connect 17 0 18 0 32.................uA...38++++a....d++++2M....;
#X connect 19 0 13 1 32.................X....n0+++OF....Z8+++iD....;
#X connect 20 0 21 1 32.................A.....4+++e.....P9+++S.....;
#X connect 21 0 16 0;
#X restore 77 525 pd midiNtime;
#X obj 1223 375 namecanvas \$0-drumSeq;
#N canvas 0 22 450 300 show 0;
#X obj 108 31 inlet;
#X obj 108 117 t f f b;
#X obj 228 157 f 7;
#X obj 122 178 pack f f \$0;
#X obj 434 49 cnv 15 18 16 empty \$0-timeGrid_-1 empty 20 12 0 14 #e1e1e1 #e1e1e1 0;
#X obj 108 57 moses -1;
#X obj 160 84 moses 8;
#X obj 204 51 r \$0-grid-length;
#X msg 207 107 -1;
#X msg 122 204 \; \$3-timeGrid_\$1 color #AC7777 #AC7777 #AC7777 \; \$3-timeGrid_\$2 color #E1E1E1 #E1E1E1 #E1E1E1;
#X connect 0 0 5 0 32.................D..........A.........b.....;
#X connect 1 0 2 1 32.................G....LH...vA....CB...TA....;
#X connect 1 1 3 0 32.................U.........PE.........nB....;
#X connect 1 2 2 0 32.................K....rE...vB....aA...TA....;
#X connect 2 0 3 1 32.......................6+++O.....v9+++K.....;
#X connect 3 0 9 0 32.................D..........A.........b.....;
#X connect 5 1 6 0 32.................D....z.....A....M....f.....;
#X connect 6 0 1 0 32.................G....z7++++A....M++++6.....;
#X connect 6 1 8 0 32.................B....j....f.....I....P.....;
#X connect 7 0 6 1 32.................G....j+++++A....4++++6.....;
#X connect 8 0 1 0 48.......................8+++O.....P++++i++++On++++3++++C5+++O9++++;
#X restore 216 364 pd show;
#X obj 143 307 sel 0;
#X msg 143 333 -1;
#X obj 70 146 vsl 8 2 0 127 0 0 drum5-10_s drum5-10_r x 3 3 0 4 #d9d9d9 #d9d9d9 #606060 0 0;
#X obj 216 324 - 1;
#X obj 70 208 vsl 8 2 0 127 0 0 drum7-1_s drum7-1_r x 3 3 0 4 #d9d9d9 #d9d9d9 #606060 0 0;
#X obj 70 208 vsl 8 2 0 127 0 0 drum7-2_s drum7-2_r x 3 3 0 4 #d9d9d9 #d9d9d9 #606060 0 0;
#X obj 70 208 vsl 8 2 0 127 0 0 drum7-3_s drum7-3_r x 3 3 0 4 #d9d9d9 #d9d9d9 #606060 0 0;
#X obj 70 208 vsl 8 2 0 127 0 0 drum7-4_s drum7-4_r x 3 3 0 4 #d9d9d9 #d9d9d9 #606060 0 0;
#X obj 70 208 vsl 8 2 0 127 0 0 drum7-5_s drum7-5_r x 3 3 0 4 #d9d9d9 #d9d9d9 #606060 0 0;
#X obj 70 208 vsl 8 2 0 127 0 0 drum7-6_s drum7-6_r x 3 3 0 4 #d9d9d9 #d9d9d9 #606060 0 0;
#X obj 70 208 vsl 8 2 0 127 0 0 drum7-7_s drum7-7_r x 3 3 0 4 #d9d9d9 #d9d9d9 #606060 0 0;
#X obj 70 208 vsl 8 2 0 127 0 0 drum7-8_s drum7-8_r x 3 3 0 4 #d9d9d9 #d9d9d9 #606060 0 0;
#X obj 70 208 vsl 8 2 0 127 0 0 drum7-9_s drum7-9_r x 3 3 0 4 #d9d9d9 #d9d9d9 #606060 0 0;
#X obj 70 208 vsl 8 2 0 127 0 0 drum7-10_s drum7-10_r x 3 3 0 4 #d9d9d9 #d9d9d9 #606060 0 0;
#X obj 70 208 vsl 8 2 1 0 0 1 drum7_scroll_s drum7_scroll_r empty 0 -9 0 10 #dcdcdc #dfdfdf #000000 100 0;
#X obj 70 208 cnv 9 1 1 empty drum7_scrollIndicator empty 20 12 0 14 #bbbbbb #404040 0;
#X obj 5 210 vsl 75 12 0 127 0 0 drum7_s drum7_r drum7 3 4 0 9 #ffffff #fcfcfc #000000 0 0;
#X obj 70 177 vsl 8 2 0 127 0 0 drum6-1_s drum6-1_r x 3 3 0 4 #d9d9d9 #d9d9d9 #606060 0 0;
#X obj 70 177 vsl 8 2 0 127 0 0 drum6-2_s drum6-2_r x 3 3 0 4 #d9d9d9 #d9d9d9 #606060 0 0;
#X obj 70 177 vsl 8 2 0 127 0 0 drum6-3_s drum6-3_r x 3 3 0 4 #d9d9d9 #d9d9d9 #606060 0 0;
#X obj 70 177 vsl 8 2 0 127 0 0 drum6-4_s drum6-4_r x 3 3 0 4 #d9d9d9 #d9d9d9 #606060 0 0;
#X obj 70 177 vsl 8 2 0 127 0 0 drum6-5_s drum6-5_r x 3 3 0 4 #d9d9d9 #d9d9d9 #606060 0 0;
#X obj 70 177 vsl 8 2 0 127 0 0 drum6-6_s drum6-6_r x 3 3 0 4 #d9d9d9 #d9d9d9 #606060 0 0;
#X obj 70 177 vsl 8 2 0 127 0 0 drum6-7_s drum6-7_r x 3 3 0 4 #d9d9d9 #d9d9d9 #606060 0 0;
#X obj 70 177 vsl 8 2 0 127 0 0 drum6-8_s drum6-8_r x 3 3 0 4 #d9d9d9 #d9d9d9 #606060 0 0;
#X obj 70 177 vsl 8 2 0 127 0 0 drum6-9_s drum6-9_r x 3 3 0 4 #d9d9d9 #d9d9d9 #606060 0 0;
#X obj 70 177 vsl 8 2 0 127 0 0 drum6-10_s drum6-10_r x 3 3 0 4 #d9d9d9 #d9d9d9 #606060 0 0;
#X obj 70 177 vsl 8 2 1 0 0 1 drum6_scroll_s drum6_scroll_r empty 0 -9 0 10 #dcdcdc #dfdfdf #000000 0 0;
#X obj 70 177 cnv 9 1 1 empty drum6_scrollIndicator empty 20 12 0 14 #bbbbbb #404040 0;
#X obj 5 179 vsl 75 12 0 127 0 0 drum6_s drum6_r drum6 3 4 0 9 #ffffff #fcfcfc #000000 0 0;
#X obj 70 146 vsl 8 2 0 127 0 0 drum5-1_s drum5-1_r x 3 3 0 4 #d9d9d9 #d9d9d9 #606060 0 0;
#X obj 70 146 vsl 8 2 0 127 0 0 drum5-2_s drum5-2_r x 3 3 0 4 #d9d9d9 #d9d9d9 #606060 0 0;
#X obj 70 146 vsl 8 2 0 127 0 0 drum5-3_s drum5-3_r x 3 3 0 4 #d9d9d9 #d9d9d9 #606060 0 0;
#X obj 70 146 vsl 8 2 0 127 0 0 drum5-4_s drum5-4_r x 3 3 0 4 #d9d9d9 #d9d9d9 #606060 0 0;
#X obj 70 146 vsl 8 2 0 127 0 0 drum5-5_s drum5-5_r x 3 3 0 4 #d9d9d9 #d9d9d9 #606060 0 0;
#X obj 70 146 vsl 8 2 0 127 0 0 drum5-6_s drum5-6_r x 3 3 0 4 #d9d9d9 #d9d9d9 #606060 0 0;
#X obj 70 146 vsl 8 2 0 127 0 0 drum5-7_s drum5-7_r x 3 3 0 4 #d9d9d9 #d9d9d9 #606060 0 0;
#X obj 70 146 vsl 8 2 0 127 0 0 drum5-8_s drum5-8_r x 3 3 0 4 #d9d9d9 #d9d9d9 #606060 0 0;
#X obj 70 146 vsl 8 2 0 127 0 0 drum5-9_s drum5-9_r x 3 3 0 4 #d9d9d9 #d9d9d9 #606060 0 0;
#X obj 70 146 vsl 8 2 0 127 0 0 drum5-10_s drum5-10_r x 3 3 0 4 #d9d9d9 #d9d9d9 #606060 0 0;
#X obj 70 146 vsl 8 2 1 0 0 1 drum5_scroll_s drum5_scroll_r empty 0 -9 0 10 #dcdcdc #dfdfdf #000000 0 0;
#X obj 70 146 cnv 9 1 1 empty drum5_scrollIndicator empty 20 12 0 14 #bbbbbb #404040 0;
#X obj 5 148 vsl 75 12 0 127 0 0 drum5_s drum5_r drum5 3 4 0 9 #ffffff #fcfcfc #000000 0 0;
#X obj 70 115 vsl 8 2 0 127 0 0 drum4-1_s drum4-1_r x 3 3 0 4 #d9d9d9 #d9d9d9 #606060 0 0;
#X obj 70 115 vsl 8 2 0 127 0 0 drum4-2_s drum4-2_r x 3 3 0 4 #d9d9d9 #d9d9d9 #606060 0 0;
#X obj 70 115 vsl 8 2 0 127 0 0 drum4-3_s drum4-3_r x 3 3 0 4 #d9d9d9 #d9d9d9 #606060 0 0;
#X obj 70 115 vsl 8 2 0 127 0 0 drum4-4_s drum4-4_r x 3 3 0 4 #d9d9d9 #d9d9d9 #606060 0 0;
#X obj 70 115 vsl 8 2 0 127 0 0 drum4-5_s drum4-5_r x 3 3 0 4 #d9d9d9 #d9d9d9 #606060 0 0;
#X obj 70 115 vsl 8 2 0 127 0 0 drum4-6_s drum4-6_r x 3 3 0 4 #d9d9d9 #d9d9d9 #606060 0 0;
#X obj 70 115 vsl 8 2 0 127 0 0 drum4-7_s drum4-7_r x 3 3 0 4 #d9d9d9 #d9d9d9 #606060 0 0;
#X obj 70 115 vsl 8 2 0 127 0 0 drum4-8_s drum4-8_r x 3 3 0 4 #d9d9d9 #d9d9d9 #606060 0 0;
#X obj 70 115 vsl 8 2 0 127 0 0 drum4-9_s drum4-9_r x 3 3 0 4 #d9d9d9 #d9d9d9 #606060 0 0;
#X obj 70 115 vsl 8 2 0 127 0 0 drum4-10_s drum4-10_r x 3 3 0 4 #d9d9d9 #d9d9d9 #606060 0 0;
#X obj 70 115 vsl 8 2 1 0 0 1 drum4_scroll_s drum4_scroll_r empty 0 -9 0 10 #dcdcdc #dfdfdf #000000 0 0;
#X obj 70 115 cnv 9 1 1 empty drum4_scrollIndicator empty 20 12 0 14 #bbbbbb #404040 0;
#X obj 5 117 vsl 75 12 0 127 0 0 drum4_s drum4_r drum4 3 4 0 9 #ffffff #fcfcfc #000000 0 0;
#X obj 70 84 vsl 8 2 0 127 0 0 drum3-1_s drum3-1_r x 3 3 0 4 #d9d9d9 #d9d9d9 #606060 0 0;
#X obj 70 84 vsl 8 2 0 127 0 0 drum3-2_s drum3-2_r x 3 3 0 4 #d9d9d9 #d9d9d9 #606060 0 0;
#X obj 70 84 vsl 8 2 0 127 0 0 drum3-3_s drum3-3_r x 3 3 0 4 #d9d9d9 #d9d9d9 #606060 0 0;
#X obj 70 84 vsl 8 2 0 127 0 0 drum3-4_s drum3-4_r x 3 3 0 4 #d9d9d9 #d9d9d9 #606060 0 0;
#X obj 70 84 vsl 8 2 0 127 0 0 drum3-5_s drum3-5_r x 3 3 0 4 #d9d9d9 #d9d9d9 #606060 0 0;
#X obj 70 84 vsl 8 2 0 127 0 0 drum3-6_s drum3-6_r x 3 3 0 4 #d9d9d9 #d9d9d9 #606060 0 0;
#X obj 70 84 vsl 8 2 0 127 0 0 drum3-7_s drum3-7_r x 3 3 0 4 #d9d9d9 #d9d9d9 #606060 0 0;
#X obj 70 84 vsl 8 2 0 127 0 0 drum3-8_s drum3-8_r x 3 3 0 4 #d9d9d9 #d9d9d9 #606060 0 0;
#X obj 70 84 vsl 8 2 0 127 0 0 drum3-9_s drum3-9_r x 3 3 0 4 #d9d9d9 #d9d9d9 #606060 0 0;
#X obj 70 84 vsl 8 2 0 127 0 0 drum3-10_s drum3-10_r x 3 3 0 4 #d9d9d9 #d9d9d9 #606060 0 0;
#X obj 70 84 vsl 8 2 1 0 0 1 drum3_scroll_s drum3_scroll_r empty 0 -9 0 10 #dcdcdc #dfdfdf #000000 0 0;
#X obj 70 84 cnv 9 1 1 empty drum3_scrollIndicator empty 20 12 0 14 #bbbbbb #404040 0;
#X obj 5 86 vsl 75 12 0 127 0 0 drum3_s drum3_r drum3 3 4 0 9 #ffffff #fcfcfc #000000 0 0;
#X obj 70 53 vsl 8 2 0 127 0 0 drum2-1_s drum2-1_r x 3 3 0 4 #d9d9d9 #d9d9d9 #606060 0 0;
#X obj 70 53 vsl 8 2 0 127 0 0 drum2-2_s drum2-2_r x 3 3 0 4 #d9d9d9 #d9d9d9 #606060 0 0;
#X obj 70 53 vsl 8 2 0 127 0 0 drum2-3_s drum2-3_r x 3 3 0 4 #d9d9d9 #d9d9d9 #606060 0 0;
#X obj 70 53 vsl 8 2 0 127 0 0 drum2-4_s drum2-4_r x 3 3 0 4 #d9d9d9 #d9d9d9 #606060 0 0;
#X obj 70 53 vsl 8 2 0 127 0 0 drum2-5_s drum2-5_r x 3 3 0 4 #d9d9d9 #d9d9d9 #606060 0 0;
#X obj 70 53 vsl 8 2 0 127 0 0 drum2-6_s drum2-6_r x 3 3 0 4 #d9d9d9 #d9d9d9 #606060 0 0;
#X obj 70 53 vsl 8 2 0 127 0 0 drum2-7_s drum2-7_r x 3 3 0 4 #d9d9d9 #d9d9d9 #606060 0 0;
#X obj 70 53 vsl 8 2 0 127 0 0 drum2-8_s drum2-8_r x 3 3 0 4 #d9d9d9 #d9d9d9 #606060 0 0;
#X obj 70 53 vsl 8 2 0 127 0 0 drum2-9_s drum2-9_r x 3 3 0 4 #d9d9d9 #d9d9d9 #606060 0 0;
#X obj 70 53 vsl 8 2 0 127 0 0 drum2-10_s drum2-10_r x 3 3 0 4 #d9d9d9 #d9d9d9 #606060 0 0;
#X obj 70 53 vsl 8 2 1 0 0 1 drum2_scroll_s drum2_scroll_r empty 0 -9 0 10 #dcdcdc #dfdfdf #000000 0 0;
#X obj 70 53 cnv 9 1 1 empty drum2_scrollIndicator empty 20 12 0 14 #bbbbbb #404040 0;
#X obj 5 55 vsl 75 12 0 127 0 0 drum2_s drum2_r drum2 3 4 0 9 #ffffff #fcfcfc #000000 0 0;
#X obj 70 22 vsl 8 2 0 127 0 0 drum1-1_s drum1-1_r x 3 3 0 4 #d9d9d9 #d9d9d9 #606060 0 0;
#X obj 70 22 vsl 8 2 0 127 0 0 drum1-2_s drum1-2_r x 3 3 0 4 #d9d9d9 #d9d9d9 #606060 0 0;
#X obj 70 22 vsl 8 2 0 127 0 0 drum1-3_s drum1-3_r x 3 3 0 4 #d9d9d9 #d9d9d9 #606060 0 0;
#X obj 70 22 vsl 8 2 0 127 0 0 drum1-4_s drum1-4_r x 3 3 0 4 #d9d9d9 #d9d9d9 #606060 0 0;
#X obj 70 22 vsl 8 2 0 127 0 0 drum1-5_s drum1-5_r x 3 3 0 4 #d9d9d9 #d9d9d9 #606060 0 0;
#X obj 70 22 vsl 8 2 0 127 0 0 drum1-6_s drum1-6_r x 3 3 0 4 #d9d9d9 #d9d9d9 #606060 0 0;
#X obj 70 22 vsl 8 2 0 127 0 0 drum1-7_s drum1-7_r x 3 3 0 4 #d9d9d9 #d9d9d9 #606060 0 0;
#X obj 70 22 vsl 8 2 0 127 0 0 drum1-8_s drum1-8_r x 3 3 0 4 #d9d9d9 #d9d9d9 #606060 0 0;
#X obj 70 22 vsl 8 2 0 127 0 0 drum1-9_s drum1-9_r x 3 3 0 4 #d9d9d9 #d9d9d9 #606060 0 0;
#X obj 70 22 vsl 8 2 0 127 0 0 drum1-10_s drum1-10_r x 3 3 0 4 #d9d9d9 #d9d9d9 #606060 0 0;
#X obj 70 22 vsl 8 2 1 0 0 1 drum1_scroll_s drum1_scroll_r empty 0 -9 0 10 #dcdcdc #dfdfdf #000000 0 0;
#X obj 70 22 cnv 9 1 1 empty drum1_scrollIndicator empty 20 12 0 14 #bbbbbb #404040 0;
#X obj 5 24 vsl 75 12 0 127 0 0 drum1_s drum1_r drum1 3 4 0 9 #ffffff #fcfcfc #000000 0 0;
#X obj 296 232 knob 48 0 100 0 0 empty \$0-randRead_sl # #696969 #4D4D4D 0 0 0 0 1 270 0 0 0;
#N canvas 0 22 450 300 randread 0;
#X obj 130 93 inlet;
#X obj 232 113 i;
#X obj 232 139 pack f \$0;
#X msg 232 165 \; \$2-randread label randRead:\$1;
#X obj 130 119 outlet;
#X connect 0 0 4 0;
#X connect 0 0 1 0 32......................XF.........lA...D.....;
#X connect 1 0 2 0;
#X connect 2 0 3 0;
#X restore 276 281 pd randread;
#X obj 943 37 loadbang;
#X msg 943 63 pluginmode;
#X obj 943 89 s pd;
#X obj 369 717 pack f \$0;
#X msg 369 743 \; \$2-randRead_sl \$1;
#X text 713 481 PresetName \, RUN \, speed \, randRead \, drumSounds;
#X msg 613 513 add2 \$1 \$2 \$3 \$4 \$5;
#X obj 613 487 pack s f f f s;
#X obj 953 438 list split 5;
#X msg 952 527 add2 \$1 \$2 \$3 \$4 \$5;
#X obj 1023 734 list split 5;
#X obj 1011 947 list split 5;
#X obj 613 724 list split 5;
#X obj 327 689 unpack f f f s;
#X obj 392 801 s \$0-drumSelections;
#N canvas 0 22 450 300 rec 0;
#X obj 406 81 inlet;
#X obj 334 53 inlet;
#X obj 334 106 spigot;
#X obj 34 241 route 1 2 3 4 5 6 7 8 9 10;
#X obj 53 183 % 12;
#X obj 34 215 pack f f f;
#X obj 305 380 % 16;
#X obj 322 350 r \$0-grid-length;
#X obj 305 298 quantizer 1;
#X obj 459 287 r \$0-readSpeed;
#X obj 459 313 + 1;
#X obj 459 339 sel 3;
#X msg 459 365 4;
#X obj 334 256 * 1;
#X obj 34 103 spigot;
#X obj 305 324 change;
#X obj 34 267 recNote;
#X obj 44 297 recNote;
#X obj 124 277 recNote;
#X obj 54 327 recNote;
#X obj 134 307 recNote;
#X obj 64 357 recNote;
#X obj 144 337 recNote;
#X obj 74 387 recNote;
#X obj 154 367 recNote;
#X obj 164 397 recNote;
#X obj 34 561 outlet;
#X obj 48 148 + 6;
#X obj 167 211 s \$0-recTgl;
#X obj 254 228 s \$0-clear;
#X obj 305 406 t f f;
#X obj 316 432 sel 0;
#X msg 316 458 stop;
#X obj 34 69 poly 10;
#X text -96 149 notein offset to adjust;
#X obj 34 -14 notein;
#X obj 167 138 doubleLongClick;
#X obj 282 202 s \$0-setBPM;
#X obj 232 175 s \$0-storePres;
#X obj 34 12 moses 5;
#X obj 167 49 route 1;
#X obj 167 87 f;
#X connect 0 0 2 1 32.................C.....8++++.....P++++a.....;
#X connect 0 0 14 1 32.................B....Pp+++u.....j5+++O.....;
#X connect 1 0 2 0 32.................Q.........PD.........HB....;
#X connect 2 0 13 0 32.................BA........fP.........LH....;
#X connect 3 0 16 0 32.................D..........A.........b.....;
#X connect 3 1 17 0 32.................S....n+++++D....5++++WB....;
#X connect 3 2 19 0 32.................h....L++++uH....y++++OD....;
#X connect 3 3 21 0 32.................w....v9+++eL....r++++GF....;
#X connect 3 4 23 0 32..................A...P9+++OP....j+++++G....;
#X connect 3 5 18 0 32.................I....P....PB....D....DA....;
#X connect 3 6 20 0 32.................X....3++++OF....9+++++B....;
#X connect 3 7 22 0 32.................m....X+++++I....1++++2D....;
#X connect 3 8 24 0 32.................1....79+++uM....u++++uF....;
#X connect 3 9 25 0 32.................EA...f9+++eQ....n++++mH....;
#X connect 4 0 5 1 32.................G.........vA.........z.....;
#X connect 5 0 3 0 32.................D..........A.........b.....;
#X connect 6 0 30 0 32.................D..........A.........b.....;
#X connect 7 0 6 1 32.................F....7++++uA....+++++u.....;
#X connect 8 0 15 0 32.................D..........A.........b.....;
#X connect 9 0 10 0 32.................D..........A.........b.....;
#X connect 10 0 11 0 32.................D..........A.........b.....;
#X connect 11 0 12 0 32.................D....7++++OA....+++++e.....;
#X connect 11 1 13 1 48......................X8+++O.....V++++u4+++ef++++a9+++G3++++l++++;
#X connect 12 0 13 1 64......................D9+++O.....g++++q7+++ez++++J++++G8+++ef++++Q9+++G3+++ej++++A9+++C;
#X connect 13 0 8 0 32.................L....P9+++OC....j++++eA....;
#X connect 14 0 5 0 32.................u.........vK.........zE....;
#X connect 15 0 6 0 32.................S.........vD.........TB....;
#X connect 16 0 26 0 32.................JB........fh.........LQ....;
#X connect 17 0 26 0 32.................6A...b+++++d....2++++WO....;
#X connect 18 0 26 0 48.................LA...P6+++OS....z9+++KG...vo++++xA...b5+++eBA...;
#X connect 19 0 26 0 32.................rA...z9+++Oa....s++++eM....;
#X connect 20 0 26 0 32.................kA...z4+++eY....c9+++uN....;
#X connect 21 0 26 0 32.................cA...L9+++eW....i++++mK....;
#X connect 22 0 26 0 32.................MA...L4+++eS....S9+++2L....;
#X connect 23 0 26 0 32.................NA...j8+++uS....Y++++uI....;
#X connect 24 0 26 0 32.................BA...j3+++uP....I9++++J....;
#X connect 25 0 26 0 32.................1....72+++uM....+8+++GI....;
#X connect 27 0 4 0 32.................H....T.....B....E.....A....;
#X connect 30 0 16 1 64......................z6+++O.....89+++26++++l++++89+++u4++++X++++S7+++O1++++D++++i8+++C;
#X connect 30 0 18 1 48......................j7+++O.....I++++21+++ea++++s8+++21+++ea++++;
#X connect 30 0 17 1 48......................73+++O.....O9+++G3+++eG++++A9+++2w+++ef++++;
#X connect 30 0 19 1 48......................P4+++O.....T9++++4++++I++++e9+++ex++++m++++;
#X connect 30 0 21 1 48......................j4+++O.....Y9+++26+++eL++++89+++Gy+++eu++++;
#X connect 30 0 23 1 48......................v0+++O.....b8+++G9++++N++++g++++uy++++1++++;
#X connect 30 0 20 1 48......................z7+++O.....M++++u3++++c++++K9+++e2++++h++++;
#X connect 30 0 22 1 48......................n7+++O.....J++++m5+++ef++++o9+++G3+++ep++++;
#X connect 30 0 24 1 48......................X7+++O.....F++++e7++++h++++G++++u3++++w++++;
#X connect 30 0 25 1 48......................r7+++O.....K++++W9+++ek++++k++++W4+++e4++++;
#X connect 30 1 31 0 32.................D..........A.........b.....;
#X connect 31 0 32 0 32.................D..........A.........b.....;
#X connect 32 0 33 0 64......................b4+++O.....W9+++Wy+++eK++++07+++2x+++eZ9+++m6+++ml++++49+++o4+++C;
#X connect 33 0 14 0 32.................H..........B.........7.....;
#X connect 33 1 27 0 32.................d.........fG.........vC....;
#X connect 33 2 5 2 32..................A...n.....P....J....7G....;
#X connect 35 0 39 0;
#X connect 35 1 33 1 32.................L....7.....C....O....fA....;
#X connect 35 1 41 1 48......................DC.........w....7A...ff....e....HH...fT....;
#X connect 36 0 28 0 32.................E.........PA.........j.....;
#X connect 36 1 29 0 32.................w....rC...PL....6....bD....;
#X connect 36 2 38 0 32.................I....j....PB....I....HA....;
#X connect 36 3 37 0 32.................W....3A...vE....d....zB....;
#X connect 39 0 40 0 32.................I....TH...PB....EB...HA....;
#X connect 39 1 33 0 32.................S....z8++++D....c++++aB....;
#X connect 40 0 41 0;
#X connect 41 0 36 0;
#X restore 713 294 pd rec;
#X obj 943 137 declare -path scaleProvider;
#X obj 713 350 prepend set;
#X obj 50 -135 r \$0-clear;
#X msg 50 -109 clear;
#X msg 391 -46 direct \$1;
#X obj 704 145 tgl 25 1 empty empty directOut -18 -11 0 14 #8c9f00 #000000 #373737 1 1;
#X msg 603 -78 record \$1;
#X obj 684 -70 sel 0;
#N canvas 0 22 450 300 holdBack 0;
#X obj 368 67 inlet;
#X obj 368 93 pipe2 500;
#X obj 541 57 r \$0-grid-ms;
#X obj 368 119 outlet;
#X connect 0 0 1 0;
#X connect 1 0 3 0;
#X connect 2 0 1 1 32.................I....H3+++eB....B9+++GA....;
#X restore 713 323 pd holdBack;
#X obj 748 161 setBPM;
#X obj 832 84 r \$0-grid-length;
#X msg -357 -110 clear \, set \$1 3;
#X floatatom -353 -195 5 0 0 0 - - - 12;
#X msg 778 -46 set \$1 \$2;
#X msg 742 -81 set \$1 \$2 \$3;
#X msg -205 -175 set 2 3 \$1;
#X floatatom -201 -260 5 0 0 0 - - - 12;
#X msg -69 -234 set set \, add2 \$1 3 \, adddollar 1;
#X obj 603 119 tgl 52 0 empty \$0-recTgl Rec -47 22 0 28 #b37200 #000000 #373737 0 1;
#X obj 80 3 scaleSeq \$0;
#X msg 613 573 Empty 1 2 8.0026 8-6-5-9-3-2-1;
#X obj 342 -277 declare -path scaleProvider;
#X obj 371 -190 declare -path scaleProvider/list-abs;
#X obj 361 -220 declare -path scaleProvider/rc/rc;
#X obj 351 -250 declare -path scaleProvider/rjlib/rj;
#X obj 381 -162 declare -path scaleProvider/abs;
#X obj 815 136 r \$0-setBPM;
#X connect 1 0 168 1 64.................g9+++SL...Pn++++DC...j3+++uxA...I9+++qb...PP++++LH...Dz+++OCB...A8+++C;
#X connect 1 1 49 0 32.................D....H++++OA....x++++e.....;
#X connect 1 1 178 0 48.................K9+++i7++++h++++H++++er+++uZ++++G6+++q1++++w9+++;
#X connect 1 2 158 0 48......................jN.........oC...n9+++uzA...p++++Kc...f5++++;
#X connect 1 3 168 3 48......................rO.........6C...Dz+++e8A...A8+++We...PP++++;
#X connect 2 0 3 0 32.................W.........vE.........3B....;
#X connect 2 0 150 2 32.................cA...zL...PW....MC...fM....;
#X connect 3 0 2 0 48......................................D5+++O.....g9+++C....Pn++++;
#X connect 4 0 46 0 32.................R.........fD.........PB....;
#X connect 4 0 1 0 32.................N....jD...fC....IA...rA....;
#X connect 4 0 150 1 64......................LO.........yC...PB...PkA...j....TY....R....lG...fD...f4A...XC....;
#X connect 7 0 179 0 32.................G.........vA.........z.....;
#X connect 7 1 179 0 32.................G....T+++++A....0++++2.....;
#X connect 8 0 41 0 32.................D..........A.........b.....;
#X connect 9 1 10 0 48......................PA.........T....H8+++OJ....R++++iB...fz++++;
#X connect 10 0 151 0 48......................77+++O.....O+++++9+++em++++u++++24++++6++++;
#X connect 11 0 156 0 32.................T..........E.........fB....;
#X connect 12 0 179 0 32.................D....rT....A....KE...f.....;
#X connect 12 1 11 1 32.................g....DF...PH....gA...DD....;
#X connect 13 0 179 0 32.................L....Pz+++OC....D8+++OB....;
#X connect 14 0 151 0 32.................K.........vB.........TA....;
#X connect 14 1 13 0 48......................H8+++O.....R++++yB...fW++++r....30+++uY....;
#X connect 15 0 12 0 32.................J....nD...fB....JA...3A....;
#X connect 16 1 17 0 48......................PA.........T....H8+++OJ....R++++iB...fz++++;
#X connect 17 0 155 0 48......................77+++O.....O+++++9+++em++++u++++24++++6++++;
#X connect 18 0 11 0 64......................75+++O.....u9+++e9+++ug++++m++++a3+++uS++++i6+++6z++++39+++N8+++C;
#X connect 19 0 43 0 32.................o.........PJ.........HE....;
#X connect 19 1 6 0 32.................L..........C.........fA....;
#X connect 19 2 15 0 32.................a.........vF.........XC....;
#X connect 19 3 33 0 32.................G....D....vA....A....z.....;
#X connect 19 4 38 0 48.................T....zY....E....cF...zC...PkB...8....To...vn....;
#X connect 19 5 34 0 48......................Xt.........lK........fdC........n2.........;
#X connect 20 0 155 0 32.................F.........fA.........r.....;
#X connect 20 1 153 0 48.................D....3G....A....9A...b....fdA...G....nW...PE....;
#X connect 21 1 22 0 48......................PA.........T....H8+++OJ....R++++iB...fz++++;
#X connect 22 0 153 0 48......................77+++O.....O+++++9+++em++++u++++24++++6++++;
#X connect 23 0 20 0 32.................G.....A...vA....P....3.....;
#X connect 24 0 20 0 32.................G....PC...vA....z....3.....;
#X connect 25 0 20 0 48......................js+++O.....Y6+++e++++ur8+++2++++Ka++++8++++;
#X connect 26 0 27 0 48......................jA.........Y....v9+++uL....r++++KC....6++++;
#X connect 26 0 28 1 32.................F....b7+++uA....G++++u.....;
#X connect 27 0 26 1 48......................z9+++O.....s++++C++++u1++++v++++q8+++O7++++;
#X connect 28 0 154 0 32.................N....n++++uC....5++++yA....;
#X connect 29 0 154 0 48......................H9+++O.....h++++y9+++Oo++++r++++S5+++O6++++;
#X connect 30 1 29 0 48......................DA.........Q....P8+++eH....T++++GB....0++++;
#X connect 30 1 40 0 32.................J....r4+++uB....a9+++2A....;
#X connect 31 0 24 0 48.................c....Do+++eG....Q5+++qC...fH8+++5....HR+++eq....;
#X connect 31 1 150 0 32......................bT+++O.....G0+++C.....;
#X connect 31 2 23 0 48.................V....ji+++uE....43+++GD...vI8+++AA...bR+++eq....;
#X connect 31 3 36 0 32.................0....rp+++eM....q5++++I....;
#X connect 32 0 150 0 48......................vF.........rA...L++++OQA...y++++ST...v7++++;
#X connect 33 0 24 0 48.................0....jB...PM....o.....E...fGA...PA...3Q...ft....;
#X connect 33 1 32 0 32.................D..........A.........b.....;
#X connect 33 2 23 0 32.................9....TR...fO....kD...nK....;
#X connect 34 0 31 0 32.................D..........A.........f.....;
#X connect 35 1 26 0 32.................P..........D.........7A....;
#X connect 36 0 179 0 48......................71+++O.....u8+++S5+++ee9+++j9+++2m+++Oo++++;
#X connect 36 0 24 0 48......................31+++O.....t8+++y++++eR9+++7++++mj+++O+++++;
#X connect 36 1 28 0 32.................0A...D....Pc....A....nN....;
#X connect 36 2 13 0 32.................t8+++mw+++ua++++Y7+++61+++O;
#X connect 36 3 179 0 48......................71+++O.....u8+++S5+++OS9+++j9+++yj+++Oo++++;
#X connect 36 4 35 1 32.................MA...PA...PS....T....nI....;
#X connect 36 5 25 0 32.................J....fG...fB....3A...LA....;
#X connect 36 5 26 1 32.................lA...3....fY....N....vL....;
#X connect 37 0 35 0 32.................E.........PA.........n.....;
#X connect 38 0 36 0 32.................K.........vB.........XA....;
#X connect 39 0 40 0 32.................N.........fC.........rA....;
#X connect 39 1 152 0 48......................n9+++O.....p++++yh+++O0++++r3+++S8+++OK9+++;
#X connect 40 0 8 0 48......................nA.........Z....rT+++OM....K0+++SC...vR8+++;
#X connect 40 0 42 0 32.................V....rE...fE....aA...vB....;
#X connect 41 1 14 0 32.................B....D5+++u.....g9+++W.....;
#X connect 43 0 5 0 32.................D..........A.........b.....;
#X connect 43 1 168 5 48.......................u.........vK...3k+++uoB...d4+++ap...fW9+++;
#X connect 43 2 150 4 64......................3K.........9B...P9+++eGA...j++++2Q....x++++4H...f7+++eNB...H++++C;
#X connect 43 3 5 1 32.................D....L++++OA....y++++e.....;
#X connect 43 3 168 4 48......................3S.........9D...3k++++dB...d4+++um...fW9+++;
#X connect 46 0 47 0 32.................D..........A.........b.....;
#X connect 47 0 45 0 32.................D....nD....A....JA...v.....;
#X connect 49 0 45 0 32.................K.........vB.........TA....;
#X connect 141 0 142 0 32.................A....z9+++e.....s++++G.....;
#X connect 142 0 1 1 48......................n++++O.....5+++++++++O8+++++++++S++++++++++;
#X connect 142 0 150 3 32.................FA...DX...fQ....AF...rK....;
#X connect 143 0 144 0 32.................D..........A.........b.....;
#X connect 144 0 145 0 32.................D..........A.........b.....;
#X connect 146 0 147 0 32.................D..........A.........b.....;
#X connect 149 0 7 0 32.................E.........PA.........j.....;
#X connect 150 0 149 0 32.................D..........A.........b.....;
#X connect 151 0 149 0 32.................b....zp+++OG....s5+++iC....;
#X connect 151 1 9 0 32.................D....r.....A....K....f.....;
#X connect 152 0 179 0 32.................I....3p+++eB....t5+++uA....;
#X connect 153 0 37 0 32.................S.........vD.........XB....;
#X connect 153 1 21 0 32.................D....r.....A....K....f.....;
#X connect 154 0 39 0 32.................F....b8+++uA....W++++u.....;
#X connect 154 1 30 0 32.................E....r....PA....K....j.....;
#X connect 154 2 40 0 48......................b8+++O.....W++++OA...Pq++++S....z5+++eN....;
#X connect 155 0 18 0 32.................X..........F.........7B....;
#X connect 155 1 16 0 32.................D....r.....A....K....f.....;
#X connect 156 0 4 0 48......................T5+++O.....k9+++2h+++eR++++s3+++mz+++eK9+++;
#X connect 156 1 2 0 48.................h5+++OB...fn9+++i....zh+++OW....s3+++yE...PK9+++;
#X connect 156 2 146 0 32.................E.........PA.........j.....;
#X connect 156 3 157 0 32.................u....D....vK....A....zE....;
#X connect 158 0 167 0 32.................E.........PA.........n.....;
#X connect 160 0 178 0 48.................J8+++6x+++uR++++t7+++Oo+++Oh8+++S5+++iX++++j9+++;
#X connect 161 0 162 0 32.................D..........A.........b.....;
#X connect 162 0 178 0 32.................u....3A...vK....d....zE....;
#X connect 163 0 178 0 32.................J....nr+++uB....J6+++6A....;
#X connect 164 0 43 1 48.................r....Pg+++OK....T3+++mE...fy8+++YA...3b++++XA...;
#X connect 164 0 163 0 48.................D8+++y3+++OQ++++L9+++mx+++Ox9+++o7+++ir+++eJ++++;
#X connect 165 0 178 0 32.................e....Xe++++G....12+++6C....;
#X connect 166 1 164 0 32.................hA...T....fX....E....PL....;
#X connect 167 0 160 0 32.................D..........A.........f.....;
#X connect 168 0 173 0;
#X connect 168 1 172 0 48......................................ru+++O.....66+++C....v99+++;
#X connect 169 0 168 2 32.................T....75+++OE....u9+++uC....;
#X connect 170 0 178 0;
#X connect 171 0 170 0;
#X connect 171 0 176 0;
#X connect 172 0 178 0 32.................J....bT+++uB....G0+++6A....;
#X connect 173 0 178 0 48.................r....Xq+++OK....15+++uB...vZ8+++q....rV+++eP....;
#X connect 174 0 178 0;
#X connect 175 0 174 0;
#X connect 176 0 174 0;
#X connect 177 0 165 0 48......................................fv+++O.....H7+++C.....B++++;
#X connect 177 0 158 1 32.................o....XH...PJ....FB...rG....;
#X connect 177 0 166 0 48......................jB.........o.....w+++eT....P7+++GE....D++++;
#X connect 178 0 19 0 32.................UA...3++++eU....9++++mJ....;
#X connect 179 0 20 1 32.................y.....B...vL....f....XF....;
#X connect 179 0 8 0 64.................G9+++mI...vg++++YB...rx+++Oy....q7+++yL...PC++++XF...zv+++OlA...M7+++C;
#X connect 185 0 168 0 32.................B....b6+++u.....29+++e.....;
#X coords 0 0 1 1 796 282 1 0 0;
