#N canvas 827 239 527 327 12;
#X obj 8 7 tgl 25 0 empty empty empty 17 7 0 10 #333333 #eeeeee #e4e4e4 0 1;
#X obj 354 125 sel 0 1;
#X msg 354 151 disconnect;
#X obj 471 162 r \$0-OSC_port;
#X symbolatom 8 59 9 0 0 2 OSCport - \$0-OSC_port 16;
#X msg 269 91 set 666;
#X obj 471 191 scaleProvider/rj/u_symbol2float;
#X obj 471 217 t b f;
#X symbolatom 8 103 9 0 0 2 OSChost - - 16;
#X obj 8 288 prepend connect;
#X msg 353 461 set \$1;
#X obj 269 150 prepend set;
#X msg 269 124 localhost;
#X msg 67 250 \$1 666;
#X msg 489 246 set \, adddollar 1 \, add2 \$1;
#X obj 415 360 osc.parse;
#X obj 353 327 netsend;
#X obj 298 56 t b b;
#X obj 298 31 sel 0;
#X obj 385 53 t b f;
#X msg 385 79 symbol localhost;
#X msg 535 82 set \$1;
#X obj 582 382 outlet;
#X obj 298 5 loadmess \$1;
#X connect 0 0 1 0 32......................nU.........ZE...zE....;
#X connect 1 0 2 0 32.................D..........A.........b.....;
#X connect 1 1 8 0 48......................zz+++O.....M8+++i8+++el9+++X++++mo+++O1++++;
#X connect 2 0 16 0 32.................OA........vS.........zI....;
#X connect 3 0 6 0 32.................E.........PA.........n.....;
#X connect 5 0 4 0 48......................n5+++O.....p9+++67+++O+9+++N++++yu+++uy++++;
#X connect 6 0 7 0 32.................D..........A.........b.....;
#X connect 7 0 8 0 64......................L0+++O.....S8++++7+++eF++++O++++mw+++Oe++++x3+++y2+++uL9+++78+++C;
#X connect 7 1 14 0 32.................E....b....PA....G....n.....;
#X connect 8 0 13 0 32.................+....rC...vO....6....zG....;
#X connect 9 0 16 0 32.................G....jU...vA....YE...PA....;
#X connect 10 0 0 0 48......................33+++O.....N9+++ih+++Op9+++n3+++ip+++OJ9+++;
#X connect 11 0 8 0 48......................n5+++O.....p9++++6+++O+9++++9+++yu++++u++++;
#X connect 12 0 11 0 32.................D..........A.........b.....;
#X connect 13 0 9 0 32.................J....X7+++uB....F++++OA....;
#X connect 14 0 13 0 48......................P2+++O.....z8+++K+++++V9+++x++++uk+++u7++++;
#X connect 15 0 22 0 32.................A....bJ...P.....mB...L.....;
#X connect 16 0 10 0 32.................5.........fN.........LG....;
#X connect 16 1 15 0 32.................G....vA...vA....b....3.....;
#X connect 17 0 8 0 32.................N....7s+++uC....e6+++yA....;
#X connect 17 1 12 0 32.................Y....b8+++eF....W++++GC....;
#X connect 17 1 5 0 32.................H....b8+++OB....W++++CA....;
#X connect 18 0 17 0 32.................C.........v..........X.....;
#X connect 18 1 19 0 48......................fA.........X....D.....R....A....fD...v.....;
#X connect 19 0 20 0 32.................D..........A.........b.....;
#X connect 19 1 21 0 32.................E....rH...PA....KB...n.....;
#X connect 19 1 14 0 32.................5....zE...fN....cA...3J....;
#X connect 20 0 8 0 48......................Pz+++O.....D8+++K.....h9+++B....fn+++eA....;
#X connect 21 0 4 0 48......................D0+++O.....Q8+++e8+++u78+++W++++Ke++++0++++;
#X connect 23 0 18 0 32.................D..........A.........b.....;
#X coords 0 0 1 1 144 136 1 0 0;
