#N struct 1032-symarray float x array symbols 1032-sym;
#N struct 1032-sym symbol name float on;
#N struct 1090-symarray float x array symbols 1090-sym;
#N struct 1090-sym symbol name float on;
#N canvas 637 216 811 297 12;
#X obj 0 240 cnv 15 680 42 empty \$0-randread randRead:0 185 25 0 14 #f1f1f1 #4d4d4d 0;
#N canvas 0 22 450 300 label 0;
#X obj 386 114 inlet;
#X obj 386 180 scaleProvider/rj/u_listdrip;
#X obj 450 237 counter 1 7;
#X msg 470 209 set 0;
#X obj 386 314 pack s f \$0;
#X msg 386 352 \; \$3-\$2-label label \$1;
#X obj 386 206 t a b;
#X obj 386 262 scaleProvider/rj/u_list2symbol;
#X obj 601 169 list length;
#X obj 601 222 until;
#X obj 601 248 t b b;
#X obj 386 140 t a a b;
#X msg 601 274 symbol;
#X obj 601 196 expr 7 - $f1;
#X connect 0 0 11 0;
#X connect 1 0 6 0;
#X connect 2 0 4 1;
#X connect 3 0 2 0;
#X connect 4 0 5 0;
#X connect 6 0 7 0;
#X connect 6 1 2 0;
#X connect 7 0 4 0;
#X connect 8 0 13 0;
#X connect 9 0 10 0;
#X connect 10 0 12 0;
#X connect 10 1 2 0;
#X connect 11 0 1 0;
#X connect 11 1 8 0;
#X connect 11 2 3 0;
#X connect 12 0 4 0;
#X connect 13 0 9 0;
#X restore 90 372 pd label;
#X obj 380 240 hradio 31 1 1 3 empty empty speed:16th -70 25 0 14 #333333 #eeeeee #555555 2;
#N canvas 0 22 450 300 readspeed 0;
#X obj 289 115 inlet;
#X obj 289 141 sel 0 1 2;
#X obj 285 270 outlet;
#X obj 464 152 s \$0-readSpeed;
#X msg 289 167 label speed:4th;
#X msg 305 195 label speed:8th;
#X msg 322 224 label speed:16th;
#X obj 746 282 daw_storage \$0-readSpeed;
#X connect 0 0 1 0;
#X connect 0 0 3 0 32.................I....7J...PB....uB...HA....;
#X connect 1 0 4 0;
#X connect 1 1 5 0;
#X connect 1 2 6 0;
#X connect 4 0 2 0;
#X connect 5 0 2 0;
#X connect 6 0 2 0;
#X restore 380 337 pd readspeed;
#N canvas 0 22 450 300 rangeNtime 0;
#X obj 168 -10 inlet;
#X obj 167 535 outlet;
#X obj 168 95 scaleProvider/rj/u_symbol2list -;
#X obj 168 121 route list;
#X obj 168 147 unpack s s;
#X obj 168 174 scaleProvider/rj/u_symbol2float;
#X obj 573 177 scaleProvider/rj/u_symbol2float;
#X obj 573 246 *;
#X obj 634 220 r \$0-grid-ms;
#X obj 167 464 scaleProvider/intoRange \$0;
#X obj 167 490 pack;
#X obj 168 16 scaleProvider/rj/u_symbol2list _;
#X obj 168 42 scaleProvider/rj/u_listdrip;
#X obj 345 259 osc.route /kP/scale /kP/namedscale;
#X obj 443 367 outlet namedScale;
#X obj 573 272 i;
#X obj 345 223 r \$0-kPoscReceive;
#X connect 0 0 11 0 32.................D..........A.........b.....;
#X connect 2 0 3 0 32.................D..........A.........b.....;
#X connect 3 0 4 0 32.................D..........A.........b.....;
#X connect 4 0 5 0 32.................D..........A.........f.....;
#X connect 4 1 6 0 32.................F....LV...fA....iE...r.....;
#X connect 5 0 9 0 32.................HB.........h.........7P....;
#X connect 6 0 7 0 32.................Y.........PF.........HC....;
#X connect 7 0 15 0 32.................D..........A.........b.....;
#X connect 8 0 7 1 32.................D....77+++OA....O++++e.....;
#X connect 9 0 10 0 32.................D..........A.........b.....;
#X connect 10 0 1 0 32.................M.........PC.........nA....;
#X connect 11 0 12 0 32.................D..........A.........b.....;
#X connect 12 0 2 0 32.................Q.........PD.........HB....;
#X connect 13 0 9 1 32.................cA...L9+++eW....i++++qK....;
#X connect 13 1 14 0 32.................s.........PK.........jE....;
#X connect 15 0 10 1 48.................x....zy+++uL....87+++uD...fd9+++KA...nm++++w....;
#X connect 16 0 13 0 32.................I.........PB.........DA....;
#X restore 17 525 pd rangeNtime;
#X obj 711 26 scaleProvider/noteRange 69 2;
#X obj 710 94 scaleProvider/noteRange 58 2;
#X obj 975 -15 r \$0-rangeBelow;
#X obj 975 9 r \$0-rangeAbove;
#X obj 976 145 s \$0-rangeBelow;
#X obj 1016 170 s \$0-rangeAbove;
#X obj 145 240 tgl 31 1 empty empty RUN -54 21 0 28 #333333 #eeeeee #3d3d3d 1 1;
#X obj 8 240 tgl 31 0 empty empty Labels 34 25 0 14 #333333 #eeeeee #373737 0 1;
#X obj 90 314 spigot;
#X obj 162 316 sel 0;
#X msg 162 342 bang;
#N canvas 0 22 450 300 noteout 0;
#X obj 116 47 inlet;
#X msg 116 88 \$1 102 \$2;
#X obj 280 187 r \$0-midiOut;
#X obj 115 220 noteout;
#X obj 115 167 pack;
#X obj 116 123 makenote;
#X msg 237 77 clear;
#X connect 0 0 1 0 32.................K.........vB.........XA....;
#X connect 1 0 5 0 32.................H..........B..........A....;
#X connect 2 0 3 2 32.................E....r2+++eA....68+++6.....;
#X connect 4 0 3 0;
#X connect 5 0 4 0 32.................M.........PC.........jA....;
#X connect 5 1 4 1 32.................M....L9+++eC....i++++mA....;
#X connect 6 0 5 0 32.................N....f3+++uC....H9+++uA....;
#X restore 17 551 pd noteout;
#X obj 681 146 oscReceiver;
#X obj 680 292 s \$0-kPoscReceive;
#X text 714 51 midi out range, f 8;
#X obj 82 467 s \$0-grid-length;
#X obj 553 541 t b a;
#X obj 961 348 daw_storage \$0-presets;
#X obj 925 465 route 0;
#X obj 993 437 list;
#X obj 267 630 route dummy;
#X obj 222 546 t b s;
#X msg 742 519 set;
#X obj 893 398 t a b;
#X obj 148 497 symbol;
#X obj 585 751 route 0;
#X obj 653 723 list;
#X obj 553 790 list trim;
#X obj 17 409 route symbol length callPreset writePreset deletePreset overwritePreset;
#X obj 553 694 gate 2 1;
#X obj 995 761 route 0;
#X obj 1063 733 list;
#X msg 539 661 0;
#X msg 504 661 1;
#X msg 1146 685 2;
#X obj 1027 870 list;
#X obj 1077 868 list;
#X obj 958 900 list;
#X obj 1044 949 list;
#X obj 983 975 route 0;
#X obj 1236 469 t b s b s;
#X obj 229 482 symbol;
#X obj 215 456 t b a b;
#X obj 1236 442 symbol;
#X obj 963 820 route dummy;
#X obj 941 647 t b b b b s b;
#X obj 963 791 list trim;
#X obj 941 606 symbol;
#X obj 909 977 route 0;
#X msg 911 1023 0;
#X obj 961 374 route 0;
#X obj 1000 1086 print \$0-empty;
#X obj 17 3 scaleSeq \$0;
#N canvas 0 22 450 300 show 0;
#X obj 108 31 inlet;
#X obj 108 117 t f f b;
#X obj 228 157 f 7;
#X obj 122 178 pack f f \$0;
#X obj 434 49 cnv 15 18 16 empty \$0-timeGrid_-1 empty 20 12 0 14 #e1e1e1 #e1e1e1 0;
#X obj 108 57 moses -1;
#X obj 160 84 moses 8;
#X obj 204 51 r \$0-grid-length;
#X msg 207 107 -1;
#X msg 122 204 \; \$3-timeGrid_\$1 color #B8B8B8 #B8B8B8 #B8B8B8 \; \$3-timeGrid_\$2 color #E1E1E1 #E1E1E1 #E1E1E1;
#X connect 0 0 5 0 32.................D..........A.........b.....;
#X connect 1 0 2 1 32.................G....LH...vA....CB...TA....;
#X connect 1 1 3 0 32.................U.........PE.........nB....;
#X connect 1 2 2 0 32.................K....rE...vB....aA...TA....;
#X connect 2 0 3 1 32.......................6+++O.....v9+++K.....;
#X connect 3 0 9 0 32.................D..........A.........b.....;
#X connect 5 1 6 0 32.................D....z.....A....M....f.....;
#X connect 6 0 1 0 32.................G....z7++++A....M++++6.....;
#X connect 6 1 8 0 32.................B....j....f.....I....P.....;
#X connect 7 0 6 1 32.................G....j+++++A....4++++6.....;
#X connect 8 0 1 0 48.......................8+++O.....P++++i++++On++++3++++C5+++O9++++;
#X restore 285 369 pd show;
#X obj 212 332 sel 0;
#X msg 212 358 -1;
#X obj 256 344 - 1;
#X msg 553 573;
#N canvas 0 22 450 300 run 0;
#X obj 597 178 inlet;
#X obj 295 160 playhead;
#X obj 444 190 unpack f f f;
#X obj 444 215 spigot;
#X obj 443 267 i;
#X obj 568 272 r \$0-readSpeed;
#X obj 568 298 + 1;
#X obj 568 324 sel 3;
#X msg 568 350 4;
#X obj 443 350 change;
#X obj 505 376 r \$0-grid-length;
#X obj 443 642 outlet;
#X obj 443 241 * 1;
#X obj 302 253 change;
#X obj 302 382 f;
#X obj 302 279 expr 60000 / $f1;
#X obj 302 434 s \$0-grid-ms;
#X obj 443 376 + 1;
#X obj 302 408 / 4;
#X obj 355 356 t b 4;
#X obj 302 305 t b f;
#X obj 189 279 sel 1;
#X obj 189 232 change;
#X msg 189 316 set -1;
#X obj 546 427 prepend set;
#X msg 443 487 16;
#X obj 443 402 % 16;
#X obj 443 428 sel 0;
#X obj 443 513 t f b;
#X obj 532 533 random 100;
#X obj 532 559 moses 0;
#X msg 573 582 1;
#X obj 532 585 t b;
#X obj 532 611 random 16;
#X obj 532 637 + 1;
#X msg 604 575 0;
#X obj 658 536 inlet randread;
#X obj 443 569 spigot 1;
#X connect 0 0 3 1 32.................I....72+++eB....+8+++KA....;
#X connect 1 0 22 0 32.................a....b4++++F....W9+++WC....;
#X connect 1 5 13 0 32.................Y....L6+++eF....y9+++qD....;
#X connect 1 8 2 0 32.................F....v....fA....L....r.....;
#X connect 2 0 3 0 32.................C.........v..........X.....;
#X connect 3 0 12 0 32.................D..........A.........b.....;
#X connect 4 0 9 0 32.................f..........H..........D....;
#X connect 5 0 6 0 32.................D..........A.........b.....;
#X connect 6 0 7 0 32.................D..........A.........b.....;
#X connect 7 0 8 0 32.................D....7++++OA....+++++e.....;
#X connect 7 1 12 1 48......................X8+++O.....V++++u4+++ef++++a9+++G3++++l++++;
#X connect 7 1 19 0 32.................G....3w++++A....d7+++2.....;
#X connect 8 0 12 1 48......................D8+++O.....Q++++G3+++ej++++A9+++G4+++ef++++;
#X connect 8 0 19 0 48......................b4+++O.....W9+++S++++uK++++z++++6x+++O8++++;
#X connect 9 0 17 0 32.................D..........A.........b.....;
#X connect 10 0 24 0 32.................P....jB....D....o.....B....;
#X connect 10 0 26 1 32.................D....H8+++OA....R++++e.....;
#X connect 10 0 33 1 32.................HA...nD....R....JA...fM....;
#X connect 12 0 4 0 32.................D..........A.........b.....;
#X connect 13 0 15 0 32.................D..........A.........b.....;
#X connect 14 0 18 0 32.................D..........A.........b.....;
#X connect 15 0 20 0 32.................D..........A.........b.....;
#X connect 17 0 26 0 32.................D..........A.........b.....;
#X connect 18 0 16 0 32.................D..........A.........b.....;
#X connect 19 0 14 0 32.................D....v7+++OA....L++++e.....;
#X connect 19 1 18 1 32.................Q....n7+++eD....J++++GB....;
#X connect 20 0 14 0 32.................c.........PG.........nC....;
#X connect 20 1 14 1 32.................c.........PG.........nC....;
#X connect 21 0 23 0 32.................I.........PB.........HA....;
#X connect 22 0 21 0 32.................N.........fC.........vA....;
#X connect 23 0 9 0 32.................E....3O...PA....9C...7.....;
#X connect 24 0 25 0 32.................N....f4+++uC....X9+++mB....;
#X connect 25 0 28 0;
#X connect 26 0 27 0 32.................D..........A.........b.....;
#X connect 27 0 25 0 32.................T....7++++OE....+++++iB....;
#X connect 27 1 28 0 32.................g....H++++eH....x++++KD....;
#X connect 28 0 37 0 32.................S.........vD.........TB....;
#X connect 28 1 29 0 32......................3D.........NA...D.....;
#X connect 29 0 30 0 32.................D..........A.........b.....;
#X connect 30 0 32 0 32.................D..........A.........b.....;
#X connect 30 1 31 0;
#X connect 31 0 37 1 48......................z7+++O.....M++++G9+++el++++g++++m4+++e3++++;
#X connect 32 0 35 0 48......................LB.........i....P9+++uQ....j++++aD....4++++;
#X connect 32 0 33 0 32.................D..........A.........b.....;
#X connect 33 0 34 0 32.................D..........A.........b.....;
#X connect 34 0 11 0 48......................L9+++O.....i++++29+++Op++++s++++i5++++7++++;
#X connect 35 0 37 1 48......................z6+++O.....89+++i9+++ed++++n++++m2+++O5++++;
#X connect 36 0 30 1 32.................A....b5+++e.....m9+++S.....;
#X connect 37 0 11 0 32.................G.........vA.........3.....;
#X restore 307 341 pd run;
#X obj 261 231 knob 48 0 100 0 0 empty \$0-randRead_sl # #696969 #4D4D4D 0 0 0 0 1 270 0 0 0;
#N canvas 0 22 450 300 randread 0;
#X obj 130 93 inlet;
#X obj 232 113 i;
#X obj 232 139 pack f \$0;
#X msg 232 165 \; \$2-randread label randRead:\$1;
#X obj 130 119 outlet;
#X connect 0 0 1 0;
#X connect 0 0 4 0;
#X connect 1 0 2 0;
#X connect 2 0 3 0;
#X restore 274 300 pd randread;
#X obj 1335 124 loadbang;
#X msg 1335 150 pluginmode;
#X obj 1335 176 s pd;
#X text 653 483 PresetName \, RUN \, speed \, upperR \, lowerR \, randRead;
#X obj 553 487 pack s f f f f f;
#X msg 553 513 add2 \$1 \$2 \$3 \$4 \$5 \$6;
#X msg 892 527 add2 \$1 \$2 \$3 \$4 \$5 \$6;
#X obj 893 438 list split 6;
#X obj 963 734 list split 6;
#X obj 553 724 list split 6;
#X obj 951 947 list split 6;
#X obj 8 17 cnv 15 30 29 empty \$0-7-label empty 14 14 0 14 #ffffff #797979 0;
#X obj 8 47 cnv 15 30 29 empty \$0-6-label empty 14 14 0 14 #ffffff #797979 0;
#X obj 8 77 cnv 15 30 29 empty \$0-5-label empty 14 14 0 14 #ffffff #797979 0;
#X obj 8 107 cnv 15 30 29 empty \$0-4-label empty 14 14 0 14 #ffffff #797979 0;
#X obj 8 137 cnv 15 30 29 empty \$0-3-label empty 14 14 0 14 #ffffff #797979 0;
#X obj 8 167 cnv 15 30 29 empty \$0-2-label empty 14 14 0 14 #ffffff #797979 0;
#X obj 8 197 cnv 15 30 29 empty \$0-1-label empty 14 14 0 14 #ffffff #797979 0;
#X obj 267 689 unpack f f f f f;
#X obj 341 711 pack f \$0;
#X msg 341 737 \; \$2-randRead_sl \$1;
#X connect 2 0 3 0 32.................W.........vE.........3B....;
#X connect 2 0 70 2 48.................j....bF....I....mA...fD...fy....HA...3L....1....;
#X connect 3 0 2 0 48......................................D5+++O.....g9+++C....Pn++++;
#X connect 4 0 16 0 32.................D..........A.........b.....;
#X connect 4 1 13 0 48......................................bv+++O.....G7+++C....vA++++;
#X connect 5 0 9 0 48.................p....XB...fJ....l....LE...PBA...SA...jP...PX....;
#X connect 5 0 70 3 64......................X9+++O.....l++++eC...fx++++2....n7+++eo....T9+++WJ....k++++2F....;
#X connect 6 0 10 0 32.................R....HS...fD....xD...XC....;
#X connect 6 0 70 4 48......................z7+++O.....M+++++I...fo++++eB...X5++++bA...;
#X connect 7 0 5 0 32.................K....ju++++B....46+++aA....;
#X connect 8 0 6 0 32.................g....fu+++eH....36+++KD....;
#X connect 11 0 59 0 32.................U....LD...PE....CA...jB....;
#X connect 11 0 63 0 32.................Q....HJ...PD....hB...HC....;
#X connect 11 0 70 1 96......................zC.........8....7A...Pd....e....jG...PW....1B...zE...fs....ZB...HO...fl....xC...jK....pA...4B...fZ....1....;
#X connect 12 0 13 1 32.................H....jF....B....oA...bA....;
#X connect 12 0 14 0 32.................M....nI...PC....ZB...jA....;
#X connect 13 0 1 0 32.................T..........E.........bB....;
#X connect 14 0 15 0 32.................D..........A.........b.....;
#X connect 15 0 1 0 32.................D....j6+++OA....49+++u.....;
#X connect 17 0 18 0 32.................E.........PA.........n.....;
#X connect 21 0 62 0 32.................G.........vA.........z.....;
#X connect 21 1 62 0 32.................G....T+++++A....0++++2.....;
#X connect 22 0 55 0 32.................D..........A.........b.....;
#X connect 23 1 24 0 48......................PA.........T....H8+++OJ....R++++iB...fz++++;
#X connect 24 0 73 0 48......................77+++O.....O+++++9+++em++++u++++24++++6++++;
#X connect 25 0 84 0 32.................T..........E.........fB....;
#X connect 26 0 62 0 32.................D....rT....A....KE...f.....;
#X connect 26 1 25 1 32.................g....DF...PH....gA...DD....;
#X connect 27 0 62 0 32.................L....Pz+++OC....D8+++OB....;
#X connect 28 0 73 0 32.................K.........vB.........TA....;
#X connect 28 1 27 0 48......................H8+++O.....R++++yB...fW++++r....30+++uY....;
#X connect 29 0 26 0 32.................J....nD...fB....JA...3A....;
#X connect 30 1 31 0 48......................PA.........T....H8+++OJ....R++++iB...fz++++;
#X connect 31 0 75 0 48......................77+++O.....O+++++9+++em++++u++++24++++6++++;
#X connect 32 0 25 0 48......................X3+++O.....F9+++6z++++39+++N8+++Ot+++uS++++;
#X connect 33 0 4 0 32.................o.........PJ.........HE....;
#X connect 33 1 20 0 32.................L..........C.........fA....;
#X connect 33 2 29 0 32.................a.........vF.........XC....;
#X connect 33 3 47 0 32.................G....D....vA....A....z.....;
#X connect 33 4 52 0 48.................T....zY....E....cF...zC...PkB...8....To...vn....;
#X connect 33 5 48 0 48......................Xt.........lK........fdC........n2.........;
#X connect 34 0 75 0 32.................F.........fA.........r.....;
#X connect 34 1 74 0 48.................D....3G....A....9A...b....fdA...G....nW...PE....;
#X connect 35 1 36 0 48......................PA.........T....H8+++OJ....R++++iB...fz++++;
#X connect 36 0 74 0 48......................77+++O.....O+++++9+++em++++u++++24++++6++++;
#X connect 37 0 34 0 32.................G.....A...vA....P....3.....;
#X connect 38 0 34 0 32.................G....PC...vA....z....3.....;
#X connect 39 0 34 0 48......................js+++O.....Y6+++e++++ur8+++2++++Ka++++8++++;
#X connect 40 0 41 0 48......................jA.........Y....v9+++uL....r++++KC....6++++;
#X connect 40 0 42 1 32.................F....b7+++uA....G++++u.....;
#X connect 41 0 40 1 48......................z9+++O.....s++++C++++u1++++v++++q8+++O7++++;
#X connect 42 0 76 0 32.................N....n++++uC....5++++yA....;
#X connect 43 0 76 0 48......................H9+++O.....h++++y9+++Oo++++r++++S5+++O6++++;
#X connect 44 1 43 0 48......................DA.........Q....P8+++eH....T++++GB....0++++;
#X connect 44 1 54 0 32.................J....r4+++uB....a9+++2A....;
#X connect 45 0 38 0 48.................c....Do+++eG....Q5+++qC...fH8+++5....HR+++eq....;
#X connect 45 1 70 0 32......................bT+++O.....G0+++C.....;
#X connect 45 2 37 0 48.................V....ji+++uE....43+++GD...vI8+++AA...bR+++eq....;
#X connect 45 3 50 0 32.................0....rp+++eM....q5++++I....;
#X connect 46 0 70 0 48......................vF.........rA...L++++OQA...y++++ST...v7++++;
#X connect 47 0 38 0 48.................0....jB...PM....o.....E...fGA...PA...3Q...ft....;
#X connect 47 1 46 0 32.................D..........A.........b.....;
#X connect 47 2 37 0 32.................9....TR...fO....kD...nK....;
#X connect 48 0 45 0 32.................D..........A.........f.....;
#X connect 49 1 40 0 32.................P..........D.........7A....;
#X connect 50 0 62 0 48......................71+++O.....u8+++S5+++ee9+++j9+++2m+++Oo++++;
#X connect 50 0 38 0 48......................31+++O.....t8+++y++++eR9+++7++++mj+++O+++++;
#X connect 50 1 42 0 32.................0A...D....Pc....A....nN....;
#X connect 50 2 27 0 32.................t8+++mw+++ua++++Y7+++61+++O;
#X connect 50 3 62 0 48......................71+++O.....u8+++S5+++OS9+++j9+++yj+++Oo++++;
#X connect 50 4 49 1 32.................MA...PA...PS....T....nI....;
#X connect 50 5 39 0 32.................J....fG...fB....3A...LA....;
#X connect 50 5 40 1 32.................lA...3....fY....N....vL....;
#X connect 51 0 49 0 32.................E.........PA.........n.....;
#X connect 52 0 50 0 32.................K.........vB.........XA....;
#X connect 53 0 54 0 32.................N.........fC.........rA....;
#X connect 53 1 72 0 48......................n9+++O.....p++++yh+++O0++++r3+++S8+++OK9+++;
#X connect 54 0 22 0 48......................nA.........Z....rT+++OM....K0+++SC...vR8+++;
#X connect 54 0 56 0 32.................V....rE...fE....aA...vB....;
#X connect 55 1 28 0 32.................B....D5+++u.....g9+++W.....;
#X connect 57 0 33 0 32.................UA........PU.........jJ....;
#X connect 59 0 60 0 32.................D..........A.........b.....;
#X connect 60 0 58 0 32.................D....nD....A....JA...v.....;
#X connect 61 0 58 0 32.................M....zA...PC....c....nA....;
#X connect 62 0 34 1 32.................y.....B...vL....f....XF....;
#X connect 62 0 22 0 48.................G9+++mI...vg++++YB...zv+++OlA...M7+++iY...PC++++;
#X connect 63 0 61 0 48......................b9+++O.....m++++G++++uy++++w++++67+++e7++++;
#X connect 63 0 57 0 48.................N8+++S4+++uS++++T9+++yo++++29+++b5++++s+++Om9+++;
#X connect 64 0 65 0 32.................A....z....P.....M....D.....;
#X connect 65 0 63 1 32.................K....jC...vB....4....XA....;
#X connect 65 0 70 5 48......................jG.........4A...fC...fZA...3....nV....p....;
#X connect 66 0 67 0 32.................D..........A.........b.....;
#X connect 67 0 68 0 32.................D..........A.........b.....;
#X connect 70 0 71 0 32.................D..........A.........b.....;
#X connect 71 0 21 0 32.................E.........PA.........j.....;
#X connect 72 0 62 0 32.................I....3p+++eB....t5+++uA....;
#X connect 73 0 71 0 32.................b....zp+++OG....s5+++iC....;
#X connect 73 1 23 0 32.................D....r.....A....K....f.....;
#X connect 74 0 51 0 32.................S.........vD.........XB....;
#X connect 74 1 35 0 32.................D....r.....A....K....f.....;
#X connect 75 0 32 0 32.................X..........F.........7B....;
#X connect 75 1 30 0 32.................D....r.....A....K....f.....;
#X connect 76 0 53 0 32.................F....b8+++uA....W++++u.....;
#X connect 76 1 44 0 32.................E....r....PA....K....j.....;
#X connect 76 2 54 0 48......................b8+++O.....W++++OA...Pq++++S....z5+++eN....;
#X connect 84 0 11 0 64.................h5+++K9+++un9+++h++++el++++z++++m4+++O8+++eK9+++G9+++2h++++g++++s3+++C;
#X connect 84 1 2 0 48.................h5+++aD...fn9+++FA...zh+++eW....s3+++2E...PK9+++;
#X connect 84 2 5 0 48......................nL.........JC...bU++++jA...W0+++OY...vU8+++;
#X connect 84 3 6 0 48......................7K.........+B...rY+++eeA...a1+++2W...vl8+++;
#X connect 84 4 85 0;
#X connect 85 0 86 0;
#X coords 0 0 1 1 796 282 1 0 0;
