#N struct 1009-f float x;
#N struct 3000-symarray float x array symbols 3000-sym;
#N struct 3000-sym symbol name float on;
#N struct 3014-symarray float x array symbols 3014-sym;
#N struct 3014-sym symbol name float on;
#N canvas 58 106 566 270 10;
#X declare -path scaleProvider;
#X declare -path scaleProvider/rjlib/rj;
#X declare -path scaleProvider/rc/rc;
#X declare -path scaleProvider/abs;
#X declare -path scaleProvider/abs/list-abs;
#X obj 219 585 midiformat;
#X obj 219 558 midiparse;
#X obj 434 678 midiout;
#X obj 219 527 midiin;
#X obj 445 114 noteRange 69 1;
#X obj 445 141 noteRange 58 1;
#X obj 192 477 prepend label;
#X obj 283 16 cnv 15 222 35 empty \$0-chordLabel C\ unison 10 18 0 18 #696969 #e1e1e1 0;
#X obj 192 503 s \$0-chordLabel;
#X obj 515 16 tgl 25 1 empty empty midiIn2Out -38 -8 0 13 #191919 #e1e1e1 #313131 1 1;
#X obj 192 451 tosymbol;
#X obj 192 425 r \$0-kPchordName;
#X obj 303 -43 r \$0-rangeBelow;
#X obj 303 -19 r \$0-rangeAbove;
#X obj 303 402 s \$0-rangeBelow;
#X obj 303 434 s \$0-rangeAbove;
#X obj 283 58 cnv 15 258 31 empty \$0-scaleLabel C\ C\ C\ C\ C\ C\ C 10 18 0 18 #696969 #e1e1e1 0;
#X obj 256 804 s \$0-providedNotes;
#X obj 508 611 gate 1;
#X obj 849 19 loadbang;
#X msg 849 45 pluginmode;
#X obj 849 71 s pd;
#N canvas 752 47 636 730 chords 0;
#X obj 171 248 r retriggerScale;
#X obj 68 11 r \$0-providedNotes;
#X obj 81 365 s \$0-kPchordName;
#X obj 81 330 m2chordscale;
#X msg 171 274 retrigger;
#X obj 116 402 s \$0-kPscale;
#X connect 0 0 4 0;
#X connect 1 0 3 0;
#X connect 3 0 2 0;
#X connect 3 1 5 0;
#X connect 4 0 3 0;
#X restore 632 545 pd chords;
#X obj 557 -320 declare -path scaleProvider;
#X obj 566 -293 declare -path scaleProvider/rjlib/rj;
#X obj 576 -263 declare -path scaleProvider/rc/rc;
#X obj 597 -207 declare -path scaleProvider/abs;
#X obj 219 666 unpack;
#X obj 219 692 moses 0;
#X obj 255 719 moses 127;
#X obj 401 671 r \$0-rangeBelow;
#X obj 416 697 r \$0-rangeAbove;
#X obj 255 745 pack;
#X obj 367 749 oktRange \$0;
#X obj 505 -120 daw_storage \$0-in2Out;
#X obj 517 394 namecanvas \$0-scaleProvider;
#N canvas 461 88 450 300 Menu 0;
#X obj 111 172 unpack f s;
#X obj 290 -118 r addPreset;
#X msg 443 72 set;
#X obj 498 -16 r \$0-overwrite;
#X msg 503 256 callLinkedPreset \$1;
#X msg 501 146 storeLinkedPreset \$1;
#X obj 715 153 counter;
#X obj 715 64 bng 25 250 50 0 empty empty empty 17 7 0 10 #e4e4e4 #4d4d4d #373737;
#X obj 781 -141 bng 25 250 50 0 empty empty reset 17 7 0 10 #e4e4e4 #4d4d4d #373737;
#X obj 715 112 t b;
#X obj 501 105 f 0;
#X msg 180 16 \; addPreset_R set, f 19;
#X obj 350 236 r \$0-delete;
#X obj 350 297 f;
#X msg 350 338 deleteLinkedPreset \$1;
#X msg -64 386 dump;
#X obj 130 440 route 1;
#X obj 130 358 list split 2;
#X obj 143 256 list prepend;
#X obj 198 222 list;
#X obj 130 317 list;
#X obj 185 317 list;
#X obj 268 370 t b b b f b;
#X msg 291 419 set;
#X obj 243 442 unpack f s;
#X msg 291 460 add \$1;
#X obj 501 187 outlet;
#X obj 687 421 list trim;
#X msg 558 386 set;
#X obj 687 339 list prepend add2;
#X obj 111 146 vanillaMenu \$0-scaleProvider presets 13 55 250 14;
#X msg 310 76 add \$1 \, symbol \$1;
#X obj 310 3 route float symbol;
#X obj 851 402 daw_storage \$0-linkedPresets;
#X obj 687 368 t b a;
#X obj 913 287 t b a b;
#X obj 846 663 list trim;
#X obj 1039 506 list length;
#X obj 847 571 list prepend set, f 19;
#X msg 35 64 set Einz Two;
#X obj 820 620 list;
#X obj 764 545 loadbang;
#X obj 764 586 del 2000;
#X obj 130 399 t b a;
#X obj 155 492 list split 1;
#X obj 155 518 + 1;
#X obj 820 378 route bang;
#X obj 310 -52 sChange;
#X obj 851 428 route bang 0;
#X obj 992 332 print dawed;
#X obj 687 262 pack s 120 4 4 1 70 57;
#X obj 920 40 r bpm;
#X obj 946 71 r ts1;
#X obj 976 101 r ts2;
#X obj 1006 131 r pgm;
#X obj 1099 116 r \$0-rangeBelow;
#X obj 1099 160 r \$0-rangeAbove;
#X obj 448 573 list split 7;
#X obj 525 571 list;
#X obj 448 625 unpack s f f f f f f;
#X obj 448 651 sel [dummy];
#X obj 448 684 f;
#X obj 448 710 s bpm_r;
#X obj 448 738 f;
#X obj 448 764 s ts1_r;
#X obj 449 788 f;
#X obj 449 814 s ts2_r;
#X obj 518 684 f;
#X obj 518 738 f;
#X obj 519 788 f;
#X obj 518 710 s pgm_r;
#X obj 518 764 s \$0-rangeBelow;
#X obj 519 814 s \$0-rangeAbove;
#X obj 914 487 / 7;
#X obj 1159 418 list split 7;
#X obj 1231 413 list;
#X obj 1127 543 list;
#X obj 1127 316 t b a b;
#X obj 1158 448 list split 1;
#X obj 1249 472 list;
#X obj 1158 474 list;
#X obj 260 606 prepend set;
#X obj 174 562 t b s;
#X obj 174 682 route [dummy];
#X obj 1234 122 t b;
#X obj 1465 157 symbol;
#X obj 1234 174 pack s 120 4 4 1 70 57;
#X msg 348 695 0;
#X msg 1124 -22 set;
#X obj 1535 175 list split 7;
#X obj 1607 170 list;
#X obj 1503 320 list;
#X obj 1503 73 t b a b;
#X obj 1636 276 list;
#X obj 1555 316 list;
#X obj 1535 241 route [dummy];
#X obj 1535 206 list trim;
#X obj 1019 35 pgmout;
#X obj 1085 658 route bang;
#X msg 1004 684 120;
#X msg 1014 720 4;
#X obj 918 -83 ctlout 5 15;
#X obj 944 -52 ctlout 6 15;
#X obj 973 -23 ctlout 6 15;
#X obj 918 -134 - 50;
#X obj 1511 592 list prepend set, f 19;
#X obj 1511 618 list trim;
#X msg 174 641;
#X msg 448 547;
#X msg 558 455;
#X msg 1503 19;
#X connect 0 0 13 1 48.................M....zG...PC....8A...fB...f9....n....nO...fZ....;
#X connect 0 0 10 1 64......................XH.........FB...L++++uSA...y++++6T...vp++++QF...r5+++ejA...q9+++C;
#X connect 0 0 4 0 32.................V....fX...fE....HF...DD....;
#X connect 0 0 108 0 48......................3G.........9A...XH...PTA...FB...DU....YA...;
#X connect 0 1 60 1 48.................5....TP...fN....ED...LG....WA...yA...vU....yA...;
#X connect 0 1 95 1 32.................Q....fZA..PD....nV...HC....;
#X connect 0 1 85 1 32.................Q....bSA..PD....2T...78+++O;
#X connect 1 0 47 0 32.................D..........A.........b.....;
#X connect 1 0 11 0 32.................l....72+++uI....+8+++uD....;
#X connect 2 0 30 0 32.................M....Tq+++eC....05+++eC....;
#X connect 3 0 10 0 32.................fA...L.....X....C....XF....;
#X connect 3 0 110 0 48.................ZA...DU...fV....QE...DA...P6C...Q....z9....D....;
#X connect 4 0 26 0 48......................................j5+++++++++o9++++++++ep++++;
#X connect 5 0 26 0 32.................K.........vB.........XA....;
#X connect 6 0 10 0 48......................X4+++O.....V9+++66++++J++++99+++ux+++uu++++;
#X connect 6 0 13 1 32.................p....7o+++uJ....e5+++2G....;
#X connect 7 0 6 0 32.................f..........H..........D....;
#X connect 8 0 6 2 32.................GB...78++++g....e++++2P....;
#X connect 8 0 28 0 48.................9A...D4+++ue....Q9+++yK...fH++++7B...Hx+++u8A...;
#X connect 8 0 88 0 48.................X....XM....F....VC...LB...vUA...i....bU...fW....;
#X connect 8 0 2 0 32.................DA...7p+++OQ....u5+++yK....;
#X connect 9 0 6 0 32.................K.........vB.........XA....;
#X connect 10 0 5 0 32.................K.........vB.........XA....;
#X connect 12 0 13 0 32.................U.........PE.........nB....;
#X connect 13 0 14 0 32.................K.........vB.........XA....;
#X connect 13 0 22 0 32.................a....75++++F....u9+++aC....;
#X connect 14 0 26 0 64......................DD.........AA...f6+++uU....39+++aE...vU++++WB...b0++++k....W8+++C;
#X connect 15 0 30 0 48......................rD.........KA...3u++++q....96++++J...f+9+++;
#X connect 16 1 24 0 48......................vB.........r.....++++OV....v++++iE....7++++;
#X connect 16 1 44 0 32.................Q.........PD.........DB....;
#X connect 17 0 43 0 32.................K.........vB.........XA....;
#X connect 17 1 21 1 48......................bA.........W....T7+++eK....E++++2B...Pw++++;
#X connect 18 0 20 1 32.................U....7++++eE....+++++qB....;
#X connect 18 0 19 0 48......................vA.........b....v7++++M....L++++eC....y++++;
#X connect 19 0 18 1 32.................H..........B.........7.....;
#X connect 20 0 17 0 32.................K.........vB.........XA....;
#X connect 21 0 17 0 32.................K....n7++++B....J++++aA....;
#X connect 22 0 20 0 48......................v6+++O.....79+++m6++++c++++49+++e2+++et++++;
#X connect 22 1 23 0 32.................O....b....vC....G....3A....;
#X connect 22 2 15 0 48......................rz+++O.....K8+++6++++ek9+++9++++Wo+++u+++++;
#X connect 22 3 16 1 32.................Q.....1+++eD....f8+++OC....;
#X connect 22 4 18 1 48......................b7+++O.....G++++y2+++ud++++78+++q2+++Oe++++;
#X connect 22 4 28 0 48......................rD.........KA...3++++e3....9++++GN...f+++++;
#X connect 22 4 87 0 32.................YB...z....Pl....M....HS....;
#X connect 23 0 30 0 64......................P8+++O.....T++++Gv+++eu++++A7+++26+++e29+++M8+++2s+++eS++++c6+++C;
#X connect 24 1 25 0 48.................................................................;
#X connect 25 0 30 0 48......................T7+++O.....E++++Sq+++eS++++z5+++2z+++Os9+++;
#X connect 27 0 108 0 32.................j....Hw+++OI....R7+++uF....;
#X connect 27 0 30 0 64.................H....Dz+++OB....A8+++61+++ef9+++t8+++Gn++++19+++A2+++us+++ev8+++a6+++C;
#X connect 27 0 109 0 32.......................3+++O......9++++.....;
#X connect 28 0 108 0 48.................R....T9+++uD....k++++WC...vj++++0....L4+++ui....;
#X connect 28 0 109 0 32.................S.........vD.........HC....;
#X connect 29 0 34 0 32.................K.........vB.........n.....;
#X connect 30 0 0 0 32.................D..........A.........b.....;
#X connect 30 1 18 0 32.................m....Lv++++I....C7+++uE....;
#X connect 31 0 30 0 32.................T....ny+++OE....57+++OC....;
#X connect 32 1 9 0 32.................d....bV...fG....mE...nE....;
#X connect 32 1 95 1 48.................k....Hz...PI....BM...jD...v3D...IA...LNA..v1....;
#X connect 32 1 50 0 64......................3F.........tA...jB....2....o....vM...PT....KE...DE...vRA...vC....;
#X connect 32 1 85 1 64.................R....HH...fD....BB...PB...v.A...j....LP...fM....xQ...XC...fbD...GB....;
#X connect 32 1 31 0 32.................a....L8++++F....S++++aC....;
#X connect 33 0 48 0 32.................D..........A.........b.....;
#X connect 34 0 109 0 32.................r.....3+++OK.....9+++SD....;
#X connect 34 1 27 0 32.................W....T+++++E....0++++KB....;
#X connect 35 1 37 0 32.................VA....G...fU....vA...fL....;
#X connect 35 1 18 0 48......................jm+++O.....44++++7+++e77+++O++++GO++++y++++;
#X connect 35 1 49 0 32.................M....DD...PC....AA...nA....;
#X connect 35 1 77 0 32.................E....fL...PA....HC...n.....;
#X connect 35 1 105 0 48.................HA...zV....R....sE...rF....RB...qA...fj...fGA...;
#X connect 35 2 28 0 48.................M....Dr+++eC....A6+++uA...Pf9+++a....Dn+++OT....;
#X connect 36 0 30 0 64......................vv+++O.....L7+++Kj+++ej9+++B4+++Go+++e58+++hz+++md+++uH8+++o2+++C;
#X connect 37 0 73 0 48......................b8+++O.....W++++u8+++Og++++a++++S3++++1++++;
#X connect 38 0 40 1 32.................O....D+++++C....w++++6A....;
#X connect 39 0 30 0 32.................f....vD....H....LA...7C....;
#X connect 40 0 36 0 32.................L....nA....C....Z....fA....;
#X connect 40 0 98 0 32.................J....jP...fB....ID...LA....;
#X connect 41 0 42 0 32.................K.........vB.........XA....;
#X connect 42 0 40 0 32.................H....fC....B....3....7.....;
#X connect 43 0 21 0 48......................vA.........b....v4++++M....b9+++eC....m++++;
#X connect 43 1 16 0 32.................K....T+++++B....0++++aA....;
#X connect 44 0 45 0 32.................D..........A.........b.....;
#X connect 44 1 82 0 32.................Z.........fF.........LC....;
#X connect 44 1 50 0 80......................rJ.........qB...75+++O.A...u9+++CP...fg++++UE...X3+++eUA...86+++Gf...P+9+++AH...fv+++O;
#X connect 45 0 6 2 64......................3O.........9C...Xx++++9A...l7+++ue...Pf9+++PI...Dn+++OTB...A5+++C;
#X connect 46 1 33 0 32.................C....39++++.....t++++W.....;
#X connect 47 0 32 0 32.................R.........fD.........PB....;
#X connect 48 2 35 0 48......................D..........A....D1+++e.....g8+++G....PX++++;
#X connect 50 0 29 0 32.................e.........vG.........nC....;
#X connect 51 0 86 1 64......................LE.........SA...zA...Pe....c....zG...vJ....ME...rB...PSA...yA....;
#X connect 51 0 104 0 48.......................................z+++++++++.8++++++++OP++++;
#X connect 51 0 50 1 32.................EA...rx+++eQ....q7+++uL....;
#X connect 52 0 86 2 48......................zF.........sA...3....vQA...N....bT....U....;
#X connect 52 0 102 0 48......................................L2+++++++++y8+++++++++b++++;
#X connect 52 0 50 2 32.................KA...Tx++++R....k7+++yJ....;
#X connect 53 0 86 3 32.................a....vS...vF....7D...XC....;
#X connect 53 0 103 0 48......................7++++O.....+++++K2+++u+++++x8+++6++++ub++++;
#X connect 53 0 50 3 32.................1....nw+++uM....Z7+++6H....;
#X connect 54 0 86 4 32......................HS.........xD...fA....;
#X connect 54 0 97 0 48......................b..........G....33+++eC....N9+++2....fi++++;
#X connect 54 0 50 4 32.................q.....w++++J....P7+++CG....;
#X connect 55 0 86 5 32.................T....fN....E....nC...bB....;
#X connect 55 0 50 5 32.................w....Xr+++eL....F6++++G....;
#X connect 56 0 86 6 48......................PE.........TA...v++++O+....7++++yO....+++++;
#X connect 56 0 50 6 32.................c....ns+++eG....Z6+++OE....;
#X connect 57 0 59 0 32.................Q.........PD.........DB....;
#X connect 57 1 58 0 48......................zA.........c....v9+++eN....r++++mC....6++++;
#X connect 58 0 57 0 48......................b9+++O.....m++++C++++Os++++v++++S6+++O7++++;
#X connect 59 0 60 0 32.................D..........A.........b.....;
#X connect 59 1 61 1 32.................T....v++++OE....7++++iB....;
#X connect 59 2 63 1 32.................u....r9++++K....q++++6E....;
#X connect 59 3 65 1 32.................HA...r8+++OR....a++++CI....;
#X connect 59 4 67 1 32.................T....3.....E....N....fB....;
#X connect 59 5 68 1 32.................u....3+++++K....9++++6E....;
#X connect 59 6 69 1 32.................HA...39+++OR....t++++CI....;
#X connect 60 0 61 0 32.................G.........vA.........3.....;
#X connect 60 0 63 0 32.................h.........fH.........PD....;
#X connect 60 0 65 0 32.................6....D....vN....A....XG....;
#X connect 60 0 67 0 32.................G....XD...vA....FA...3.....;
#X connect 60 0 68 0 32.................h....XD...fH....FA...PD....;
#X connect 60 0 69 0 32.................6....bD...vN....GA...XG....;
#X connect 61 0 62 0 32.................D..........A.........b.....;
#X connect 63 0 64 0 32.................D..........A.........b.....;
#X connect 65 0 66 0 32.................D..........A.........b.....;
#X connect 67 0 70 0 32.................D..........A.........b.....;
#X connect 68 0 71 0 32.................D..........A.........b.....;
#X connect 69 0 72 0 32.................D..........A.........b.....;
#X connect 73 0 6 2 64.................88+++y9+++ee++++r++++C0+++uv++++P8+++K7+++On9+++Z8+++Cp+++uV++++f5+++C;
#X connect 73 0 10 1 64......................r2+++O.....68+++au+++e89+++16+++Wu+++Ob9+++u4+++Cm++++a9+++v4+++C;
#X connect 73 0 13 1 64.................r8+++K6+++Oa++++x9+++6z+++OE++++N8+++Sw+++OL++++X2+++Cy+++O18+++v7+++C;
#X connect 74 0 78 0 32.................F.........fA.........r.....;
#X connect 74 1 75 0 48......................nA.........Z....j9+++OM....o++++SC...P5++++;
#X connect 75 0 74 0 48......................j9+++O.....o++++O++++et++++y++++m6++++7++++;
#X connect 76 0 38 0 32.................E....jt+++eA....o6+++m.....;
#X connect 77 0 76 0 32.................nA.........Z..........M....;
#X connect 77 1 74 0 32.................p....HA...fJ....R....LE....;
#X connect 77 2 76 1 32.................nA...79+++OZ....u++++CM....;
#X connect 78 0 80 0 32.................D..........A.........b.....;
#X connect 79 0 80 1 48......................X9+++O.....l++++C++++er++++v++++G6+++O7++++;
#X connect 80 0 76 1 32.................Y....z9+++eF....s++++KC....;
#X connect 80 0 79 0 48......................3B.........t....v9++++V....r++++uE....6++++;
#X connect 81 0 107 0 32.................G....r5++++A....q9+++CA....;
#X connect 81 0 110 0 64.................E....HK...PA....xB....k+++eEB...P4+++Wg...vn8+++aS...LZ++++1D...i1+++C;
#X connect 82 0 107 0 32.................d.........fG.........vC....;
#X connect 82 1 83 1 32.................y....vC...vL....7....TF....;
#X connect 82 1 85 1 64......................nI.........ZB...L7+++uyA...C++++6b....T9+++bT....k+++OGE...Y4+++C;
#X connect 83 1 29 0 64......................LI.........SB...vz+++ObA...L8+++CW...vk9+++4F...bo+++etA...W5+++C;
#X connect 84 0 85 0 32.................D....bN....A....mC....A....;
#X connect 85 0 86 0 32.................6++++qw++++9++++Z7++++++++O;
#X connect 86 0 94 0 32.................UA...DT...PU....AE...rG....;
#X connect 88 0 107 0 64.................WC...fX++++0....H1+++KT...P57+++BE...jN+++eqA...Kw+++2Z...vR7+++DJ....;
#X connect 88 0 110 0 32.................K....rW...vB....6E...XA....;
#X connect 89 0 96 0 32.................F.........fA.........v.....;
#X connect 89 1 90 0 48......................nA.........Z....j9+++OM....o++++SC...P5++++;
#X connect 90 0 89 0 48......................j9+++O.....o++++O++++et++++y++++m6++++7++++;
#X connect 91 0 29 0 32......................DM+++O.....Qy+++C.....;
#X connect 92 0 91 0 32.................xA........fb.........PN....;
#X connect 92 1 89 0 32.................p....HA...fJ....R....LE....;
#X connect 92 2 91 1 32.................xA...79+++ub....u++++SN....;
#X connect 92 2 28 0 48.................w....70+++eL....e8+++KF...vL7+++hA...LC+++uIA...;
#X connect 92 2 94 1 32.................dA...HB...fW....h.....N....;
#X connect 93 0 94 1 48......................P9+++O.....j++++K+++++t++++x++++u6+++eE....;
#X connect 94 0 93 0 48.................b+++++.....2++++O....X7+++eT....F++++GE...fw++++;
#X connect 94 0 91 1 32.................C....f8++++.....X++++K++++O;
#X connect 95 0 84 0 48.......................4+++O.....P9+++e2+++O09+++28+++Ss++++c++++;
#X connect 95 1 94 0 32.................G....z7++++A....M++++iC....;
#X connect 96 0 95 0 32.................H..........B..........A....;
#X connect 98 0 99 0 32.................D.....6+++OA....v9+++e.....;
#X connect 98 0 100 0 32.................V....f6+++uE....39+++uB....;
#X connect 99 0 61 0 48......................rt+++O.....q6+++69+++e08+++t++++Wc+++u6++++;
#X connect 100 0 63 0 32......................zb+++O.....M2+++C.....;
#X connect 100 0 65 0 32.................Y....3b+++eF....N2+++GC....;
#X connect 104 0 101 0 32.................P..........D..........B....;
#X connect 105 0 106 0;
#X connect 106 0 108 0 64......................ji+++O.....43+++S++++ub7+++z++++KG++++o++++Zu+++e5+++u16+++m9+++C;
#X connect 106 0 107 0 48......................XH+++O.....Fx+++G.....x5+++A....fr9++OA....;
#X connect 106 0 109 0 48......................Lr+++O.....C6+++ay+++OR7+++17+++iD++++R++++;
#X connect 106 0 110 0 48......................z++++O.....8++++eY+++e9++++W1+++m+++++k8+++;
#X connect 107 0 83 0 32.................K.........vB.........XA....;
#X connect 108 0 57 0 32.................D..........A.........b.....;
#X connect 109 0 46 0 64.................y++++KF...v7++++hA....7+++Oo.....++++SJ...Pn++++FD...D5+++uAA...g9+++C;
#X connect 109 0 81 0 32.................o....bs+++eJ....W6+++SH....;
#X connect 110 0 92 0 32.................R.........fD.........LB....;
#X restore 634 430 pd Menu;
#X obj 14 8 bng 25 250 50 0 \$0-overwrite empty overwrite\ Presets 0 33 0 11 #006800 #eeeeee #006800;
#X obj 237 8 bng 25 250 50 0 \$0-delete empty delete\ Presets -41 33 0 11 #570000 #eeeeee #570000;
#X listbox 42 9 19 0 0 0 - addPreset_R addPreset 16;
#X obj 253 55 vsl 8 2 0 127 0 0 presets-1_s presets-1_r x 3 3 0 4 #d9d9d9 #d9d9d9 #606060 0 0;
#X obj 253 55 vsl 8 2 0 127 0 0 presets-2_s presets-2_r x 3 3 0 4 #d9d9d9 #d9d9d9 #606060 0 0;
#X obj 253 55 vsl 8 2 0 127 0 0 presets-3_s presets-3_r x 3 3 0 4 #d9d9d9 #d9d9d9 #606060 0 0;
#X obj 253 55 vsl 8 2 0 127 0 0 presets-4_s presets-4_r x 3 3 0 4 #d9d9d9 #d9d9d9 #606060 0 0;
#X obj 253 55 vsl 8 2 0 127 0 0 presets-5_s presets-5_r x 3 3 0 4 #d9d9d9 #d9d9d9 #606060 0 0;
#X obj 253 55 vsl 8 2 0 127 0 0 presets-6_s presets-6_r x 3 3 0 4 #d9d9d9 #d9d9d9 #606060 0 0;
#X obj 253 55 vsl 8 2 0 127 0 0 presets-7_s presets-7_r x 3 3 0 4 #d9d9d9 #d9d9d9 #606060 0 0;
#X obj 253 55 vsl 8 2 0 127 0 0 presets-8_s presets-8_r x 3 3 0 4 #d9d9d9 #d9d9d9 #606060 0 0;
#X obj 253 55 vsl 8 2 0 127 0 0 presets-9_s presets-9_r x 3 3 0 4 #d9d9d9 #d9d9d9 #606060 0 0;
#X obj 253 55 vsl 8 2 0 127 0 0 presets-10_s presets-10_r x 3 3 0 4 #d9d9d9 #d9d9d9 #606060 0 0;
#X obj 253 55 vsl 8 2 1 0 0 1 presets_scroll_s presets_scroll_r empty 0 -9 0 10 #dcdcdc #dfdfdf #000000 0 0;
#X obj 253 55 cnv 9 1 1 empty presets_scrollIndicator empty 20 12 0 14 #bbbbbb #404040 0;
#X obj 13 55 vsl 250 14 0 127 0 0 presets_s presets_r presets 3 5 0 11 #ffffff #fcfcfc #000000 0 0;
#N canvas 0 22 450 300 pdlinkSend 0;
#X obj 44 341 tosymbol;
#X obj 44 315 r \$0-kPchordName;
#X obj 635 282 + 36;
#X obj 635 369 midi2note;
#X obj 635 420 t a a;
#X obj 695 457 list length;
#X obj 695 483 - 1;
#X obj 635 507 list split;
#X obj 635 533 else/unite empty;
#X obj 773 277 sel 1 3 5 8 10;
#X obj 400 335 r \$0-kPscale;
#X msg 721 333 flat;
#X msg 833 341 sharp;
#X obj 635 394 else/separate empty;
#X obj 443 413 t a a;
#X msg 773 251 \$1;
#X obj 401 590 pack s \$0;
#X msg 401 616 \; \$2-scaleLabel label \$1;
#X obj 401 564 u_list2symbol;
#X obj 443 448 u_listmap;
#X obj 570 248 inlet;
#X obj 82 501 pdlink scaleProvider;
#X obj 44 373 prepend kP chord name;
#X obj 400 385 prepend kP scale;
#X obj 443 507 prepend kP namedscale;
#X connect 0 0 22 0 32.................G.........vA.........z.....;
#X connect 1 0 0 0 32.................D..........A.........b.....;
#X connect 2 0 3 0 32.................h.........fH.........PD....;
#X connect 3 0 13 0 32.................C.........v..........X.....;
#X connect 4 0 7 0 32.................h.........fH.........PD....;
#X connect 4 1 5 0 32.................I....DC...PB....w....HA....;
#X connect 5 0 6 0 32.................D..........A.........b.....;
#X connect 6 0 7 1 32.................C....P9++++.....j++++W.....;
#X connect 7 0 8 0 32.................D..........A.........b.....;
#X connect 8 0 19 1 64......................r9+++O.....q++++a7+++Ov++++F++++C7+++el++++p8+++m4+++uZ++++Y9+++C;
#X connect 9 0 11 0 32.................S....z7++++D....M++++WB....;
#X connect 9 1 11 0 32.................S....z6++++D....89+++WB....;
#X connect 9 2 11 0 32.................S....v5++++D....r9+++WB....;
#X connect 9 3 11 0 32.................S....v4++++D....b9+++WB....;
#X connect 9 4 11 0 32.................S....r3++++D....K9+++WB....;
#X connect 9 5 12 0 32.................W....n9++++E....p++++2B....;
#X connect 10 0 14 0 32.................d....rB...fG....q....rC....;
#X connect 10 0 23 0 32.................P..........D.........7A....;
#X connect 11 0 3 0 32.................F....r5+++uA....q9+++GA....;
#X connect 12 0 3 0 32.................C....ry++++.....67+++m.....;
#X connect 13 0 4 0 32.................D..........A.........b.....;
#X connect 14 0 19 0 32.................H..........B..........A....;
#X connect 14 1 15 0 64......................jH.........IB...n4+++O4....Z9+++SN....S+++++D...vz++++OA...L8+++C;
#X connect 15 0 9 0 32.................D..........A.........b.....;
#X connect 16 0 17 0 32.................D..........A.........b.....;
#X connect 18 0 16 0 32.................D..........A.........b.....;
#X connect 19 0 24 0 32.................T..........E.........fB....;
#X connect 19 0 18 0 32.................S....b8++++D....W++++GF....;
#X connect 19 1 2 0 48......................jC.........4....fz++++k....H8+++eI....R++++;
#X connect 20 0 21 0 48.................m....zv++++I....M7+++6D...PF9+++NA...jg+++u5....;
#X connect 22 0 21 0 32.................2....XB...vM....l....zF....;
#X connect 23 0 21 0 32.................j....Lr+++OI....C6+++GF....;
#X connect 24 0 21 0 48......................vz+++O.....L8+++i9+++Ol9+++n++++io+++O5++++;
#X restore 634 505 pd pdlinkSend;
#X obj -107 312 loadbang;
#X obj -107 338 del 1500;
#X msg -107 364 \; pd dsp 0, f 11;
#X floatatom 317 113 7 50 177 1 BPM bpm_r bpm 16;
#X floatatom 284 111 2 1 23 2 timeSig ts1_r ts1 12;
#X floatatom 284 139 2 2 32 2 - ts2_r ts2 12;
#X text 428 93 midiInputRange;
#X obj 268 167 gmInst;
#X obj 115 430 s pgm;
#X obj 616 103 r pgm_r;
#X obj 115 402 + 1;
#X obj 616 129 - 1;
#X obj 587 -237 declare -path scaleProvider/abs/list-abs;
#X connect 0 0 18 1 32.................D....XS....A....1D...b.....;
#X connect 1 0 0 0 32.................D..........A.........f.....;
#X connect 1 0 27 0 32.................s.........PK.........jE....;
#X connect 1 1 0 1 32.................D..........A.........f.....;
#X connect 1 2 0 2 32.................D..........A.........f.....;
#X connect 1 3 0 3 32.................D..........A.........f.....;
#X connect 1 4 0 4 32.................D..........A.........f.....;
#X connect 1 5 0 5 32.................D..........A.........f.....;
#X connect 1 6 0 6 32.................D..........A.........f.....;
#X connect 3 0 1 0 32.................F.........fA.........v.....;
#X connect 4 0 14 0 32.................6A...L2++++d....y8+++qP....;
#X connect 5 0 15 0 32.................QA...L2+++eT....y8+++2K....;
#X connect 6 0 8 0 32.................D..........A.........b.....;
#X connect 9 0 18 0 32.................cD...n++++eGA...5++++qi....;
#X connect 9 0 34 0 48......................v++++O.....7++++C1++++8++++f8+++e++++OX++++;
#X connect 10 0 6 0 32.................D..........A.........b.....;
#X connect 11 0 10 0 32.................D..........A.........b.....;
#X connect 12 0 4 0 32.................NA...3H...fS....NB....M....;
#X connect 13 0 5 0 32.................fA...3H....X....NB...7M....;
#X connect 18 0 2 0 32.................P....b6+++OD....29+++CC....;
#X connect 19 0 20 0 32.................D..........A.........b.....;
#X connect 20 0 21 0 32.................D..........A.........b.....;
#X connect 27 0 28 0 32.................D..........A.........b.....;
#X connect 27 1 32 1 32.................d....TA...fG....U....vC....;
#X connect 28 1 29 0 32.................D..........A.........f.....;
#X connect 29 0 32 0 32.................D..........A.........b.....;
#X connect 30 0 29 1 48......................D++++O.....w++++q....vm++++J....74+++eG....;
#X connect 31 0 28 1 48......................r7+++O.....K++++m9+++OX++++o++++C1+++e5++++;
#X connect 32 0 17 0 32.................T....D.....E....A....fB....;
#X connect 34 0 9 0 32.................6....n....vN....J....TG....;
#X connect 36 0 53 0 32.................b..........G.........fC....;
#X connect 54 0 55 0 32.................D..........A.........b.....;
#X connect 55 0 56 0 32.................D..........A.........b.....;
#X connect 61 0 64 0 32.................B....f1+++u.....n8+++a.....;
#X connect 63 0 65 0;
#X connect 64 0 62 0;
#X connect 65 0 61 0 32.................P....Tp+++OD....k5+++OA....;
#X coords 0 0 1 1 550 254 1 0 0;
