#N canvas 827 239 527 327 12;
#X obj 374 383 s kPoscReceive;
#X obj 28 27 tgl 25 0 empty empty empty 17 7 0 10 #333333 #eeeeee #e4e4e4 0 1;
#X obj 374 145 sel 0 1;
#X msg 374 171 disconnect;
#X obj 459 199 r \$0-OSC_port;
#X symbolatom 28 92 9 0 0 1 OSCport - \$0-OSC_port 16;
#X obj 404 300 prepend set;
#X msg 404 326 connect 666;
#X msg 459 225 connect \$1;
#X obj 374 357 osc.receive 666;
#X obj 291 51 loadbang;
#X msg 291 77 set 1;
#X msg 289 111 set 666;
#X connect 1 0 2 0 48......................HH.........BB...LB...fVA...i....nU...PW....;
#X connect 2 0 3 0;
#X connect 2 1 7 0 32.................QA....A...PT....P....HJ....;
#X connect 3 0 9 0;
#X connect 4 0 8 0;
#X connect 6 0 7 0;
#X connect 7 0 9 0;
#X connect 8 0 9 0;
#X connect 9 0 0 0;
#X connect 10 0 11 0;
#X connect 10 0 12 0;
#X connect 11 0 1 0 48......................j5+++O.....o9+++y6+++u99+++79+++qu+++Ou++++;
#X connect 12 0 5 0;
#X coords 0 0 1 1 200 140 1 0 0;
