#N struct 1115-symarray float x array symbols 1115-sym;
#N struct 1115-sym symbol name float on;
#N canvas 827 239 527 327 12;
#X obj 0 0 pad 432 212 0 0 0;
#X obj 0 239 route list click;
#X obj 0 326 spigot;
#N canvas 0 22 450 300 \$0-timeGrid 1;
#X obj 1 1 cnv 15 25 210 empty empty empty 20 12 0 14 #e1e1e1 #e1e1e1 0;
#X obj 28 1 cnv 15 25 210 empty empty empty 20 12 0 14 #e1e1e1 #e1e1e1 0;
#X obj 55 1 cnv 15 25 210 empty empty empty 20 12 0 14 #e1e1e1 #e1e1e1 0;
#X obj 82 1 cnv 15 25 210 empty empty empty 20 12 0 14 #e1e1e1 #e1e1e1 0;
#X obj 109 1 cnv 15 25 210 empty empty empty 20 12 0 14 #e1e1e1 #e1e1e1 0;
#X obj 136 1 cnv 15 25 210 empty empty empty 20 12 0 14 #e1e1e1 #e1e1e1 0;
#X obj 163 1 cnv 15 25 210 empty empty empty 20 12 0 14 #e1e1e1 #e1e1e1 0;
#X obj 190 1 cnv 15 25 210 empty empty empty 20 12 0 14 #e1e1e1 #e1e1e1 0;
#X obj 217 1 cnv 15 25 210 empty empty empty 20 12 0 14 #e1e1e1 #e1e1e1 0;
#X obj 244 1 cnv 15 25 210 empty empty empty 20 12 0 14 #e1e1e1 #e1e1e1 0;
#X obj 271 1 cnv 15 25 210 empty empty empty 20 12 0 14 #e1e1e1 #e1e1e1 0;
#X obj 298 1 cnv 15 25 210 empty empty empty 20 12 0 14 #e1e1e1 #e1e1e1 0;
#X obj 325 1 cnv 15 25 210 empty empty empty 20 12 0 14 #e1e1e1 #e1e1e1 0;
#X obj 352 1 cnv 15 25 210 empty empty empty 20 12 0 14 #e1e1e1 #e1e1e1 0;
#X obj 379 1 cnv 15 25 210 empty empty empty 20 12 0 14 #e1e1e1 #e1e1e1 0;
#X obj 406 1 cnv 15 25 210 empty empty empty 20 12 0 14 #e1e1e1 #e1e1e1 0;
#X coords 0 0 1 1 432 213 2 0 0;
#X restore 0 0 pd \$0-timeGrid;
#N canvas 0 22 450 300 length 0;
#X obj 164 77 inlet;
#X obj 368 138 f \$0;
#X msg 246 170 \; pd-\$1-timeGrid clear \;, f 37;
#X obj 163 152 until;
#X obj 164 248 count 0 15;
#X msg 183 217 reset 0 \, max \$1;
#X obj 183 186 - 1;
#X obj 164 314 *;
#X obj 164 406 pack f \$0 f;
#X obj 215 142 expr (432 - $f1 * 2)/$f1;
#X obj 164 346 +;
#X obj 226 314 * 2;
#X obj 164 274 t f f;
#X obj 164 380 + 1;
#X obj 163 113 t f f f b, f 12;
#X obj 370 261 s \$0-grid-x-size;
#X obj 376 95 s \$0-grid-length;
#X msg 164 438 \; pd-\$2-timeGrid obj \$1 1 cnv 15 \$3 210 empty empty empty 20 12 0 14 #E1E1E1 #e1e1e1 0 \;, f 82;
#X connect 0 0 14 0;
#X connect 0 0 16 0 48......................bD.........GA.........0.........PM.........;
#X connect 1 0 2 0 32.................G....b3++++A....G9+++2.....;
#X connect 3 0 4 0;
#X connect 4 0 12 0;
#X connect 5 0 4 0 32.................F....39+++uA....t++++y.....;
#X connect 6 0 5 0;
#X connect 7 0 10 0;
#X connect 8 0 17 0;
#X connect 9 0 8 2;
#X connect 9 0 7 1 32.................WB...j8++++k....Y++++mI....;
#X connect 9 0 15 0 32.................x....rI...fL....aB...PF....;
#X connect 10 0 13 0;
#X connect 11 0 10 1 32.................G....37++++A....N++++2.....;
#X connect 12 0 7 0;
#X connect 12 1 11 0 32.................K....LC...vB....y....TA....;
#X connect 13 0 8 0;
#X connect 14 0 3 0;
#X connect 14 1 6 0;
#X connect 14 2 9 0 32.................E....v....PA....L....n.....;
#X connect 14 3 1 0 32.................B.....I...f.....PB...X.....;
#X restore 547 45 pd length;
#X obj 28 295 list;
#X obj 115 361 unpack;
#X obj 282 515 i;
#X obj 282 541 change -1;
#X obj 282 489 expr ($f1-5) / (208 / 7) + 1;
#X obj 282 575 clip 1 7;
#X obj 115 387 expr $f1 / (432 / $f2) + 1;
#X obj 438 45 nbx 7 19 1 64 0 1 empty empty Length 0 -8 0 12 #191919 #e1e1e1 #6d6d6d 16 256;
#X obj 115 496 change -1;
#X obj 115 464 i;
#X msg 163 465 set -1;
#X obj 305 741 scaleProvider/rj/m_symbolarray;
#X text 133 684 first check for content;
#X obj -45 705 t a a b, f 23;
#X obj -70 923 gate 2 1;
#X msg -35 886 1;
#X obj 198 1041 scaleProvider/rj/u_listdrip;
#X obj 198 1067 scaleProvider/rj/u_symbol2list -;
#X text -297 939 empty position \, simply add entry;
#X msg -68 885 2;
#X obj 198 957 symbol;
#X msg 630 1007 \$1;
#X obj 136 1207 ==;
#X obj 136 1119 list split 1;
#X obj 136 1175 scaleProvider/rj/u_symbol2float;
#X obj 198 981 scaleProvider/rj/u_symbol2list _;
#X text 402 960 split multiple entries;
#X text 398 1046 split xval from length;
#X text 372 1020 loop over the entries;
#X obj 52 914 t b a b a b, f 118;
#X obj 198 1093 t a a;
#X obj 545 1273 list;
#X obj 748 1361 list;
#X obj 995 1328 list;
#X obj 68 1465 list;
#X msg 663 1007 \$2;
#X obj 444 1487 list prepend;
#X obj 748 1308 scaleProvider/rj/u_list2symbol -;
#X obj 106 1309 spigot;
#X msg 133 1267 1;
#X msg 152 1266 0;
#X obj 545 1396 scaleProvider/rj/u_list2symbol _;
#X obj 595 1051 list length;
#X obj 584 1131 sel 1;
#X obj 584 1099 f;
#X obj 198 1007 t a a;
#X obj 113 609 pack;
#X text 32 882 entry in this position \, check for possible content to add or remove;
#X text 106 1465 final list;
#X text 687 1073 check for last entry;
#X text 792 1340 re-gather all entries;
#X obj -59 594 inlet lookup;
#X obj -59 620 t f b;
#X msg -45 662 1;
#X obj 37 850 outlet;
#X text 92 805 either lookup or modify content;
#X obj 26 757 t f b;
#X msg 39 785 2;
#X msg 407 616 dump;
#X msg 440 651 reset;
#X msg 26 731 \$1;
#N canvas 0 22 450 300 \$0-7 1;
#X coords 0 0 1 1 432 30 2 0 0;
#X restore 0 1 pd \$0-7;
#N canvas 0 22 450 300 \$0-6 1;
#X coords 0 0 1 1 432 30 2 0 0;
#X restore 0 31 pd \$0-6;
#N canvas 0 22 450 300 \$0-5 1;
#X coords 0 0 1 1 432 30 2 0 0;
#X restore 0 61 pd \$0-5;
#N canvas 0 22 450 300 \$0-4 1;
#X coords 0 0 1 1 432 30 2 0 0;
#X restore 0 91 pd \$0-4;
#N canvas 0 22 450 300 \$0-3 1;
#X coords 0 0 1 1 432 30 2 0 0;
#X restore 0 121 pd \$0-3;
#N canvas 0 22 450 300 \$0-2 1;
#X coords 0 0 1 1 432 30 2 0 0;
#X restore 0 151 pd \$0-2;
#N canvas 0 22 450 300 \$0-1 1;
#X coords 0 0 1 1 432 30 2 0 0;
#X restore 0 181 pd \$0-1;
#X obj 652 1177 pack \$0 f;
#X obj 440 72 bng 25 250 50 0 empty empty empty 17 7 0 10 #191919 #e1e1e1 #e1e1e1;
#X text 472 57 clear all;
#N canvas 0 22 450 300 add2Grid 0;
#X obj 138 42 inlet;
#X obj 156 322 *;
#X obj 156 348 +;
#X obj 245 282 * 2;
#X obj 167 179 r \$0-grid-x-size;
#X obj 138 92 unpack;
#X obj 234 145 t f f;
#X msg 138 68 \$2 \$1;
#X obj 168 117 - 1;
#X obj 188 224 + 2;
#X obj 188 250 * 1;
#X text 226 248 note length;
#X text 282 280 note position;
#X obj 188 276 - 6;
#X obj 245 308 + 3;
#X obj 832 181 inlet resize;
#X obj 138 380 pack f f f \$0 f, f 14;
#X msg 138 416 \; pd-\$4-\$1 obj \$2 5 cnv 15 \$3 20 empty \$4-\$5-\$1 empty 20 12 0 14 #6D6D6D #e1e1e1 0;
#X obj 832 265 *;
#X obj 832 291 - 6;
#X obj 832 395 outlet;
#X obj 832 328 pack f f f \$0 f;
#X obj 832 207 t f f;
#X msg 832 354 \$3 \$2 \$5 \; \$4-\$3-\$2 vis_size \$1 20;
#X obj 368 153 inlet;
#X obj 368 179 t b f;
#X connect 0 0 7 0;
#X connect 1 0 2 0;
#X connect 2 0 16 1;
#X connect 3 0 14 0;
#X connect 4 0 1 1;
#X connect 4 0 9 0 32.................L....3.....C....N....fA....;
#X connect 5 0 16 0;
#X connect 5 0 21 1 48.................C....vL...v.....LC...L....PxB...C....jr...P1....;
#X connect 5 1 8 0;
#X connect 5 1 16 4 32.................A....vB...P.....r....zP....;
#X connect 5 1 21 2 48.................B.....K...f.....vB...H....vuB...B....7q...P1....;
#X connect 6 0 1 0 32.................G....n6++++A....59+++aG....;
#X connect 6 1 3 0;
#X connect 7 0 5 0;
#X connect 8 0 6 0 32.................E....HD...PA....BA...j.....;
#X connect 9 0 10 0;
#X connect 9 0 18 1 32.................E....7n...PA....OJ...XA....;
#X connect 10 0 13 0;
#X connect 13 0 16 2 32.................NA...P++++uS....z++++WE....;
#X connect 14 0 2 1 32.................R....n6+++uD....59+++WA....;
#X connect 15 0 22 0;
#X connect 16 0 17 0;
#X connect 18 0 19 0;
#X connect 19 0 21 0;
#X connect 21 0 23 0;
#X connect 22 0 18 0;
#X connect 22 1 21 4 32.................y....fC...vL....3....XF....;
#X connect 23 0 20 0;
#X connect 24 0 25 0;
#X connect 25 0 9 0 32.................I....zz+++eB....M8+++qA....;
#X connect 25 1 10 1 32.................Z....zz+++uF....M8+++SC....;
#X restore -182 995 pd add2Grid;
#X obj 482 776 print seqARRAY;
#X obj 440 102 bng 25 250 50 0 empty empty empty 17 7 0 10 #191919 #e1e1e1 #e1e1e1;
#X text 472 87 dump;
#X msg 106 1340 \$2 1;
#X text 726 1161 remove last position entry;
#X text 198 1204 if not \, add to final list \,;
#X text 198 1217 else prevent adding and remove from grid;
#X text 198 1230 or trigger remove last entry;
#N canvas 0 22 450 300 removeFromGrid 0;
#X obj 1265 546 inlet list2remove;
#X obj 392 112 inlet row2redraw;
#X obj 601 197 route 1 2 3 4 5 6 7;
#X text 551 49 when removing entry we redraw the whole row \, so here we handle lists of the rows, f 30;
#X obj 601 276 list;
#X obj 644 239 list;
#X obj 556 423 list;
#X obj 631 306 list;
#X obj 674 269 list;
#X obj 661 336 list;
#X obj 704 299 list;
#X obj 691 366 list;
#X obj 734 329 list;
#X obj 721 396 list;
#X obj 764 359 list;
#X obj 751 426 list;
#X obj 794 389 list;
#X obj 781 456 list;
#X obj 824 419 list;
#X obj 1125 617 route symbol;
#X obj 1125 664 select [DUMMY-SYMBOL];
#X obj 1030 741 spigot;
#X msg 1127 704 0;
#X msg 1192 704 1;
#X obj 844 529 scaleProvider/rj/u_listdrip;
#X text 473 153 float bangs the row list;
#X msg 363 269 \; pd-\$2-\$1 clear;
#X obj 363 241 pack f \$0;
#X msg 1125 594 symbol \$1;
#X obj 794 197 inlet reset;
#X obj 601 132 inlet entry2add;
#X msg 1265 628 symbol \$1-\$2;
#X obj 767 955 outlet;
#X obj 767 848 scaleProvider/rj/u_symbol2float;
#X obj 767 903 pack f f;
#X obj 767 778 scaleProvider/rj/u_symbol2list -;
#X msg 767 826 symbol \$1;
#X obj 844 555 t a a a;
#X msg 1008 137 set;
#X msg 1008 163 4;
#X obj 392 138 t b f f b;
#X obj 1063 113 prepend add2;
#X obj 1008 189 route 1 2 3 4 5 6 7;
#X obj 1042 271 t a b;
#X obj 1008 217 t a b;
#X obj 1024 244 t a b;
#X obj 1092 353 t a b;
#X obj 1058 299 t a b;
#X obj 1074 326 t a b;
#X obj 1110 381 t a b;
#X obj 524 466 gate 2 1;
#X msg 442 432 1;
#X obj 649 555 inlet entry2replace;
#X obj 649 581 t a b;
#X msg 600 442 2;
#X obj 556 744 list prepend;
#N canvas 0 22 450 300 replace 0;
#X obj 365 308 inlet;
#X obj 365 358 scaleProvider/rj/u_listmap;
#X obj 819 318 scaleProvider/rj/u_symbol2list -;
#X obj 590 308 scaleProvider/rj/u_symbol2list -;
#X obj 570 273 t a a;
#X obj 570 503 spigot;
#X obj 677 503 sel 0;
#X obj 808 537 list;
#X msg 819 344 symbol \$1;
#X msg 590 360 symbol \$1;
#X obj 590 384 scaleProvider/rj/u_symbol2float;
#X obj 819 370 scaleProvider/rj/u_symbol2float;
#X obj 590 466 !=;
#X obj 808 565 scaleProvider/rj/u_list2symbol -;
#X obj 365 429 outlet;
#X obj 819 260 inlet 2replace;
#X connect 0 0 1 0;
#X connect 1 0 14 0;
#X connect 1 1 4 0 48......................bB.........m....P4+++eS....T9+++2D....k++++;
#X connect 2 0 8 0;
#X connect 2 0 7 1;
#X connect 3 0 9 0;
#X connect 4 0 5 0;
#X connect 4 1 3 0 32.................H....j.....B....I.....A....;
#X connect 5 0 1 1 48......................78+++O.....e++++25+++eu++++s9+++26+++eq++++;
#X connect 6 0 7 0 32.................E....LH...PA....CB...7.....;
#X connect 7 0 13 0;
#X connect 8 0 11 0;
#X connect 9 0 10 0;
#X connect 10 0 12 0;
#X connect 11 0 12 1 32.................Z....bx+++uF....m7+++2D....;
#X connect 12 0 6 0 32.................F....bE...fA....WA...HA....;
#X connect 12 0 5 1 32.................I....L....PB....C....HA....;
#X connect 13 0 1 1 80......................P6+++O.....z9+++C4+++ui++++P9+++63++++U++++06+++e0+++e89+++e7++++r++++G++++O6++++w+++O;
#X connect 15 0 2 0;
#X restore 556 527 pd replace;
#X obj 649 647 list split 1;
#X obj 649 711 t b f f;
#X obj 939 930 outlet;
#X obj 857 870 scaleProvider/rj/u_symbol2float;
#X msg 857 826 symbol \$2;
#X connect 0 0 31 0;
#X connect 1 0 40 0;
#X connect 2 0 4 0 32.................d.........fG.........vC....;
#X connect 2 1 7 0 32.................s....z....PK....M....nE....;
#X connect 2 2 9 0 32.................7....nA....O....Z....fG....;
#X connect 2 3 11 0 32.................KA...bB...vR....m....XI....;
#X connect 2 4 13 0 32.................ZA...PC...fV....z....PK....;
#X connect 2 5 15 0 32.................oA...DD...PZ....AA...HM....;
#X connect 2 6 17 0 48.................n....bB....J....m....fB...fS....n....3D....7....;
#X connect 4 0 5 0 48......................XA.........V....j7++++J....I++++uB...Px++++;
#X connect 4 0 6 1 32..................A...78+++OP....e++++CH....;
#X connect 5 0 4 1 32.................I....D9+++eB....g++++KA....;
#X connect 6 0 50 1;
#X connect 7 0 8 0 48......................XA.........V....j7++++J....I++++uB...Px++++;
#X connect 7 0 6 1 32.................w....D7+++eL....A++++KF....;
#X connect 8 0 7 1 32.................I....D9+++eB....g++++KA....;
#X connect 9 0 10 0 48......................XA.........V....j7++++J....I++++uB...Px++++;
#X connect 9 0 6 1 32.................h....L5+++uH....i9+++SD....;
#X connect 10 0 9 1 32.................I....D9+++eB....g++++KA....;
#X connect 11 0 12 0 48......................XA.........V....j7++++J....I++++uB...Px++++;
#X connect 11 0 6 1 32.................S....T3++++D....E9+++aB....;
#X connect 12 0 11 1 32.................I....D9+++eB....g++++KA....;
#X connect 13 0 14 0 48......................XA.........V....j7++++J....I++++uB...Px++++;
#X connect 13 0 6 1 32.................D....b1+++OA....m8+++i.....;
#X connect 14 0 13 1 32.................I....D9+++eB....g++++KA....;
#X connect 15 0 16 0 48......................XA.........V....j7++++J....I++++uB...Px++++;
#X connect 15 0 6 1 48......................T5+++O.....k9+++u9+++eR++++q++++mz++++5++++;
#X connect 16 0 15 1 32.................I....D9+++eB....g++++KA....;
#X connect 17 0 18 0 48......................XA.........V....j7++++J....I++++uB...Px++++;
#X connect 17 0 6 1 48......................X4+++O.....V9+++27++++J++++M++++ux+++ey++++;
#X connect 18 0 17 1 32.................I....D9+++eB....g++++KA....;
#X connect 19 0 20 0;
#X connect 19 1 23 0;
#X connect 20 0 22 0;
#X connect 20 1 23 0 32.................K....T6++++B....09+++WA....;
#X connect 21 0 35 0 32.................F....nu+++uA....56+++KA....;
#X connect 21 0 41 0 48......................DA.........Q....nW+++eH....50+++GB...fd8+++;
#X connect 22 0 21 1 32.................F....j6+++uA....49+++KA....;
#X connect 23 0 21 1 48.................F....b5+++uA....m9+++a....fd++++F....n2+++uD....;
#X connect 24 0 37 0;
#X connect 27 0 26 0;
#X connect 28 0 19 0;
#X connect 29 0 17 1 32.................3A...7++++Od....+++++CO....;
#X connect 29 0 15 1 32.................oA...D9+++eZ....g++++KM....;
#X connect 29 0 7 1 32.................d....j1+++uG....o8+++qE....;
#X connect 29 0 9 1 32.................n....b3+++OJ....G9+++iG....;
#X connect 29 0 13 1 32.................ZA...L7+++uV....C++++SK....;
#X connect 29 0 11 1 32.................x....T5+++uL....k9+++aI....;
#X connect 29 0 4 1 32.................J....rz+++uB....K8+++yC....;
#X connect 30 0 2 0;
#X connect 31 0 20 1;
#X connect 33 0 34 0;
#X connect 34 0 32 0;
#X connect 35 0 61 0;
#X connect 35 0 36 0;
#X connect 36 0 33 0;
#X connect 37 0 21 0 32.................v....nK....L....5B...bJ....;
#X connect 37 1 28 0 32.................N....3P...fC....ND...vA....;
#X connect 38 0 39 0;
#X connect 39 0 42 0;
#X connect 40 0 6 0 32.................z....PJ....M....jB...nP....;
#X connect 40 0 39 0 32.................C....fl...v.....nI...X.....;
#X connect 40 1 2 0 32.................Y....LL...PF....CC...fB....;
#X connect 40 1 27 0 32.................CA...T8++++P....U++++SE....;
#X connect 40 1 34 1 48.................cK...jT...P2B...IE...zs...vgA...cK...bX...f5B...;
#X connect 40 2 41 0 48.......................T..........E...T8+++OfB...U++++Cn...P0++++;
#X connect 40 3 38 0 48......................zQ.........cD...z9+++eNB...s++++mi...P6++++;
#X connect 40 3 51 0;
#X connect 41 0 39 0 32.................P....n7+++OD....J+++++A....;
#X connect 42 0 44 0;
#X connect 42 1 45 0;
#X connect 42 2 43 0;
#X connect 42 3 47 0;
#X connect 42 4 48 0;
#X connect 42 5 46 0;
#X connect 42 6 49 0;
#X connect 43 0 10 0 48.................B....j7+++u.....I++++O....vq9+++C....7p+++eB....;
#X connect 43 1 10 1 32.................C....3p++++.....t5+++m.....;
#X connect 44 0 5 0 32.................B....To+++u.....U5+++O.....;
#X connect 44 1 5 1 32.................A....Po+++e.....T5+++O.....;
#X connect 45 0 8 0 48.................A....b7+++e.....G++++K....vn9+++B....Lp+++uA....;
#X connect 45 1 8 1 32.................B....Hp+++u.....h5+++a.....;
#X connect 46 0 16 0 32.................I....bs+++eB....W6+++GA....;
#X connect 46 1 16 1 48.................E....77+++eA....O++++a....f09+++F....Xs+++eD....;
#X connect 47 0 12 0 32.................D....zq+++OA....85+++u.....;
#X connect 47 1 12 1 32.................F....vq+++uA....75+++u.....;
#X connect 48 0 14 0 32.................G....rr++++A....K6+++6.....;
#X connect 48 1 14 1 48.................E....z7+++eA....M++++W....fx9+++E....nr+++uC....;
#X connect 49 0 18 0 32.................J....Lt+++uB....i6+++OA....;
#X connect 49 1 18 1 32.................J....Ht+++uB....h6+++OA....;
#X connect 50 0 24 0 32.................O....DT...vC....AE...vB....;
#X connect 50 1 56 0;
#X connect 51 0 50 0 32.................H....TE....B....UA...7.....;
#X connect 52 0 53 0;
#X connect 53 0 57 0;
#X connect 53 1 54 0 48......................D9+++O.....g++++O1+++uv++++i8+++K7++++X++++;
#X connect 54 0 50 0 32.................B....b6+++u.....29+++W.....;
#X connect 55 0 42 0 64......................HL.........BC...rv++++PA...K7+++OT...vv8+++DG...Lb+++OwA...C2+++C;
#X connect 56 0 55 0;
#X connect 57 0 58 0;
#X connect 57 1 56 1 48.................38+++e9+++Od++++m++++a2+++ew++++18+++W7+++uc++++;
#X connect 58 0 6 0 48......................X9+++O.....l++++6r+++Oo++++N6+++S5+++uy9+++;
#X connect 58 1 2 0 48......................H9+++O.....h++++yd++++v++++r2+++O7+++O68+++;
#X connect 58 2 55 1 32.................G....36++++A....99+++6.....;
#X connect 60 0 59 0;
#X connect 61 0 60 0;
#X restore 255 1416 pd removeFromGrid;
#X obj 352 1367 list prepend;
#X obj 352 1340 scaleProvider/rj/u_list2symbol -;
#X obj 235 1324 f;
#X msg 681 496 7;
#X obj 679 562 until;
#X obj 679 674 t b f;
#X obj 679 588 counter 1 7;
#X msg -70 1367 \$2 \$1-1;
#X msg 169 1335 \$1 1;
#X obj 441 1290 f;
#X obj 441 1316 pack f s;
#X msg 457 1182 symbol \$2;
#X text 514 720 array of column entries (x);
#X msg 652 1208 delete \$2;
#X obj 925 1150 pack \$0 f;
#X msg 873 1204 \; pd-\$1-\$2 clear;
#X obj 68 266 t f f f;
#X obj -149 528 change -1;
#X obj -149 496 i;
#X obj -149 554 -;
#X obj -149 580 + 1;
#X obj -149 606 moses 1;
#X obj 37 824 gate 3 1;
#N canvas 0 22 450 300 resize 0;
#X obj 395 166 inlet;
#X obj 849 138 inlet newYsize;
#X obj 395 242 scaleProvider/rj/u_listmap;
#X obj 849 202 scaleProvider/rj/u_symbol2list -;
#X obj 620 192 scaleProvider/rj/u_symbol2list -;
#X obj 600 157 t a a;
#X obj 600 387 spigot;
#X obj 707 387 sel 0;
#X obj 838 421 list;
#X msg 849 228 symbol \$1;
#X msg 620 244 symbol \$1;
#X obj 620 268 scaleProvider/rj/u_symbol2float;
#X obj 849 254 scaleProvider/rj/u_symbol2float;
#X obj 395 218 scaleProvider/rj/u_symbol2list _;
#X obj 620 350 !=;
#X obj 838 449 scaleProvider/rj/u_list2symbol -;
#X obj 395 287 scaleProvider/rj/u_list2symbol _;
#X obj 395 354 outlet;
#X connect 0 0 13 0;
#X connect 1 0 3 0;
#X connect 2 0 16 0;
#X connect 2 1 5 0 48......................bB.........m....P4+++eS....T9+++2D....k++++;
#X connect 3 0 9 0;
#X connect 3 0 8 1;
#X connect 4 0 10 0;
#X connect 5 0 6 0;
#X connect 5 1 4 0 32.................H....j.....B....I.....A....;
#X connect 6 0 2 1 48......................78+++O.....e++++25+++eu++++s9+++26+++eq++++;
#X connect 7 0 8 0 32.................E....LH...PA....CB...7.....;
#X connect 8 0 15 0;
#X connect 9 0 12 0;
#X connect 10 0 11 0;
#X connect 11 0 14 0;
#X connect 12 0 14 1 32.................Z....bx+++uF....m7+++2D....;
#X connect 13 0 2 0;
#X connect 14 0 7 0 32.................F....bE...fA....WA...HA....;
#X connect 14 0 6 1 32.................I....L....PB....C....HA....;
#X connect 15 0 2 1 80......................P6+++O.....z9+++C4+++ui++++P9+++63++++U++++06+++e0+++e89+++e7++++r++++G++++O6++++w+++O;
#X connect 16 0 17 0;
#X restore 143 845 pd resize;
#X msg -166 1059 3;
#X msg -181 1082 \$1;
#X obj -182 1021 t a b a;
#X msg -152 1116 \$2-\$3;
#X msg -133 1047 \$1;
#X obj 143 871 list prepend;
#X msg -153 1476 \$2 \$1-\$3;
#X msg 314 403 0;
#X text 53 1204 same yval;
#X text 198 1192 check vor equal yval;
#X obj 107 295 sel 0;
#X obj 26 425 gate 2 1;
#X msg 29 392 1;
#X msg 61 385 2;
#X obj -149 464 spigot;
#X msg -124 361 0;
#X obj 300 277 tgl 25 0 empty empty empty 17 7 0 10 #333333 #eeeeee #e4e4e4 0 1;
#X obj -12 1229 print;
#X obj 136 1232 sel 0;
#X msg -70 956 \$1 \$2-1;
#X obj -165 961 t a b;
#X msg -106 962 1;
#X obj 255 1273 sel 1;
#X connect 0 0 1 0;
#X connect 1 0 5 1 32.................c....7B...PG....u....LB....;
#X connect 1 0 2 0;
#X connect 1 1 102 0 32.................D....LB....A....i....f.....;
#X connect 2 0 6 0 32.................H....LG....B....yA....A....;
#X connect 5 0 2 0 32.................G....z8++++A....c++++6.....;
#X connect 6 0 11 0;
#X connect 6 1 9 0 32.................u....jH...vK....IB...zF....;
#X connect 7 0 8 0;
#X connect 8 0 10 0;
#X connect 9 0 7 0;
#X connect 10 0 51 1 32.................F....b1+++uA....m8+++OB....;
#X connect 11 0 121 1 32.................J....f7+++uB....H++++OA....;
#X connect 12 0 4 0 48......................jE.........YA...39++++Z....t++++uF...f6++++;
#X connect 12 0 11 1 32.................4D...7y+++eNA...+7+++OT....;
#X connect 13 0 51 0;
#X connect 14 0 13 0;
#X connect 14 0 105 1 32.................j....Pv+++OI....D7+++eD....;
#X connect 15 0 13 0 32.................F....D8+++uA....Q++++y.....;
#X connect 15 0 8 0 48......................PA.........T....bC...vc....2....bG...PN....;
#X connect 15 0 103 0 48.................O....z7++++C....M++++yB...Px9+++r....jr+++OK....;
#X connect 16 0 108 1 32.................f....Tw+++OH....U7+++CD....;
#X connect 16 1 77 0;
#X connect 18 0 19 1 32.................iA...D....vX....A....TL....;
#X connect 18 1 65 0;
#X connect 18 2 20 0 32.................v....n2+++OL....58+++KJ....;
#X connect 19 0 129 0;
#X connect 19 0 93 0;
#X connect 19 0 130 0 32.................J....H5+++uB....h9+++OA....;
#X connect 19 1 34 0 48......................HB.........h....78+++uV....e++++qE...P4++++;
#X connect 20 0 19 0 32.................L....D9+++OC....g++++KA....;
#X connect 21 0 22 0 32.................D..........A.........b.....;
#X connect 22 0 35 0 32.................D..........A.........b.....;
#X connect 24 0 19 0 32.................T....H.....E....B....bB....;
#X connect 25 0 30 0 32.................C....HA...v.....R....T.....;
#X connect 26 0 41 1 32.................ZB...32+++ul....98+++2b....;
#X connect 26 0 95 1 48.................BA...36+++uP....99+++OF...vS++++iA...7z+++OBA...;
#X connect 26 0 73 1;
#X connect 27 0 128 0;
#X connect 28 0 29 0 32.................D..........A.........b.....;
#X connect 29 0 27 0 32.................G.........vA.........z.....;
#X connect 30 0 50 0 32.................D..........A.........b.....;
#X connect 34 0 39 0 32.................xC...XB...f7....l....Ld....;
#X connect 34 1 43 0 48.................I....z5+++eB....s9+++SH...va++++DB...71+++OdA...;
#X connect 34 2 25 0 32.................H....Lv+++OB....C7+++iA....;
#X connect 34 3 40 0 32.................M....DB...PC....g....jA....;
#X connect 34 3 26 0 32.................M.........PC.........jA....;
#X connect 34 4 37 1 32.................9B...j6+++uu....49+++uW....;
#X connect 34 4 44 0 48.................I....fg+++eB....X3+++mC...fK8+++4....3R+++uSA...;
#X connect 34 4 36 1 48......................vw+++O.....b7+++SH...f69+++DB...3t++++RA...;
#X connect 34 4 39 1 32.................gB...DQ+++en....Qz+++Od....;
#X connect 35 0 28 0 32.................G....L7++++A....C++++2.....;
#X connect 35 1 36 1 48.................a....3J...vF....tB...rA...vVA...a....rU...Pn....;
#X connect 35 1 97 0 32.................i....fO...vH....3C...XD....;
#X connect 36 0 42 0 32.................H....rL....B....KC....A....;
#X connect 37 0 46 0 32.................H....Xy+++OB....17+++CA....;
#X connect 37 0 38 0 48......................fL.........HC...D7++++8....A++++eO...Py++++;
#X connect 38 0 37 1 32.................H....Tw+++OB....U7+++6.....;
#X connect 39 0 41 0 32.................B....fW...f.....3E...L.....;
#X connect 40 0 88 1 48.................gA...D4+++eX....Q9+++uF...f09+++qA...Xs+++uGA...;
#X connect 40 0 86 1 64......................D5+++O.....g9+++2B...Pf++++s....D3+++Of....A7+++CH...P.++++UE....;
#X connect 40 0 27 1 32......................ze+++O.....82+++WK....;
#X connect 41 0 16 1 48......................3D.........NA...PP+++OH....Dz+++CB....A8+++;
#X connect 42 0 37 0 32.................Q.........PD.........HB....;
#X connect 43 0 80 0;
#X connect 43 0 94 0 32.................B....7C...f.....+....L.....;
#X connect 43 0 76 0 48......................ft+++O.....n6+++Sq+++e39+++z5+++Gt+++Os9+++;
#X connect 44 0 43 1 32.................L..........C.........bA....;
#X connect 45 0 43 1 32.................M....v9+++eC....r++++iA....;
#X connect 46 0 39 1 32.................Y....7h+++eF....u3+++KC....;
#X connect 47 0 49 1 32.................E.........PA.........j.....;
#X connect 48 0 73 0 32.................I....PD...PB....DA...rA....;
#X connect 48 0 95 0 32.................u....H2++++K....x8+++yH....;
#X connect 48 0 88 0 48......................v0+++O.....b8+++qC....t9+++5....fq+++uq....;
#X connect 49 0 48 0 32.................G....n+++++A....5++++2.....;
#X connect 50 0 21 0 32.................H..........B.........7.....;
#X connect 50 1 47 0 32.................M....HX...PC....BF...jA....;
#X connect 51 0 18 0 32.................Z....L1+++uF....i8+++2D....;
#X connect 56 0 57 0;
#X connect 57 0 16 0 32.................7....PY....O....TF...nF....;
#X connect 57 1 58 0;
#X connect 58 0 108 0 32.................KB....E...vh....PA...7H....;
#X connect 61 0 16 0 48......................zE.........cA...38++++EA...d++++eQ...f2++++;
#X connect 61 1 62 0;
#X connect 62 0 108 0;
#X connect 63 0 16 0;
#X connect 64 0 16 0;
#X connect 65 0 61 0;
#X connect 73 0 99 0 32.................D..........A.........b.....;
#X connect 74 0 89 0;
#X connect 74 0 64 0;
#X connect 76 0 112 0;
#X connect 78 0 63 0;
#X connect 80 0 42 0 48.................L....XM....C....VC...37+++ufB...N++++Kn...fy++++;
#X connect 85 0 76 0 48......................Xh+++O.....l3+++Ci+++OS9+++v3+++yj+++eR9+++;
#X connect 85 1 76 1 48.................K....Dq++++B....w5+++mj++++.9+++I4+++Of+++eR9+++;
#X connect 86 0 85 1 32.................E....P7+++eA....D++++q.....;
#X connect 87 0 86 0;
#X connect 88 0 85 0;
#X connect 89 0 90 0;
#X connect 90 0 92 0;
#X connect 91 0 85 3;
#X connect 91 0 100 0;
#X connect 91 1 100 1;
#X connect 92 0 91 0;
#X connect 93 0 85 1 32.................E....jV...PA....oE...n.....;
#X connect 94 0 87 0 48.................K....vE...vB....bA...39++++s....t++++eK...v7++++;
#X connect 95 0 96 0;
#X connect 96 0 85 4 32.................5....35+++uN....t9+++GE....;
#X connect 97 0 96 1 32.................5....DA...fN....Q....LG....;
#X connect 99 0 16 0 64.................F....f5+++uA....n9+++ym+++Op++++74+++i5+++u58+++l5+++qd+++uo9+++a3+++C;
#X connect 100 0 101 0;
#X connect 102 0 2 1 32.................j....P8+++OI....T++++mB....;
#X connect 102 1 15 0 32.................7....PE....O....TA...PK....;
#X connect 102 2 120 0;
#X connect 102 2 126 0;
#X connect 103 0 105 0;
#X connect 104 0 103 0;
#X connect 105 0 106 0;
#X connect 106 0 107 0;
#X connect 107 1 76 2;
#X connect 108 0 59 0;
#X connect 108 1 25 1 32.................w....LJ...PL....iB...HG....;
#X connect 108 1 24 0 48......................36+++O.....99+++C....fc++++.....X2+++uJ....;
#X connect 108 2 109 0 32......................nD.........JA...H.....;
#X connect 109 0 115 0;
#X connect 110 0 108 0 48.................X8+++WD....V++++EA...Lv++++y....C7++++L...v.++++;
#X connect 111 0 16 0 64......................DE.........QA...Dw+++un....Q7+++KJ...Pl9+++lG...jo+++u4A...Y5+++C;
#X connect 112 0 111 0;
#X connect 112 1 110 0;
#X connect 112 2 113 0;
#X connect 112 2 114 0 32.................D....PA....A....T....b.....;
#X connect 112 2 116 0;
#X connect 113 0 109 1 48......................fJ.........nB...7s++++SA...e6++++T...v29+++;
#X connect 114 0 115 1 48......................XJ.........lB...3y++++RA...97+++uT...fO++++;
#X connect 115 0 16 1 48.................d9++++F...fm++++uA...v1+++eSA...r8+++2T....a++++;
#X connect 116 0 85 2 48......................zI.........cB...34+++u0A...d9+++ac...fm++++;
#X connect 120 0 5 0 48......................j9+++O.....o++++y9+++ut++++r++++q6+++O6++++;
#X connect 120 1 122 0 32.................m....D5++++I....g9+++6D....;
#X connect 121 0 123 0 48......................DA.........Q....X7+++eH....F++++GB...fw++++;
#X connect 121 0 14 0 32.................G....jE...vA....YA...PA....;
#X connect 121 1 124 0 32.................G....Hy++++A....x7+++SA....;
#X connect 122 0 121 0;
#X connect 123 0 121 0 32.................K.....9++++B....f++++WA....;
#X connect 123 0 124 1 48......................L7+++O.....C++++SA....R++++T....fz+++OO....;
#X connect 124 0 104 0;
#X connect 125 0 124 1;
#X connect 128 0 36 0 32.................V....jY...fE....YF...XA....;
#X connect 128 1 132 0 32.................K....fF...vB....nA...XA....;
#X connect 129 0 16 1 48.................X7+++aK....F++++1B...nt+++uHB...p6+++Kh...f59+++;
#X connect 130 0 76 0 32.................H.....++++OB....v+++++.....;
#X connect 130 1 131 0 48......................XA.........V....79+++OK....u++++yB...v6++++;
#X connect 131 0 76 1 32.................G....X8++++A....V++++6.....;
#X connect 132 0 49 0 80.................E....rF...PA....qA...j7+++e0....I++++WM...fo++++KD...X5++++BA...X7+++CT....F++++.E...jy+++O;
#X connect 132 0 125 0 64.................61+++K5++++t8+++h9+++eT+++uP++++G0+++Kz+++uW7+++D5+++6E+++Og9+++dw+++C;
#X connect 132 0 45 0 48......................38+++O.....d++++e9+++Ol++++m++++i4++++4++++;
#X connect 132 0 95 0 48......................3C.........9....7++++ut....+++++qK...v+++++;
#X connect 132 0 88 0;
#X coords 0 0 1 1 526 212 2 0 0;
