#N canvas 59 106 472 137 10;
#X declare -path scaleProvider;
#N canvas 493 187 998 742 ns2scale 0;
#N canvas 267 176 616 541 range 0;
#X obj 355 425 change;
#X obj 441 297 change;
#X obj 355 397 i;
#X obj 355 367 sel 0;
#X obj 355 281 + 11;
#X obj 355 339 <= 69;
#X obj 441 271 i;
#X obj 441 204 sel 0;
#X obj 441 118 - 11;
#X obj 441 176 >= 58;
#X obj 253 79 + 1;
#X obj 79 379 outlet;
#X obj 79 297 sel 1;
#X msg 79 340 68;
#X obj 80 267 > 58;
#X obj 79 152 sel 1;
#X msg 79 195 68;
#X obj 80 122 < 69;
#X obj 80 48 inlet;
#X obj 80 86 t f f;
#X obj 441 146 t f f;
#X obj 355 309 t f f;
#X obj 80 231 t f f;
#X obj 126 136 prepend set;
#X obj 131 288 prepend set;
#X obj 253 49 r \$0-rangeBelow;
#X obj 253 229 r \$0-rangeAbove;
#X obj 441 327 s \$0-rangeAbove;
#X obj 355 453 s \$0-rangeBelow;
#X connect 0 0 28 0;
#X connect 1 0 27 0;
#X connect 2 0 0 0;
#X connect 3 0 2 0;
#X connect 4 0 21 0;
#X connect 5 0 3 0;
#X connect 6 0 1 0;
#X connect 7 0 6 0;
#X connect 8 0 20 0;
#X connect 9 0 7 0;
#X connect 10 0 17 1 32.................H....H1+++OB....h8+++iA....;
#X connect 10 0 8 0 32.................G....vK...vA....7B...PA....;
#X connect 10 0 5 1 32.................ZA...vG...fV....7A...DO....;
#X connect 12 0 13 0;
#X connect 13 0 11 0;
#X connect 14 0 12 0;
#X connect 15 0 16 0;
#X connect 16 0 22 0;
#X connect 17 0 15 0;
#X connect 18 0 19 0;
#X connect 19 0 17 0;
#X connect 19 1 23 0 32.................P....zD....D....MA...7A....;
#X connect 20 0 9 0;
#X connect 20 1 6 1;
#X connect 21 0 5 0;
#X connect 21 1 2 1;
#X connect 22 0 14 0;
#X connect 22 1 24 0 32.................S....fB...vD....n....XB....;
#X connect 23 0 16 0 32.................T....f5+++OE....n9+++iB....;
#X connect 24 0 13 0 32.................Q....z7+++eD....M++++GB....;
#X connect 25 0 10 0;
#X connect 26 0 9 1 48......................XD.........FA...j6+++uz....49+++KM...Pt++++;
#X connect 26 0 4 0 32.................K....XF...vB....lA...DB....;
#X connect 26 0 14 1 32.................J....D1+++uB....g8+++OA....;
#X restore 103 119 pd range;
#X obj 368 372 s ---scoreChord;
#N canvas 59 106 669 940 three 0;
#X obj 187 727 rootFromInversion gipsy_major -1_-10 -1_-1 -10_-1;
#X obj 187 697 rootFromInversion dim -3_-3 -6_-3 -3_-6;
#X obj 589 657 rootFromInversion aug -4;
#X obj 187 637 rootFromInversion sus_4 -5_-2 -5_-5 -2_-5;
#X obj 187 606 rootFromInversion lokrian -6_-4 -2_-6 -4_-2;
#X obj 187 576 rootFromInversion phrygian -1_-6 -5_-1 -6_-5;
#X obj 187 546 rootFromInversion dorian_9th -2_-1 -9_-2 -1_-9;
#X obj 187 516 rootFromInversion Minor_harmonic_7th -3_-8 -1_-3 -8_-1;
#X obj 187 484 rootFromInversion Minor_7th -3_-7 -2_-3 -7_-2;
#X obj 187 454 rootFromInversion Minor -3_-4 -5_-3 -4_-5;
#X obj 187 424 rootFromInversion \$9 -3_-1 -8_-3 -1_-8;
#X obj 187 394 rootFromInversion lydian -6_-1 -5_-6 -1_-5;
#X obj 187 364 rootFromInversion Major_79th -2_-9 -1_-2 -9_-1;
#X obj 187 334 rootFromInversion Major_9 -2_-2 -8_-2 -2_-8;
#X obj 187 305 rootFromInversion dominant_7th -7_-3 -2_-7 -3_-2;
#X obj 187 275 rootFromInversion dominant_7th -4_-6 -2_-4 -6_-2;
#X obj 187 244 rootFromInversion Major_7th -7_-4 -1_-7 -4_-1;
#X obj 187 214 rootFromInversion Major_7th -4_-7 -1_-4 -7_-1;
#X obj 187 184 rootFromInversion Major -4_-3 -5_-4 -3_-5;
#X obj 481 768 outlet;
#X obj 187 768 outlet;
#X obj 187 157 gate;
#X obj 329 125 == 3;
#X obj 329 78 inlet;
#X obj 200 78 inlet;
#X connect 0 0 20 0;
#X connect 0 1 19 0;
#X connect 1 0 20 0;
#X connect 1 1 19 0;
#X connect 2 0 20 0;
#X connect 2 1 19 0;
#X connect 3 0 20 0;
#X connect 3 1 19 0;
#X connect 4 0 20 0;
#X connect 4 1 19 0;
#X connect 5 0 20 0;
#X connect 5 1 19 0;
#X connect 6 0 20 0;
#X connect 6 1 19 0;
#X connect 7 0 20 0;
#X connect 7 1 19 0;
#X connect 8 0 20 0;
#X connect 8 1 19 0;
#X connect 9 0 20 0;
#X connect 9 1 19 0;
#X connect 10 0 20 0;
#X connect 10 1 19 0;
#X connect 11 0 20 0;
#X connect 11 1 19 0;
#X connect 12 0 20 0;
#X connect 12 1 19 0;
#X connect 13 0 20 0;
#X connect 13 1 19 0;
#X connect 14 0 20 0;
#X connect 14 1 19 0;
#X connect 15 0 20 0;
#X connect 15 1 19 0;
#X connect 16 0 20 0;
#X connect 16 1 19 0;
#X connect 17 0 20 0;
#X connect 17 1 19 0;
#X connect 18 0 20 0;
#X connect 18 1 19 0;
#X connect 21 0 13 0;
#X connect 21 0 12 0;
#X connect 21 0 11 0;
#X connect 21 0 10 0;
#X connect 21 0 9 0;
#X connect 21 0 8 0;
#X connect 21 0 7 0;
#X connect 21 0 6 0;
#X connect 21 0 5 0;
#X connect 21 0 4 0;
#X connect 21 0 3 0;
#X connect 21 0 1 0;
#X connect 21 0 0 0;
#X connect 21 0 17 0;
#X connect 21 0 16 0;
#X connect 21 0 15 0;
#X connect 21 0 14 0;
#X connect 21 0 18 0;
#X connect 22 0 21 0;
#X connect 23 0 22 0;
#X connect 24 0 21 1;
#X restore 238 414 pd three;
#N canvas 59 106 640 480 two 0;
#X obj 187 336 rootFromInversion dim -6;
#X obj 187 306 rootFromInversion Minor -3 -9;
#X obj 187 276 rootFromInversion dominant_7 -10 -2;
#X obj 187 246 rootFromInversion Major_7th -11 -1;
#X obj 187 216 rootFromInversion Major -4 -5;
#X obj 187 186 rootFromInversion Major -7 -8;
#X obj 449 378 outlet;
#X obj 187 378 outlet;
#X obj 187 157 gate;
#X obj 329 125 == 2;
#X obj 329 78 inlet;
#X obj 200 78 inlet;
#X connect 0 0 7 0;
#X connect 0 1 6 0 32.................H.....H....B.....B...bA....;
#X connect 1 0 7 0;
#X connect 1 1 6 0 32.................R....LF...fD....iA...TC....;
#X connect 2 0 7 0;
#X connect 2 1 6 0 32.................p....vC...fJ....7....LE....;
#X connect 3 0 7 0;
#X connect 3 1 6 0 32.................l....rD...fI....KA...DG....;
#X connect 4 0 7 0;
#X connect 4 1 6 0 64......................HC.........x....fA...fP....X....HD....L....iA....C...vX....OB....;
#X connect 5 0 7 0;
#X connect 5 1 6 0 80......................jA.........Y....XA...fL....V....HC...vJ....+....rB...vO....AA...PF...PP....jA...zJ....;
#X connect 8 0 5 0;
#X connect 8 0 0 0;
#X connect 8 0 4 0;
#X connect 8 0 3 0;
#X connect 8 0 2 0;
#X connect 8 0 1 0;
#X connect 9 0 8 0;
#X connect 10 0 9 0;
#X connect 11 0 8 1;
#X restore 178 414 pd two;
#N canvas 469 87 1289 999 four 0;
#X obj 187 997 rootFromInversion gipsy_major -1_-3_-7 -1_-1_-3 -7_-1_-1 -3_-7_-1;
#X obj 187 966 rootFromInversion 7\$11_no3 -6_-1_-3 -2_-6_-1 -3_-2_-6 -1_-3_-2;
#X obj 187 936 rootFromInversion Major_11th -5_-2_-4 -1_-5_-2 -4_-1_-5 -2_-4_-1;
#X obj 187 906 rootFromInversion lydian_no3 -6_-1_-4 -1_-6_-1 -4_-1_-6 -1_-4_-1;
#X obj 187 876 rootFromInversion Major_dominant_13no3 -7_-2_-1 -2_-7_-2 -1_-2_-7 -2_-1_-2;
#X obj 187 846 rootFromInversion dorian_7/13th -3_-6_-1 -2_-3_-6 -1_-2_-3 -6_-1_-2;
#X obj 187 816 rootFromInversion Major_79th -2_-2_-7 -1_-2_-2 -7_-1_-2 -2_-7_-1;
#X obj 187 786 rootFromInversion Minor_79th -2_-1_-7 -2_-2_-1 -7_-2_-2 -1_-7_-2;
#X obj 187 756 rootFromInversion dim_11 -3_-2_-1 -6_-3_-2 -1_-6_-3 -2_-1_-6;
#X obj 187 726 rootFromInversion Minor_9th -5_-2_-1 -4_-5_-2 -1_-4_-5 -2_-1_-4;
#X obj 187 696 rootFromInversion dim -3_-3_-3;
#X obj 187 666 rootFromInversion dominant_13th -5_-1_-2 -4_-5_-1 -2_-4_-5 -1_-2_-4;
#X obj 187 636 rootFromInversion Minor_11 -3_-2_-2 -5_-3_-2 -2_-5_-3 -2_-2_-5;
#X obj 187 606 rootFromInversion 7b13 -2_-4_-4 -2_-2_-4 -4_-2_-2 -4_-4_-2;
#X obj 187 576 rootFromInversion 7b9 -1_-3_-6 -2_-1_-3 -6_-2_-1 -3_-6_-2;
#X obj 187 546 rootFromInversion 7\$9 -3_-1_-6 -2_-3_-1 -6_-2_-3 -1_-6_-2;
#X obj 187 516 rootFromInversion lokrian -3_-3_-4 -2_-3_-3 -4_-2_-3 -3_-4_-2;
#X obj 187 486 rootFromInversion melodic_Minor -1_-3_-4 -4_-1_-3 -4_-4_-1 -3_-4_-4;
#X obj 187 456 rootFromInversion dorian_7th -3_-4_-3 -2_-3_-4 -3_-2_-3 -4_-3_-2;
#X obj 187 426 rootFromInversion Maj\$5 -4_-4_-3 -1_-4_-4 -3_-1_-4 -4_-3_-1;
#X text 740 366 ???;
#X obj 187 396 rootFromInversion lydian -4_-2_-1 -5_-4_-2 -1_-5_-4 -2_-1_-5;
#X text 740 154 Major7b9?;
#X obj 187 336 rootFromInversion dominant_7/9th -2_-2_-6 -2_-2_-2 -6_-2_-2 -2_-6_-2;
#X obj 187 306 rootFromInversion dominant_7\$11 -2_-4_-2 -4_-2_-4;
#X obj 187 276 rootFromInversion dominant_7sus4 -5_-2_-3 -2_-5_-2 -3_-2_-5 -2_-3_-2;
#X obj 187 246 rootFromInversion dominant_7th -4_-3_-3 -2_-4_-3 -3_-2_-4 -3_-3_-2;
#X obj 187 216 rootFromInversion Major_\$9 -3_-1_-3 -5_-3_-1 -3_-5_-3 -1_-3_-5;
#X obj 187 186 rootFromInversion Major_79 -2_-5_-4 -1_-2_-5 -4_-1_-2 -5_-4_-1;
#X obj 187 156 rootFromInversion Major_9 -2_-2_-3 -5_-2_-2 -3_-5_-2 -2_-3_-5;
#X obj 187 126 rootFromInversion Major_b9 -1_-3_-3 -5_-1_-3 -3_-5_-1 -3_-3_-5;
#X obj 187 96 rootFromInversion Major_7th -4_-3_-4 -1_-4_-3 -4_-1_-4 -3_-4_-1;
#X obj 679 1102 outlet;
#X obj 187 1098 outlet;
#X obj 187 64 gate;
#X obj 329 35 == 4;
#X obj 329 0 inlet;
#X obj 200 0 inlet;
#X obj 311 367 rootFromInversion phrygian -1_-4_-2 -5_-1_-4 -2_-5_-1 -4_-2_-5;
#X connect 0 0 33 0;
#X connect 0 1 32 0;
#X connect 1 0 33 0;
#X connect 1 1 32 0;
#X connect 2 0 33 0;
#X connect 2 1 32 0;
#X connect 3 0 33 0;
#X connect 3 1 32 0;
#X connect 4 0 33 0;
#X connect 4 1 32 0;
#X connect 5 0 33 0;
#X connect 5 1 32 0;
#X connect 6 0 33 0;
#X connect 6 1 32 0;
#X connect 7 0 33 0;
#X connect 7 1 32 0;
#X connect 8 0 33 0;
#X connect 8 1 32 0;
#X connect 9 0 33 0;
#X connect 9 1 32 0;
#X connect 10 0 33 0;
#X connect 10 1 32 0;
#X connect 11 0 33 0;
#X connect 11 1 32 0;
#X connect 12 0 33 0;
#X connect 12 1 32 0;
#X connect 13 0 33 0;
#X connect 13 1 32 0;
#X connect 14 0 33 0;
#X connect 14 1 32 0;
#X connect 15 0 33 0;
#X connect 15 1 32 0;
#X connect 16 0 33 0;
#X connect 16 1 32 0;
#X connect 17 0 33 0;
#X connect 17 1 32 0;
#X connect 18 0 33 0;
#X connect 18 1 32 0;
#X connect 19 0 33 0;
#X connect 19 1 32 0;
#X connect 21 0 33 0;
#X connect 21 1 32 0;
#X connect 23 0 33 0;
#X connect 23 1 32 0;
#X connect 24 0 33 0;
#X connect 24 1 32 0;
#X connect 25 0 33 0;
#X connect 25 1 32 0;
#X connect 26 0 33 0;
#X connect 26 1 32 0;
#X connect 27 0 33 0;
#X connect 27 1 32 0;
#X connect 28 0 33 0;
#X connect 28 1 32 0;
#X connect 29 0 33 0;
#X connect 29 1 32 0;
#X connect 30 0 33 0;
#X connect 30 1 32 0;
#X connect 31 0 33 0;
#X connect 31 1 32 0;
#X connect 34 0 31 0;
#X connect 34 0 26 0;
#X connect 34 0 25 0;
#X connect 34 0 24 0;
#X connect 34 0 23 0;
#X connect 34 0 19 0;
#X connect 34 0 21 0;
#X connect 34 0 18 0;
#X connect 34 0 17 0;
#X connect 34 0 16 0;
#X connect 34 0 15 0;
#X connect 34 0 14 0;
#X connect 34 0 13 0;
#X connect 34 0 12 0;
#X connect 34 0 11 0;
#X connect 34 0 10 0;
#X connect 34 0 9 0;
#X connect 34 0 8 0;
#X connect 34 0 7 0;
#X connect 34 0 6 0;
#X connect 34 0 5 0;
#X connect 34 0 4 0;
#X connect 34 0 3 0;
#X connect 34 0 2 0;
#X connect 34 0 1 0;
#X connect 34 0 0 0;
#X connect 34 0 30 0;
#X connect 34 0 29 0;
#X connect 34 0 28 0;
#X connect 34 0 27 0;
#X connect 35 0 34 0;
#X connect 36 0 35 0;
#X connect 37 0 34 1;
#X connect 38 0 33 0;
#X connect 38 1 32 0;
#X restore 310 414 pd four;
#N canvas 121 121 1330 672 scale 0;
#X obj 446 94 route harmonic;
#X obj 991 89 route major;
#X obj 821 145 route Major Minor;
#X obj 787 118 route \$11;
#X obj 479 118 route \$9;
#X msg 483 580 2;
#X msg 1158 460 11;
#X msg 1023 460 10;
#X msg 888 460 8;
#X msg 753 460 6;
#X msg 618 460 5;
#X msg 483 460 3;
#X msg 1023 130 7;
#X msg 1158 235 9;
#X msg 1023 235 8;
#X msg 888 235 6;
#X msg 753 235 4;
#X msg 618 235 3;
#X msg 283 95 1;
#X msg 1158 340 10;
#X msg 1023 340 9;
#X msg 888 340 7;
#X msg 753 340 5;
#X msg 618 340 4;
#X msg 483 340 2;
#X msg 378 118 0;
#X obj 367 243 +;
#X obj 322 243 +;
#X obj 277 243 +;
#X obj 232 243 +;
#X obj 186 243 +;
#X obj 141 243 +;
#X obj 378 17 route unison Major Minor dominant phrygian lydian lokrian \$9 sus4 aug dim Maj#5 dorian melodic 7#11 7#9 7b9 7b13 gypsy;
#X text 431 -16 scale;
#X obj 378 -40 inlet;
#X text 149 113 root;
#X obj 96 109 inlet;
#X obj 96 212 t f f f f f f f;
#X obj 96 279 pack f f f f f f f;
#X obj 96 353 s \$0-kPscale;
#X obj 395 80 route b9;
#X connect 0 0 6 0 48.................zA...Dk....c....QI...3J...vwB...tB...br...vVA...;
#X connect 0 1 19 0 32.................UA...zm...PU....8I...LN....;
#X connect 1 0 14 0 32..................A...3A....P....d....7G....;
#X connect 1 0 6 0 48.................XA...3C....V....9....PH...fo....DB...XJ....XA...;
#X connect 1 0 21 0 32.................WA...f4++++U....X9+++iN....;
#X connect 1 0 23 0 32.................WA...nn++++U....J5+++iN....;
#X connect 1 0 22 0 32.................WA...Dw++++U....Q7+++iN....;
#X connect 1 0 18 0 48......................zo+++O.....c5+++S++++uN8+++z++++qS+++O8++++;
#X connect 2 0 23 0 48.................r....n4+++OK....Z9+++KD....M++++BA...Py+++Or....;
#X connect 2 1 17 0 32.................j....bv+++OI....G7+++eD....;
#X connect 3 0 20 0 32.................DA...nN....Q....pC...rL....;
#X connect 3 0 19 0 32.................DA...LW....Q....yE...rL....;
#X connect 3 0 21 0 32.................DA...LF....Q....iA...rL....;
#X connect 3 0 9 0 32.................hB...z8+++un....c++++OT....;
#X connect 3 0 24 0 32.................DA...7r+++OQ....O6+++uL....;
#X connect 3 0 17 0 32.................g....X0+++eH....V8+++KF....;
#X connect 3 1 19 0 32.................DA...zT....Q....ME...rL....;
#X connect 3 1 21 0 32.................lA...zC...fY....8....rL....;
#X connect 3 1 20 0 32.................WA...PL...vU....DC...rL....;
#X connect 3 1 24 0 32.................DA...jp+++OQ....o5+++uL....;
#X connect 3 1 22 0 32.................DA...b6+++OQ....29+++uL....;
#X connect 3 1 17 0 48......................38+++O.....d++++GB....L++++g.....y+++uX....;
#X connect 4 0 19 0 32.................WA...bp...vU....mJ...rL....;
#X connect 4 0 20 0 32.................DA...3g....Q....dH...rL....;
#X connect 4 0 21 0 32.................DA...bY....Q....WF...rL....;
#X connect 4 0 23 0 32.................DA...jH....Q....IB...rL....;
#X connect 4 0 9 0 48.................1....TK...fM....0B...vF....DA...rA....Q...vPA...;
#X connect 4 0 11 0 32.................hB...H....fn....B....LT....;
#X connect 4 1 19 0 32.................WA...Ln...vU....CJ...rL....;
#X connect 4 1 20 0 32.................DA...ne....Q....5G...rL....;
#X connect 4 1 21 0 32.................DA...LW....Q....yE...rL....;
#X connect 4 1 22 0 32.................DA...vN....Q....rC...rL....;
#X connect 4 1 23 0 32.................DA...TF....Q....kA...rL....;
#X connect 4 1 24 0 32.................lA...78+++uY....e++++uL....;
#X connect 5 0 31 1 48......................v0+++O.....b8+++2o+++Ot9+++c5+++iq+++em9+++;
#X connect 6 0 26 1 64.................Z++++2u+++u1++++86+++K6+++u98+++x9+++qe+++eE++++1y+++Ww+++u87+++U7+++C;
#X connect 7 0 27 1 48......................rw+++O.....a7+++Ww++++S8+++U7++++T+++eE++++;
#X connect 8 0 28 1 48......................Dx+++O.....g7+++Ky++++p8+++x7+++uZ+++eE++++;
#X connect 9 0 29 1 48......................Hz+++O.....B8+++Ky+++eA9+++x7+++Wf+++eE++++;
#X connect 10 0 30 1 48......................7x+++O.....u7+++Ww+++uW9+++U7+++6k+++eE++++;
#X connect 11 0 31 1 48......................v0+++O.....b8+++Ww+++Ot9+++U7+++iq+++eE++++;
#X connect 12 0 27 1 32.................i....DU++++H....Q0+++6E....;
#X connect 13 0 26 1 48......................vm+++O.....74+++a+++++87+++1++++eO+++u8++++;
#X connect 14 0 27 1 48......................jp+++O.....o5+++a++++eT8+++1++++GU+++u8++++;
#X connect 15 0 28 1 48......................Xs+++O.....V6+++a+++++p8+++1++++uZ+++u8++++;
#X connect 16 0 29 1 48......................Lv+++O.....C7+++a++++eA9+++1++++Wf+++u8++++;
#X connect 17 0 30 1 48......................7x+++O.....u7+++a++++uW9+++1++++6k+++u8++++;
#X connect 18 0 31 1 32.................q....D3++++J....A9+++GH....;
#X connect 19 0 26 1 64.................Z++++2u+++u1++++86+++C5+++e98+++f9+++me+++ei++++0y+++23+++e87+++M9+++C;
#X connect 20 0 27 1 64......................ns+++O.....Z6+++65+++uE9+++t9+++ag+++ei++++Q0+++23+++eT8+++M9+++C;
#X connect 21 0 28 1 48......................Dx+++O.....g7+++q5++++p8+++p9+++uZ+++ei++++;
#X connect 22 0 29 1 64......................f6+++O.....39+++C9++++I++++f++++ex+++uq++++E3+++65+++eA9+++M9+++C;
#X connect 23 0 30 1 48......................7x+++O.....u7+++23+++uW9+++M9+++6k+++ei++++;
#X connect 24 0 31 1 48......................v0+++O.....b8+++23+++Ot9+++M9+++iq+++ei++++;
#X connect 25 0 26 1 32.................0....H....PM....B....nF....;
#X connect 25 0 27 1 32.................0....X8+++eM....V++++qF....;
#X connect 25 0 28 1 32.................0....j5+++eM....o9+++qF....;
#X connect 25 0 29 1 32.................n....v2+++OJ....78+++qF....;
#X connect 25 0 30 1 32.................n....3z+++OJ....N8+++qF....;
#X connect 25 0 31 1 32.................n....Dx+++OJ....g7+++qF....;
#X connect 26 0 38 6 48.................F....f7+++uA....H++++m....vU++++I....b0+++eD....;
#X connect 27 0 38 5 32.................I....L2+++eB....y8+++GA....;
#X connect 28 0 38 4 48.................F....f7+++uA....H++++m....vi++++I....73+++eD....;
#X connect 29 0 38 3 48.................F....f7+++uA....H++++m....vp++++I....r5+++eD....;
#X connect 30 0 38 2 32.................I....f7+++eB....H++++GA....;
#X connect 31 0 38 1 32.................I....P9+++eB....j++++GA....;
#X connect 32 0 25 0 32.................Z....7++++uF....+++++SC....;
#X connect 32 1 40 0 32.................G.........vA.........3.....;
#X connect 32 2 21 0 32.................mA...jc...vY....YG...HQ....;
#X connect 32 2 17 0 48.................p....7G...fJ....+A...7C...vx....+....rL...Pp....;
#X connect 32 2 22 0 32.................mA...HU...vY....RE...HQ....;
#X connect 32 2 24 0 32.................IB...PD...Ph....DA...HQ....;
#X connect 32 2 14 0 64.................U....fI...PE....XB...nB....xA...p....fb...vO....fI...7C....XB...oB....;
#X connect 32 2 0 0 32.................N....DB...fC....g....vA....;
#X connect 32 3 4 0 32.................Z....DC...fF....w....PC....;
#X connect 32 4 19 0 80......................HK.........xB...HB....uA...h....va...PQ....UH...TD...PEB...mA...Xr...vY....FK...HQ....;
#X connect 32 4 21 0 32.................mA...Xa...vY....1F...HQ....;
#X connect 32 4 22 0 32.................mA...7R...vY....uD...HQ....;
#X connect 32 4 17 0 48.................U....jF...PE....oA...7C....p....+....fJ...Pp....;
#X connect 32 4 18 0 48.................E....z5+++eA....s9+++q....PV++++J....j0+++eG....;
#X connect 32 4 14 0 64.................U....7H...PE....OB...nB...fqA...p....3Z...vO....8H...7C...POB...oB....;
#X connect 32 5 20 0 80......................rH.........KB...HB....nA...h.....Z...PQ....lG...TD...f4A...mA...rh...vY....qH...HQ....;
#X connect 32 5 6 0 32.................TB...Lq....k....yJ...nX....;
#X connect 32 5 21 0 32.................mA...PZ...vY....jF...HQ....;
#X connect 32 5 9 0 32.................TB...zQ....k....cD...nX....;
#X connect 32 5 23 0 32.................mA...XI...vY....VB...HQ....;
#X connect 32 5 24 0 32.................IB...7....Ph....O....HQ....;
#X connect 32 6 15 0 48.................U....TF...PE....kA...nB...vjA...p....LY...Pp....;
#X connect 32 6 19 0 64.................h....XZ...fH....lF...TD...f9A...EA...ne...vY....iJ...bF...vnB...RD....;
#X connect 32 6 22 0 32.................mA...vP...vY....LD...HQ....;
#X connect 32 6 17 0 48.................U....LD...PE....CA...7C...Pg....+....TH...Pp....;
#X connect 32 6 18 0 48.................E....n2+++eA....58+++q....fM++++J....Xy+++eG....;
#X connect 32 6 14 0 48.................p....PY...fJ....TF...7C...fFB...+....ng...Pp....;
#X connect 32 7 20 0 64.................h....XX...fH....FF...TD...vwA...EA...bb...vY....HH...bF....BB...RD....;
#X connect 32 7 6 0 32.................TB....o....k....PJ...nX....;
#X connect 32 7 21 0 32.................mA...DX...vY....AF...HQ....;
#X connect 32 7 22 0 32.................mA...nO...vY....5C...HQ....;
#X connect 32 7 23 0 32.................mA...LG...vY....yA...HQ....;
#X connect 32 7 11 0 32.................EC...z9+++ew....s++++qX....;
#X connect 32 8 19 0 64.................h....7X...fH....OF...TD...v2A...EA...7c...vY....+I...bF...veB...RD....;
#X connect 32 8 20 0 64.................h....jW...fH....4E...TD...vsA...EA...ba...vY....1G...bF...f8A...RD....;
#X connect 32 8 21 0 32.................mA...7V...vY....uE...HQ....;
#X connect 32 8 9 0 32.................TB...fN....k....nC...nX....;
#X connect 32 8 10 0 32.................oB...DF...Pp....gA...nX....;
#X connect 32 8 24 0 32.................IB...r8+++eh....a++++KQ....;
#X connect 32 9 6 0 32.................TB...zl....k....sI...nX....;
#X connect 32 9 7 0 48.................wA...DZ...Pb....gF...jJ...v4A...oB...bd...fhA...;
#X connect 32 9 8 0 48.................wA...nO...Pb....5C...jJ...fWA...oB...3U...fhA...;
#X connect 32 9 9 0 32.................TB...bM....k....WC...nX....;
#X connect 32 9 23 0 32.................IB....E...Ph....PA...HQ....;
#X connect 32 9 24 0 32.................IB...n7+++eh....J++++KQ....;
#X connect 32 10 15 0 32.................+....vT...vO....LE...jJ....;
#X connect 32 10 16 0 32.................+....TL...vO....EC...jJ....;
#X connect 32 10 17 0 32.................UA...3C...PU....9....jJ....;
#X connect 32 10 18 0 32.................O....7t++++C....u6+++2A....;
#X connect 32 10 13 0 48......................7f.........OH...7C...fVB...+....nk...Pp....;
#X connect 32 10 12 0 32.................f....Lc....H....SG....D....;
#X connect 32 11 20 0 64.................h....jQ...fH....YD...TD...fhA...EA...nX...vY....BG...bF...fvA...RD....;
#X connect 32 11 6 0 32.................TB...nj....k....JI...nX....;
#X connect 32 11 8 0 48.................wA...DN...Pb....gC...jJ...vNA...oB...rS...fhA...;
#X connect 32 11 9 0 32.................TB...PK....k....zB...nX....;
#X connect 32 11 23 0 32.................IB...zB...Ph....s....HQ....;
#X connect 32 11 24 0 32.................mA...b5++++Y....m9+++KQ....;
#X connect 32 12 3 0 32.................Z....XL...fF....FC...PC....;
#X connect 32 13 20 0 64.................h....LP...fH....CD...TD...fZA...EA...nV...vY....dF...bF...fmA...RD....;
#X connect 32 13 6 0 48.................wA...vN...Pb....rC...jJ...fIB...oB...Xh...fhA...;
#X connect 32 13 21 0 32.................mA...bQ...vY....WD...HQ....;
#X connect 32 13 22 0 32.................mA....I...vY....PB...HQ....;
#X connect 32 13 24 0 32.................mA...L3++++Y....C9+++KQ....;
#X connect 32 13 2 0 32.................h....XM...fH....VC...7D....;
#X connect 32 14 19 0 64.................h....rP...fH....KD...TD...fSA...EA...3T...vY....VH...bF...fEB...RD....;
#X connect 32 14 20 0 64.................h....fO...fH....3C...TD...vVA...EA...rU...vY....MF...bF...PiA...RD....;
#X connect 32 14 21 0 32.................mA...XP...vY....FD...HQ....;
#X connect 32 14 9 0 32.................TB...7G....k....+A...nX....;
#X connect 32 14 23 0 32.................IB...j++++eh....4++++KQ....;
#X connect 32 14 24 0 32.................mA...H2++++Y....x8+++KQ....;
#X connect 32 15 19 0 64.................h....HP...fH....BD...TD...vPA...EA...LT...vY....DH...bF....AB...RD....;
#X connect 32 15 15 0 48.................p....XM...fJ....VC...7C....8....+....PO...Pp....;
#X connect 32 15 16 0 32.................+....zF...vO....sA...jJ....;
#X connect 32 15 17 0 32.................UA...b9+++eU....m++++mJ....;
#X connect 32 15 18 0 48.................E....Ls+++eA....S6+++q....vk9+++J....bo+++eG....;
#X connect 32 15 14 0 48.................p....zN...fJ....sC...7C...vdA...+....rW...Pp....;
#X connect 32 16 19 0 64.................h....rK...fH....6B...TD...vMA...EA...bS...vY....xG...bF...f7A...RD....;
#X connect 32 16 21 0 32.................mA...HN...vY....hC...HQ....;
#X connect 32 16 22 0 32.................mA...rE...vY....aA...HQ....;
#X connect 32 16 23 0 32.................IB...T8+++eh....U++++KQ....;
#X connect 32 16 18 0 48.................E....Pr+++eA....D6+++q....Pg9+++J....Tn+++eG....;
#X connect 32 16 14 0 48.................p....HN...fJ....hC...7C...PZA...+....jV...Pp....;
#X connect 32 17 19 0 64.................h....PK...fH....zB...TD...PKA...EA...zR...vY....gG...bF...P3A...RD....;
#X connect 32 17 21 0 32.................mA...DM...vY....QC...HQ....;
#X connect 32 17 22 0 32.................IB...nD...Ph....JA...HQ....;
#X connect 32 17 23 0 32.................IB...P7+++eh....D++++KQ....;
#X connect 32 17 5 0 48.................AB...74+++ef....e9+++GL...PO++++AC...zy+++u.B...;
#X connect 32 17 14 0 48.................p....vJ...fJ....rB...7C....VA...+....fU...Pp....;
#X connect 32 18 1 0 32.................H....fR....B....nD...bA....;
#X connect 34 0 32 0 32.................S.........vD.........XB....;
#X connect 36 0 37 0 32.................p.........fJ.........PE....;
#X connect 37 0 38 0 32.................X..........F..........C....;
#X connect 37 1 31 0 32.................F....zA...fA....c....v.....;
#X connect 37 2 30 0 32.................F....jC...fA....4....v.....;
#X connect 37 3 29 0 32.................D....XE....A....VA...v.....;
#X connect 37 4 28 0 32.................D....HG....A....xA...v.....;
#X connect 37 5 27 0 32.................F....3H...fA....NB...v.....;
#X connect 37 6 26 0 32.................D....nJ....A....pB...v.....;
#X connect 38 0 39 0 32.................b..........G.........bC....;
#X connect 40 0 18 0 48......................b7+++O.....G++++2++++ui++++8++++63+++e+++++;
#X connect 40 0 23 0 32.................ZA...zM...fV....cC...DO....;
#X connect 40 0 22 0 32.................ZA...PV...fV....jE...DO....;
#X connect 40 0 6 0 48.................mA...bT...vY....GE...rI...f9B...aB...nu...PZA...;
#X connect 40 0 21 0 32.................ZA...rd...fV....qG...DO....;
#X connect 40 0 20 0 32.................ZA...Hm...fV....xI...DO....;
#X connect 40 1 25 0 32.................J....r7+++uB....K++++OA....;
#X connect 40 1 24 0 32.................4A...LC...Pd....y....DO....;
#X connect 40 1 23 0 32.................ZA...nK...fV....5B...DO....;
#X connect 40 1 22 0 32.................ZA...DT...fV....AE...DO....;
#X connect 40 1 6 0 48.................mA...7Y...vY....eF...rI...v0B...aB...bs...PZA...;
#X connect 40 1 21 0 32.................ZA...fb...fV....HG...DO....;
#X connect 40 1 20 0 32.................ZA...7j...fV....OI...DO....;
#X restore 368 463 pd scale;
#N canvas 59 106 640 480 noteName 0;
#X obj 333 92 s ---scoreRoot;
#X obj 104 350 outlet;
#X msg 269 227 B;
#X msg 254 197 Bb;
#X msg 239 167 A;
#X msg 224 137 Ab;
#X msg 209 227 G;
#X msg 179 167 F;
#X msg 164 137 E;
#X msg 149 227 Eb;
#X msg 134 197 D;
#X msg 119 167 Db;
#X msg 104 137 C;
#X obj 104 102 sel 0 1 2 3 4 5 6 7 8 9 10 11;
#X obj 104 57 inlet;
#X msg 194 197 F#;
#X connect 2 0 1 0;
#X connect 3 0 1 0;
#X connect 4 0 1 0;
#X connect 5 0 1 0;
#X connect 6 0 1 0;
#X connect 7 0 1 0;
#X connect 8 0 1 0;
#X connect 9 0 1 0;
#X connect 10 0 1 0;
#X connect 11 0 1 0;
#X connect 12 0 1 0;
#X connect 13 0 12 0;
#X connect 13 1 11 0;
#X connect 13 2 10 0;
#X connect 13 3 9 0;
#X connect 13 4 8 0;
#X connect 13 5 7 0;
#X connect 13 6 15 0;
#X connect 13 7 6 0;
#X connect 13 8 5 0;
#X connect 13 9 4 0;
#X connect 13 10 3 0;
#X connect 13 11 2 0;
#X connect 14 0 13 0;
#X connect 14 0 0 0;
#X connect 15 0 1 0;
#X restore 103 463 pd noteName;
#N canvas 59 106 640 480 unison 0;
#X obj 329 258 outlet;
#X obj 187 258 outlet;
#X msg 329 221 unison;
#X obj 187 157 gate;
#X obj 329 125 == 1;
#X obj 329 78 inlet;
#X obj 200 78 inlet;
#X obj 187 185 t f b;
#X connect 2 0 0 0;
#X connect 3 0 7 0;
#X connect 4 0 3 0;
#X connect 5 0 4 0;
#X connect 6 0 3 1;
#X connect 7 0 1 0;
#X connect 7 1 2 0;
#X restore 103 414 pd unison;
#X obj 139 360 zl.len;
#X obj 103 333 t l l;
#N canvas 67 389 1003 697 filterNO 0;
#X msg 344 433 set;
#X msg 234 499;
#X obj 456 320 inFilter;
#X obj 441 290 inFilter;
#X obj 426 260 inFilter;
#X obj 411 230 inFilter;
#X obj 396 320 inFilter;
#X obj 381 290 inFilter;
#X obj 366 260 inFilter;
#X obj 351 230 inFilter;
#X obj 336 320 inFilter;
#X obj 321 290 inFilter;
#X obj 306 260 inFilter;
#X obj 291 230 inFilter;
#X obj 276 320 inFilter;
#X obj 261 290 inFilter;
#X obj 246 260 inFilter;
#X obj 231 230 inFilter;
#X msg 154 191 stop;
#X obj 155 218 del 20;
#X obj 333 141 route 1 2 3 4 5 6 7 8 9 10 11 12 13 14 15 16;
#X obj 155 93 t b b b b b b b b b b b b b b b b b l b;
#X obj 234 536 outlet;
#X obj 155 52 inlet;
#X obj 234 433 prepend add2;
#X connect 0 0 1 0;
#X connect 1 0 22 0;
#X connect 2 0 24 0;
#X connect 3 0 24 0;
#X connect 4 0 24 0;
#X connect 5 0 24 0;
#X connect 6 0 24 0;
#X connect 7 0 24 0;
#X connect 8 0 24 0;
#X connect 9 0 24 0;
#X connect 10 0 24 0;
#X connect 11 0 24 0;
#X connect 12 0 24 0;
#X connect 13 0 24 0;
#X connect 14 0 24 0;
#X connect 15 0 24 0;
#X connect 16 0 24 0;
#X connect 17 0 24 0;
#X connect 18 0 19 0;
#X connect 19 0 1 0;
#X connect 20 0 17 1;
#X connect 20 1 16 1;
#X connect 20 2 15 1;
#X connect 20 3 14 1;
#X connect 20 4 13 1;
#X connect 20 5 12 1;
#X connect 20 6 11 1;
#X connect 20 7 10 1;
#X connect 20 8 9 1;
#X connect 20 9 8 1;
#X connect 20 10 7 1;
#X connect 20 11 6 1;
#X connect 20 12 5 1;
#X connect 20 13 4 1;
#X connect 20 14 3 1;
#X connect 20 15 2 1;
#X connect 21 0 19 0;
#X connect 21 1 17 0;
#X connect 21 2 16 0;
#X connect 21 3 15 0;
#X connect 21 4 14 0;
#X connect 21 5 13 0;
#X connect 21 6 12 0;
#X connect 21 7 11 0;
#X connect 21 8 10 0;
#X connect 21 9 9 0;
#X connect 21 10 8 0;
#X connect 21 11 7 0;
#X connect 21 12 6 0;
#X connect 21 13 5 0;
#X connect 21 14 4 0;
#X connect 21 15 3 0;
#X connect 21 16 2 0;
#X connect 21 17 20 0;
#X connect 21 18 18 0;
#X connect 21 18 0 0;
#X connect 23 0 21 0;
#X connect 24 0 1 0;
#X restore 103 243 pd filterNO;
#X obj 103 304 zl.sort;
#X obj 103 273 zl.thin;
#X obj 103 184 poly 16 1;
#X obj 103 76 unpack;
#X obj 103 211 pack f f f;
#X obj 139 493 t a b;
#X obj 139 547 prepend add2;
#X obj 103 521 list;
#X msg 103 587 \$1 Minor;
#X msg 178 521 set \, adddollar 1;
#X obj 103 613 list;
#X obj 103 657 s \$0-kPchordName;
#X obj 103 44 r \$0-providedNotes;
#X connect 0 0 13 0;
#X connect 2 0 6 0 32.................J....n2+++uB....58+++6A....;
#X connect 2 0 5 0 32.................O....HH...vC....BB...3A....;
#X connect 2 1 5 1 32.................J....LH...fB....CB...3A....;
#X connect 2 1 16 0 32.................T....r2+++OE....68+++yC....;
#X connect 3 0 5 0 32.................O....3K...vC....9B...3A....;
#X connect 3 0 6 0 32.................J....X6+++uB....19+++6A....;
#X connect 3 1 5 1 32.................O....bL...vC....GC...3A....;
#X connect 3 1 16 0 32.................d....76+++uG....+9+++yC....;
#X connect 4 0 5 0 32.................O....nC...vC....5....3A....;
#X connect 4 0 6 0 32.................J....Hy+++uB....x7+++6A....;
#X connect 4 1 5 1 32.................O....DD...vC....AA...3A....;
#X connect 4 1 16 0 32.................T....jy+++OE....47+++yC....;
#X connect 6 0 18 0;
#X connect 7 0 5 0 32.................O....jP...vC....ID...3A....;
#X connect 7 0 6 0 32.................O.........vC.........3A....;
#X connect 7 1 5 1 32.................J....DP...fB....AD...3A....;
#X connect 7 1 16 0 32.................d....j++++uG....4++++yC....;
#X connect 8 0 7 1 32.................R....f....fD....H....LB....;
#X connect 8 0 3 1 32.................R....HD...fD....BA...LB....;
#X connect 8 0 2 1 32.................L....XH....C....FB...LB....;
#X connect 8 0 4 1 32.................L....fL....C....HC...LB....;
#X connect 9 0 7 0 32.................e.........vG.........3C....;
#X connect 9 0 3 0 32......................rD.........KA...3C....;
#X connect 9 0 2 0 48......................nE.........ZA...TA...vg....U....bH...fO....;
#X connect 9 0 4 0 48......................fF.........nA...TA...vy....U....7L...fO....;
#X connect 9 1 8 0;
#X connect 9 1 1 0 48......................TE.........UA...b....f+....G....3O....E....;
#X connect 10 0 12 0;
#X connect 11 0 9 0;
#X connect 12 0 11 0;
#X connect 13 0 15 0;
#X connect 13 1 15 1;
#X connect 13 2 15 2;
#X connect 14 0 0 0;
#X connect 14 1 13 1;
#X connect 15 0 10 0;
#X connect 16 0 17 0;
#X connect 16 1 20 0 32.................E....rA...PA....a....j.....;
#X connect 17 0 19 0 32.................K....z8++++B....c++++WA....;
#X connect 18 0 19 0;
#X connect 19 0 21 0;
#X connect 20 0 19 0 32.................P....X6+++OD....19++++B....;
#X connect 21 0 22 0;
#X connect 23 0 14 0;
#X restore 313 423 pd ns2scale;
#X obj 219 365 midiformat;
#X obj 219 338 midiparse;
#X obj 190 423 midiout;
#X obj 219 307 midiin;
#X obj 283 24 noteRange 69 1;
#X obj 283 63 noteRange 58 1;
#X obj 192 241 prepend label;
#X obj 13 24 cnv 15 222 35 empty \$0-chordLabel F\ Minor 10 18 0 18 #696969 #e1e1e1 0;
#X obj 192 267 s \$0-chordLabel;
#X obj 246 24 tgl 25 0 empty empty midiIn2Out -38 -8 0 13 #191919 #e1e1e1 #313131 0 1;
#X obj 192 215 tosymbol;
#X symbolatom 356 51 9 0 0 3 OSCport \$0-OSC_port_r \$0-OSC_port 16;
#N canvas 0 22 450 300 OSC 0;
#X obj 44 341 tosymbol;
#X obj 44 315 r \$0-kPchordName;
#X obj 44 373 prepend /kP/chord/name;
#X obj 400 385 prepend /kP/scale;
#X obj 443 448 scaleProvider/rj/u_listmap;
#X obj 635 282 + 36;
#X obj 635 369 midi2note;
#X obj 635 420 t a a;
#X obj 695 457 list length;
#X obj 695 483 - 1;
#X obj 635 507 list split;
#X obj 635 533 else/unite empty;
#X obj 443 507 prepend /kP/namedscale;
#X obj 773 277 sel 1 3 5 8 10;
#X obj 400 335 r \$0-kPscale;
#X msg 721 333 flat;
#X msg 833 341 sharp;
#X obj 635 394 else/separate empty;
#X obj 443 413 t a a;
#X msg 773 251 \$1;
#X obj 401 564 scaleProvider/rj/u_list2symbol;
#X obj 401 590 pack s \$0;
#X msg 401 616 \; \$2-scaleLabel label \$1;
#X obj 193 330 s \$0-oscSender;
#X obj 168 410 r \$0-oscSender;
#X obj 244 640 s \$0-tcpCons;
#X obj 223 300 prepend listen;
#X obj 223 185 r \$0-OSC_port;
#X obj 170 601 print 2Receiver;
#X msg 84 517 listen 0;
#X msg 71 481 listen 666;
#X obj 168 442 osc.format;
#X obj 223 211 t a b;
#X obj 223 240 scaleProvider/rj/u_symbol2float;
#X obj 493 99 loadmess \$0;
#X msg 493 125 listen 666 \; \$1-OSC_port_r set 666;
#X obj 170 575 netreceive;
#X connect 0 0 2 0 32.................G.........vA.........z.....;
#X connect 1 0 0 0 32.................D..........A.........b.....;
#X connect 2 0 23 0 80......................HC.........x....v9++++R....r++++uD....1++++7A...f8+++Oe....C++++WI...vv++++UB...L7+++O;
#X connect 3 0 23 0 48......................v6+++O.....79+++e6+++uL++++29+++Ky++++s++++;
#X connect 4 0 12 0 32.................T..........E.........fB....;
#X connect 4 0 20 0 32.................w....b8+++eL....W++++GF....;
#X connect 4 1 5 0 48......................vA.........b....fz++++M....H8+++eC....R++++;
#X connect 5 0 6 0 32.................h.........fH.........PD....;
#X connect 6 0 17 0 32.................C.........v..........X.....;
#X connect 7 0 10 0 32.................h.........fH.........PD....;
#X connect 7 1 8 0 32.................I....DC...PB....w....HA....;
#X connect 8 0 9 0 32.................D..........A.........b.....;
#X connect 9 0 10 1 32.................C....P9++++.....j++++W.....;
#X connect 10 0 11 0 32.................D..........A.........b.....;
#X connect 11 0 4 1 48......................T9+++O.....k++++m4+++ux++++Y9+++q7+++el++++;
#X connect 12 0 23 0 48......................L5+++O.....i9+++2y++++A++++87+++ev+++eO++++;
#X connect 13 0 15 0 32.................S....z7++++D....M++++WB....;
#X connect 13 1 15 0 32.................S....z6++++D....89+++WB....;
#X connect 13 2 15 0 32.................S....v5++++D....r9+++WB....;
#X connect 13 3 15 0 32.................S....v4++++D....b9+++WB....;
#X connect 13 4 15 0 32.................S....r3++++D....K9+++WB....;
#X connect 13 5 16 0 32.................W....n9++++E....p++++2B....;
#X connect 14 0 3 0 32.................P..........D.........7A....;
#X connect 14 0 18 0 32.................d....rB...fG....q....rC....;
#X connect 15 0 6 0 32.................F....r5+++uA....q9+++GA....;
#X connect 16 0 6 0 32.................C....ry++++.....67+++m.....;
#X connect 17 0 7 0 32.................D..........A.........b.....;
#X connect 18 0 4 0 32.................H..........B..........A....;
#X connect 18 1 19 0 48......................jH.........IB...vz++++OA...L8++++S....S++++;
#X connect 19 0 13 0 32.................D..........A.........b.....;
#X connect 20 0 21 0 32.................D..........A.........b.....;
#X connect 21 0 22 0 32.................D..........A.........b.....;
#X connect 24 0 31 0;
#X connect 26 0 36 0 32.................IC...v7+++ex....L++++CP....;
#X connect 27 0 32 0;
#X connect 29 0 36 0;
#X connect 30 0 36 0;
#X connect 31 0 36 0;
#X connect 32 0 33 0;
#X connect 32 1 29 0;
#X connect 33 0 26 0;
#X connect 34 0 35 0;
#X connect 35 0 36 0;
#X connect 36 0 28 0;
#X connect 36 1 25 0;
#X restore 416 324 pd OSC;
#X obj 192 189 r \$0-kPchordName;
#X text 255 44 midi input range;
#X obj 561 94 declare -path scaleProvider;
#X obj 163 -43 r \$0-rangeBelow;
#X obj 163 -19 r \$0-rangeAbove;
#X obj 312 182 s \$0-rangeBelow;
#X obj 312 214 s \$0-rangeAbove;
#X obj 13 63 cnv 15 258 31 empty \$0-scaleLabel F\ G\ Ab\ Bb\ C\ Db\ Eb 10 18 0 18 #696969 #e1e1e1 0;
#X floatatom 357 19 5 0 0 2 connections \$0-tcpCons - 12;
#X obj 220 480 s \$0-providedNotes;
#X obj 190 396 gate 1;
#X obj 488 55 daw_storage \$0-lowerRange;
#X obj 490 30 daw_storage \$0-upperRange;
#X connect 1 0 24 1 32.................F....j++++uA....4++++y.....;
#X connect 2 0 1 0 32.................D..........A.........f.....;
#X connect 2 0 23 0 32.................9....D....fO....A....rG....;
#X connect 2 1 1 1 32.................D..........A.........f.....;
#X connect 2 2 1 2 32.................D..........A.........f.....;
#X connect 2 3 1 3 32.................D..........A.........f.....;
#X connect 2 4 1 4 32.................D..........A.........f.....;
#X connect 2 5 1 5 32.................D..........A.........f.....;
#X connect 2 6 1 6 32.................D..........A.........f.....;
#X connect 4 0 2 0 32.................F.........fA.........v.....;
#X connect 5 0 19 0 32.................DA...zA....Q....c....fH....;
#X connect 5 0 26 0 48......................fF.........nA...D+++++y....w+++++L...P7++++;
#X connect 6 0 20 0 32.................AA...zA...PP....c....DH....;
#X connect 6 0 25 0 48......................bF.........mA...L9+++ey....i++++2L...v3++++;
#X connect 7 0 9 0 32.................D..........A.........b.....;
#X connect 10 0 24 0 32.................tB...j7+++uq....I++++uU....;
#X connect 11 0 7 0 32.................D..........A.........b.....;
#X connect 14 0 11 0 32.................D..........A.........b.....;
#X connect 17 0 5 0 32......................fG.........3A....C....;
#X connect 18 0 6 0 32.................K....fG...vB....3A...7C....;
#X connect 24 0 3 0 32.................D..........A.........f.....;
#X connect 25 0 6 0 48......................n4+++O.....Z9+++a++++OM++++1++++Sy+++u8++++;
#X connect 26 0 5 0 48......................j4+++O.....Y9+++i9+++uL++++n++++Ky+++O5++++;
#X coords 0 0 1 1 462 116 1 0 0;
