#N struct 2479-symarray float x array symbols 2479-sym;
#N struct 2479-sym symbol name float on;
#N canvas 58 106 566 270 10;
#X declare -path scaleProvider;
#X declare -path scaleProvider/rjlib/rj;
#X declare -path scaleProvider/list-abs;
#X declare -path scaleProvider/rc/rc;
#X declare -path scaleProvider/abs;
#X obj 219 585 midiformat;
#X obj 219 558 midiparse;
#X obj 434 678 midiout;
#X obj 219 527 midiin;
#X obj 303 24 noteRange 69 1;
#X obj 303 63 noteRange 58 1;
#X obj 192 461 prepend label;
#X obj 283 96 cnv 15 222 35 empty \$0-chordLabel B\ Minor 10 18 0 18 #696969 #e1e1e1 0;
#X obj 192 487 s \$0-chordLabel;
#X obj 506 40 tgl 25 1 empty empty midiIn2Out -38 -8 0 13 #191919 #e1e1e1 #313131 1 1;
#X obj 192 435 tosymbol;
#X symbolatom 376 51 9 0 0 3 OSCport \$0-OSC_port_r \$0-OSC_port 16;
#N canvas 0 22 450 300 OSC 0;
#X obj 44 341 tosymbol;
#X obj 44 315 r \$0-kPchordName;
#X obj 44 373 prepend /kP/chord/name;
#X obj 400 385 prepend /kP/scale;
#X obj 635 282 + 36;
#X obj 635 369 midi2note;
#X obj 635 420 t a a;
#X obj 695 457 list length;
#X obj 695 483 - 1;
#X obj 635 507 list split;
#X obj 635 533 else/unite empty;
#X obj 443 507 prepend /kP/namedscale;
#X obj 773 277 sel 1 3 5 8 10;
#X obj 400 335 r \$0-kPscale;
#X msg 721 333 flat;
#X msg 833 341 sharp;
#X obj 635 394 else/separate empty;
#X obj 443 413 t a a;
#X msg 773 251 \$1;
#X obj 401 590 pack s \$0;
#X msg 401 616 \; \$2-scaleLabel label \$1;
#X obj 193 330 s \$0-oscSender;
#X obj 168 410 r \$0-oscSender;
#X obj 244 640 s \$0-tcpCons;
#X obj 223 300 prepend listen;
#X obj 223 185 r \$0-OSC_port;
#X obj 170 601 print 2Receiver;
#X msg 84 517 listen 0;
#X msg 71 481 listen 666;
#X obj 168 442 osc.format;
#X obj 223 211 t a b;
#X obj 493 99 loadmess \$0;
#X msg 493 125 listen 666 \; \$1-OSC_port_r set 666;
#X obj 170 575 netreceive;
#X obj 401 564 u_list2symbol;
#X obj 443 448 u_listmap;
#X obj 223 240 u_symbol2float;
#X obj 570 248 inlet;
#X connect 0 0 2 0;
#X connect 1 0 0 0;
#X connect 2 0 21 0;
#X connect 3 0 21 0;
#X connect 4 0 5 0;
#X connect 5 0 16 0;
#X connect 6 0 9 0;
#X connect 6 1 7 0;
#X connect 7 0 8 0;
#X connect 8 0 9 1;
#X connect 9 0 10 0;
#X connect 10 0 35 1;
#X connect 11 0 21 0;
#X connect 12 0 14 0;
#X connect 12 1 14 0;
#X connect 12 2 14 0;
#X connect 12 3 14 0;
#X connect 12 4 14 0;
#X connect 12 5 15 0;
#X connect 13 0 3 0;
#X connect 13 0 17 0;
#X connect 14 0 5 0;
#X connect 15 0 5 0;
#X connect 16 0 6 0;
#X connect 17 0 35 0;
#X connect 17 1 18 0;
#X connect 18 0 12 0;
#X connect 19 0 20 0;
#X connect 22 0 29 0;
#X connect 24 0 33 0;
#X connect 25 0 30 0;
#X connect 27 0 33 0;
#X connect 28 0 33 0;
#X connect 29 0 33 0;
#X connect 30 0 36 0;
#X connect 30 1 27 0;
#X connect 31 0 32 0;
#X connect 32 0 33 0;
#X connect 33 0 26 0;
#X connect 33 1 23 0;
#X connect 34 0 19 0;
#X connect 35 0 11 0;
#X connect 35 0 34 0;
#X connect 35 1 4 0;
#X connect 36 0 24 0;
#X connect 37 0 21 0;
#X restore 634 505 pd OSC;
#X obj 192 349 r \$0-kPchordName;
#X obj 303 -43 r \$0-rangeBelow;
#X obj 303 -19 r \$0-rangeAbove;
#X obj 303 402 s \$0-rangeBelow;
#X obj 303 434 s \$0-rangeAbove;
#X obj 283 138 cnv 15 258 31 empty \$0-scaleLabel B\ C#\ D\ E\ F#\ G\ A 10 18 0 18 #696969 #e1e1e1 0;
#X floatatom 377 19 5 0 0 2 connections \$0-tcpCons - 12;
#X obj 256 804 s \$0-providedNotes;
#X obj 508 611 gate 1;
#X obj 302 -176 daw_storage \$0-lowerRange;
#X obj 302 -201 daw_storage \$0-upperRange;
#X obj 849 19 loadbang;
#X msg 849 45 pluginmode;
#X obj 849 71 s pd;
#N canvas 752 47 636 730 chords 0;
#X msg 605 243 0;
#X obj 605 195 loadbang;
#X obj 605 217 del 1000;
#X obj 672 247 r cleanPresets;
#X obj 672 269 route clear;
#X obj 171 248 r retriggerScale;
#X obj 574 -100 ctlin 123;
#X obj 574 -79 t b f;
#X obj 574 -38 ctlout;
#X msg 574 -58 123;
#X obj 458 -105 r cleanNotes;
#X obj 68 11 r \$0-providedNotes;
#X obj 81 365 s \$0-kPchordName;
#X obj 81 330 m2chordscale;
#X msg 528 189 clear;
#X msg 171 274 retrigger;
#X obj 116 402 s \$0-kPscale;
#X text 614 50 not sure why I needed this \, delete if not missed;
#X connect 0 0 14 0;
#X connect 1 0 2 0;
#X connect 2 0 0 0;
#X connect 3 0 4 0;
#X connect 4 0 2 0;
#X connect 5 0 15 0;
#X connect 6 0 7 0;
#X connect 6 1 8 2;
#X connect 7 0 9 0;
#X connect 7 0 14 0;
#X connect 7 1 8 1;
#X connect 9 0 8 0;
#X connect 10 0 14 0;
#X connect 11 0 13 0;
#X connect 13 0 12 0;
#X connect 13 1 16 0;
#X connect 15 0 13 0;
#X restore 632 545 pd chords;
#X obj 557 -320 declare -path scaleProvider;
#X obj 566 -293 declare -path scaleProvider/rjlib/rj;
#X obj 587 -237 declare -path scaleProvider/list-abs;
#X obj 576 -263 declare -path scaleProvider/rc/rc;
#X obj 597 -207 declare -path scaleProvider/abs;
#X obj 219 666 unpack;
#X obj 219 692 moses 0;
#X obj 255 719 moses 127;
#X obj 401 671 r \$0-rangeBelow;
#X obj 416 697 r \$0-rangeAbove;
#X obj 255 745 pack;
#X obj 367 749 oktRange \$0;
#X obj 505 -120 daw_storage \$0-in2Out;
#X obj 517 394 namecanvas \$0-scaleProvider;
#N canvas 461 88 450 300 Menu 0;
#X obj 111 187 unpack f s;
#X obj 310 -38 r addPreset;
#X msg 411 64 set;
#X obj 501 64 r \$0-overwrite;
#X msg 503 256 callLinkedPreset \$1;
#X msg 501 146 storeLinkedPreset \$1;
#X obj 715 153 counter;
#X obj 715 64 bng 25 250 50 0 empty empty empty 17 7 0 10 #e4e4e4 #4d4d4d #373737;
#X obj 781 39 bng 25 250 50 0 empty empty reset 17 7 0 10 #e4e4e4 #4d4d4d #373737;
#X obj 715 112 t b;
#X obj 501 105 f 0;
#X floatatom 558 105 5 0 0 0 - - - 12;
#X msg 180 16 \; addPreset_R set, f 19;
#X obj 350 256 r \$0-delete;
#X obj 350 297 f;
#X msg 350 338 deleteLinkedPreset \$1;
#X msg -64 386 dump;
#X obj 130 440 route 1;
#X obj 130 358 list split 2;
#X obj 143 256 list prepend;
#X obj 198 222 list;
#X obj 130 317 list;
#X obj 185 317 list;
#X obj 268 386 t b b b f b;
#X msg 291 419 set;
#X obj 243 442 unpack f s;
#X msg 291 460 add \$1;
#X obj 501 187 outlet;
#X obj 687 421 list trim;
#X msg 558 386 set;
#X obj 687 339 list prepend add2;
#X obj 111 146 vanillaMenu \$0-scaleProvider presets 13 55 250 14;
#X msg 310 64 add \$1 \, symbol \$1;
#X obj 310 3 route float symbol;
#X obj 851 419 daw_storage \$0-linkedPresets;
#X obj 687 380 t b a;
#X obj 913 287 t b a b;
#X obj 846 663 list trim;
#X obj 1039 506 list length;
#X obj 1009 546 print DAWDlength;
#X obj 846 704 print DAWEDmenu;
#X obj 847 571 list prepend set, f 19;
#X msg 35 64 set Einz Two;
#X obj 820 620 list;
#X obj 764 545 loadbang;
#X obj 764 586 del 2000;
#X obj 914 487 - 0;
#X obj 130 399 t b a;
#X obj 155 492 list split 1;
#X msg 558 442;
#X obj 155 518 + 1;
#X connect 0 0 4 0 32.................Q....fX...PD....HF...HC....;
#X connect 0 0 10 1 64......................XH.........FB...78+++uSA...e++++6T....m++++QF...v4+++ejA...b9+++C;
#X connect 0 0 14 1 48......................zG.........8A...HB...f9....h....nO...vV....;
#X connect 1 0 12 0 32.................R....72+++uD....+8+++OB....;
#X connect 1 0 33 0 32.................K.........vB.........XA....;
#X connect 2 0 31 0 32.................U....Ts+++eE....U6++++C....;
#X connect 3 0 10 0 32.................K.........vB.........XA....;
#X connect 4 0 27 0 48......................................j5+++++++++o9++++++++ep++++;
#X connect 5 0 27 0 32.................K.........vB.........XA....;
#X connect 6 0 10 0 48......................X4+++O.....V9+++66++++J++++99+++ux+++uu++++;
#X connect 6 0 14 1 32.................p....7o+++uJ....e5+++2G....;
#X connect 7 0 6 0 32.................f..........H..........D....;
#X connect 8 0 6 2 32.................s....78+++eK....e++++mE....;
#X connect 8 0 2 0 32......................7n+++O.....O5+++C.....;
#X connect 8 0 29 0 32.................JB...Hx+++uh....h7+++KT....;
#X connect 9 0 6 0 32.................K.........vB.........XA....;
#X connect 10 0 5 0 32.................K.........vB.........XA....;
#X connect 11 0 5 0 32.................L....f7+++OC....H++++eA....;
#X connect 13 0 14 0 32.................K.........vB.........XA....;
#X connect 14 0 15 0 32.................K.........vB.........XA....;
#X connect 14 0 23 0 32.................i....75++++H....u9+++aD....;
#X connect 15 0 27 0 64......................DD.........AA...f6+++uU....39+++aE...vU++++WB...b0++++k....W8+++C;
#X connect 16 0 31 0 48......................rD.........KA...3u++++q....96++++J...f+9+++;
#X connect 17 1 25 0 48......................vB.........r.....++++OV....v++++iE....7++++;
#X connect 17 1 48 0 32.................Q.........PD.........DB....;
#X connect 18 0 47 0 32.................K.........vB.........XA....;
#X connect 18 1 22 1 48......................bA.........W....T7+++eK....E++++2B...Pw++++;
#X connect 19 0 21 1 32.................U....7++++eE....+++++qB....;
#X connect 19 0 20 0 48......................vA.........b....v7++++M....L++++eC....y++++;
#X connect 20 0 19 1 32.................H..........B.........7.....;
#X connect 21 0 18 0 32.................K.........vB.........XA....;
#X connect 22 0 18 0 32.................K....n7++++B....J++++aA....;
#X connect 23 0 21 0 64......................z7+++O.....M++++q7+++el++++J++++m4+++ep++++28+++m5++++c++++o9+++C;
#X connect 23 1 24 0 32.................G....b....vA....G....3.....;
#X connect 23 2 16 0 48......................rz+++O.....K8+++69+++ek9+++t++++Wo+++u6++++;
#X connect 23 3 17 1 48.................F....r7+++uA....K++++y.....X++++L.....1++++H....;
#X connect 23 4 19 1 48......................P8+++O.....T++++y1+++ud++++r8+++q2+++Oa++++;
#X connect 23 4 29 0 48......................DG.........wA...39+++e3....t++++GN...f6++++;
#X connect 24 0 31 0 64......................P8+++O.....T++++Gv+++eu++++A7+++26+++e29+++M8+++2s+++eS++++c6+++C;
#X connect 25 1 26 0 48.................................................................;
#X connect 26 0 31 0 48......................T7+++O.....E++++Sq+++eS++++z5+++2z+++Os9+++;
#X connect 28 0 31 0 64......................Dz+++O.....A8+++2y+++e39+++87+++Gt++++19+++A2+++us+++ev8+++a6+++C;
#X connect 28 0 49 0 32.......................3+++O......9+++K.....;
#X connect 29 0 49 0 32.................S.........vD.........TB....;
#X connect 30 0 35 0 32.................K.........vB.........XA....;
#X connect 31 0 0 0 32.................K.........vB.........XA....;
#X connect 31 1 19 0 32.................m....Lv++++I....C7+++uE....;
#X connect 32 0 31 0 32.................f....ny+++OH....57++++C....;
#X connect 33 1 32 0 32.................U....L8+++eE....S++++qB....;
#X connect 33 1 30 0 64......................vN.........rC...rE....GA...aA...vQ....h....KE...fH...vRA...8D....;
#X connect 33 1 9 0 32.................d....bV...fG....mE...nE....;
#X connect 34 0 36 0 48......................7A.........e....n1+++uO....p8+++6C...fZ++++;
#X connect 35 0 49 0 32.................V.....3+++uE.....9+++uB....;
#X connect 35 1 28 0 32.................K....T+++++B....0++++aA....;
#X connect 36 1 38 0 32.................VA....G...fU....vA...fL....;
#X connect 36 1 19 0 48......................jm+++O.....44++++7+++e77+++O++++GO++++y++++;
#X connect 36 1 41 0 32.................EB...D6+++eg....w9+++mP....;
#X connect 36 2 29 0 48.................M....Dr+++eC....A6+++uA...Pf9+++a....Dn+++OT....;
#X connect 37 0 31 0 64......................vv+++O.....L7+++Kj+++ej9+++B4+++Go+++e58+++hz+++md+++uH8+++o2+++C;
#X connect 37 0 40 0 32.................K.........vB.........XA....;
#X connect 38 0 46 0 48......................b8+++O.....W++++u8+++Og++++a++++S3++++1++++;
#X connect 41 0 43 1 32.................O....D+++++C....w++++6A....;
#X connect 42 0 31 0 32.................f....vD....H....LA...7C....;
#X connect 43 0 37 0 32.................L....nA....C....Z....fA....;
#X connect 44 0 45 0 32.................K.........vB.........XA....;
#X connect 45 0 43 0 32.................H....fC....B....3....7.....;
#X connect 46 0 6 2 48......................j7+++O.....I++++Cp+++uV++++f5+++q0+++On9+++;
#X connect 46 0 10 1 64......................r2+++O.....68+++au+++e89+++16+++Wu++++r9+++u4+++Oq++++a9+++v4+++C;
#X connect 46 0 14 1 64.................J9+++K6+++uh++++x9+++6z+++OE++++N8+++Sw+++OL++++X2+++Cy+++O18+++v7+++C;
#X connect 46 0 39 0 32.................T....7E....E....eA...fB....;
#X connect 47 0 22 0 48......................vA.........b....v4++++M....b9+++eC....m++++;
#X connect 47 1 17 0 32.................K....T+++++B....0++++aA....;
#X connect 48 0 50 0 32.................D..........A.........b.....;
#X connect 48 1 30 0 64......................vM.........bC...31+++uaA...t8+++6V...PU++++AH...T0+++e.B...U8+++C;
#X connect 49 0 34 0 64......................HF.........hA...L+++++v....y++++OL...v0++++kD...b8+++eIA...W++++C;
#X connect 50 0 6 2 64......................3O.........9C...Xx++++9A...l7+++ue...Pf9+++PI...Dn+++OTB...A5+++C;
#X restore 634 430 pd Menu;
#X obj 14 8 bng 25 250 50 0 \$0-overwrite empty overwrite\ Presets 0 33 0 11 #006800 #eeeeee #006800;
#X obj 237 8 bng 25 250 50 0 \$0-delete empty delete\ Presets -41 33 0 11 #570000 #eeeeee #570000;
#X listbox 42 9 19 0 0 0 - addPreset_R addPreset 16;
#X obj 253 55 vsl 8 2 0 127 0 0 presets-1_s presets-1_r x 3 3 0 4 #d9d9d9 #d9d9d9 #606060 0 0;
#X obj 253 55 vsl 8 2 0 127 0 0 presets-2_s presets-2_r x 3 3 0 4 #d9d9d9 #d9d9d9 #606060 0 0;
#X obj 253 55 vsl 8 2 0 127 0 0 presets-3_s presets-3_r x 3 3 0 4 #d9d9d9 #d9d9d9 #606060 0 0;
#X obj 253 55 vsl 8 2 0 127 0 0 presets-4_s presets-4_r x 3 3 0 4 #d9d9d9 #d9d9d9 #606060 0 0;
#X obj 253 55 vsl 8 2 0 127 0 0 presets-5_s presets-5_r x 3 3 0 4 #d9d9d9 #d9d9d9 #606060 0 0;
#X obj 253 55 vsl 8 2 0 127 0 0 presets-6_s presets-6_r x 3 3 0 4 #d9d9d9 #d9d9d9 #606060 0 0;
#X obj 253 55 vsl 8 2 0 127 0 0 presets-7_s presets-7_r x 3 3 0 4 #d9d9d9 #d9d9d9 #606060 0 0;
#X obj 253 55 vsl 8 2 0 127 0 0 presets-8_s presets-8_r x 3 3 0 4 #d9d9d9 #d9d9d9 #606060 0 0;
#X obj 253 55 vsl 8 2 0 127 0 0 presets-9_s presets-9_r x 3 3 0 4 #d9d9d9 #d9d9d9 #606060 0 0;
#X obj 253 55 vsl 8 2 0 127 0 0 presets-10_s presets-10_r x 3 3 0 4 #d9d9d9 #d9d9d9 #606060 0 0;
#X obj 253 55 vsl 8 2 1 0 0 1 presets_scroll_s presets_scroll_r empty 0 -9 0 10 #dcdcdc #dfdfdf #000000 0 0;
#X obj 253 55 cnv 9 1 1 empty presets_scrollIndicator empty 20 12 0 14 #bbbbbb #404040 0;
#X obj 13 55 vsl 250 14 0 127 0 0 presets_s presets_r presets 3 5 0 11 #ffffff #fcfcfc #000000 0 0;
#X obj 780 461 pack s f;
#X msg 780 487 /\$1 \$2;
#X connect 0 0 21 1 32.................D....XS....A....1D...b.....;
#X connect 1 0 0 0 32.................D..........A.........f.....;
#X connect 1 0 33 0 32.................s.........PK.........jE....;
#X connect 1 1 0 1 32.................D..........A.........f.....;
#X connect 1 2 0 2 32.................D..........A.........f.....;
#X connect 1 3 0 3 32.................D..........A.........f.....;
#X connect 1 4 0 4 32.................D..........A.........f.....;
#X connect 1 5 0 5 32.................D..........A.........f.....;
#X connect 1 6 0 6 32.................D..........A.........f.....;
#X connect 3 0 1 0 32.................F.........fA.........v.....;
#X connect 4 0 16 0 32.................xB........fr.........PV....;
#X connect 4 0 23 0 48......................................nv+++O.....J7+++C....fB++++;
#X connect 5 0 17 0 32.................uB........vq.........zU....;
#X connect 5 0 22 0 48......................................vu+++O.....76+++C.....+9+++;
#X connect 6 0 8 0 32.................D..........A.........b.....;
#X connect 9 0 21 0 32.................QD...H....PDA...B....Hh....;
#X connect 9 0 40 0 48......................................fz+++O.....H8+++C.....R++++;
#X connect 10 0 6 0 32.................D..........A.........b.....;
#X connect 13 0 10 0 32.................h.........fH.........LD....;
#X connect 14 0 4 0 32.................X..........F..........C....;
#X connect 15 0 5 0 32.................f..........H.........7C....;
#X connect 21 0 2 0 32.................P....b6+++OD....29+++CC....;
#X connect 22 0 5 0 32.................tA...D....fa....A....vM....;
#X connect 23 0 4 0 32.................mA...D....vY....A....3L....;
#X connect 24 0 25 0 32.................D..........A.........b.....;
#X connect 25 0 26 0 32.................D..........A.........b.....;
#X connect 33 0 34 0 32.................D..........A.........b.....;
#X connect 33 1 38 1 32.................d....TA...fG....U....vC....;
#X connect 34 1 35 0 32.................D..........A.........f.....;
#X connect 35 0 38 0 32.................D..........A.........b.....;
#X connect 36 0 35 1 48......................D++++O.....w++++q....vm++++J....74+++eG....;
#X connect 37 0 34 1 48......................r7+++O.....K++++m9+++OX++++o++++C1+++e5++++;
#X connect 38 0 20 0 32.................T....D.....E....A....fB....;
#X connect 40 0 9 0 32.................GA...D....vQ....A....zH....;
#X connect 42 0 59 0 32.................D....HI....A....RB...v.....;
#X connect 59 0 60 0 32.................D..........A.........b.....;
#X connect 60 0 12 0 48.......................8+++O.....P++++C....va++++.....71+++O.....;
#X coords 0 0 1 1 550 254 1 0 0;
