#N struct 1008-symarray float x array symbols 1008-sym;
#N struct 1008-sym symbol name float on;
#N canvas 827 239 600 327 12;
#X obj 41 10 pad 432 212 0 0 0;
#X obj 41 269 route list click;
#X obj 41 356 spigot;
#N canvas 0 22 450 300 \$0-timeGrid 1;
#X obj 1 1 cnv 15 25 210 empty empty empty 20 12 0 14 #e1e1e1 #e1e1e1 0;
#X obj 28 1 cnv 15 25 210 empty empty empty 20 12 0 14 #e1e1e1 #e1e1e1 0;
#X obj 55 1 cnv 15 25 210 empty empty empty 20 12 0 14 #e1e1e1 #e1e1e1 0;
#X obj 82 1 cnv 15 25 210 empty empty empty 20 12 0 14 #e1e1e1 #e1e1e1 0;
#X obj 109 1 cnv 15 25 210 empty empty empty 20 12 0 14 #e1e1e1 #e1e1e1 0;
#X obj 136 1 cnv 15 25 210 empty empty empty 20 12 0 14 #e1e1e1 #e1e1e1 0;
#X obj 163 1 cnv 15 25 210 empty empty empty 20 12 0 14 #e1e1e1 #e1e1e1 0;
#X obj 190 1 cnv 15 25 210 empty empty empty 20 12 0 14 #e1e1e1 #e1e1e1 0;
#X obj 217 1 cnv 15 25 210 empty empty empty 20 12 0 14 #e1e1e1 #e1e1e1 0;
#X obj 244 1 cnv 15 25 210 empty empty empty 20 12 0 14 #e1e1e1 #e1e1e1 0;
#X obj 271 1 cnv 15 25 210 empty empty empty 20 12 0 14 #e1e1e1 #e1e1e1 0;
#X obj 298 1 cnv 15 25 210 empty empty empty 20 12 0 14 #e1e1e1 #e1e1e1 0;
#X obj 325 1 cnv 15 25 210 empty empty empty 20 12 0 14 #e1e1e1 #e1e1e1 0;
#X obj 352 1 cnv 15 25 210 empty empty empty 20 12 0 14 #e1e1e1 #e1e1e1 0;
#X obj 379 1 cnv 15 25 210 empty empty empty 20 12 0 14 #e1e1e1 #e1e1e1 0;
#X obj 406 1 cnv 15 25 210 empty empty empty 20 12 0 14 #e1e1e1 #e1e1e1 0;
#X coords 0 0 1 1 432 213 2 0 0;
#X restore 41 10 pd \$0-timeGrid;
#N canvas 0 22 450 300 length 0;
#X obj 164 77 inlet;
#X obj 368 138 f \$0;
#X msg 246 170 \; pd-\$1-timeGrid clear \;, f 37;
#X obj 163 152 until;
#X obj 164 248 count 0 15;
#X msg 183 217 reset 0 \, max \$1;
#X obj 183 186 - 1;
#X obj 164 314 *;
#X obj 164 406 pack f \$0 f;
#X obj 215 142 expr (432 - $f1 * 2)/$f1;
#X obj 164 346 +;
#X obj 226 314 * 2;
#X obj 164 274 t f f;
#X obj 164 380 + 1;
#X obj 163 113 t f f f b, f 12;
#X obj 370 261 s \$0-grid-x-size;
#X obj 376 95 s \$0-grid-length;
#X msg 164 438 \; pd-\$2-timeGrid obj \$1 1 cnv 15 \$3 210 empty empty empty 20 12 0 14 #E1E1E1 #e1e1e1 0 \;, f 82;
#X connect 0 0 14 0;
#X connect 0 0 16 0 48......................bD.........GA.........0.........PM.........;
#X connect 1 0 2 0 32.................G....b3++++A....G9+++2.....;
#X connect 3 0 4 0;
#X connect 4 0 12 0;
#X connect 5 0 4 0 32.................F....39+++uA....t++++y.....;
#X connect 6 0 5 0;
#X connect 7 0 10 0;
#X connect 8 0 17 0;
#X connect 9 0 8 2;
#X connect 9 0 7 1 32.................WB...j8++++k....Y++++mI....;
#X connect 9 0 15 0 32.................x....rI...fL....aB...PF....;
#X connect 10 0 13 0;
#X connect 11 0 10 1 32.................G....37++++A....N++++2.....;
#X connect 12 0 7 0;
#X connect 12 1 11 0 32.................K....LC...vB....y....TA....;
#X connect 13 0 8 0;
#X connect 14 0 3 0;
#X connect 14 1 6 0;
#X connect 14 2 9 0 32.................E....v....PA....L....n.....;
#X connect 14 3 1 0 32.................B.....I...f.....PB...X.....;
#X restore 571 -71 pd length;
#X obj 69 325 list;
#X obj 156 371 unpack;
#X obj 323 525 i;
#X obj 323 551 change -1;
#X obj 323 499 expr ($f1-5) / (208 / 7) + 1;
#X obj 323 585 clip 1 7;
#X obj 156 397 expr $f1 / (432 / $f2) + 1;
#X obj 480 11 nbx 7 19 1 64 0 1 empty empty Length 0 -8 0 12 #191919 #e1e1e1 #555555 16 256;
#X obj 156 506 change -1;
#X obj 156 474 i;
#X msg 204 475 set -1;
#X obj 346 751 scaleProvider/rj/m_symbolarray;
#X text 174 693 first check for content;
#X obj -4 715 t a a b, f 23;
#X obj -29 933 gate 2 1;
#X msg 6 896 1;
#X obj 239 1051 scaleProvider/rj/u_listdrip;
#X obj 239 1077 scaleProvider/rj/u_symbol2list -;
#X text -256 948 empty position \, simply add entry;
#X msg -27 895 2;
#X obj 239 967 symbol;
#X msg 671 1017 \$1;
#X obj 177 1217 ==;
#X obj 177 1129 list split 1;
#X obj 177 1185 scaleProvider/rj/u_symbol2float;
#X obj 239 991 scaleProvider/rj/u_symbol2list _;
#X text 443 969 split multiple entries;
#X text 439 1055 split xval from length;
#X text 413 1029 loop over the entries;
#X obj 93 924 t b a b a b, f 118;
#X obj 239 1103 t a a;
#X obj 586 1283 list;
#X obj 789 1371 list;
#X obj 1036 1338 list;
#X obj 109 1475 list;
#X msg 704 1017 \$2;
#X obj 485 1497 list prepend;
#X obj 789 1318 scaleProvider/rj/u_list2symbol -;
#X obj 147 1319 spigot;
#X msg 174 1277 1;
#X msg 193 1276 0;
#X obj 586 1406 scaleProvider/rj/u_list2symbol _;
#X obj 636 1061 list length;
#X obj 625 1141 sel 1;
#X obj 625 1109 f;
#X obj 239 1017 t a a;
#X obj 154 619 pack;
#X text 73 901 entry in this position \, check for possible content to add or remove;
#X text 147 1474 final list;
#X text 728 1082 check for last entry;
#X text 833 1349 re-gather all entries;
#X obj -18 564 inlet lookup;
#X obj -18 630 t f b;
#X msg -4 672 1;
#X text 133 814 either lookup or modify content;
#X obj 67 767 t f b;
#X msg 80 795 2;
#X msg 448 626 dump;
#X msg 481 661 reset;
#X msg 67 741 \$1;
#N canvas 0 22 450 300 \$0-7 1;
#X coords 0 0 1 1 432 30 2 0 0;
#X restore 41 11 pd \$0-7;
#N canvas 0 22 450 300 \$0-6 1;
#X coords 0 0 1 1 432 30 2 0 0;
#X restore 41 41 pd \$0-6;
#N canvas 0 22 450 300 \$0-5 1;
#X coords 0 0 1 1 432 30 2 0 0;
#X restore 41 71 pd \$0-5;
#N canvas 0 22 450 300 \$0-4 1;
#X coords 0 0 1 1 432 30 2 0 0;
#X restore 41 101 pd \$0-4;
#N canvas 0 22 450 300 \$0-3 1;
#X coords 0 0 1 1 432 30 2 0 0;
#X restore 41 131 pd \$0-3;
#N canvas 0 22 450 300 \$0-2 1;
#X coords 0 0 1 1 432 30 2 0 0;
#X restore 41 161 pd \$0-2;
#N canvas 0 22 450 300 \$0-1 1;
#X coords 0 0 1 1 432 30 2 0 0;
#X restore 41 191 pd \$0-1;
#X obj 693 1187 pack \$0 f;
#X obj 438 234 bng 25 250 50 0 empty empty empty 17 7 0 10 #191919 #e1e1e1 #e1e1e1;
#N canvas 0 22 450 300 add2Grid 0;
#X obj 138 42 inlet;
#X obj 156 322 *;
#X obj 156 348 +;
#X obj 245 282 * 2;
#X obj 167 179 r \$0-grid-x-size;
#X obj 138 92 unpack;
#X obj 234 145 t f f;
#X msg 138 68 \$2 \$1;
#X obj 168 117 - 1;
#X obj 188 224 + 2;
#X obj 188 250 * 1;
#X text 226 248 note length;
#X text 282 280 note position;
#X obj 188 276 - 6;
#X obj 245 308 + 3;
#X obj 832 181 inlet resize;
#X obj 138 380 pack f f f \$0 f, f 14;
#X msg 138 416 \; pd-\$4-\$1 obj \$2 5 cnv 15 \$3 20 empty \$4-\$5-\$1 empty 20 12 0 14 #6D6D6D #e1e1e1 0;
#X obj 832 265 *;
#X obj 832 291 - 6;
#X obj 832 395 outlet;
#X obj 832 328 pack f f f \$0 f;
#X obj 832 207 t f f;
#X msg 832 354 \$3 \$2 \$5 \; \$4-\$3-\$2 vis_size \$1 20;
#X obj 368 153 inlet;
#X obj 368 179 t b f;
#X connect 0 0 7 0;
#X connect 1 0 2 0;
#X connect 2 0 16 1;
#X connect 3 0 14 0;
#X connect 4 0 1 1;
#X connect 4 0 9 0 32.................L....3.....C....N....fA....;
#X connect 5 0 16 0;
#X connect 5 0 21 1 48.................C....vL...v.....LC...L....PxB...C....jr...P1....;
#X connect 5 1 8 0;
#X connect 5 1 16 4 32.................A....vB...P.....r....zP....;
#X connect 5 1 21 2 48.................B.....K...f.....vB...H....vuB...B....7q...P1....;
#X connect 6 0 1 0 32.................G....n6++++A....59+++aG....;
#X connect 6 1 3 0;
#X connect 7 0 5 0;
#X connect 8 0 6 0 32.................E....HD...PA....BA...j.....;
#X connect 9 0 10 0;
#X connect 9 0 18 1 32.................E....7n...PA....OJ...XA....;
#X connect 10 0 13 0;
#X connect 13 0 16 2 32.................NA...P++++uS....z++++WE....;
#X connect 14 0 2 1 32.................R....n6+++uD....59+++WA....;
#X connect 15 0 22 0;
#X connect 16 0 17 0;
#X connect 18 0 19 0;
#X connect 19 0 21 0;
#X connect 21 0 23 0;
#X connect 22 0 18 0;
#X connect 22 1 21 4 32.................y....fC...vL....3....XF....;
#X connect 23 0 20 0;
#X connect 24 0 25 0;
#X connect 25 0 9 0 32.................I....zz+++eB....M8+++qA....;
#X connect 25 1 10 1 32.................Z....zz+++uF....M8+++SC....;
#X restore -141 1005 pd add2Grid;
#X obj 523 786 print seqARRAY;
#X obj 502 234 bng 25 250 50 0 empty empty empty 17 7 0 10 #191919 #e1e1e1 #e1e1e1;
#X text 530 236 dump;
#X msg 147 1350 \$2 1;
#X text 767 1170 remove last position entry;
#X text 239 1213 if not \, add to final list \,;
#X text 239 1226 else prevent adding and remove from grid;
#X text 239 1239 or trigger remove last entry;
#N canvas 0 22 450 300 removeFromGrid 0;
#X obj 1265 546 inlet list2remove;
#X obj 392 112 inlet row2redraw;
#X obj 601 197 route 1 2 3 4 5 6 7;
#X text 551 49 when removing entry we redraw the whole row \, so here we handle lists of the rows, f 30;
#X obj 601 276 list;
#X obj 644 239 list;
#X obj 556 423 list;
#X obj 631 306 list;
#X obj 674 269 list;
#X obj 661 336 list;
#X obj 704 299 list;
#X obj 691 366 list;
#X obj 734 329 list;
#X obj 721 396 list;
#X obj 764 359 list;
#X obj 751 426 list;
#X obj 794 389 list;
#X obj 781 456 list;
#X obj 824 419 list;
#X obj 1125 617 route symbol;
#X obj 1125 664 select [DUMMY-SYMBOL];
#X obj 1030 741 spigot;
#X msg 1127 704 0;
#X msg 1192 704 1;
#X obj 844 529 scaleProvider/rj/u_listdrip;
#X text 473 153 float bangs the row list;
#X msg 363 269 \; pd-\$2-\$1 clear;
#X obj 363 241 pack f \$0;
#X msg 1125 594 symbol \$1;
#X obj 794 197 inlet reset;
#X obj 601 132 inlet entry2add;
#X msg 1265 628 symbol \$1-\$2;
#X obj 767 955 outlet;
#X obj 767 848 scaleProvider/rj/u_symbol2float;
#X obj 767 903 pack f f;
#X obj 767 778 scaleProvider/rj/u_symbol2list -;
#X msg 767 826 symbol \$1;
#X obj 844 555 t a a a;
#X msg 1008 137 set;
#X msg 1008 163 7;
#X obj 392 138 t b f f b;
#X obj 1063 113 prepend add2;
#X obj 1008 189 route 1 2 3 4 5 6 7;
#X obj 1042 271 t a b;
#X obj 1008 217 t a b;
#X obj 1024 244 t a b;
#X obj 1092 353 t a b;
#X obj 1058 299 t a b;
#X obj 1074 326 t a b;
#X obj 1110 381 t a b;
#X obj 524 466 gate 2 1;
#X msg 442 432 1;
#X obj 649 555 inlet entry2replace;
#X obj 649 581 t a b;
#X msg 600 442 2;
#X obj 556 744 list prepend;
#N canvas 0 22 450 300 replace 0;
#X obj 365 308 inlet;
#X obj 365 358 scaleProvider/rj/u_listmap;
#X obj 819 318 scaleProvider/rj/u_symbol2list -;
#X obj 590 308 scaleProvider/rj/u_symbol2list -;
#X obj 570 273 t a a;
#X obj 570 503 spigot;
#X obj 677 503 sel 0;
#X obj 808 537 list;
#X msg 819 344 symbol \$1;
#X msg 590 360 symbol \$1;
#X obj 590 384 scaleProvider/rj/u_symbol2float;
#X obj 819 370 scaleProvider/rj/u_symbol2float;
#X obj 590 466 !=;
#X obj 808 565 scaleProvider/rj/u_list2symbol -;
#X obj 365 429 outlet;
#X obj 819 260 inlet 2replace;
#X connect 0 0 1 0;
#X connect 1 0 14 0;
#X connect 1 1 4 0 48......................bB.........m....P4+++eS....T9+++2D....k++++;
#X connect 2 0 8 0;
#X connect 2 0 7 1;
#X connect 3 0 9 0;
#X connect 4 0 5 0;
#X connect 4 1 3 0 32.................H....j.....B....I.....A....;
#X connect 5 0 1 1 48......................78+++O.....e++++25+++eu++++s9+++26+++eq++++;
#X connect 6 0 7 0 32.................E....LH...PA....CB...7.....;
#X connect 7 0 13 0;
#X connect 8 0 11 0;
#X connect 9 0 10 0;
#X connect 10 0 12 0;
#X connect 11 0 12 1 32.................Z....bx+++uF....m7+++2D....;
#X connect 12 0 6 0 32.................F....bE...fA....WA...HA....;
#X connect 12 0 5 1 32.................I....L....PB....C....HA....;
#X connect 13 0 1 1 80......................P6+++O.....z9+++C4+++ui++++P9+++63++++U++++06+++e0+++e89+++e7++++r++++G++++O6++++w+++O;
#X connect 15 0 2 0;
#X restore 556 527 pd replace;
#X obj 649 647 list split 1;
#X obj 649 711 t b f f;
#X obj 939 930 outlet;
#X obj 857 870 scaleProvider/rj/u_symbol2float;
#X msg 857 826 symbol \$2;
#X connect 0 0 31 0;
#X connect 1 0 40 0;
#X connect 2 0 4 0 32.................d.........fG.........vC....;
#X connect 2 1 7 0 32.................s....z....PK....M....nE....;
#X connect 2 2 9 0 32.................7....nA....O....Z....fG....;
#X connect 2 3 11 0 32.................KA...bB...vR....m....XI....;
#X connect 2 4 13 0 32.................ZA...PC...fV....z....PK....;
#X connect 2 5 15 0 32.................oA...DD...PZ....AA...HM....;
#X connect 2 6 17 0 48.................n....bB....J....m....fB...fS....n....3D....7....;
#X connect 4 0 5 0 48......................XA.........V....j7++++J....I++++uB...Px++++;
#X connect 4 0 6 1 32..................A...78+++OP....e++++CH....;
#X connect 5 0 4 1 32.................I....D9+++eB....g++++KA....;
#X connect 6 0 50 1;
#X connect 7 0 8 0 48......................XA.........V....j7++++J....I++++uB...Px++++;
#X connect 7 0 6 1 32.................w....D7+++eL....A++++KF....;
#X connect 8 0 7 1 32.................I....D9+++eB....g++++KA....;
#X connect 9 0 10 0 48......................XA.........V....j7++++J....I++++uB...Px++++;
#X connect 9 0 6 1 32.................h....L5+++uH....i9+++SD....;
#X connect 10 0 9 1 32.................I....D9+++eB....g++++KA....;
#X connect 11 0 12 0 48......................XA.........V....j7++++J....I++++uB...Px++++;
#X connect 11 0 6 1 32.................S....T3++++D....E9+++aB....;
#X connect 12 0 11 1 32.................I....D9+++eB....g++++KA....;
#X connect 13 0 14 0 48......................XA.........V....j7++++J....I++++uB...Px++++;
#X connect 13 0 6 1 32.................D....b1+++OA....m8+++i.....;
#X connect 14 0 13 1 32.................I....D9+++eB....g++++KA....;
#X connect 15 0 16 0 48......................XA.........V....j7++++J....I++++uB...Px++++;
#X connect 15 0 6 1 48......................T5+++O.....k9+++u9+++eR++++q++++mz++++5++++;
#X connect 16 0 15 1 32.................I....D9+++eB....g++++KA....;
#X connect 17 0 18 0 48......................XA.........V....j7++++J....I++++uB...Px++++;
#X connect 17 0 6 1 48......................X4+++O.....V9+++27++++J++++M++++ux+++ey++++;
#X connect 18 0 17 1 32.................I....D9+++eB....g++++KA....;
#X connect 19 0 20 0;
#X connect 19 1 23 0;
#X connect 20 0 22 0;
#X connect 20 1 23 0 32.................K....T6++++B....09+++WA....;
#X connect 21 0 35 0 32.................F....nu+++uA....56+++KA....;
#X connect 21 0 41 0 48......................DA.........Q....nW+++eH....50+++GB...fd8+++;
#X connect 22 0 21 1 32.................F....j6+++uA....49+++KA....;
#X connect 23 0 21 1 48.................F....b5+++uA....m9+++a....fd++++F....n2+++uD....;
#X connect 24 0 37 0;
#X connect 27 0 26 0;
#X connect 28 0 19 0;
#X connect 29 0 17 1 32.................3A...7++++Od....+++++CO....;
#X connect 29 0 15 1 32.................oA...D9+++eZ....g++++KM....;
#X connect 29 0 7 1 32.................d....j1+++uG....o8+++qE....;
#X connect 29 0 9 1 32.................n....b3+++OJ....G9+++iG....;
#X connect 29 0 13 1 32.................ZA...L7+++uV....C++++SK....;
#X connect 29 0 11 1 32.................x....T5+++uL....k9+++aI....;
#X connect 29 0 4 1 32.................J....rz+++uB....K8+++yC....;
#X connect 30 0 2 0;
#X connect 31 0 20 1;
#X connect 33 0 34 0;
#X connect 34 0 32 0;
#X connect 35 0 61 0;
#X connect 35 0 36 0;
#X connect 36 0 33 0;
#X connect 37 0 21 0 32.................v....nK....L....5B...bJ....;
#X connect 37 1 28 0 32.................N....3P...fC....ND...vA....;
#X connect 38 0 39 0;
#X connect 39 0 42 0;
#X connect 40 0 6 0 32.................z....PJ....M....jB...nP....;
#X connect 40 0 39 0 32.................C....fl...v.....nI...X.....;
#X connect 40 1 2 0 32.................Y....LL...PF....CC...fB....;
#X connect 40 1 27 0 32.................CA...T8++++P....U++++SE....;
#X connect 40 1 34 1 48.................cK...jT...P2B...IE...zs...vgA...cK...bX...f5B...;
#X connect 40 2 41 0 48.......................T..........E...T8+++OfB...U++++Cn...P0++++;
#X connect 40 3 38 0 48......................zQ.........cD...z9+++eNB...s++++mi...P6++++;
#X connect 40 3 51 0;
#X connect 41 0 39 0 32.................P....n7+++OD....J+++++A....;
#X connect 42 0 44 0;
#X connect 42 1 45 0;
#X connect 42 2 43 0;
#X connect 42 3 47 0;
#X connect 42 4 48 0;
#X connect 42 5 46 0;
#X connect 42 6 49 0;
#X connect 43 0 10 0 48.................B....j7+++u.....I++++O....vq9+++C....7p+++eB....;
#X connect 43 1 10 1 32.................C....3p++++.....t5+++m.....;
#X connect 44 0 5 0 32.................B....To+++u.....U5+++O.....;
#X connect 44 1 5 1 32.................A....Po+++e.....T5+++O.....;
#X connect 45 0 8 0 48.................A....b7+++e.....G++++K....vn9+++B....Lp+++uA....;
#X connect 45 1 8 1 32.................B....Hp+++u.....h5+++a.....;
#X connect 46 0 16 0 32.................I....bs+++eB....W6+++GA....;
#X connect 46 1 16 1 48.................E....77+++eA....O++++a....f09+++F....Xs+++eD....;
#X connect 47 0 12 0 32.................D....zq+++OA....85+++u.....;
#X connect 47 1 12 1 32.................F....vq+++uA....75+++u.....;
#X connect 48 0 14 0 32.................G....rr++++A....K6+++6.....;
#X connect 48 1 14 1 48.................E....z7+++eA....M++++W....fx9+++E....nr+++uC....;
#X connect 49 0 18 0 32.................J....Lt+++uB....i6+++OA....;
#X connect 49 1 18 1 32.................J....Ht+++uB....h6+++OA....;
#X connect 50 0 24 0 32.................O....DT...vC....AE...vB....;
#X connect 50 1 56 0;
#X connect 51 0 50 0 32.................H....TE....B....UA...7.....;
#X connect 52 0 53 0;
#X connect 53 0 57 0;
#X connect 53 1 54 0 48......................D9+++O.....g++++O1+++uv++++i8+++K7++++X++++;
#X connect 54 0 50 0 32.................B....b6+++u.....29+++W.....;
#X connect 55 0 42 0 64......................HL.........BC...rv++++PA...K7+++OT...vv8+++DG...Lb+++OwA...C2+++C;
#X connect 56 0 55 0;
#X connect 57 0 58 0;
#X connect 57 1 56 1 48.................38+++e9+++Od++++m++++a2+++ew++++18+++W7+++uc++++;
#X connect 58 0 6 0 48......................X9+++O.....l++++6r+++Oo++++N6+++S5+++uy9+++;
#X connect 58 1 2 0 48......................H9+++O.....h++++yd++++v++++r2+++O7+++O68+++;
#X connect 58 2 55 1 32.................G....36++++A....99+++6.....;
#X connect 60 0 59 0;
#X connect 61 0 60 0;
#X restore 296 1426 pd removeFromGrid;
#X obj 393 1377 list prepend;
#X obj 393 1350 scaleProvider/rj/u_list2symbol -;
#X obj 276 1334 f;
#X msg 722 506 7;
#X obj 720 572 until;
#X obj 720 684 t b f;
#X obj 720 598 counter 1 7;
#X msg -29 1377 \$2 \$1-1;
#X msg 210 1345 \$1 1;
#X obj 482 1300 f;
#X obj 482 1326 pack f s;
#X msg 498 1192 symbol \$2;
#X text 555 729 array of column entries (x);
#X msg 693 1218 delete \$2;
#X obj 966 1160 pack \$0 f;
#X msg 914 1214 \; pd-\$1-\$2 clear;
#X obj 109 296 t f f f;
#X obj -108 538 change -1;
#X obj -108 506 i;
#X obj -108 564 -;
#X obj -108 590 + 1;
#X obj -108 616 moses 1;
#X obj 78 834 gate 3 1;
#N canvas 0 22 450 300 resize 0;
#X obj 395 166 inlet;
#X obj 849 138 inlet newYsize;
#X obj 395 242 scaleProvider/rj/u_listmap;
#X obj 849 202 scaleProvider/rj/u_symbol2list -;
#X obj 620 192 scaleProvider/rj/u_symbol2list -;
#X obj 600 157 t a a;
#X obj 600 387 spigot;
#X obj 707 387 sel 0;
#X obj 838 421 list;
#X msg 849 228 symbol \$1;
#X msg 620 244 symbol \$1;
#X obj 620 268 scaleProvider/rj/u_symbol2float;
#X obj 849 254 scaleProvider/rj/u_symbol2float;
#X obj 395 218 scaleProvider/rj/u_symbol2list _;
#X obj 620 350 !=;
#X obj 838 449 scaleProvider/rj/u_list2symbol -;
#X obj 395 287 scaleProvider/rj/u_list2symbol _;
#X obj 395 354 outlet;
#X connect 0 0 13 0;
#X connect 1 0 3 0;
#X connect 2 0 16 0;
#X connect 2 1 5 0 48......................bB.........m....P4+++eS....T9+++2D....k++++;
#X connect 3 0 9 0;
#X connect 3 0 8 1;
#X connect 4 0 10 0;
#X connect 5 0 6 0;
#X connect 5 1 4 0 32.................H....j.....B....I.....A....;
#X connect 6 0 2 1 48......................78+++O.....e++++25+++eu++++s9+++26+++eq++++;
#X connect 7 0 8 0 32.................E....LH...PA....CB...7.....;
#X connect 8 0 15 0;
#X connect 9 0 12 0;
#X connect 10 0 11 0;
#X connect 11 0 14 0;
#X connect 12 0 14 1 32.................Z....bx+++uF....m7+++2D....;
#X connect 13 0 2 0;
#X connect 14 0 7 0 32.................F....bE...fA....WA...HA....;
#X connect 14 0 6 1 32.................I....L....PB....C....HA....;
#X connect 15 0 2 1 80......................P6+++O.....z9+++C4+++ui++++P9+++63++++U++++06+++e0+++e89+++e7++++r++++G++++O6++++w+++O;
#X connect 16 0 17 0;
#X restore 184 855 pd resize;
#X msg -125 1069 3;
#X msg -140 1092 \$1;
#X obj -141 1031 t a b a;
#X msg -111 1126 \$2-\$3;
#X msg -92 1057 \$1;
#X obj 184 881 list prepend;
#X msg -112 1486 \$2 \$1-\$3;
#X text 94 1213 same yval;
#X text 239 1201 check vor equal yval;
#X obj 148 325 sel 0;
#X obj 67 435 gate 2 1;
#X msg 70 402 1;
#X msg 102 395 2;
#X obj -108 474 spigot;
#X msg -83 371 0;
#X obj 29 1239 print;
#X obj 177 1242 sel 0;
#X msg -29 966 \$1 \$2-1;
#X obj -124 971 t a b;
#X msg -65 972 1;
#X obj 296 1283 sel 1;
#N canvas 0 22 450 300 label 0;
#X obj 386 114 inlet;
#X obj 386 180 scaleProvider/rj/u_listdrip;
#X obj 450 237 counter 1 7;
#X msg 470 209 set 0;
#X obj 386 314 pack s f \$0;
#X msg 386 352 \; \$3-\$2-label label \$1;
#X obj 386 206 t a b;
#X obj 386 262 scaleProvider/rj/u_list2symbol;
#X obj 601 169 list length;
#X obj 601 222 until;
#X obj 601 248 t b b;
#X obj 386 140 t a a b;
#X msg 601 274 symbol;
#X obj 601 196 expr 7 - $f1;
#X connect 0 0 11 0;
#X connect 1 0 6 0;
#X connect 2 0 4 1 32.................c....r8+++eG....a++++qC....;
#X connect 3 0 2 0;
#X connect 4 0 5 0;
#X connect 6 0 7 0;
#X connect 6 1 2 0 32.................F....PC...fA....z....v.....;
#X connect 7 0 4 0;
#X connect 8 0 13 0;
#X connect 9 0 10 0;
#X connect 10 0 12 0;
#X connect 10 1 2 0 48......................75+++O.....u9+++O9+++eW++++i++++20++++3++++;
#X connect 11 0 1 0 32.................K.........vB.........TA....;
#X connect 11 1 8 0 32.................D....jL....A....IC...b++++O;
#X connect 11 2 3 0 32.................Y....bC...PF....2....HC....;
#X connect 12 0 4 0 32.................G....nx++++A....p7+++WA....;
#X connect 13 0 9 0;
#X restore -131 337 pd label;
#X obj 10 12 cnv 15 30 29 empty \$0-7-label empty 14 14 0 14 #ffffff #797979 0;
#X obj 10 42 cnv 15 30 29 empty \$0-6-label empty 14 14 0 14 #ffffff #797979 0;
#X obj 10 72 cnv 15 30 29 empty \$0-5-label empty 14 14 0 14 #ffffff #797979 0;
#X obj 10 102 cnv 15 30 29 empty \$0-4-label empty 14 14 0 14 #ffffff #797979 0;
#X obj 10 132 cnv 15 30 29 empty \$0-3-label empty 14 14 0 14 #ffffff #797979 0;
#X obj 10 162 cnv 15 30 29 empty \$0-2-label empty 14 14 0 14 #ffffff #797979 0;
#X obj 10 192 cnv 15 30 29 empty \$0-1-label empty 14 14 0 14 #ffffff #797979 0;
#N canvas 0 22 450 300 run 0;
#X obj 597 178 inlet;
#X obj 295 160 playhead;
#X obj 444 190 unpack f f f;
#X obj 444 215 spigot;
#X obj 443 267 i;
#X obj 568 272 r \$0-readSpeed;
#X obj 568 298 + 1;
#X obj 568 324 sel 3;
#X msg 568 350 4;
#X obj 443 350 change;
#X obj 505 376 r \$0-grid-length;
#X obj 443 522 outlet;
#X obj 443 241 * 1;
#X obj 302 253 change;
#X obj 302 382 f;
#X obj 302 279 expr 60000 / $f1;
#X obj 302 434 s \$0-grid-ms;
#X obj 443 376 + 1;
#X obj 302 408 / 4;
#X obj 355 356 t b 4;
#X obj 302 305 t b f;
#X obj 189 279 sel 1;
#X obj 189 232 change;
#X msg 189 316 set -1;
#X obj 546 427 prepend set;
#X msg 443 487 16;
#X obj 443 402 % 16;
#X obj 443 428 sel 0;
#X connect 0 0 3 1 32.................O....72++++C....+8+++KA....;
#X connect 1 0 22 0 32.................G....b4++++A....W9+++2.....;
#X connect 1 5 13 0 32.................Y....L6+++eF....y9+++qD....;
#X connect 1 8 2 0 32.................I....v....PB....L....DA....;
#X connect 2 0 3 0;
#X connect 3 0 12 0;
#X connect 4 0 9 0;
#X connect 5 0 6 0;
#X connect 6 0 7 0;
#X connect 7 0 8 0;
#X connect 7 1 12 1 48......................X8+++O.....V++++S8+++ef++++T++++G3+++O0++++;
#X connect 7 1 19 0 32.................G....3w++++A....d7+++2.....;
#X connect 8 0 12 1 48......................j7+++O.....I++++q6+++ej++++59+++G4+++ut++++;
#X connect 8 0 19 0 48......................b4+++O.....W9+++S++++uK++++z++++6x+++O8++++;
#X connect 9 0 17 0;
#X connect 10 0 24 0 32.................P....jB....D....o.....B....;
#X connect 10 0 26 1 32.................D....H8+++OA....R++++e.....;
#X connect 12 0 4 0;
#X connect 13 0 15 0;
#X connect 14 0 18 0;
#X connect 15 0 20 0;
#X connect 17 0 26 0;
#X connect 18 0 16 0;
#X connect 19 0 14 0 32.................D....v7+++OA....L++++e.....;
#X connect 19 1 18 1 32.................Q....v7+++eD....L++++GB....;
#X connect 20 0 14 0;
#X connect 20 1 14 1;
#X connect 21 0 23 0;
#X connect 22 0 21 0;
#X connect 23 0 9 0 32.................E....3O...PA....9C...7.....;
#X connect 24 0 25 0 32.................U....n4+++eE....Z9+++mB....;
#X connect 25 0 11 0;
#X connect 26 0 27 0;
#X connect 27 0 25 0;
#X connect 27 1 11 0 32.................l....H++++uI....x++++uD....;
#X restore -17 296 pd run;
#X obj 479 203 hradio 20 1 1 3 empty empty speed:16th 0 -8 0 10 #333333 #eeeeee #555555 2;
#N canvas 0 22 450 300 readspeed 0;
#X obj 289 115 inlet;
#X obj 289 141 sel 0 1 2;
#X obj 285 270 outlet;
#X obj 464 152 s \$0-readSpeed;
#X msg 289 167 label speed:4th;
#X msg 305 195 label speed:8th;
#X msg 322 224 label speed:16th;
#X connect 0 0 1 0;
#X connect 0 0 3 0 32.................E....7J...PA....uB...HA....;
#X connect 1 0 4 0;
#X connect 1 1 5 0;
#X connect 1 2 6 0;
#X connect 4 0 2 0;
#X connect 5 0 2 0;
#X connect 6 0 2 0;
#X restore 483 282 pd readspeed;
#N canvas 0 22 450 300 rangeNtime 1;
#X obj 168 -10 inlet;
#X obj 167 535 outlet;
#X obj 168 95 scaleProvider/rj/u_symbol2list -;
#X obj 168 121 route list;
#X obj 168 147 unpack s s;
#X obj 168 174 scaleProvider/rj/u_symbol2float;
#X obj 573 177 scaleProvider/rj/u_symbol2float;
#X obj 573 246 *;
#X obj 634 220 r \$0-grid-ms;
#X obj 167 464 scaleProvider/intoRange \$0;
#X obj 167 490 pack;
#X obj 168 16 scaleProvider/rj/u_symbol2list _;
#X obj 168 42 scaleProvider/rj/u_listdrip;
#X obj 345 259 osc.route /kP/scale /kP/namedscale;
#X obj 443 367 outlet namedScale;
#X obj 345 223 r kPoscReceive;
#X obj 573 272 i;
#X connect 0 0 11 0;
#X connect 2 0 3 0;
#X connect 3 0 4 0;
#X connect 4 0 5 0;
#X connect 4 1 6 0 48......................HK.........xB...f+++++XA...3++++OV....9++++;
#X connect 5 0 9 0;
#X connect 6 0 7 0;
#X connect 7 0 16 0;
#X connect 8 0 7 1 32.................D....77+++OA....O++++e.....;
#X connect 9 0 10 0;
#X connect 10 0 1 0;
#X connect 11 0 12 0;
#X connect 12 0 2 0;
#X connect 13 0 9 1 32.................IA...L9+++eR....i++++KI....;
#X connect 13 1 14 0;
#X connect 15 0 13 0;
#X connect 16 0 10 1 32.................fB...nm+++On....54++++I....;
#X restore 78 860 pd rangeNtime;
#X text 465 236 clear;
#X obj 480 63 scaleProvider/noteRange 69 2;
#X obj 479 99 scaleProvider/noteRange 58 2;
#X text 476 81 midi out range;
#X obj 631 22 r \$0-rangeBelow;
#X obj 631 46 r \$0-rangeAbove;
#X obj 632 142 s \$0-rangeBelow;
#X obj 632 174 s \$0-rangeAbove;
#X obj 94 231 tgl 25 0 empty empty RUN 30 14 0 14 #333333 #eeeeee #3d3d3d 0 1;
#X obj 13 231 tgl 25 0 empty empty Labels 30 14 0 14 #333333 #eeeeee #373737 0 1;
#X obj -131 279 spigot;
#X obj -18 590 route float;
#X obj -59 281 sel 0;
#X msg -59 307 bang;
#N canvas 0 22 450 300 noteout 1;
#X obj 116 47 inlet;
#X msg 116 88 \$1 102 \$2;
#X obj 282 156 r \$0-midiOut;
#X obj 115 220 noteout;
#X obj 115 167 pack;
#X obj 121 123 makenote;
#X msg 237 77 clear;
#X connect 0 0 1 0;
#X connect 1 0 5 0;
#X connect 2 0 3 2;
#X connect 4 0 3 0;
#X connect 5 0 4 0;
#X connect 5 1 4 1;
#X connect 6 0 5 0;
#X restore 78 886 pd noteout;
#X obj 479 154 nbx 2 19 1 64 0 1 \$0-midiOut empty midiOutChannel 0 -8 0 12 #555555 #e1e1e1 #191919 8 256;
#X obj 168 234 hradio 25 1 0 3 \$0-currentOkt empty currentOkt 0 -8 0 10 #333333 #eeeeee #363636 0;
#X connect 0 0 1 0;
#X connect 1 0 5 1 32.................c....7B...PG....u....LB....;
#X connect 1 0 2 0;
#X connect 1 1 100 0 32.................D....LB....A....i....f.....;
#X connect 2 0 6 0 32.................H....LG....B....yA....A....;
#X connect 5 0 2 0 32.................G....z8++++A....c++++6.....;
#X connect 6 0 11 0;
#X connect 6 1 9 0 32.................u....jH...vK....IB...zF....;
#X connect 7 0 8 0;
#X connect 8 0 10 0;
#X connect 9 0 7 0;
#X connect 10 0 51 1 32.................F....b1+++uA....m8+++OB....;
#X connect 11 0 118 1 32.................J....f7+++uB....H++++OA....;
#X connect 12 0 11 1 32.................4D...7y+++eNA...+7+++OT....;
#X connect 12 0 4 0 48......................jE.........YA.........ED7++.....PAA++e5E7++;
#X connect 13 0 51 0;
#X connect 14 0 13 0;
#X connect 14 0 103 1 32.................j....Pv+++OI....D7+++eD....;
#X connect 15 0 13 0 32.................F....D8+++uA....Q++++y.....;
#X connect 15 0 8 0 48......................PA.........T....bC...vc....2....bG...PN....;
#X connect 15 0 101 0 48.................O....z7++++C....M++++yB...Px9+++r....jr+++OK....;
#X connect 16 0 106 1 32.................f....Tw+++OH....U7+++CD....;
#X connect 16 1 75 0;
#X connect 18 0 19 1 32.................iA...D....vX....A....TL....;
#X connect 18 1 64 0;
#X connect 18 2 20 0 32.................v....n2+++OL....58+++KJ....;
#X connect 19 0 125 0;
#X connect 19 0 91 0;
#X connect 19 0 126 0 32.................J....H5+++uB....h9+++OA....;
#X connect 19 1 34 0 48......................HB.........h....78+++uV....e++++qE...P4++++;
#X connect 20 0 19 0 32.................L....D9+++OC....g++++KA....;
#X connect 21 0 22 0 32.................D..........A.........b.....;
#X connect 22 0 35 0 32.................D..........A.........b.....;
#X connect 24 0 19 0 32.................T....H.....E....B....bB....;
#X connect 25 0 30 0 32.................C....HA...v.....R....T.....;
#X connect 26 0 41 1 32.................ZB...32+++ul....98+++2b....;
#X connect 26 0 93 1 48.................BA...36+++uP....99+++OF...vS++++iA...7z+++OBA...;
#X connect 26 0 72 1;
#X connect 27 0 124 0;
#X connect 28 0 29 0 32.................D..........A.........b.....;
#X connect 29 0 27 0 32.................G.........vA.........z.....;
#X connect 30 0 50 0 32.................D..........A.........b.....;
#X connect 34 0 39 0 32.................xC...XB...f7....l....Ld....;
#X connect 34 1 43 0 48.................I....z5+++eB....s9+++SH...va++++DB...71+++OdA...;
#X connect 34 2 25 0 32.................H....Lv+++OB....C7+++iA....;
#X connect 34 3 40 0 32.................M....DB...PC....g....jA....;
#X connect 34 3 26 0 32.................M.........PC.........jA....;
#X connect 34 4 37 1 32.................9B...j6+++uu....49+++uW....;
#X connect 34 4 44 0 48.................I....fg+++eB....X3+++mC...fK8+++4....3R+++uSA...;
#X connect 34 4 36 1 48......................vw+++O.....b7+++SH...f69+++DB...3t++++RA...;
#X connect 34 4 39 1 32.................gB...DQ+++en....Qz+++Od....;
#X connect 35 0 28 0 32.................G....L7++++A....C++++2.....;
#X connect 35 1 36 1 48.................a....3J...vF....tB...rA...vVA...a....rU...Pn....;
#X connect 35 1 95 0 32.................i....fO...vH....3C...XD....;
#X connect 36 0 42 0 32.................H....rL....B....KC....A....;
#X connect 37 0 46 0 32.................H....Xy+++OB....17+++CA....;
#X connect 37 0 38 0 48......................fL.........HC...D7++++8....A++++eO...Py++++;
#X connect 38 0 37 1 32.................H....Tw+++OB....U7+++6.....;
#X connect 39 0 41 0 32.................B....fW...f.....3E...L.....;
#X connect 40 0 86 1 48.................gA...D4+++eX....Q9+++uF...f09+++qA...Xs+++uGA...;
#X connect 40 0 84 1 64......................D5+++O.....g9+++2B...Pf++++s....D3+++Of....A7+++CH...P.++++UE....;
#X connect 40 0 27 1 32......................ze+++O.....82+++WK....;
#X connect 41 0 16 1 48......................3D.........NA...PP+++OH....Dz+++CB....A8+++;
#X connect 42 0 37 0 32.................Q.........PD.........HB....;
#X connect 43 0 78 0;
#X connect 43 0 92 0 32.................B....7C...f.....+....L.....;
#X connect 43 0 74 0 48......................ft+++O.....n6+++Sq+++e39+++z5+++Gt+++Os9+++;
#X connect 44 0 43 1 32.................L..........C.........bA....;
#X connect 45 0 43 1 32.................M....v9+++eC....r++++iA....;
#X connect 46 0 39 1 32.................Y....7h+++eF....u3+++KC....;
#X connect 47 0 49 1 32.................E.........PA.........j.....;
#X connect 48 0 72 0 32.................I....PD...PB....DA...rA....;
#X connect 48 0 93 0 32.................u....H2++++K....x8+++yH....;
#X connect 48 0 86 0 48......................v0+++O.....b8+++qC....t9+++5....fq+++uq....;
#X connect 49 0 48 0 32.................G....n+++++A....5++++2.....;
#X connect 50 0 21 0 32.................H..........B.........7.....;
#X connect 50 1 47 0 32.................M....HX...PC....BF...jA....;
#X connect 51 0 18 0 32.................Z....L1+++uF....i8+++2D....;
#X connect 56 0 152 0;
#X connect 57 0 16 0 32.................7....vV....O....rE...XF....;
#X connect 57 1 58 0;
#X connect 58 0 106 0 32.................KB....E...vh....PA...7H....;
#X connect 60 0 16 0 48......................zE.........cA...38++++EA...d++++eQ...f2++++;
#X connect 60 1 61 0;
#X connect 61 0 106 0;
#X connect 62 0 16 0;
#X connect 63 0 16 0;
#X connect 64 0 60 0;
#X connect 72 0 97 0 32.................D..........A.........b.....;
#X connect 73 0 87 0;
#X connect 73 0 63 0;
#X connect 74 0 110 0;
#X connect 76 0 62 0;
#X connect 78 0 42 0 48.................L....XM....C....VC...37+++ufB...N++++Kn...fy++++;
#X connect 83 0 74 0 48......................Xh+++O.....l3+++Ci+++OS9+++v3+++yj+++eR9+++;
#X connect 83 1 74 1 48.................K....Dq++++B....w5+++mj++++.9+++I4+++Of+++eR9+++;
#X connect 84 0 83 1 32.................E....P7+++eA....D++++q.....;
#X connect 85 0 84 0;
#X connect 86 0 83 0;
#X connect 87 0 88 0;
#X connect 88 0 90 0;
#X connect 89 0 83 3;
#X connect 89 0 98 0;
#X connect 89 1 98 1;
#X connect 90 0 89 0;
#X connect 91 0 83 1 32.................E....jV...PA....oE...n.....;
#X connect 92 0 85 0 48.................K....vE...vB....bA...39++++s....t++++eK...v7++++;
#X connect 93 0 94 0;
#X connect 94 0 83 4 32.................5....35+++uN....t9+++GE....;
#X connect 95 0 94 1 32.................5....DA...fN....Q....LG....;
#X connect 97 0 16 0 64.................F....f5+++uA....n9+++ym+++Op++++74+++i5+++u58+++l5+++qd+++uo9+++a3+++C;
#X connect 98 0 99 0;
#X connect 100 0 2 1 32.................j....P8+++OI....T++++mB....;
#X connect 100 1 15 0 32.................7....PE....O....TA...PK....;
#X connect 100 2 117 0;
#X connect 101 0 103 0;
#X connect 102 0 101 0;
#X connect 103 0 104 0;
#X connect 104 0 105 0;
#X connect 105 1 74 2;
#X connect 106 0 140 0;
#X connect 106 1 25 1 32.................w....LJ...PL....iB...HG....;
#X connect 106 1 24 0 48......................36+++O.....99+++C....fc++++.....X2+++uJ....;
#X connect 106 2 107 0 32......................nD.........JA...H.....;
#X connect 107 0 113 0;
#X connect 108 0 106 0 48.................X8+++WD....V++++EA...Lv++++y....C7++++L...v.++++;
#X connect 109 0 16 0 64......................DE.........QA...Dw+++un....Q7+++KJ...Pl9+++lG...jo+++u4A...Y5+++C;
#X connect 110 0 109 0;
#X connect 110 1 108 0;
#X connect 110 2 111 0;
#X connect 110 2 112 0 32.................D....PA....A....T....b.....;
#X connect 110 2 114 0;
#X connect 111 0 107 1 48......................fJ.........nB...7s++++SA...e6++++T...v29+++;
#X connect 112 0 113 1 48......................XJ.........lB...3y++++RA...97+++uT...fO++++;
#X connect 113 0 16 1 48.................d9++++F...fm++++uA...v1+++eSA...r8+++2T....a++++;
#X connect 114 0 83 2 48......................zI.........cB...34+++u0A...d9+++ac...fm++++;
#X connect 117 0 5 0 48......................j9+++O.....o++++y9+++ut++++r++++q6+++O6++++;
#X connect 117 1 119 0 32.................m....D5++++I....g9+++6D....;
#X connect 118 0 120 0 48......................DA.........Q....X7+++eH....F++++GB...fw++++;
#X connect 118 0 14 0 32.................G....jE...vA....YA...PA....;
#X connect 118 1 121 0 32.................G....Hy++++A....x7+++SA....;
#X connect 119 0 118 0;
#X connect 120 0 118 0 32.................K.....9++++B....f++++WA....;
#X connect 120 0 121 1 48......................L7+++O.....C++++SA....R++++T....fz+++OO....;
#X connect 121 0 102 0;
#X connect 122 0 121 1;
#X connect 124 0 36 0 32.................V....jY...fE....YF...XA....;
#X connect 124 1 128 0 32.................K....fF...vB....nA...XA....;
#X connect 125 0 16 1 48.................X7+++aK....F++++1B...nt+++uHB...p6+++Kh...f59+++;
#X connect 126 0 74 0 32.................H.....++++OB....v+++++.....;
#X connect 126 1 127 0 48......................XA.........V....79+++OK....u++++yB...v6++++;
#X connect 127 0 74 1 32.................G....X8++++A....V++++6.....;
#X connect 128 0 49 0 80.................E....rF...PA....qA...j7+++e0....I++++WM...fo++++KD...X5++++BA...X7+++CT....F++++.E...jy+++O;
#X connect 128 0 122 0 64.................61+++K5++++t8+++h9+++eT+++uP++++G0+++Kz+++uW7+++D5+++6E+++Og9+++dw+++C;
#X connect 128 0 45 0 48......................38+++O.....d++++e9+++Ol++++m++++i4++++4++++;
#X connect 128 0 93 0 48......................3C.........9....7++++ut....+++++qK...v+++++;
#X connect 128 0 86 0;
#X connect 137 0 57 0;
#X connect 138 0 139 0;
#X connect 139 0 138 0;
#X connect 140 0 155 0;
#X connect 140 1 151 0 80......................H8+++O.....R+++++....vl9+++O....ro+++eb9+++a5+++Gm++++l9+++o1+++et+++ep8+++m6+++mZ+++O;
#X connect 142 0 147 0 48.................I....rD...PB....KA...n.....ED7++J....PAA++urE7++;
#X connect 143 0 148 0 32.................N....jI...fC....YB...TC....;
#X connect 145 0 142 0 32.................M....n1+++eC....p8+++aA....;
#X connect 146 0 143 0 32.................W....j1++++E....o8+++KB....;
#X connect 149 0 137 0 32.................T....n4+++OE....Z9+++iB....;
#X connect 150 0 151 1 32.................L....f3+++OC....H9+++eA....;
#X connect 150 0 153 0;
#X connect 151 0 129 0;
#X connect 152 0 57 0;
#X connect 153 0 154 0;
#X connect 154 0 129 0 32.................D....j6+++OA....49+++u.....;
#X coords 0 0 1 1 577 267 2 -2 -2;
