#N canvas 59 106 472 137 10;
#X declare -path scaleProvider;
#X declare -path scaleProvider/rjlib/rj;
#X declare -path scaleProvider/list-abs;
#X declare -path scaleProvider/rc/rc;
#X declare -path scaleProvider/abs;
#X obj 219 365 midiformat;
#X obj 219 338 midiparse;
#X obj 190 423 midiout;
#X obj 219 307 midiin;
#X obj 283 24 noteRange 69 1;
#X obj 283 63 noteRange 58 1;
#X obj 192 241 prepend label;
#X obj 13 24 cnv 15 222 35 empty \$0-chordLabel Ab\ unison 10 18 0 18 #696969 #e1e1e1 0;
#X obj 192 267 s \$0-chordLabel;
#X obj 246 24 tgl 25 0 empty empty midiIn2Out -38 -8 0 13 #191919 #e1e1e1 #313131 0 1;
#X obj 192 215 tosymbol;
#X symbolatom 356 51 9 0 0 3 OSCport \$0-OSC_port_r \$0-OSC_port 16;
#N canvas 0 22 450 300 OSC 0;
#X obj 44 341 tosymbol;
#X obj 44 315 r \$0-kPchordName;
#X obj 44 373 prepend /kP/chord/name;
#X obj 400 385 prepend /kP/scale;
#X obj 635 282 + 36;
#X obj 635 369 midi2note;
#X obj 635 420 t a a;
#X obj 695 457 list length;
#X obj 695 483 - 1;
#X obj 635 507 list split;
#X obj 635 533 else/unite empty;
#X obj 443 507 prepend /kP/namedscale;
#X obj 773 277 sel 1 3 5 8 10;
#X obj 400 335 r \$0-kPscale;
#X msg 721 333 flat;
#X msg 833 341 sharp;
#X obj 635 394 else/separate empty;
#X obj 443 413 t a a;
#X msg 773 251 \$1;
#X obj 401 590 pack s \$0;
#X msg 401 616 \; \$2-scaleLabel label \$1;
#X obj 193 330 s \$0-oscSender;
#X obj 168 410 r \$0-oscSender;
#X obj 244 640 s \$0-tcpCons;
#X obj 223 300 prepend listen;
#X obj 223 185 r \$0-OSC_port;
#X obj 170 601 print 2Receiver;
#X msg 84 517 listen 0;
#X msg 71 481 listen 666;
#X obj 168 442 osc.format;
#X obj 223 211 t a b;
#X obj 493 99 loadmess \$0;
#X msg 493 125 listen 666 \; \$1-OSC_port_r set 666;
#X obj 170 575 netreceive;
#X obj 401 564 u_list2symbol;
#X obj 443 448 u_listmap;
#X obj 223 240 u_symbol2float;
#X connect 0 0 2 0 32.................G.........vA.........z.....;
#X connect 1 0 0 0 32.................D..........A.........b.....;
#X connect 2 0 21 0 80......................HC.........x....v9++++R....r++++uD....1++++7A...f8+++Oe....C++++WI...vv++++UB...L7+++O;
#X connect 3 0 21 0 48......................v6+++O.....79+++e6+++uL++++29+++Ky++++s++++;
#X connect 4 0 5 0 32.................h.........fH.........PD....;
#X connect 5 0 16 0 32.................C.........v..........X.....;
#X connect 6 0 9 0 32.................h.........fH.........PD....;
#X connect 6 1 7 0 32.................I....DC...PB....w....HA....;
#X connect 7 0 8 0 32.................D..........A.........b.....;
#X connect 8 0 9 1 32.................C....P9++++.....j++++W.....;
#X connect 9 0 10 0 32.................D..........A.........b.....;
#X connect 10 0 35 1 48......................T9+++O.....k++++m4+++ux++++Y9+++q7+++el++++;
#X connect 11 0 21 0 48......................L5+++O.....i9+++2y++++A++++87+++ev+++eO++++;
#X connect 12 0 14 0 32.................S....z7++++D....M++++WB....;
#X connect 12 1 14 0 32.................S....z6++++D....89+++WB....;
#X connect 12 2 14 0 32.................S....v5++++D....r9+++WB....;
#X connect 12 3 14 0 32.................S....v4++++D....b9+++WB....;
#X connect 12 4 14 0 32.................S....r3++++D....K9+++WB....;
#X connect 12 5 15 0 32.................W....n9++++E....p++++2B....;
#X connect 13 0 3 0 32.................P..........D.........7A....;
#X connect 13 0 17 0 32.................d....rB...fG....q....rC....;
#X connect 14 0 5 0 32.................F....r5+++uA....q9+++GA....;
#X connect 15 0 5 0 32.................C....ry++++.....67+++m.....;
#X connect 16 0 6 0 32.................D..........A.........b.....;
#X connect 17 0 35 0 32.................H..........B..........A....;
#X connect 17 1 18 0 48......................jH.........IB...vz++++OA...L8++++S....S++++;
#X connect 18 0 12 0 32.................D..........A.........b.....;
#X connect 19 0 20 0 32.................D..........A.........b.....;
#X connect 22 0 29 0;
#X connect 24 0 33 0 32.................IC...v7+++ex....L++++CP....;
#X connect 25 0 30 0;
#X connect 27 0 33 0;
#X connect 28 0 33 0;
#X connect 29 0 33 0;
#X connect 30 0 36 0;
#X connect 30 1 27 0;
#X connect 31 0 32 0;
#X connect 32 0 33 0;
#X connect 33 0 26 0;
#X connect 33 1 23 0;
#X connect 34 0 19 0 32.................D..........A.........b.....;
#X connect 35 0 11 0 32.................T..........E.........fB....;
#X connect 35 0 34 0 32.................w....b8+++eL....W++++GF....;
#X connect 35 1 4 0 48......................vA.........b....fz++++M....H8+++eC....R++++;
#X connect 36 0 24 0;
#X restore 416 324 pd OSC;
#X obj 192 189 r \$0-kPchordName;
#X text 244 44 midi input range;
#X obj 163 -43 r \$0-rangeBelow;
#X obj 163 -19 r \$0-rangeAbove;
#X obj 312 182 s \$0-rangeBelow;
#X obj 312 214 s \$0-rangeAbove;
#X obj 13 63 cnv 15 258 31 empty \$0-scaleLabel Ab\ Ab\ Ab\ Ab\ Ab\ Ab\ Ab 10 18 0 18 #696969 #e1e1e1 0;
#X floatatom 357 19 5 0 0 2 connections \$0-tcpCons - 12;
#X obj 330 544 s \$0-providedNotes;
#X obj 190 396 gate 1;
#X obj 488 55 daw_storage \$0-lowerRange;
#X obj 490 30 daw_storage \$0-upperRange;
#X obj 849 19 loadbang;
#X msg 849 45 pluginmode;
#X obj 849 71 s pd;
#N canvas 752 47 636 730 chords 0;
#X msg 361 365 0;
#X obj 361 317 loadbang;
#X obj 361 339 del 1000;
#X obj 428 369 r cleanPresets;
#X obj 428 391 route clear;
#X obj 171 248 r retriggerScale;
#X obj 330 22 ctlin 123;
#X obj 330 43 t b f;
#X obj 330 84 ctlout;
#X msg 330 64 123;
#X obj 214 17 r cleanNotes;
#X obj 68 11 r \$0-providedNotes;
#X obj 81 365 s \$0-kPchordName;
#X obj 81 330 m2chordscale;
#X msg 284 311 clear;
#X msg 171 274 retrigger;
#X obj 116 402 s \$0-kPscale;
#X connect 0 0 14 0;
#X connect 1 0 2 0;
#X connect 2 0 0 0;
#X connect 3 0 4 0;
#X connect 4 0 2 0;
#X connect 5 0 15 0;
#X connect 6 0 7 0;
#X connect 6 1 8 2;
#X connect 7 0 9 0;
#X connect 7 0 14 0;
#X connect 7 1 8 1;
#X connect 9 0 8 0;
#X connect 10 0 14 0;
#X connect 11 0 13 0;
#X connect 13 0 12 0;
#X connect 13 1 16 0;
#X connect 14 0 13 0;
#X connect 15 0 13 0;
#X restore 414 364 pd chords;
#X obj 557 -320 declare -path scaleProvider;
#X obj 566 -293 declare -path scaleProvider/rjlib/rj;
#X obj 587 -237 declare -path scaleProvider/list-abs;
#X obj 576 -263 declare -path scaleProvider/rc/rc;
#X obj 597 -207 declare -path scaleProvider/abs;
#X obj 293 406 unpack;
#X obj 293 432 moses 0;
#X obj 329 459 moses 127;
#X obj 475 411 r \$0-rangeBelow;
#X obj 490 437 r \$0-rangeAbove;
#X obj 329 485 pack;
#X obj 441 489 oktRange \$0;
#X obj 247 -111 daw_storage \$0-in2Out;
#X connect 0 0 22 1 32.................F....j++++uA....4++++y.....;
#X connect 1 0 0 0 32.................D..........A.........f.....;
#X connect 1 0 34 0 32.................Y....nD...PF....JA...DC....;
#X connect 1 1 0 1 32.................D..........A.........f.....;
#X connect 1 2 0 2 32.................D..........A.........f.....;
#X connect 1 3 0 3 32.................D..........A.........f.....;
#X connect 1 4 0 4 32.................D..........A.........f.....;
#X connect 1 5 0 5 32.................D..........A.........f.....;
#X connect 1 6 0 6 32.................D..........A.........f.....;
#X connect 3 0 1 0 32.................F.........fA.........v.....;
#X connect 4 0 17 0 32.................DA...zA....Q....c....fH....;
#X connect 4 0 24 0 48......................fF.........nA...D+++++y....w+++++L...P7++++;
#X connect 5 0 18 0 32.................AA...zA...PP....c....DH....;
#X connect 5 0 23 0 48......................bF.........mA...L9+++ey....i++++2L...v3++++;
#X connect 6 0 8 0 32.................D..........A.........b.....;
#X connect 9 0 22 0 32.................tB...j7+++uq....I++++uU....;
#X connect 9 0 41 0;
#X connect 10 0 6 0 32.................D..........A.........b.....;
#X connect 13 0 10 0 32.................D..........A.........b.....;
#X connect 15 0 4 0 32......................fG.........3A....C....;
#X connect 16 0 5 0 32.................K....fG...vB....3A...7C....;
#X connect 22 0 2 0 32.................D..........A.........f.....;
#X connect 23 0 5 0 48......................n4+++O.....Z9+++a++++OM++++1++++Sy+++u8++++;
#X connect 24 0 4 0 48......................j4+++O.....Y9+++i9+++uL++++n++++Ky+++O5++++;
#X connect 25 0 26 0;
#X connect 26 0 27 0;
#X connect 34 0 35 0 32.................D..........A.........b.....;
#X connect 34 1 39 1 32.................d....TA...fG....U....vC....;
#X connect 35 1 36 0 32.................D..........A.........f.....;
#X connect 36 0 39 0 32.................D..........A.........b.....;
#X connect 37 0 36 1 48......................D++++O.....w++++q....vm++++J....74+++eG....;
#X connect 38 0 35 1 48......................r7+++O.....K++++m9+++OX++++o++++C1+++e5++++;
#X connect 39 0 21 0 32.................T....D.....E....A....fB....;
#X connect 41 0 9 0;
#X coords 0 0 1 1 462 116 1 0 0;
