#N struct 1008-symarray float x array symbols 1008-sym;
#N struct 1008-sym symbol name float on;
#N canvas 827 239 527 327 12;
#X obj 213 234 scaleSeq;
#X obj 213 177 metro 125;
#X obj 213 203 counter 1 16;
#X obj 213 138 tgl 25 0 empty empty empty 17 7 0 10 #333333 #eeeeee #e4e4e4 0 1;
#X obj 0 0 scaleProvider;
#X msg 369 174 label 1 2 3 4 5 6 7;
#X msg 369 144 label C D E F G A B;
#X msg 369 203 label;
#N canvas 0 22 450 300 setLabel 0;
#X obj 179 163 osc.receive 666;
#X obj 179 189 osc.route /kP/namedscale;
#X obj 179 215 prepend label;
#X obj 179 241 outlet;
#X obj 175 75 inlet;
#X obj 175 101 sel 0 1;
#X msg 175 127 disconnect;
#X msg 264 118 connect 666;
#X connect 0 0 1 0;
#X connect 1 0 2 0;
#X connect 2 0 3 0;
#X connect 4 0 5 0;
#X connect 5 0 6 0;
#X connect 5 1 7 0;
#X connect 6 0 0 0;
#X connect 7 0 0 0;
#X restore 548 189 pd setLabel;
#X obj 549 156 tgl 25 0 empty empty empty 17 7 0 10 #333333 #eeeeee #e4e4e4 0 1;
#X obj 93 160 tgl 25 0 empty empty empty 17 7 0 10 #333333 #eeeeee #e4e4e4 0 1;
#X msg 93 192 run \$1;
#X obj 213 543 makenote 60 102 500;
#X obj 216 616 palette/bass.m~;
#X obj 210 672 dac~;
#X obj 214 588 pack f f 1;
#X msg 214 507 \$1 102 \$2;
#X obj 425 600 noteout 1;
#X connect 0 0 16 0;
#X connect 1 0 2 0;
#X connect 2 0 0 0;
#X connect 3 0 1 0;
#X connect 5 0 0 0;
#X connect 6 0 0 0;
#X connect 7 0 0 0;
#X connect 8 0 0 0;
#X connect 9 0 8 0;
#X connect 10 0 11 0;
#X connect 11 0 0 0;
#X connect 12 0 17 0;
#X connect 12 0 15 0;
#X connect 12 1 15 1;
#X connect 12 1 17 1;
#X connect 13 0 14 0;
#X connect 13 0 14 1;
#X connect 15 0 13 0;
#X connect 16 0 12 0;
