#N struct 1466-symarray float x array symbols 1466-sym;
#N struct 1466-sym symbol name float on;
#N canvas 827 239 527 327 12;
#X obj 213 234 scaleSeq;
#X obj 213 177 metro 125;
#X obj 213 203 counter 1 16;
#X obj 213 453 print;
#X obj 213 138 tgl 25 0 empty empty empty 17 7 0 10 #333333 #eeeeee #e4e4e4 0 1;
#X obj 899 234 scaleProvider;
#X connect 0 0 3 0;
#X connect 1 0 2 0;
#X connect 2 0 0 0;
#X connect 4 0 1 0;
