#N canvas 422 40 576 308 10;
#X msg 134 106 stop;
#X obj 215 137 spigot;
#X msg 249 113 1;
#X msg 283 113 0;
#X obj 152 70 t b b b;
#X obj 152 166 outlet click;
#X obj 215 231 outlet doubleClick;
#X obj 152 -6 inlet;
#X obj 361 150 inlet;
#X obj 152 16 route cancel cancelDouble;
#X obj 365 210 outlet resetChange;
#X obj 215 194 t b b;
#X obj 215 90 del 50;
#X obj 152 136 del 200;
#X obj 283 87 del 250;
#X connect 0 0 13 0;
#X connect 1 0 11 0;
#X connect 1 0 12 0;
#X connect 2 0 1 1;
#X connect 3 0 1 1;
#X connect 4 0 2 0;
#X connect 4 1 1 0;
#X connect 4 1 14 0;
#X connect 4 2 13 0;
#X connect 7 0 9 0;
#X connect 8 0 6 0;
#X connect 9 0 0 0;
#X connect 9 1 3 0;
#X connect 9 1 5 0;
#X connect 9 2 4 0;
#X connect 11 0 6 0;
#X connect 11 1 10 0;
#X connect 12 0 0 0;
#X connect 13 0 5 0;
#X connect 14 0 3 0;
