#N canvas 827 239 527 327 12;
#X floatatom 51 13 3 0 0 0 setInst - - 16;
#X msg 114 25 set \$1;
#X obj -165 107 pipe 1000;
#X obj 54 155 pgmout;
#X obj -165 81 daw_storage \$1;
#X connect 0 0 3 0 32.................7....L.....O....C....fG....;
#X connect 0 0 4 0 32.................W....jx++++E....o7+++6B....;
#X connect 1 0 0 0 48......................D9+++O.....g++++K9+++uv++++h++++K7+++u3++++;
#X connect 2 0 3 0 32.................J....rM...fB....aC...zA....;
#X connect 4 0 1 0 48......................zE.........cA...77++++EA...O++++eQ...fs++++;
#X connect 4 0 2 0 32.................D..........A.........b.....;
#X coords 0 0 1 1 94 48 2 0 0;
