#N canvas 290 439 450 300 10;
#X obj 133 68 inlet;
#X obj 193 25 inlet;
#X obj 193 47 unpack;
#X obj 178 106 f;
#X obj 226 68 > 0;
#X obj 178 85 spigot;
#X obj 178 150 outlet;
#X obj 178 129 % 12;
#X connect 0 0 5 0;
#X connect 1 0 2 0;
#X connect 2 0 3 1;
#X connect 2 1 4 0;
#X connect 3 0 7 0;
#X connect 4 0 5 1;
#X connect 5 0 3 0;
#X connect 7 0 6 0;
