#N canvas 59 106 1331 661 10;
#X obj 1 447 +;
#X obj 47 661 +;
#X obj 59 617 * 12;
#X obj 59 588 <;
#X obj 65 533 * 12;
#X obj -9 564 -;
#X obj 65 506 >;
#X obj 279 476 - 12;
#X obj 357 411 + 1;
#X obj 256 438 gate 2;
#X obj 357 384 >;
#X obj 79 366 + 1;
#X text 530 229 lowest in range;
#X text 299 229 highest in range;
#X text 59 229 random;
#X obj 587 484 + 1;
#X obj 486 511 gate 2;
#X obj 587 457 <;
#X obj 509 384 +;
#X obj 279 318 +;
#X obj 47 182 + 1;
#X obj 47 214 gate 3 1;
#X obj 1 418 +;
#X obj 79 395 * -12;
#X obj 135 312 + 1;
#X obj 135 283 / 12;
#X obj 79 337 random;
#X text 170 275 range;
#X obj 135 254 -;
#X obj 132 762 outlet;
#X obj 80 -17 inlet;
#X obj 1117 447 change;
#X obj 1203 319 change;
#X obj 1117 419 i;
#X obj 1117 389 sel 0;
#X obj 1117 303 + 11;
#X obj 1117 361 <= 69;
#X obj 1203 293 i;
#X obj 1203 226 sel 0;
#X obj 1203 140 - 11;
#X obj 1203 198 >= 58;
#X obj 1015 101 + 1;
#X obj 1203 168 t f f;
#X obj 1117 331 t f f;
#X obj 1015 71 r \$1-rangeBelow;
#X obj 893 56 r \$1-rangeBelow;
#X obj 1015 251 r \$1-rangeAbove;
#X obj 893 207 r \$1-rangeAbove;
#X obj 1203 349 s \$1-rangeAbove;
#X obj 1117 475 s \$1-rangeBelow;
#X obj 279 358 t f f;
#X obj 47 287 t f b;
#X obj 47 476 t f f;
#X obj 509 431 t f f;
#X obj 819 233 t b f;
#X obj 318 21 inlet scale;
#X obj 80 9 t b f;
#X msg 80 76 10 12 13 15 17 18 20;
#X obj 318 47 prepend set;
#X msg 79 119 \$7;
#X obj 546 80 % 12;
#X obj 606 602 % 12;
#X msg 120 99 set \, adddollar \$1;
#X obj 192 684 -;
#X obj 132 686 -;
#X obj 132 712 + 12;
#X obj 486 547 - 12;
#X obj 47 154 r \$1-currentOkt;
#X obj 120 43 change;
#X connect 0 0 52 0 32.................F.........fA.........r.....;
#X connect 1 0 64 0 32.................C....TE...v.....UA...X.....;
#X connect 2 0 1 1 32.................M.........PC.........jA....;
#X connect 3 0 2 0 32.................E.........PA.........n.....;
#X connect 4 0 5 1 32.................E....H7+++eA....B++++y.....;
#X connect 5 0 1 0 32.................n..........J..........E....;
#X connect 6 0 4 0 32.................D..........A.........f.....;
#X connect 7 0 64 0 32..................A...31+++OP....t8++++K....;
#X connect 8 0 9 0 32.................C....v4++++.....b9+++i.....;
#X connect 9 0 64 0 32.................VA...T3+++uU....E9+++WN....;
#X connect 9 1 7 0 32.................J.........fB.........LA....;
#X connect 10 0 8 0 32.................D..........A.........f.....;
#X connect 11 0 23 0 32.................E.........PA.........n.....;
#X connect 15 0 16 0 32.................C....v4++++.....b9+++i.....;
#X connect 16 0 66 0;
#X connect 16 1 63 0 32.................BA...Pr+++uP....D6+++qI....;
#X connect 17 0 15 0 32.................D..........A.........f.....;
#X connect 18 0 53 0 32.................N.........fC.........vA....;
#X connect 19 0 50 0 32.................K.........vB.........TA....;
#X connect 20 0 21 0 32.................G.........vA.........z.....;
#X connect 21 0 51 0 32.................a.........vF.........XC....;
#X connect 21 1 19 0 64......................XC.........1....r.....a....K....vF....H....XC....B....1....UA....;
#X connect 21 2 18 0 64......................vF.........rA...XB...Pn....l....DJ...PN....tF...jC...fqA...WB....;
#X connect 22 0 0 0 32.................E.........PA.........j.....;
#X connect 23 0 22 1 32.................B....v9+++u.....r++++S.....;
#X connect 24 0 26 1 32.................C....f9++++.....n++++a.....;
#X connect 25 0 24 0 32.................E.........PA.........n.....;
#X connect 26 0 11 0 32.................E.........PA.........n.....;
#X connect 28 0 25 0 32.................E.........PA.........n.....;
#X connect 30 0 56 0;
#X connect 31 0 49 0 32.................E.........PA.........j.....;
#X connect 32 0 48 0 32.................F.........fA.........r.....;
#X connect 33 0 31 0 32.................E.........PA.........j.....;
#X connect 34 0 33 0 32.................F.........fA.........r.....;
#X connect 35 0 43 0 32.................E.........PA.........j.....;
#X connect 36 0 34 0 32.................E.........PA.........j.....;
#X connect 37 0 32 0 32.................D..........A.........b.....;
#X connect 38 0 37 0 32.................X..........F..........C....;
#X connect 39 0 42 0 32.................E.........PA.........j.....;
#X connect 40 0 38 0 32.................E.........PA.........j.....;
#X connect 41 0 39 0 32.................G....vK...vA....7B...PA....;
#X connect 41 0 36 1 32.................ZA...vG...fV....7A...DO....;
#X connect 42 0 40 0 32.................F.........fA.........r.....;
#X connect 42 1 37 1 32.................0.........PM.........nF....;
#X connect 43 0 36 0 32.................F.........fA.........r.....;
#X connect 43 1 33 1 32.................i.........vH.........TD....;
#X connect 44 0 41 0 32.................F.........fA.........r.....;
#X connect 45 0 28 0 32.................CA...rP++++P....Kz+++KK....;
#X connect 45 0 10 1 32.................mA...Pe++++Y....z2+++SS....;
#X connect 45 0 19 1 32.................QA...XZ+++eT....l1+++KO....;
#X connect 45 0 6 1 48.................1....XS+++uM....1z+++GJ....z7+++gB....M+++uqA...;
#X connect 45 0 0 1 48.................pA...TS+++uZ....0z++++I...fu7+++eB...3K+++ubA...;
#X connect 45 0 60 0 32.................B....Xp+++u.....l5+++W.....;
#X connect 46 0 40 1 48......................XD.........FA...j6+++uz....49+++KM...Pt++++;
#X connect 46 0 35 0 32.................K....XF...vB....lA...DB....;
#X connect 47 0 17 1 32.................WA...ns++++U....Z6+++eN....;
#X connect 47 0 3 1 48.................s....DS+++eK....wz+++iH...fx7+++HB...nL+++uZA...;
#X connect 47 0 54 0 32.................D....P6+++OA....z9+++y.....;
#X connect 47 0 18 1 32.................DA...vn+++OQ....L5+++6I....;
#X connect 47 0 61 0 32.................MB...Ht+++ei....h6+++iW....;
#X connect 50 0 9 1 32.................e.........vG.........zC....;
#X connect 50 1 10 0 32.................D....LD....A....CA...b.....;
#X connect 51 0 22 0 32.................3..........N..........G....;
#X connect 51 1 26 0 32.................P....TA....D....U....7A....;
#X connect 52 0 5 0 32.................h.........fH.........LD....;
#X connect 52 1 6 0 32.................F....b....fA....G....r.....;
#X connect 52 1 3 0 32.................u....D....vK....A....zE....;
#X connect 53 0 16 1 32.................e.........vG.........zC....;
#X connect 53 1 17 0 32.................D....LD....A....CA...b.....;
#X connect 54 0 28 0 48......................jb+++O.....I2+++6++++OV8+++9++++iU+++u+++++;
#X connect 54 1 28 1 48.................E....Xb+++eA....F2+++O....PU8+++C....TU+++u.....;
#X connect 55 0 58 0;
#X connect 56 0 57 0;
#X connect 56 1 68 0;
#X connect 57 0 59 0;
#X connect 58 0 57 0 32.................E....Lw+++eA....S7+++q.....;
#X connect 59 0 21 1;
#X connect 60 0 64 1 32.................7C...3l+++O+....t4+++uj....;
#X connect 61 0 63 1 32.................f....3l+++OH....t4++++C....;
#X connect 62 0 59 0;
#X connect 63 0 65 0;
#X connect 64 0 65 0;
#X connect 65 0 29 0;
#X connect 66 0 63 0 32.................y....rs++++L....a6+++aG....;
#X connect 67 0 20 0 32.................E.........PA.........j.....;
#X connect 68 0 62 0;
