#N canvas 827 239 734 565 12;
#X obj 1166 432 list trim;
#X msg 1074 326 set;
#X obj 1178 638 route;
#X obj 1166 538 list split 2;
#X obj 1265 539 list;
#X obj 1166 334 pack f s;
#X obj 1338 305 symbol;
#X obj 1142 472 spigot 1;
#X obj 1336 468 spigot;
#X obj 1378 551 route;
#X obj 1378 511 list split 2;
#X obj 1477 512 list;
#X msg 1386 446 1;
#X msg 1410 443 0;
#X msg 1224 471 1;
#X msg 1248 468 0;
#X obj 1092 524 list;
#X obj 1166 274 t f b b b f;
#X obj 1290 277 t f b f;
#X obj 1497 691 list prepend call;
#X obj 1497 717 list trim;
#X obj 1497 589 symbol;
#X obj 893 674 list;
#X obj 1612 149 inlet;
#X obj 1653 871 outlet;
#X obj 1166 182 pdlink scaleProvider;
#X obj 1405 275 t b f b;
#X obj 893 700 unpack f s;
#X obj 893 726 -;
#X obj 893 773 pack f s;
#X msg 1004 701 1;
#X msg 951 528 0;
#X obj 792 416 bng 25 250 50 0 empty empty empty 17 7 0 10 #e4e4e4 #4d4d4d #373737;
#X obj 1166 380 list prepend add2;
#X obj 1520 400 t b a;
#X obj 1546 438 list trim;
#X obj 1701 514 daw_storage \$1-linkedPresets;
#X obj 1701 586 list trim;
#X obj 1701 560 list prepend set;
#X obj 1701 612 print DAWEDpresetLinks;
#X obj 1166 564 t b a;
#X obj 1166 248 route storeLinkedPreset callLinkedPreset deleteLinkedPreset;
#X obj 1651 484 route bang;
#X obj 840 106 loadbang;
#X msg 840 172 \; pd dsp 0;
#X obj 840 132 del 1500;
#X msg 1041 446;
#X msg 1520 486;
#X connect 0 0 46 0 48......................b8+++O.....W++++y++++Og++++7++++S3+++O+++++;
#X connect 1 0 46 0 32.................y.....9++++L....f++++WF....;
#X connect 1 0 47 0 48.................X....7M....F....eC...7B...fuA...u....3a...Pi....;
#X connect 2 0 30 0 32.................O.....0++++C....P8+++yB....;
#X connect 2 1 22 0 32.................F....Ls+++uA....S6+++GA....;
#X connect 3 0 40 0 32.................D..........A.........b.....;
#X connect 3 1 4 1 48......................3A.........d....79+++eV....u++++mE...v6++++;
#X connect 4 0 3 0 48.......................9+++O.....f++++29+++um++++s++++64+++e6++++;
#X connect 5 0 33 0 32.................N.........fC.........rA....;
#X connect 6 0 5 1 32.................E....X2+++eA....18+++q.....;
#X connect 7 0 16 1 32.................Q....n8+++eD....Z++++GB....;
#X connect 8 0 10 0 32.................L....nB....C....p....fA....;
#X connect 9 0 21 0 32.................J....bG...fB....2A...LA....;
#X connect 10 0 9 0 32.................K.........vB.........TA....;
#X connect 10 1 11 0 48......................nA.........Z....79+++uS....u++++6D...v6++++;
#X connect 11 0 10 0 48.......................9+++O.....f++++29+++um++++s++++64+++e6++++;
#X connect 12 0 8 1 32.................B....j9+++u.....o++++O.....;
#X connect 13 0 8 1 32.................C.....8++++.....P++++a.....;
#X connect 14 0 7 1 48......................j9+++O.....o+++++9+++ez++++u++++G8++++6++++;
#X connect 15 0 7 1 48......................v8+++O.....b++++K++++Ot++++x++++i6+++u7++++;
#X connect 16 0 3 0 48......................jA.........Y....v++++uR....7++++qD....+++++;
#X connect 17 0 5 0 32.................U.........PE.........jB....;
#X connect 17 1 16 0 32.................MA...b5+++eS....m9+++eN....;
#X connect 17 2 1 0 32.................Q....T3+++eD....E9+++GB....;
#X connect 17 3 46 0 32.................Z....P0+++uF....T8+++mI....;
#X connect 17 4 13 0 32.................x....DK...fL....wB...XI....;
#X connect 17 4 14 0 32.................YA...b++++eV....2++++KK....;
#X connect 17 4 2 1 32.................sB...z8+++eq....c++++mU....;
#X connect 17 4 31 0 48.................h....f3+++uH....H9+++WF...v49+++kA...bt++++5....;
#X connect 18 0 46 0 32......................fv+++O.....H7+++aI....;
#X connect 18 1 12 0 32.................KA...7D...vR....OA...XI....;
#X connect 18 1 15 0 32.................VA...b7+++uU....G++++yJ....;
#X connect 18 2 9 1 32..................B...vD....f....LA...7O....;
#X connect 19 0 20 0 32.................D..........A.........b.....;
#X connect 20 0 24 0 32.................s....vI...PK....bB...bH....;
#X connect 21 0 19 0 32.................p.........fJ.........LE....;
#X connect 22 0 27 0 32.................D..........A.........b.....;
#X connect 23 0 6 0 32.................y....7t++++L....u6+++mH....;
#X connect 25 0 41 0 32.................X..........F.........7B....;
#X connect 26 0 16 0 64......................v3+++O.....L9+++2A...v69+++c....7t+++uU....H6+++aE....x9+++lC....;
#X connect 26 1 2 1 32.................yA...Dx++++b....g7+++iU....;
#X connect 26 2 13 0 32.................KA...b9++++R....m++++WI....;
#X connect 26 2 14 0 32.................6....vx++++N....r7+++GK....;
#X connect 26 2 31 0 32.................NA...vg+++uS....b3+++qN....;
#X connect 26 2 1 0 48......................j3+++O.....I9+++u....Pl9+++K....jo+++OH....;
#X connect 27 0 28 0 32.................D..........A.........b.....;
#X connect 27 1 29 1 32.................a....H+++++F....x++++aC....;
#X connect 28 0 29 0 32.................N.........fC.........vA....;
#X connect 29 0 33 0 48......................TG.........0A...Tl+++eDA...k4+++GQ...PY9+++;
#X connect 30 0 28 1 32.................C.....5++++.....f9+++a.....;
#X connect 31 0 28 1 32.................ZA...P8+++uV....T++++OK....;
#X connect 32 0 22 1 32.................jA....G....Y....vA...jN....;
#X connect 32 0 16 1 48.................b....LP....G....CD...nB...vMA...p....bS...vT....;
#X connect 32 0 1 0 48......................nF.........pA...33+++uFA...N9+++qQ...fi++++;
#X connect 33 0 0 0 32.................Q.........PD.........DB....;
#X connect 33 0 34 0 32......................HV.........hE...D.....;
#X connect 34 0 47 0 32.................h.........fH.........LD....;
#X connect 34 1 35 0 32.................J....3....fB....N....LA....;
#X connect 35 0 47 0 32.................O....b9++++C....m++++2A....;
#X connect 36 0 38 0 32.................N.........fC.........rA....;
#X connect 36 0 16 1 48......................Xs+++O.....V6+++i+++++p8+++3++++uZ+++O9++++;
#X connect 37 0 47 0 64......................T7+++O.....E++++K6+++uo++++x9+++a5+++uh++++L8+++q3+++OS++++J9+++C;
#X connect 37 0 46 0 48......................L4+++O.....S9+++e4+++ea8+++W9+++2V+++uX++++;
#X connect 37 0 39 0 32.................D..........A.........b.....;
#X connect 38 0 37 0 32.................D..........A.........b.....;
#X connect 40 0 4 0 64......................DB.........g....H++++uP....x++++KD...P0++++iA...T8++++X....U++++C;
#X connect 40 1 2 0 32.................b..........G.........bC....;
#X connect 41 0 17 0 32.................D..........A.........b.....;
#X connect 41 1 18 0 32.................E....r....PA....K....n.....;
#X connect 41 2 26 0 32.................D....z.....A....M....f.....;
#X connect 42 1 36 0 32.................F.........fA.........r.....;
#X connect 43 0 45 0;
#X connect 45 0 44 0;
#X connect 46 0 8 0 32.................B....bR...f.....mD...L.....;
#X connect 46 0 7 0 32.................D....TF....A....kA...b.....;
#X connect 47 0 42 0 48......................HD.........BA...v9++++f....r++++OH....6++++;
