#N canvas 827 239 527 327 12;
#X obj 407 448 inlet;
#X obj 407 535 midi2note;
#X obj 0 0 cnv 15 55 21 empty \$0-label C4 5 12 0 14 #696969 #e1e1e1 0;
#X obj 407 562 prepend label;
#X obj 407 588 s \$0-label;
#X obj 265 333 t f f;
#X obj 630 588 outlet;
#X obj 265 307 gate 1;
#X obj 265 375 <;
#X obj 251 -66 sel 1;
#X obj 288 2 f;
#X obj 288 52 >= 0;
#X obj 299 82 <= 55;
#X obj 288 28 t f f;
#X obj 288 117 +;
#X obj 288 150 == 2;
#X obj 337 3 f;
#X obj 337 53 >= 0;
#X obj 337 29 t f f;
#X obj 337 118 +;
#X obj 337 151 == 2;
#X obj 348 83 <= 21;
#X obj 288 191 +;
#X obj 288 217 == 2;
#X obj 605 31 keyname;
#X obj 632 210 route Up Down;
#X obj 632 101 gate;
#X obj 593 101 gate;
#X obj 593 155 symbol;
#X obj 593 127 sel 1;
#X obj 632 184 list trim symbol;
#X obj 407 490 f 60;
#X obj 458 486 + 1;
#X obj 348 484 - 1;
#X obj 265 401 sel 0 1;
#X msg 547 434 60;
#X obj 348 458 f 59;
#X obj 458 460 f 61;
#X obj 407 382 loadmess \$1;
#X obj 630 553 change \$1;
#X msg 223 -38 -1;
#X obj 252 -180 canvas.mouse 1 1 1;
#X connect 0 0 31 0;
#X connect 1 0 3 0;
#X connect 3 0 4 0;
#X connect 5 0 8 1 32.................L....r.....C....K....bA....;
#X connect 5 1 8 0 32.................L....X++++OC....1++++eA....;
#X connect 7 0 5 0;
#X connect 8 0 34 0;
#X connect 9 0 16 0 32.................Q....XE...PD....VA...HC....;
#X connect 9 0 10 0 32.................Y....TB...PF....k....DC....;
#X connect 9 1 40 0 32.................E....f8+++eA....X++++m.....;
#X connect 9 1 7 0 32.................wB...H....Pr....B....HV....;
#X connect 10 0 13 0;
#X connect 11 0 14 0;
#X connect 12 0 14 1;
#X connect 13 0 11 0;
#X connect 13 1 12 0;
#X connect 14 0 15 0;
#X connect 15 0 22 0;
#X connect 16 0 18 0;
#X connect 17 0 19 0;
#X connect 18 0 17 0;
#X connect 18 1 21 0;
#X connect 19 0 20 0;
#X connect 20 0 22 1 32.................K....77++++B....O++++WA....;
#X connect 21 0 19 1;
#X connect 22 0 23 0;
#X connect 23 0 7 0 32.................j....f9+++OI....n++++eD....;
#X connect 23 0 26 0 48......................vJ.........rB...n2+++OVA...58+++iU...fd++++;
#X connect 23 0 27 0 48......................XF.........lA...n2+++eLA...58+++GS...fd++++;
#X connect 24 0 27 1;
#X connect 24 1 26 1;
#X connect 25 0 37 0 32.................MA...L0+++eS....S8+++eN....;
#X connect 25 1 36 0 32.................VA....r+++uU.....6+++WN....;
#X connect 26 0 28 1 32.................R....b++++uD....2++++OB....;
#X connect 27 0 29 0;
#X connect 28 0 30 0 32.................E....bB...PA....m....n.....;
#X connect 29 0 28 0;
#X connect 30 0 25 0;
#X connect 31 0 1 0;
#X connect 31 0 36 1 48......................j9+++O.....o++++67+++ez++++N++++G8+++uy++++;
#X connect 31 0 37 1 48......................7A.........e.....8+++uO....P++++6C....z++++;
#X connect 31 0 39 0 32.................V....7M...fE....eC...vB....;
#X connect 32 0 31 0 48......................b9+++O.....m++++K++++uy++++x++++67+++u7++++;
#X connect 33 0 31 0 48......................3A.........d....P+++++N....z++++uC....8++++;
#X connect 34 0 36 0 32.................M....LE...PC....SA...XB....;
#X connect 34 1 37 0 32.................T....LK....E....yB...fB....;
#X connect 35 0 31 0;
#X connect 36 0 33 0;
#X connect 37 0 32 0;
#X connect 38 0 31 0;
#X connect 38 0 39 0 48.................S....bJ...vD....mB...jC...v2....4....7M....l....;
#X connect 39 0 6 0;
#X connect 40 0 10 0 32.................K....HD...vB....BA...TA....;
#X connect 40 0 16 0 32.................K....LG...vB....yA...XA....;
#X connect 41 0 9 0;
#X connect 41 1 10 1;
#X connect 41 2 16 1;
#X connect 41 2 7 1;
#X coords 0 0 1 1 56 22 2 0 0;
