#N canvas 827 239 527 327 12;
#X obj 617 427 change;
#X obj 703 299 change;
#X obj 617 399 i;
#X obj 617 369 sel 0;
#X obj 617 283 + 11;
#X obj 617 341 <= 69;
#X obj 703 273 i;
#X obj 703 206 sel 0;
#X obj 703 120 - 11;
#X obj 703 178 >= 58;
#X obj 703 148 t f f;
#X obj 617 311 t f f;
#X obj 515 51 r \$1-rangeBelow;
#X obj 515 231 r \$1-rangeAbove;
#X obj 703 329 s \$1-rangeAbove;
#X obj 617 455 s \$1-rangeBelow;
#X connect 0 0 15 0 32.................E.........PA.........j.....;
#X connect 1 0 14 0 32.................F.........fA.........r.....;
#X connect 2 0 0 0 32.................E.........PA.........j.....;
#X connect 3 0 2 0 32.................F.........fA.........r.....;
#X connect 4 0 11 0 32.................E.........PA.........j.....;
#X connect 5 0 3 0 32.................E.........PA.........j.....;
#X connect 6 0 1 0 32.................D..........A.........b.....;
#X connect 7 0 6 0 32.................X..........F..........C....;
#X connect 8 0 10 0 32.................E.........PA.........j.....;
#X connect 9 0 7 0 32.................E.........PA.........j.....;
#X connect 10 0 9 0 32.................F.........fA.........r.....;
#X connect 10 1 6 1 32.................0.........PM.........nF....;
#X connect 11 0 5 0 32.................F.........fA.........r.....;
#X connect 11 1 2 1 32.................i.........vH.........TD....;
#X connect 12 0 5 1 32.................lA...vG...fY....7A...7P....;
#X connect 12 0 8 0 32.................Q....vK...PD....7B...HC....;
#X connect 13 0 9 1 48......................XD.........FA...j6+++uz....49+++KM...Pt++++;
#X connect 13 0 4 0 32.................K....XF...vB....lA...DB....;
