#N canvas 827 239 527 327 12;
#X obj 313 87 inlet;
#X obj 313 125 unpack;
#X obj 343 178 sel 0;
#X obj 358 221 t b;
#X obj 384 250 f;
#X obj 343 275 -;
#X obj 343 301 moses 1;
#X msg 262 268 1;
#X obj 322 234 f;
#X obj 297 363 f;
#X obj 340 448 outlet;
#X obj 505 196 inlet;
#X obj 388 356 + 1;
#X obj 37 281 print droppedMIDIinputDrum;
#X msg 468 265 1;
#X msg 490 265 0;
#X obj 474 313 == 0;
#X obj 450 353 spigot;
#X obj 94 371 + 1;
#X obj 130 249 t b;
#X obj 94 167 moses 7;
#X obj 558 278 spigot;
#X obj 558 341 t b b;
#X text 521 427 first we only add;
#X text 187 423 then we change length;
#X text 579 311 continously change length;
#X obj 254 401 moses 2;
#X msg 340 422 \$3 \$2 \$1 \$4;
#X msg 469 430 \$2 \$1 \$3;
#X obj 469 404 pack f f f;
#X obj 340 396 pack f f f f;
#X obj 343 151 t f f;
#X connect 0 0 1 0 32.................J.........fB.........LA....;
#X connect 1 0 20 0 32.................H....Xx+++OB....l7+++eA....;
#X connect 1 1 31 0 32.................D..........A.........b.....;
#X connect 2 0 14 0 48.................K....jB...vB....o....bA...fd....W....nG....Q....;
#X connect 2 1 3 0 32.................L..........C.........fA....;
#X connect 2 1 15 0 32.................h....HH...fH....BB...PD....;
#X connect 3 0 4 0 32.................E....nA...PA....Z....n.....;
#X connect 4 0 5 1 32.................C....L9++++.....i++++a.....;
#X connect 4 0 12 0 32.................r....P.....K....D....bE....;
#X connect 5 0 6 0 32.................D..........A.........b.....;
#X connect 6 0 7 0 48......................b8+++O.....W++++27+++eq++++M++++25+++ey++++;
#X connect 6 1 9 1 32.................V....v6+++uE....79+++uB....;
#X connect 7 0 9 1 32.................l....DC...fI....w....vD....;
#X connect 8 0 5 0 32.................K....TA...vB....U....XA....;
#X connect 9 0 26 0 32.................J....X8+++uB....V++++OA....;
#X connect 11 0 4 1 32.................L....L4+++OC....S9+++OB....;
#X connect 11 0 21 0 32.................f....TC....H....0....7C....;
#X connect 11 0 8 1 32.................J....T0+++uB....U8+++OA....;
#X connect 12 0 29 1 32.................O....PF...vC....jA...zA....;
#X connect 12 0 30 2 32.................K.....+++++B....v++++WA....;
#X connect 14 0 16 0 32.................O....j....vC....I....zA....;
#X connect 15 0 16 0 32.................O....L+++++C....y++++2A....;
#X connect 16 0 17 1 32.................K.........vB.........TA....;
#X connect 17 0 29 0 32.................P....LA....D....S.....B....;
#X connect 18 0 17 0 48......................HK.........xB...v8+++OYA...b++++SV....2++++;
#X connect 18 0 30 1 32.................B....TP...f.....ED...X.....;
#X connect 19 0 13 0 32.................G....P5++++A....j9+++2.....;
#X connect 20 0 18 0 32.................cA........PW.........jK....;
#X connect 20 1 19 0 32.................f..........H.........7C....;
#X connect 21 0 22 0 32.................V.........fE.........vB....;
#X connect 22 0 9 0 48......................bx+++O.....m7+++G.....+9+++A....vu++++.....;
#X connect 22 1 8 0 48......................35+++O.....t9+++y9+++OB++++r++++iv++++f++++;
#X connect 26 1 30 0 48......................jA.........Y....j9+++uL....o++++KC...P5++++;
#X connect 27 0 10 0 32.................D..........A.........b.....;
#X connect 28 0 10 0 48......................X8+++O.....V++++C.....f++++......3+++O.....;
#X connect 29 0 28 0 32.................D..........A.........b.....;
#X connect 30 0 27 0 32.................D..........A.........b.....;
#X connect 31 0 21 1 64......................vC.........7....3.....z....N.....M...PJ....tC...jB...f6....rA....;
#X connect 31 0 2 0 32.................D..........A.........f.....;
#X connect 31 1 29 2 64......................bB.........m....rC...PS....6....zD....V....ZB...fE...fl....pC....;
#X connect 31 1 30 3 32.................wA...DB...Pb....g....HN....;
