#N canvas 827 239 527 327 12;
#X obj 313 87 inlet;
#X obj 313 125 unpack;
#X obj 343 173 sel 0;
#X obj 358 221 t b;
#X obj 384 250 f;
#X obj 343 275 -;
#X obj 343 301 moses 1;
#X msg 262 268 1;
#X obj 322 234 f;
#X obj 297 363 f;
#X obj 340 448 outlet;
#X obj 505 196 inlet;
#X obj 388 356 + 1;
#X obj 340 396 pack f f f;
#X obj 37 281 print droppedMIDIinputDrum;
#X msg 340 422 \$3 \$2 \$1;
#X msg 468 265 1;
#X msg 490 265 0;
#X obj 469 404 pack;
#X obj 474 313 == 0;
#X obj 450 353 spigot;
#X msg 469 430 \$2 \$1;
#X obj 94 371 + 1;
#X obj 130 249 t b;
#X obj 94 167 moses 7;
#X obj 558 278 spigot;
#X obj 558 341 t b b;
#X text 521 427 first we only add;
#X text 187 423 then we change length;
#X text 579 311 continously change length;
#X obj 254 401 moses 2;
#X connect 0 0 1 0 32.................J.........fB.........LA....;
#X connect 1 0 24 0 32.................H....Xx+++OB....l7+++eA....;
#X connect 1 1 2 0 32.................O.........vC.........zA....;
#X connect 1 1 25 1 64.................Q....vC...PD....7....HB....z....h.....M...fL....tC...HC...f6....FB....;
#X connect 2 0 16 0 32.................O....nG...vC....5A...jD....;
#X connect 2 1 3 0 32.................O.........vC.........zA....;
#X connect 2 1 17 0 32.................N....HH...fC....BB...jD....;
#X connect 3 0 4 0 32.................E....nA...PA....Z....n.....;
#X connect 4 0 5 1 32.................C....L9++++.....i++++a.....;
#X connect 4 0 12 0 32.................r....P.....K....D....bE....;
#X connect 5 0 6 0 32.................D..........A.........b.....;
#X connect 6 0 7 0 32.................F++++25+++uw++++s9+++27+++O;
#X connect 6 1 9 1 32.................V....v6+++uE....79+++uB....;
#X connect 7 0 9 1 32.................DA...DC....Q....w....vD....;
#X connect 8 0 5 0 32.................K....TA...vB....U....XA....;
#X connect 9 0 30 0 32.................J....X8+++uB....V++++OA....;
#X connect 11 0 4 1 32.................L....L4+++OC....S9+++OB....;
#X connect 11 0 25 0 32.................f....TC....H....0....7C....;
#X connect 11 0 8 1 32.................A....T0+++e.....U8+++OA....;
#X connect 12 0 13 2 32.................K....f+++++B....3++++WA....;
#X connect 12 0 18 1 32.................J.....F...fB....fA...zA....;
#X connect 13 0 15 0 32.................D..........A.........b.....;
#X connect 15 0 10 0 32.................D..........A.........b.....;
#X connect 16 0 19 0 32.................Q....b....PD....G....HB....;
#X connect 17 0 19 0 32.................Q....D++++eD....w++++KB....;
#X connect 18 0 21 0 32.................D..........A.........b.....;
#X connect 19 0 20 1 32.................H....D.....B....A.....A....;
#X connect 20 0 18 0 32.................P....LA....D....S.....B....;
#X connect 21 0 10 0 48......................X8+++O.....V++++C.....f++++......3+++O.....;
#X connect 22 0 13 1 32.................C....jP...v.....ID...X.....;
#X connect 22 0 20 0 48......................HK.........xB...v8+++OYA...b++++SV....2++++;
#X connect 23 0 14 0 32.................G....P5++++A....j9+++2.....;
#X connect 24 0 22 0 32.................cA........PW.........jK....;
#X connect 24 1 23 0 32.................f..........H.........7C....;
#X connect 25 0 26 0 32.................V.........fE.........vB....;
#X connect 26 0 9 0 48......................bx+++O.....m7+++G.....+9+++A....vu++++.....;
#X connect 26 1 8 0 48.................n++++S3+++O5++++D9+++O9+++OB++++i++++iv++++f++++;
#X connect 30 1 13 0 48......................jA.........Y....j9+++uL....o++++KC...P5++++;
