#N canvas 827 239 527 327 12;
#X obj 313 87 inlet;
#X obj 313 125 unpack;
#X obj 343 173 sel 0;
#X obj 358 221 t b;
#X obj 384 250 f;
#X obj 343 275 -;
#X obj 343 301 moses 1;
#X msg 343 327 1;
#X obj 322 234 f;
#X obj 297 363 f;
#X obj 340 488 outlet;
#X obj 505 196 inlet;
#X obj 388 356 + 1;
#X obj 37 281 print droppedMIDIinputDrum;
#X msg 270 291 1;
#X obj 309 199 t b;
#X msg 481 266 0;
#X obj 472 318 == 0;
#X obj 492 361 spigot;
#X obj 130 249 t b;
#X obj 558 278 spigot;
#X obj 558 341 t b b;
#X text 545 427 first we only add;
#X text 188 462 then we change length;
#X text 579 311 continously change length;
#X obj 41 518 unpack f f f f f f f;
#X obj -126 564 ==;
#X obj -96 594 ==;
#X obj -66 624 ==;
#X obj -36 654 ==;
#X obj -6 684 ==;
#X obj 24 714 ==;
#X obj 54 744 ==;
#X obj -163 589 sel 1;
#X msg -163 615 1;
#X obj -133 679 sel 1;
#X obj -103 709 sel 1;
#X obj -73 739 sel 1;
#X obj -43 769 sel 1;
#X obj -13 799 sel 1;
#X obj 17 829 sel 1;
#X msg -133 705 2;
#X msg -103 735 3;
#X msg -73 765 4;
#X msg -43 795 5;
#X msg -13 825 6;
#X msg 17 855 7;
#X obj 111 384 t b f;
#X obj 41 492 r \$1-scale;
#X obj -133 622 spigot;
#X text 167 628 block unison;
#X obj -103 652 spigot;
#X obj -73 682 spigot;
#X obj -43 712 spigot;
#X obj -13 742 spigot;
#X obj 17 772 spigot;
#X obj 131 629 !=;
#X obj 298 390 moses 2;
#X obj 469 404 pack f f f;
#X obj 340 436 pack f f f f;
#X obj 432 148 t f f;
#X msg 469 430 \$2 \$1 \$3;
#X msg 340 462 \$3 \$2 \$1 \$4;
#X connect 0 0 1 0 32.................J.........fB.........LA....;
#X connect 1 0 26 0 64.................0....Tx+++eM....k7+++mF....t9+++oA...fq+++um....J4+++6I...fR9+++jF....;
#X connect 1 0 32 0 48.................KA....7++++R.....++++GN...f+9+++gC...3u+++OVB...;
#X connect 1 0 31 0 32.................VC....t+++u0....f6+++qi....;
#X connect 1 0 30 0 32.................KC...Hr++++x....B6+++yg....;
#X connect 1 0 29 0 48.................RB...77+++uj....O++++uM....o9+++aC...Pp+++u+A...;
#X connect 1 0 28 0 32.................zB...Xn+++Os....F5+++Cd....;
#X connect 1 0 27 0 48.................wA...r4+++eb....a9+++mJ....Z9+++oB...fl+++uvA...;
#X connect 1 1 60 0 32.................A....jE...P.....YA...P.....;
#X connect 2 0 15 0 32.................D....78+++OA....e++++e.....;
#X connect 2 1 3 0 32.................O.........vC.........zA....;
#X connect 2 1 16 0 48.................U....LB...PE....i.....B...Pd....f....jG...fR....;
#X connect 3 0 4 0 32.................E....nA...PA....Z....n.....;
#X connect 4 0 5 1 32.................C....L9++++.....i++++a.....;
#X connect 4 0 12 0 32.................r....P.....K....D....bE....;
#X connect 5 0 6 0 32.................D..........A.........b.....;
#X connect 6 0 7 0 32.................D....3++++OA....9++++e.....;
#X connect 6 1 9 1 32.................V....v6+++uE....79+++uB....;
#X connect 7 0 9 1 32.................I....D9+++eB....g++++GA....;
#X connect 8 0 5 0 32.................K....TA...vB....U....XA....;
#X connect 9 0 57 0 32.................D....D.....A....A....f.....;
#X connect 11 0 4 1 32.................L....L4+++OC....S9+++OB....;
#X connect 11 0 8 1 32.................J....T0+++uB....U8+++OA....;
#X connect 11 0 20 0 32.................f....TC....H....0....7C....;
#X connect 12 0 58 1 32.................O....PF...vC....jA...zA....;
#X connect 12 0 59 2 32.................e.....+++++G....v++++2C....;
#X connect 14 0 17 0 32.................D....zL....A....MC...f.....;
#X connect 15 0 8 0 32.................H....z.....B....M.....A....;
#X connect 15 0 14 0 32.................k....b8+++eI....W++++mD....;
#X connect 16 0 17 0 32.................Q....n++++eD....5++++GB....;
#X connect 17 0 18 1 32.................L....rB....C....q....fA....;
#X connect 18 0 58 0 32.................L....n9+++OC....p++++iA....;
#X connect 19 0 13 0 32.................G....P5++++A....j9+++2.....;
#X connect 20 0 21 0 32.................V.........fE.........vB....;
#X connect 21 0 9 0 48......................bx+++O.....m7+++G.....+9+++A....vu++++.....;
#X connect 21 1 8 0 48......................P3+++O.....D9+++y9+++OB++++r++++iv++++f++++;
#X connect 25 0 26 1 32.................I....T1+++eB....k8+++uA....;
#X connect 25 0 56 0 32.................e....nE...vG....ZA...vE....;
#X connect 25 1 27 1 32.................c....L2+++eG....y8+++mC....;
#X connect 25 2 28 1 32.................c.....3+++eG.....9+++eE....;
#X connect 25 3 29 1 32.................m....z3++++I....M9+++WG....;
#X connect 25 4 30 1 32.................2....n4++++M....Z9+++OI....;
#X connect 25 5 31 1 32.................6....b5++++N....m9+++GK....;
#X connect 25 6 32 1 32.................EA...P6+++eQ....z9++++L....;
#X connect 25 6 56 1 32.................t.........fK.........vE....;
#X connect 26 0 33 0 32.................C....v8++++.....b++++a.....;
#X connect 27 0 49 0 32.................E....v8+++eA....b++++m.....;
#X connect 28 0 51 0 32.................E....v8+++eA....b++++m.....;
#X connect 29 0 52 0 32.................E....v8+++eA....b++++m.....;
#X connect 30 0 53 0 32.................E....v8+++eA....b++++m.....;
#X connect 31 0 54 0 32.................E....v8+++eA....b++++m.....;
#X connect 32 0 55 0 32.................E....v8+++eA....b++++m.....;
#X connect 33 0 34 0 32.................D....3++++OA....9++++e.....;
#X connect 34 0 47 0 48......................fF.........nA...bv+++eEA...G7+++WQ...vA++++;
#X connect 35 0 41 0 32.................D....7++++OA....+++++e.....;
#X connect 36 0 42 0 32.................D....7++++OA....+++++e.....;
#X connect 37 0 43 0 32.................D....7++++OA....+++++e.....;
#X connect 38 0 44 0 32.................D....7++++OA....+++++e.....;
#X connect 39 0 45 0 32.................D....7++++OA....+++++e.....;
#X connect 40 0 46 0 32.................D....7++++OA....+++++e.....;
#X connect 41 0 47 0 48.................W8+++yE...vU++++bA...zp+++u8....s5+++aO...Pq9+++;
#X connect 42 0 47 0 48.................H8+++GE....R++++QA...7n+++O1....O5+++iM...vi9+++;
#X connect 43 0 47 0 48.................47+++aD...PN++++FA...Dm+++ut....w4+++qK...Pb9+++;
#X connect 44 0 47 0 48.................p7+++uC...fJ++++6....Lk+++Om....S4+++yI...vT9+++;
#X connect 45 0 47 0 80.................N9+++CA...fi++++P....P0+++OH....T8+++CB...fa9+++u....3l++++K....03+++6G...PM9+++9A...Ti+++O;
#X connect 46 0 47 0 48.................T4+++SB....U9+++j....bg+++OX....W3+++CF...vE9+++;
#X connect 47 1 18 0 48......................jK.........4B...b8+++ubA...W++++KW...v0++++;
#X connect 47 1 59 1 32......................jN.........oC...DB....;
#X connect 48 0 25 0 32.................D..........A.........b.....;
#X connect 49 0 35 0 32.................S.........vD.........XB....;
#X connect 51 0 36 0 32.................S.........vD.........XB....;
#X connect 52 0 37 0 32.................S.........vD.........XB....;
#X connect 53 0 38 0 32.................S.........vD.........XB....;
#X connect 54 0 39 0 32.................S.........vD.........XB....;
#X connect 55 0 40 0 32.................S.........vD.........XB....;
#X connect 56 0 55 1 32.................u....X5++++K....l9+++yG....;
#X connect 56 0 49 1 48......................f3+++O.....H9+++e9+++OD++++m++++Cw++++4++++;
#X connect 56 0 51 1 32.................B....3x+++u.....t7+++S.....;
#X connect 56 0 52 1 32.................Q....vz+++eD....L8+++KB....;
#X connect 56 0 53 1 32.................f....n1+++OH....p8+++CD....;
#X connect 56 0 54 1 32.................i....f3++++H....H9+++6E....;
#X connect 57 1 59 0 32.................N....X....fC....F....rA....;
#X connect 58 0 61 0 32.................D..........A.........b.....;
#X connect 59 0 62 0 32.................D..........A.........b.....;
#X connect 60 0 20 1 48.................S....vG...vD....7A...TB...Pk....k....TI...va....;
#X connect 60 0 2 0 32.................B....f5+++u.....n9+++a.....;
#X connect 60 1 59 3 32.................GB...j7++++g....I++++2P....;
#X connect 60 1 58 2 32.................2A...DD...vc....AA...zN....;
#X connect 61 0 10 0 32.................M.....3+++eC.....9+++eB....;
#X connect 62 0 10 0 32.................D..........A.........b.....;
