#N canvas 139 87 1173 876 10;
#X obj 546 206 i;
#X obj 557 178 zl.len;
#X obj 463 178 sel 0;
#X obj 463 143 - 1;
#X obj 152 696 % 12;
#N canvas 59 106 640 480 getName 0;
#X obj 112 207 outlet;
#X obj 190 207 outlet;
#X obj 112 73 inlet;
#X obj 112 116 zl.slice 1;
#X obj 112 149 fromsymbol @separator _;
#X connect 2 0 3 0;
#X connect 3 0 4 0;
#X connect 3 1 1 0;
#X connect 4 0 0 0;
#X restore 509 79 pd getName;
#X msg 286 763 Major;
#X obj 286 790 outlet;
#X obj 152 789 outlet;
#X obj 779 631 sel 1;
#X obj 734 601 sel 1;
#X obj 689 571 sel 1;
#X obj 644 541 sel 1;
#X obj 599 511 sel 1;
#X obj 554 481 sel 1;
#X obj 509 451 sel 1;
#X obj 152 254 zl.slice;
#X obj 463 110 zl.len;
#X obj 422 661 i;
#X obj 377 631 i;
#X obj 332 601 i;
#X obj 287 571 i;
#X obj 242 541 i;
#X obj 197 511 i;
#X obj 152 481 i;
#X obj 509 18 loadbang;
#X obj 779 541 zl.compare;
#X obj 734 511 zl.compare;
#X obj 689 481 zl.compare;
#X obj 644 451 zl.compare;
#X obj 599 421 zl.compare;
#X obj 554 391 zl.compare;
#X obj 509 361 zl.compare;
#N canvas 59 106 640 480 getArg 0;
#X obj 112 207 outlet;
#X obj 148 207 outlet;
#X obj 112 114 zl.slice 1;
#X obj 112 147 fromsymbol @separator _;
#X obj 112 73 inlet;
#X connect 2 0 3 0;
#X connect 2 1 1 0;
#X connect 3 0 0 0;
#X connect 4 0 2 0;
#X restore 827 304 pd getArg;
#N canvas 59 106 640 480 getArg 0;
#X obj 112 207 outlet;
#X obj 148 207 outlet;
#X obj 112 114 zl.slice 1;
#X obj 112 147 fromsymbol @separator _;
#X obj 112 73 inlet;
#X connect 2 0 3 0;
#X connect 2 1 1 0;
#X connect 3 0 0 0;
#X connect 4 0 2 0;
#X restore 782 274 pd getArg;
#N canvas 59 106 640 480 getArg 0;
#X obj 112 207 outlet;
#X obj 148 207 outlet;
#X obj 112 114 zl.slice 1;
#X obj 112 147 fromsymbol @separator _;
#X obj 112 73 inlet;
#X connect 2 0 3 0;
#X connect 2 1 1 0;
#X connect 3 0 0 0;
#X connect 4 0 2 0;
#X restore 737 244 pd getArg;
#N canvas 59 106 640 480 getArg 0;
#X obj 112 207 outlet;
#X obj 148 207 outlet;
#X obj 112 114 zl.slice 1;
#X obj 112 147 fromsymbol @separator _;
#X obj 112 73 inlet;
#X connect 2 0 3 0;
#X connect 2 1 1 0;
#X connect 3 0 0 0;
#X connect 4 0 2 0;
#X restore 692 214 pd getArg;
#N canvas 59 106 640 480 getArg 0;
#X obj 112 207 outlet;
#X obj 148 207 outlet;
#X obj 112 114 zl.slice 1;
#X obj 112 147 fromsymbol @separator _;
#X obj 112 73 inlet;
#X connect 2 0 3 0;
#X connect 2 1 1 0;
#X connect 3 0 0 0;
#X connect 4 0 2 0;
#X restore 647 184 pd getArg;
#N canvas 59 106 640 480 getArg 0;
#X obj 112 207 outlet;
#X obj 148 207 outlet;
#X obj 112 114 zl.slice 1;
#X obj 112 147 fromsymbol @separator _;
#X obj 112 73 inlet;
#X connect 2 0 3 0;
#X connect 2 1 1 0;
#X connect 3 0 0 0;
#X connect 4 0 2 0;
#X restore 602 154 pd getArg;
#N canvas 59 106 640 480 getArg 0;
#X obj 112 207 outlet;
#X obj 148 207 outlet;
#X obj 112 114 zl.slice 1;
#X obj 112 147 fromsymbol @separator _;
#X obj 112 73 inlet;
#X connect 2 0 3 0;
#X connect 2 1 1 0;
#X connect 3 0 0 0;
#X connect 4 0 2 0;
#X restore 557 124 pd getArg;
#X obj 152 113 -;
#X obj 198 113 -;
#X obj 243 113 -;
#X obj 289 113 -;
#X obj 334 113 -;
#X obj 380 113 -;
#X obj 152 38 t l l;
#X obj 152 0 inlet;
#X obj 152 75 unpack f f f f f f;
#X obj 152 152 pack f f f f f f;
#X obj 163 421 unpack f f f f f f;
#X obj 509 714 prepend set;
#X obj 152 735 t f b;
#N canvas 0 22 450 300 patcherargs 0;
#X obj 306 98 inlet;
#X obj 306 124 else/args;
#X obj 306 155 outlet;
#X connect 0 0 1 0;
#X connect 1 0 2 0;
#X restore 509 44 pd patcherargs;
#X connect 0 0 16 1 32.................O....Ho++++C....R5+++2A....;
#X connect 1 0 0 1;
#X connect 2 0 0 0 32.................C....LE...v.....SA...j.....;
#X connect 2 1 16 1 32.................S....Xs++++D....V6+++mC....;
#X connect 3 0 2 0;
#X connect 4 0 52 0;
#X connect 5 0 51 0;
#X connect 5 1 39 0 32.................M....b++++eC....2++++qA....;
#X connect 5 1 17 0 32.................D....j4+++OA....Y9+++y.....;
#X connect 6 0 7 0;
#X connect 9 0 18 0 32.................D....vo+++OA....b5+++u.....;
#X connect 10 0 19 0 32.................D....vo+++OA....b5+++u.....;
#X connect 11 0 20 0 32.................D....vo+++OA....b5+++u.....;
#X connect 12 0 21 0 32.................D....vo+++OA....b5+++u.....;
#X connect 13 0 22 0 32.................D....vo+++OA....b5+++u.....;
#X connect 14 0 23 0 32.................D....vo+++OA....b5+++u.....;
#X connect 15 0 24 0 32.................D....vo+++OA....b5+++u.....;
#X connect 16 0 32 0 32.................l....TV...fI....kE...fE....;
#X connect 16 0 31 0 32.................r....HY....K....RF...XG....;
#X connect 16 0 29 0 32.................CA...vd...vP....rG...HK....;
#X connect 16 0 30 0 32.................3....7a....N....+F...PI....;
#X connect 16 0 26 0 48.................MA...jg...PS....YH...LG...vbB...yA...Lm....CA...;
#X connect 16 0 27 0 48.................7....Ta....O....0F...jE...fQB...YA...Xj...f6....;
#X connect 16 0 28 0 32.................NA...jg...fS....YH....M....;
#X connect 17 0 3 0;
#X connect 18 0 4 0 32.................H....Lu+++OB....y6+++CA....;
#X connect 19 0 4 0 32.................W.....x++++E....f7+++6B....;
#X connect 20 0 4 0 32.................l....zz+++uI....M8+++yD....;
#X connect 21 0 4 0 32.................n....n2+++OJ....58+++qF....;
#X connect 22 0 4 0 32.................y....b5++++L....m9+++iH....;
#X connect 23 0 4 0 32.................SA...P8++++T....T++++aJ....;
#X connect 24 0 4 0 32.................hA........fX.........PL....;
#X connect 25 0 53 0;
#X connect 26 0 9 0;
#X connect 27 0 10 0;
#X connect 28 0 11 0;
#X connect 29 0 12 0;
#X connect 30 0 13 0;
#X connect 31 0 14 0;
#X connect 32 0 15 0;
#X connect 33 0 26 1;
#X connect 34 0 27 1;
#X connect 34 1 33 0;
#X connect 35 0 28 1;
#X connect 35 1 34 0;
#X connect 36 0 29 1;
#X connect 36 1 35 0;
#X connect 37 0 30 1;
#X connect 37 1 36 0;
#X connect 38 0 31 1;
#X connect 38 1 37 0;
#X connect 39 0 32 1;
#X connect 39 0 1 0;
#X connect 39 1 38 0;
#X connect 40 0 49 0 32.................J....D....fB....A....PA....;
#X connect 41 0 49 1 32.................J....P9+++uB....j++++SA....;
#X connect 42 0 49 2 32.................J....f7+++uB....H++++SA....;
#X connect 43 0 49 3 48.................G....b7++++A....G++++q....fp++++J....n5+++OE....;
#X connect 44 0 49 4 32.................J....33+++uB....N9+++SA....;
#X connect 45 0 49 5 48.................G....D8++++A....Q++++q....Pb++++J....D2+++OE....;
#X connect 46 0 48 0;
#X connect 46 1 50 0 32.................1B........fs.........vV....;
#X connect 47 0 46 0;
#X connect 48 0 40 0 32.................J.........fB.........LA....;
#X connect 48 1 41 0 32.................J....zA...fB....c....LA....;
#X connect 48 1 40 1 32.................J....r++++uB....6++++OA....;
#X connect 48 2 42 0 32.................J....jC...fB....4....LA....;
#X connect 48 2 41 1 32.................J....bA...fB....W....LA....;
#X connect 48 3 42 1 32.................J....LC...fB....y....LA....;
#X connect 48 3 43 0 32.................J....XE...fB....VA...LA....;
#X connect 48 4 44 0 32.................J....HG...fB....xA...LA....;
#X connect 48 4 43 1 32.................J.....E...fB....PA...LA....;
#X connect 48 5 45 0 32.................J....7H...fB....OB...LA....;
#X connect 48 5 44 1 32.................J....vF...fB....rA...LA....;
#X connect 49 0 16 0;
#X connect 50 0 24 1 32.................U.........PE.........jB....;
#X connect 50 1 23 1 32.................j....zA....I....c....bD....;
#X connect 50 2 22 1 32.................y....jC...vL....4....TF....;
#X connect 50 3 21 1 32.................BA...TE...fP....UA...LH....;
#X connect 50 4 20 1 32.................1....DG...fM....wA...DJ....;
#X connect 50 5 19 1 32..................A...zH....P....MB...7K....;
#X connect 51 0 6 0 32.................J....fv+++uB....H7+++6A....;
#X connect 52 0 8 0;
#X connect 52 1 6 0 32.................C....rG...v.....6A...j.....;
#X connect 53 0 5 0;
