#N struct 1005-symarray float x array symbols 1005-sym;
#N struct 1005-sym symbol name float on;
#N struct 1065-symarray float x array symbols 1065-sym;
#N struct 1065-sym symbol name float on;
#N canvas 827 239 527 327 12;
#X obj 312 303 scaleSeq 1003;
#X msg 374 148 clear;
#X floatatom 312 112 5 1 8 0 - - - 12;
#X obj 1259 759 f 0;
#X obj 1259 785 + 1;
#X obj 1304 770 % 8;
#X obj 1259 695 tgl 25 0 empty empty empty 17 7 0 10 #e4e4e4 #4d4d4d #373737 0 1;
#X floatatom 377 662 5 0 0 3 length - - 12;
#X symbolatom 312 780 10 0 0 3 y-length-velocity - - 24;
#X text 357 109 lookup (not zero based!);
#X text 779 13 scaleSeq offers a GUI for a stepsequencer with 7 positions on the y-axis.;
#X text 73 312 add or remove position;
#X text 77 472 add or remove position;
#X text 12 388 (watch console if position is empty);
#X text 987 331 preset mangement is stored in daw with daw_storage;
#X obj 312 606 route symbol length writePreset callPreset overwritePreset deletePreset;
#X obj 443 649 print writePreset;
#X obj 509 679 print callPreset;
#X obj 575 649 print overwritePreset;
#X obj 641 679 print deletePreset;
#X text 431 581 outputs preset actions too;
#X msg 997 773 delete symbol Test;
#X text 1030 511 click to programmatically add content:;
#X msg 1001 716 call Test;
#X msg 419 182 length 12;
#X text 780 98 can also be controlled programmatically;
#N canvas 0 22 450 300 show 0;
#X obj 108 -9 inlet;
#X obj 108 117 t f f b;
#X obj 228 177 f 7;
#X obj 122 198 pack f f \$0;
#X obj 108 57 moses -1;
#X obj 160 84 moses 8;
#X msg 207 107 -1;
#X obj 204 51 inlet length;
#X obj 108 17 - 1;
#X obj 378 183 pack f f \$0;
#X obj 360 136 sel -1;
#X msg 122 244 \; \$3-timeGrid_\$2 color #E1E1E1 0 0;
#X msg 361 242 \; \$3-timeGrid_\$1 color #E1B8B8 0 0 \;;
#X obj 245 147 sel -1;
#X connect 0 0 8 0 32.................D..........A.........b.....;
#X connect 1 0 13 0 32.................D....jH....A....IB...r.....;
#X connect 1 1 3 0 32.................e.........vG.........3C....;
#X connect 1 1 10 0 32......................3N.........tC.........;
#X connect 1 2 2 0 32.................U....rE...PE....aA...jB....;
#X connect 2 0 3 1 32.......................6+++O.....v9+++K.....;
#X connect 2 0 9 1 48......................fE.........XA...P+++++q....z+++++J....8++++;
#X connect 3 0 11 0 32.................N.........fC.........rA....;
#X connect 4 1 5 0 32.................D....z.....A....M....f.....;
#X connect 5 0 1 0 32.................G....z7++++A....M++++6.....;
#X connect 5 1 6 0 32.................B....n....f.....J....P.....;
#X connect 6 0 1 0 48.......................9+++O.....f++++i+++++m++++3+++++4+++O9++++;
#X connect 7 0 5 1 32.................G....j+++++A....4++++6.....;
#X connect 8 0 4 0 32.................K.........vB.........TA....;
#X connect 9 0 12 0 32.................T.....++++OE....v++++iB....;
#X connect 10 1 9 0 32.................N.........fC.........vA....;
#X connect 13 1 2 1 32.................F....j9+++uA....o++++u.....;
#X restore 372 256 pd show;
#X msg 444 257 0;
#X obj 502 821 bng 25 250 50 0 empty empty empty 17 7 0 10 #e4e4e4 #4d4d4d #373737;
#X msg 1054 659 length 6 \, set 1 1 92 \, set 1 1 2 92 \, set 5 5 37 \, write symbol Test2;
#X text 1027 566 later we change the length with set x \, y \, length \, velocity);
#X text 425 147 delete all entries;
#X msg 1053 603 set 1 1 127 \, set 1 1 3 127 \, set 4 5 12 \, set 4 5 2 12 \, set 7 7 84 \, write symbol Test \,;
#X text 493 181 programmatically set length (clears content);
#X msg 227 320 set 1 1 102;
#X text 129 328 (x \, y \, velocity);
#X text 43 370 change length and/or velocity;
#X msg 227 474 set 3 7 99;
#X msg 226 376 set 1 1 1 27;
#X msg 227 407 set 1 1 3 53;
#X text 1027 545 (In order to be able to clear positions we first set x \, y \, velocity \,;
#X text 779 55 add content by mouse-click \, drag right to change length of the entry and left to change velocity.;
#X text 476 256 you can visualize the lookup position from outside using the scaleSeq's argument (\$0 in this case);
#X text 312 845 polyphony is split with _;
#X obj 1259 733 metro 250;
#X obj 1353 727 sel 1;
#X floatatom 1259 811 5 0 0 0 - - - 12;
#X text 1290 695 run the sequencer in standalone;
#N canvas 0 22 450 300 dawPlayback 1;
#X obj 244 120 playhead;
#X obj 392 242 i;
#X obj 392 293 change;
#X obj 392 354 outlet;
#X obj 495 246 inlet length;
#X msg 388 154 \$1;
#X obj 392 216 * 2;
#X obj 392 319 % 8;
#X connect 0 8 5 0;
#X connect 1 0 2 0;
#X connect 2 0 7 0;
#X connect 4 0 7 1;
#X connect 5 0 6 0;
#X connect 6 0 1 0;
#X connect 7 0 3 0;
#X restore 1483 753 pd dawPlayback;
#X connect 0 0 15 0 32.................g.........PH.........HD....;
#X connect 1 0 0 0 32.................e....z2++++G....88+++2E....;
#X connect 2 0 26 0 32.................9A...vC...fe....7....3G....;
#X connect 2 0 0 0 32.................WA...LA...vU....S....3J....;
#X connect 3 0 4 0 32.................D..........A.........b.....;
#X connect 4 0 5 0 48......................bA.........W....78+++eK....e++++2B...v2++++;
#X connect 4 0 26 0 48......................DK.........wB...Tf+++uS7+++E3+++6D+++e28+++;
#X connect 4 0 0 0 64......................DK.........wB...bv+++er....G7+++GK....A9+++Nw+++Sf+++uS7+++L3+++C;
#X connect 4 0 46 0;
#X connect 5 0 3 1 48.......................++++O.....v++++O9++++2++++i+++++8++++3++++;
#X connect 6 0 44 0 32.................K.........vB.........XA....;
#X connect 6 0 45 0 32.................D....3E....A....dA...b.....;
#X connect 8 0 28 0 32.................D....3K....A....9B...r.....;
#X connect 15 0 8 0 32.................R.........fD.........LB....;
#X connect 15 1 7 0 32.................K.........vB.........XA....;
#X connect 15 1 26 1 48......................75+++O.....u9+++Gn+++O4++++A5+++S9+++ef9+++;
#X connect 15 1 5 1 48......................XX.........FF........fpC........n5...ff....;
#X connect 15 1 48 0 32......................HEA........RQ...DG....;
#X connect 15 2 16 0;
#X connect 15 3 17 0;
#X connect 15 4 18 0;
#X connect 15 5 19 0;
#X connect 21 0 0 0 64.................Q....D9+++eD....g++++C....P3++++.....D9+++uD9+++T0+++Kg+++OU8+++X3+++C;
#X connect 23 0 0 0 32.................J4+++CU+++uR9+++P0+++Gk+++O;
#X connect 24 0 0 0 32.................h....X4+++uH....V9+++aF....;
#X connect 27 0 26 0 48......................D++++O.....w++++29++++t++++s++++u6+++e6++++;
#X connect 29 0 0 0 64......................j5+++O.....o9+++u7+++ep++++K++++m5+++uf9+++az+++Kn++++F8+++J5+++C;
#X connect 32 0 0 0 48......................j5+++O.....o9+++yp+++OG8+++r5+++yQ++++r9+++;
#X connect 34 0 0 0 48......................jD.........IA........Pj.........DI...P2++++;
#X connect 37 0 0 0 32.................J....TE...fB....UA...Lz+++O;
#X connect 38 0 0 0 48.................H....XE....B....VA...v9+++uU....r++++aE...Po++++;
#X connect 39 0 0 0 48......................TE.........UA...X3+++eU....F9+++WE...fg++++;
#X connect 44 0 3 0 32.................D..........A.........b.....;
#X connect 45 1 3 1 32.................G....H5++++A....h9+++2.....;
#X connect 45 1 46 0 32.................AA...b4+++eP....W9+++GD....;
#X connect 45 1 27 0 48.................G....Hm++++A....x4+++ig+++uY7+++X3+++aF+++OF9+++;
#X connect 48 0 4 0 32.................G....Dx++++A....g7+++2.....;
