#N struct 2489-symarray float x array symbols 2489-sym;
#N struct 2489-sym symbol name float on;
#N struct 2549-symarray float x array symbols 2549-sym;
#N struct 2549-sym symbol name float on;
#N canvas 270 71 843 250 12;
#X declare -path scaleProvider;
#X declare -path list-abs;
#X declare -path rjlib/rj;
#X declare -path rc/rc;
#X declare -path abs;
#X obj 466 -43 bng 25 250 50 0 empty \$0-overwrite overwrite\ Preset 0 33 0 11 #006800 #eeeeee #006800;
#X obj 623 -43 bng 25 250 50 0 empty \$0-delete delete\ Preset -41 33 0 11 #570000 #eeeeee #570000;
#X obj 613 43 vsl 8 2 0 127 0 0 Preset-1_s Preset-1_r x 5 9 0 4 #d9d9d9 #d9d9d9 #606060 0 0;
#X obj 613 43 vsl 8 2 0 127 0 0 Preset-2_s Preset-2_r x 3 3 0 4 #d9d9d9 #d9d9d9 #606060 0 0;
#X obj 613 43 vsl 8 2 0 127 0 0 Preset-3_s Preset-3_r x 3 3 0 4 #d9d9d9 #d9d9d9 #606060 0 0;
#X obj 613 43 vsl 8 2 0 127 0 0 Preset-4_s Preset-4_r x 3 3 0 4 #d9d9d9 #d9d9d9 #606060 0 0;
#X obj 613 43 vsl 8 2 0 127 0 0 Preset-5_s Preset-5_r x 3 3 0 4 #d9d9d9 #d9d9d9 #606060 0 0;
#X obj 613 43 vsl 8 2 0 127 0 0 Preset-6_s Preset-6_r x 3 3 0 4 #d9d9d9 #d9d9d9 #606060 0 0;
#X obj 613 43 vsl 8 2 0 127 0 0 Preset-7_s Preset-7_r x 3 3 0 4 #d9d9d9 #d9d9d9 #606060 0 0;
#X obj 613 43 vsl 8 2 0 127 0 0 Preset-8_s Preset-8_r x 3 3 0 4 #d9d9d9 #d9d9d9 #606060 0 0;
#X obj 613 43 vsl 8 2 0 127 0 0 Preset-9_s Preset-9_r x 3 3 0 4 #d9d9d9 #d9d9d9 #606060 0 0;
#X obj 613 43 vsl 8 2 0 127 0 0 Preset-10_s Preset-10_r x 3 3 0 4 #d9d9d9 #d9d9d9 #606060 0 0;
#X obj 613 43 vsl 8 2 1 0 0 1 Preset_scroll_s Preset_scroll_r empty 0 -9 0 10 #dcdcdc #dfdfdf #000000 100 0;
#X obj 613 43 cnv 9 1 1 empty Preset_scrollIndicator empty 20 12 0 14 #bbbbbb #404040 0;
#X obj 491 43 vsl 132 22 0 127 0 0 Preset_s Preset_r Preset 3 9 0 19 #ffffff #fcfcfc #000000 0 0;
#X obj 21 10 pad 432 212 0 0 0;
#X obj 21 269 route list click;
#X obj 21 356 spigot;
#N canvas 63 88 450 300 \$0-timeGrid 0;
#X obj 1 1 cnv 15 52 210 empty 2487-timeGrid_0 empty 20 12 0 14 #e1e1e1 #e1e1e1 0;
#X obj 55 1 cnv 15 52 210 empty 2487-timeGrid_1 empty 20 12 0 14 #e1e1e1 #e1e1e1 0;
#X obj 109 1 cnv 15 52 210 empty 2487-timeGrid_2 empty 20 12 0 14 #e1e1e1 #e1e1e1 0;
#X obj 163 1 cnv 15 52 210 empty 2487-timeGrid_3 empty 20 12 0 14 #e1e1e1 #e1e1e1 0;
#X obj 217 1 cnv 15 52 210 empty 2487-timeGrid_4 empty 20 12 0 14 #e1e1e1 #e1e1e1 0;
#X obj 271 1 cnv 15 52 210 empty 2487-timeGrid_5 empty 20 12 0 14 #e1e1e1 #e1e1e1 0;
#X obj 325 1 cnv 15 52 210 empty 2487-timeGrid_6 empty 20 12 0 14 #e1e1e1 #e1e1e1 0;
#X obj 379 1 cnv 15 52 210 empty 2487-timeGrid_7 empty 20 12 0 14 #e1e1e1 #e1e1e1 0;
#X coords 0 0 1 1 432 213 1 0 0;
#X restore 21 10 pd \$0-timeGrid;
#X obj 49 325 list;
#X obj 136 371 unpack;
#X obj 303 525 i;
#X obj 303 551 change -1;
#X obj 303 499 expr ($f1-5) / (208 / 7) + 1;
#X obj 303 585 clip 1 7;
#X obj 136 397 expr $f1 / (432 / $f2) + 1;
#X obj 518 199 nbx 3 24 1 64 0 1 empty \$0-length_r Length -52 14 0 16 #191919 #e1e1e1 #3d3d3d 8 256;
#X obj 161 519 change -1;
#X obj 136 474 i;
#X msg 184 475 set -1;
#X obj 326 751 m_symbolarray;
#X text 165 710 first check for content;
#X obj -9 715 t a a b, f 23;
#X obj -49 933 gate 2 1;
#X msg -14 896 1;
#X obj 219 1051 u_listdrip;
#X obj 219 1077 u_symbol2list -;
#X text -276 927 empty position \, simply add entry;
#X msg -47 895 2;
#X obj 219 967 symbol;
#X msg 651 1017 \$1;
#X obj 157 1217 ==;
#X obj 157 1129 list split 1;
#X obj 157 1173 u_symbol2float;
#X obj 219 991 u_symbol2list _;
#X text 330 985 split multiple entries;
#X text 326 1071 split xval from length;
#X text 300 1045 loop over the entries;
#X obj 73 924 t b a b a b, f 118;
#X obj 219 1103 t a a;
#X obj 566 1283 list;
#X obj 769 1371 list;
#X obj 1016 1338 list;
#X obj 89 1475 list;
#X msg 684 1017 \$2;
#X obj 465 1497 list prepend;
#X obj 769 1318 u_list2symbol -;
#X obj 127 1319 spigot;
#X msg 154 1277 1;
#X msg 173 1276 0;
#X obj 566 1406 u_list2symbol _;
#X obj 616 1061 list length;
#X obj 605 1141 sel 1;
#X obj 605 1109 f;
#X obj 219 1017 t a a;
#X text 58 897 entry in this position \, check for possible content to add or remove;
#X text 127 1453 final list;
#X text 708 1061 check for last entry;
#X text 813 1328 re-gather all entries;
#X obj -38 524 inlet lookup;
#X obj -38 630 t f b;
#X msg -24 672 1;
#X text 121 811 either lookup or modify content;
#X obj 45 768 t f b;
#X msg 60 795 2;
#X msg 428 626 dump;
#X msg 348 664 reset;
#X msg 47 741 \$1;
#N canvas 92 117 450 300 \$0-7 0;
#X coords 0 0 1 1 432 30 2 0 0;
#X restore 21 11 pd \$0-7;
#N canvas 121 146 450 300 \$0-6 0;
#X coords 0 0 1 1 432 30 2 0 0;
#X restore 21 41 pd \$0-6;
#N canvas 150 175 450 300 \$0-5 0;
#X coords 0 0 1 1 432 30 2 0 0;
#X restore 21 71 pd \$0-5;
#N canvas 179 204 450 300 \$0-4 0;
#X coords 0 0 1 1 432 30 2 0 0;
#X restore 21 101 pd \$0-4;
#N canvas 208 233 450 300 \$0-3 0;
#X coords 0 0 1 1 432 30 2 0 0;
#X restore 21 131 pd \$0-3;
#N canvas 237 262 450 300 \$0-2 0;
#X coords 0 0 1 1 432 30 2 0 0;
#X restore 21 161 pd \$0-2;
#N canvas 266 291 450 300 \$0-1 0;
#X coords 0 0 1 1 432 30 2 0 0;
#X restore 21 191 pd \$0-1;
#X obj 673 1187 pack \$0 f;
#X obj 623 199 bng 25 250 50 0 empty empty clear -38 14 0 16 #191919 #e1e1e1 #3d3d3d;
#N canvas 0 22 450 300 add2Grid 0;
#X obj 138 22 inlet;
#X obj 156 322 *;
#X obj 156 348 +;
#X obj 245 282 * 2;
#X obj 167 179 r \$0-grid-x-size;
#X obj 234 145 t f f;
#X obj 168 117 - 1;
#X obj 188 224 + 2;
#X obj 188 250 * 1;
#X text 226 248 note length;
#X text 282 280 note position;
#X obj 188 276 - 6;
#X obj 245 308 + 3;
#X obj 832 141 inlet resize;
#X obj 832 265 *;
#X obj 832 291 - 6;
#X obj 832 435 outlet;
#X obj 832 207 t f f;
#X obj 368 153 inlet;
#X obj 368 179 t b f;
#X obj 1010 134 inlet;
#X obj 138 380 pack f f f \$0 f s, f 14;
#X obj 510 279 inlet color;
#X msg 138 416 \; pd-\$4-\$1 obj \$2 5 cnv 15 \$3 20 empty \$4-\$5-\$1 empty 20 12 0 14 \$6 0 0;
#X msg 832 354 \$3 \$2 \$5 \$7 \; \$4-\$3-\$2 vis_size \$1 20 \; \$4-\$3-\$2 color \$6 0 0;
#X obj 832 328 pack f f f \$0 f s f;
#X msg 138 68 \$2 \$1 \$3;
#X obj 138 92 unpack f f f;
#X obj 1010 207 unpack f f f;
#X obj 1219 279 inlet velocity;
#X msg 1010 183 \$2 \$1 \$4;
#X connect 0 0 26 0 32.................D..........A.........b.....;
#X connect 1 0 2 0 32.................D..........A.........b.....;
#X connect 2 0 21 1 32.................G.........vA.........z.....;
#X connect 3 0 12 0 32.................D..........A.........b.....;
#X connect 4 0 1 1 32.................9.........fO.........vG....;
#X connect 4 0 7 0 32.................M....TA...PC....U....nA....;
#X connect 5 0 1 0 32.................0....L6+++eM....y9+++6I....;
#X connect 5 1 3 0 32.................6.........vN.........XG....;
#X connect 6 0 5 0 32.................E....HD...PA....BA...j.....;
#X connect 7 0 8 0 32.................D..........A.........b.....;
#X connect 7 0 14 1 32.................K....7n...vB....OJ...XA....;
#X connect 8 0 11 0 32.................D..........A.........b.....;
#X connect 11 0 21 2 32.................q....P+++++J....z++++WE....;
#X connect 12 0 2 1 32.................G....L6++++A....y9+++WA....;
#X connect 13 0 17 0 32.................D..........A.........b.....;
#X connect 14 0 15 0 32.................D..........A.........b.....;
#X connect 15 0 25 0 32.................I.........PB.........HA....;
#X connect 17 0 14 0 32.................T..........E.........bB....;
#X connect 17 1 25 4 32.................y....fC...vL....3....XF....;
#X connect 18 0 19 0 32.................D..........A.........b.....;
#X connect 19 0 7 0 32.................I....zz+++eB....M8+++qA....;
#X connect 19 1 8 1 32.................Z....zz+++uF....M8+++SC....;
#X connect 20 0 30 0;
#X connect 21 0 23 0 32.................I.........PB.........DA....;
#X connect 22 0 21 5 32.......................t+++O.....f6+++KE....;
#X connect 22 0 25 5 32......................TY.........UF...3A....;
#X connect 24 0 16 0 32.................D..........A.........b.....;
#X connect 25 0 24 0 32.................D..........A.........b.....;
#X connect 26 0 27 0 32.................C.........v..........T.....;
#X connect 27 0 21 0 32.................GB........vg.........zP....;
#X connect 27 0 25 1 48.................a....HK...vF....xB...DE...fwB...QA...Xr...P1....;
#X connect 27 1 6 0 32.................C.........v..........X.....;
#X connect 27 1 21 4 32.................GB...vB...vg....r....zP....;
#X connect 27 1 25 2 64......................PF.........jA...7A...vJA...e....rR...fW....4J...3E...PtB...YC....;
#X connect 27 2 25 6 48......................nF.........pA...3C...P4B...9....Tt...P1....;
#X connect 28 0 25 1 32.................h....70+++uH....e8+++aF....;
#X connect 28 1 25 2 32.................r....H0+++OK....R8+++aF....;
#X connect 28 2 25 6 32.................h....32+++uH....98+++aF....;
#X connect 29 0 25 6 32.................O....Lt++++C....i6+++6A....;
#X connect 30 0 28 0 32.................C.........v..........T.....;
#X restore -228 1006 pd add2Grid;
#X f 23;
#X text 747 1149 remove last position entry;
#X text 219 1192 if not \, add to final list \,;
#X text 219 1205 else prevent adding and remove from grid;
#X text 219 1218 or trigger remove last entry;
#N canvas 0 22 450 300 removeFromGrid 0;
#X obj 1265 546 inlet list2remove;
#X obj 392 72 inlet row2redraw;
#X obj 601 197 route 1 2 3 4 5 6 7;
#X text 551 49 when removing entry we redraw the whole row \, so here we handle lists of the rows, f 30;
#X obj 601 276 list;
#X obj 644 239 list;
#X obj 556 423 list;
#X obj 631 306 list;
#X obj 674 269 list;
#X obj 661 336 list;
#X obj 704 299 list;
#X obj 691 366 list;
#X obj 734 329 list;
#X obj 721 396 list;
#X obj 764 359 list;
#X obj 751 426 list;
#X obj 794 389 list;
#X obj 781 456 list;
#X obj 824 419 list;
#X obj 1125 617 route symbol;
#X obj 1125 664 select [DUMMY-SYMBOL];
#X obj 1030 741 spigot;
#X msg 1127 704 0;
#X msg 1192 704 1;
#X obj 844 529 u_listdrip;
#X text 473 153 float bangs the row list;
#X msg 363 269 \; pd-\$2-\$1 clear;
#X obj 363 241 pack f \$0;
#X msg 1125 594 symbol \$1;
#X obj 794 197 inlet reset;
#X obj 601 132 inlet entry2add;
#X obj 767 975 outlet;
#X obj 767 868 u_symbol2float;
#X obj 767 778 u_symbol2list -;
#X msg 767 846 symbol \$1;
#X obj 844 555 t a a a;
#X msg 1008 137 set;
#X msg 1008 163 1;
#X obj 392 138 t b f f b;
#X obj 1063 113 prepend add2;
#X obj 1008 189 route 1 2 3 4 5 6 7;
#X obj 1042 271 t a b;
#X obj 1008 217 t a b;
#X obj 1024 244 t a b;
#X obj 1092 353 t a b;
#X obj 1058 299 t a b;
#X obj 1074 326 t a b;
#X obj 1110 381 t a b;
#X obj 524 466 gate 2 1;
#X msg 442 432 1;
#X obj 649 555 inlet entry2replace;
#X obj 649 581 t a b;
#X msg 600 442 2;
#X obj 556 744 list prepend;
#N canvas 0 22 450 300 replace 0;
#X obj 365 308 inlet;
#X obj 365 358 u_listmap;
#X obj 819 318 u_symbol2list -;
#X obj 590 308 u_symbol2list -;
#X obj 570 273 t a a;
#X obj 570 503 spigot;
#X obj 677 503 sel 0;
#X obj 808 537 list;
#X msg 819 344 symbol \$1;
#X msg 590 360 symbol \$1;
#X obj 590 384 u_symbol2float;
#X obj 819 370 u_symbol2float;
#X obj 590 466 !=;
#X obj 808 565 u_list2symbol -;
#X obj 365 429 outlet;
#X obj 819 260 inlet 2replace;
#X connect 0 0 1 0 32.................P..........D.........7A....;
#X connect 1 0 14 0 32.................Z.........fF.........PC....;
#X connect 1 1 4 0 48......................HB.........h....j4+++OQ....Y9+++SD...Pl++++;
#X connect 2 0 7 1 32.................jA.........Y.........fL....;
#X connect 2 0 8 0 32.................D..........A.........b.....;
#X connect 3 0 9 0 32.................Q.........PD.........DB....;
#X connect 4 0 5 0 32.................pA........fZ.........LM....;
#X connect 4 1 3 0 32.................H....j.....B....I.....A....;
#X connect 5 0 1 1 48......................78+++O.....e++++20+++eu++++c8+++26+++eW++++;
#X connect 6 0 7 0 32.................E....LH...PA....CB...7.....;
#X connect 7 0 13 0 32.................E.........PA.........j.....;
#X connect 8 0 11 0 32.................D..........A.........b.....;
#X connect 9 0 10 0 32.................C.........v..........T.....;
#X connect 10 0 12 0 32.................f..........H.........7C....;
#X connect 11 0 12 1 32.................Z....bx+++uF....m7+++2D....;
#X connect 12 0 6 0 32.................F....bE...fA....WA...HA....;
#X connect 12 0 5 1 32.................I....L....PB....C....HA....;
#X connect 13 0 1 1 80......................P6+++O.....z9+++C4+++ui++++P9+++63++++U++++06+++e0+++e89+++e7++++r++++G++++O6++++w+++O;
#X connect 15 0 2 0 32.................T..........E.........bB....;
#X restore 556 527 pd replace;
#X obj 649 647 list split 1;
#X obj 649 711 t b f f;
#X obj 939 950 outlet;
#X obj 857 890 u_symbol2float;
#X msg 857 846 symbol \$2;
#X obj 1387 160 inlet setEntries;
#X msg 1265 628 symbol \$1-\$2;
#X obj 767 923 pack f f f;
#X obj 974 891 u_symbol2float;
#X msg 974 847 symbol \$3;
#X obj 767 812 t a a;
#X obj 974 926 outlet;
#X connect 0 0 61 0 32.................f..........H.........7C....;
#X connect 1 0 38 0 32.................D..........A.........b.....;
#X connect 2 0 4 0 32.................d.........fG.........vC....;
#X connect 2 1 7 0 32.................s....z....PK....M....nE....;
#X connect 2 2 9 0 32.................7....nA....O....Z....fG....;
#X connect 2 3 11 0 32.................KA...bB...vR....m....XI....;
#X connect 2 4 13 0 32.................ZA...PC...fV....z....PK....;
#X connect 2 5 15 0 32.................oA...DD...PZ....AA...HM....;
#X connect 2 6 17 0 48.................n....bB....J....m.....E...fS....PA...3D....7....;
#X connect 4 0 5 0 48......................XA.........V....j7++++J....I++++uB...Px++++;
#X connect 4 0 6 1 32..................A...78+++OP....e++++CH....;
#X connect 5 0 4 1 32.................I....D9+++eB....g++++KA....;
#X connect 6 0 48 1 32.................L..........C.........fA....;
#X connect 7 0 8 0 48......................XA.........V....j7++++J....I++++uB...Px++++;
#X connect 7 0 6 1 32.................w....D7+++eL....A++++KF....;
#X connect 8 0 7 1 32.................I....D9+++eB....g++++KA....;
#X connect 9 0 10 0 48......................XA.........V....j7++++J....I++++uB...Px++++;
#X connect 9 0 6 1 32.................h....L5+++uH....i9+++SD....;
#X connect 10 0 9 1 32.................I....D9+++eB....g++++KA....;
#X connect 11 0 12 0 48......................XA.........V....j7++++J....I++++uB...Px++++;
#X connect 11 0 6 1 32.................S....T3++++D....E9+++aB....;
#X connect 12 0 11 1 32.................I....D9+++eB....g++++KA....;
#X connect 13 0 14 0 48......................XA.........V....j7++++J....I++++uB...Px++++;
#X connect 13 0 6 1 32.................D....b1+++OA....m8+++i.....;
#X connect 14 0 13 1 32.................I....D9+++eB....g++++KA....;
#X connect 15 0 16 0 48......................XA.........V....j7++++J....I++++uB...Px++++;
#X connect 15 0 6 1 48......................T5+++O.....k9+++u9+++eR++++q++++mz++++5++++;
#X connect 16 0 15 1 32.................I....D9+++eB....g++++KA....;
#X connect 17 0 18 0 48......................XA.........V....j7++++J....I++++uB...Px++++;
#X connect 17 0 6 1 48......................X4+++O.....V9+++27++++J++++M++++ux+++ey++++;
#X connect 18 0 17 1 32.................I....D9+++eB....g++++KA....;
#X connect 19 0 20 0 32.................N.........fC.........vA....;
#X connect 19 1 23 0 32.................h....D....fH....A....PD....;
#X connect 20 0 22 0 32.................K.........vB.........TA....;
#X connect 20 1 23 0 32.................K....T6++++B....09+++WA....;
#X connect 21 0 33 0 32.................F....nu+++uA....56+++KA....;
#X connect 21 0 39 0 48......................DA.........Q....nW+++eH....50+++GB...fd8+++;
#X connect 22 0 21 1 32.................F....j6+++uA....49+++KA....;
#X connect 23 0 21 1 32.................I....j2+++eB....48+++KA....;
#X connect 24 0 35 0 32.................D..........A.........b.....;
#X connect 27 0 26 0 32.................E.........PA.........j.....;
#X connect 28 0 19 0 32.................B.........f..........P.....;
#X connect 29 0 17 1 32.................3A...7++++Od....+++++CO....;
#X connect 29 0 15 1 32.................oA...D9+++eZ....g++++KM....;
#X connect 29 0 7 1 32.................d....j1+++uG....o8+++qE....;
#X connect 29 0 9 1 32.................n....b3+++OJ....G9+++iG....;
#X connect 29 0 13 1 32.................ZA...L7+++uV....C++++SK....;
#X connect 29 0 11 1 32.................x....T5+++uL....k9+++aI....;
#X connect 29 0 4 1 32.................J....rz+++uB....K8+++yC....;
#X connect 30 0 2 0 32.................W.........vE.........3B....;
#X connect 32 0 62 0 32.................R.........fD.........PB....;
#X connect 33 0 59 0 32.................J....nE...fB....ZA...zA....;
#X connect 33 0 65 0;
#X connect 34 0 32 0 32.................B.........f..........L.....;
#X connect 35 0 21 0 32.................3....nK....N....5B...bJ....;
#X connect 35 1 28 0 32.................G....rP...vA....KD...PA....;
#X connect 36 0 37 0 32.................D..........A.........b.....;
#X connect 37 0 40 0 32.................D..........A.........b.....;
#X connect 38 0 6 0 48.................r....bC....K....2....jE....o....YA...PJ...fBA...;
#X connect 38 0 37 0 32.................C....fl...v.....nI...X.....;
#X connect 38 1 2 0 32.................T....HL....E....BC...fB....;
#X connect 38 1 27 0 32.................p....T8+++uJ....U++++SE....;
#X connect 38 1 62 1 48.................UC...7M...P0....eC....T...vdA....E...rW...f+B...;
#X connect 38 2 39 0 48.......................T..........E...T8+++OfB...U++++Cn...P0++++;
#X connect 38 3 36 0 48......................zQ.........cD...z9+++eNB...s++++mi...P6++++;
#X connect 38 3 49 0 32.................JB........fh.........LQ....;
#X connect 39 0 37 0 32.................P....n7+++OD....J+++++A....;
#X connect 40 0 42 0 32.................E.........PA.........j.....;
#X connect 40 1 43 0 32.................R.........fD.........PB....;
#X connect 40 2 41 0 32.................f..........H.........7C....;
#X connect 40 3 45 0 32.................t.........fK.........rE....;
#X connect 40 4 46 0 32.................6....7+++++N....+++++aG....;
#X connect 40 5 44 0 32.................IA........PR.........DI....;
#X connect 40 6 47 0 32.................WA........vU.........zJ....;
#X connect 41 0 10 0 48.................B....j7+++u.....I++++O....vq9+++C....7p+++eB....;
#X connect 41 1 10 1 32.................C....3p++++.....t5+++m.....;
#X connect 42 0 5 0 32.................B....To+++u.....U5+++O.....;
#X connect 42 1 5 1 32.................A....Po+++e.....T5+++O.....;
#X connect 43 0 8 0 48.................A....b7+++e.....G++++K....vn9+++B....Lp+++uA....;
#X connect 43 1 8 1 32.................B....Hp+++u.....h5+++a.....;
#X connect 44 0 16 0 32.................I....bs+++eB....W6+++GA....;
#X connect 44 1 16 1 48......................77+++O.....O++++a....f09+++F....Xs+++eD....;
#X connect 45 0 12 0 32.................D....zq+++OA....85+++u.....;
#X connect 45 1 12 1 32.................F....vq+++uA....75+++u.....;
#X connect 46 0 14 0 32.................G....rr++++A....K6+++6.....;
#X connect 46 1 14 1 48......................z7+++O.....M++++W....fx9+++E....nr+++uC....;
#X connect 47 0 18 0 32.................J....Lt+++uB....i6+++OA....;
#X connect 47 1 18 1 32.................J....Ht+++uB....h6+++OA....;
#X connect 48 0 24 0 32.................O.....T...vC.....E...vB....;
#X connect 48 1 54 0 32.................U.........PE.........nB....;
#X connect 49 0 48 0 32.................H....TE....B....UA...7.....;
#X connect 50 0 51 0 32.................D..........A.........b.....;
#X connect 51 0 55 0 32.................X..........F.........7B....;
#X connect 51 1 52 0 48......................D9+++O.....g++++O1+++uv++++i8+++K7++++X++++;
#X connect 52 0 48 0 32.................B....b6+++u.....29+++W.....;
#X connect 53 0 40 0 64......................HL.........BC...rv++++PA...K7+++OT...vv8+++DG...Lb+++OwA...C2+++C;
#X connect 54 0 53 0 32.................iA........vX.........XL....;
#X connect 55 0 56 0 32.................W.........vE.........zB....;
#X connect 55 1 54 1 48......................D9+++O.....g++++a2+++ev++++18+++G7+++uc++++;
#X connect 56 0 6 0 48......................X9+++O.....l++++6r+++Oo++++N6+++S5+++uy9+++;
#X connect 56 1 2 0 48......................H9+++O.....h++++yd++++v++++r2+++O7+++O68+++;
#X connect 56 2 53 1 32.................G....36++++A....99+++6.....;
#X connect 58 0 57 0 32.................U....HE...PE....RA...jB....;
#X connect 59 0 58 0 32.................M.........PC.........jA....;
#X connect 60 0 40 0 32.................E....Xn+++eA....F5+++q.....;
#X connect 61 0 20 1 32.................I.........PB.........DA....;
#X connect 62 0 31 0 32.................Q.........PD.........DB....;
#X connect 63 0 62 2 32.................G....j0++++A....Y8+++2.....;
#X connect 63 0 66 0;
#X connect 64 0 63 0 32.................M.........PC.........jA....;
#X connect 65 0 34 0;
#X connect 65 1 64 0 32.................H....PL....B....DC....A....;
#X restore 276 1446 pd removeFromGrid;
#X obj 373 1377 list prepend;
#X obj 373 1350 u_list2symbol -;
#X obj 256 1334 f;
#X msg 702 346 7;
#X obj 700 372 until;
#X obj 700 433 t b f;
#X obj 700 398 counter 1 7;
#X obj 462 1300 f;
#X obj 462 1326 pack f s;
#X text 524 732 array of column entries (x);
#X msg 673 1218 delete \$2;
#X obj 986 474 pack \$0 f;
#X msg 986 511 \; pd-\$1-\$2 clear;
#X obj 89 296 t f f f;
#X obj -128 538 change -1;
#X obj -128 506 i;
#X obj -128 564 -;
#X obj -128 590 + 1;
#X obj -128 616 moses 1;
#X obj 58 820 gate 3 1;
#N canvas 0 22 450 300 resize 0;
#X obj 395 166 inlet;
#X obj 849 138 inlet newYsize;
#X obj 395 242 u_listmap;
#X obj 849 202 u_symbol2list -;
#X obj 620 192 u_symbol2list -;
#X obj 600 157 t a a;
#X obj 600 387 spigot;
#X obj 707 387 sel 0;
#X obj 838 421 list;
#X msg 849 228 symbol \$1;
#X msg 620 244 symbol \$1;
#X obj 620 268 u_symbol2float;
#X obj 849 254 u_symbol2float;
#X obj 395 218 u_symbol2list _;
#X obj 620 350 !=;
#X obj 838 449 u_list2symbol -;
#X obj 395 287 u_list2symbol _;
#X obj 395 354 outlet;
#X connect 0 0 13 0 32.................Q.........PD.........DB....;
#X connect 1 0 3 0 32.................W.........vE.........zB....;
#X connect 2 0 16 0 32.................M.........PC.........nA....;
#X connect 2 1 5 0 48......................DD.........AA...j4++++k....Y9+++eI...Pl++++;
#X connect 3 0 9 0 32.................D..........A.........b.....;
#X connect 3 0 8 1 32.................jA.........Y.........fL....;
#X connect 4 0 10 0 32.................Q.........PD.........DB....;
#X connect 5 0 6 0 32.................pA........fZ.........LM....;
#X connect 5 1 4 0 32.................H....j.....B....I.....A....;
#X connect 6 0 2 1 48......................f7+++O.....H++++20+++uZ++++c8+++q1+++eW++++;
#X connect 7 0 8 0 32.................E....LH...PA....CB...7.....;
#X connect 8 0 15 0 32.................E.........PA.........j.....;
#X connect 9 0 12 0 32.................D..........A.........b.....;
#X connect 10 0 11 0 32.................C.........v..........T.....;
#X connect 11 0 14 0 32.................f..........H.........7C....;
#X connect 12 0 14 1 32.................K....bx++++B....m7+++2D....;
#X connect 13 0 2 0 32.................C.........v..........T.....;
#X connect 14 0 7 0 32.................F....bE...fA....WA...HA....;
#X connect 14 0 6 1 32.................I....L....PB....C....HA....;
#X connect 15 0 2 1 64......................n0+++O.....Z8+++C1++++59+++f8+++ut++++G++++74++++w+++Oe9+++e7+++C;
#X connect 16 0 17 0 32.................X..........F..........C....;
#X restore 264 855 pd resize;
#X msg -145 1069 3;
#X msg -160 1092 \$1;
#X obj -248 1040 t a b a;
#X msg -112 1097 \$1;
#X obj 264 881 list prepend;
#X text 74 1192 same yval;
#X text 219 1180 check vor equal yval;
#X obj 128 325 sel 0;
#X obj 47 435 gate 2 1;
#X msg 50 402 1;
#X msg 82 395 2;
#X obj -128 474 spigot;
#X msg -103 371 0;
#X obj 157 1242 sel 0;
#X obj -228 965 t a b;
#X msg -180 972 1;
#X obj 276 1283 sel 1;
#X obj 428 652 t b a b;
#X msg 521 627 add2 \$1 \$2;
#X obj 58 886 outlet;
#N canvas 0 22 450 300 length 0;
#X obj 164 77 inlet;
#X obj 368 138 f \$0;
#X msg 246 170 \; pd-\$1-timeGrid clear \;, f 37;
#X obj 163 152 until;
#X obj 164 248 count 0 15;
#X msg 183 217 reset 0 \, max \$1;
#X obj 183 186 - 1;
#X obj 164 314 *;
#X obj 215 142 expr (432 - $f1 * 2)/$f1;
#X obj 164 346 +;
#X obj 226 314 * 2;
#X obj 164 274 t f f;
#X obj 164 380 + 1;
#X obj 163 113 t f f f b, f 12;
#X obj 370 261 s \$0-grid-x-size;
#X obj 376 95 s \$0-grid-length;
#X obj 602 155 outlet clear;
#X obj 164 406 pack f \$0 f f \$1;
#X msg 164 438 \; pd-\$2-timeGrid obj \$1 1 cnv 15 \$3 210 empty \$5-timeGrid_\$4 empty 20 12 0 14 #E1E1E1 #e1e1e1 0 \;, f 82;
#X connect 0 0 13 0 32.................I.........PB.........DA....;
#X connect 0 0 15 0 48......................bD.........GA.........0.........PM.........;
#X connect 1 0 2 0 32.................G....b3++++A....G9+++2.....;
#X connect 3 0 4 0 32.................m....D....vI....A....zD....;
#X connect 4 0 11 0 32.................D..........A.........b.....;
#X connect 5 0 4 0 32.................F....39+++uA....t++++y.....;
#X connect 6 0 5 0 32.................F.........fA.........v.....;
#X connect 7 0 9 0 32.................G.........vA.........z.....;
#X connect 8 0 7 1 32.................MA...j8+++eS....Y++++mI....;
#X connect 8 0 14 0 32.................l....rI...fI....aB...PF....;
#X connect 8 0 17 2 32.................6A...L+++++d....y++++WO....;
#X connect 9 0 12 0 32.................H..........B.........7.....;
#X connect 10 0 9 1 32.................G....37++++A....N++++2.....;
#X connect 11 0 7 0 32.................K.........vB.........TA....;
#X connect 11 1 10 0 32.................K....LC...vB....y....TA....;
#X connect 11 1 17 3 32.................4....zB...PN....s....DG....;
#X connect 12 0 17 0 32.................D..........A.........b.....;
#X connect 13 0 3 0 32.................J.........fB.........PA....;
#X connect 13 1 6 0 32.................a.........vF.........XC....;
#X connect 13 2 8 0 32.................E....v....PA....L....n.....;
#X connect 13 3 1 0 32.................B.....I...f.....PB...X.....;
#X connect 13 3 16 0 32.................L....nW....C....5E...bA....;
#X connect 17 0 18 0 32.................G.........vA.........z.....;
#X restore 700 104 pd length;
#X text 465 -7 type name to add Preset:;
#N canvas 0 22 450 300 presets 0;
#X obj 65 439 outlet dropdown;
#X msg 65 407 add \$1;
#X obj 65 100 inlet;
#X obj 245 120 inlet dataSymbol;
#X msg 727 135 set;
#X obj 302 624 u_symbol2list;
#X obj 804 111 inlet callPreset;
#X obj 804 137 t b a;
#X msg 826 413 symbol \$2;
#X obj 467 643 s \$0-length_r;
#X obj 302 818 outlet data;
#X obj 302 670 list split 2;
#X obj 395 672 list;
#X obj 334 698 route 0;
#X obj 302 790 pack f s;
#X obj 302 724 list split 1;
#X obj 302 763 u_symbol2float;
#X obj 407 402 list;
#X obj 346 428 route 0;
#X obj 930 344 route 0;
#X msg 958 377 symbol \$1;
#X obj 314 512 route dummy;
#X obj 314 458 list trim;
#X obj 579 110 inlet length;
#X obj 314 204 pack s s f;
#X obj 314 400 list split 3;
#X obj 314 555 unpack s f;
#X msg 314 230 add2 \$1 \$2 \$3;
#X obj 995 116 inlet overwrite;
#X obj 1145 79 inlet delete;
#X obj 1257 412 list;
#X obj 1196 438 route 0;
#X obj 1164 522 route dummy;
#X obj 1164 468 list trim;
#X obj 1164 410 list split 3;
#X obj 1145 145 t b b b b s b;
#X obj 1363 560 list;
#X obj 1161 593 list;
#X msg 133 410 set;
#X obj 1247 642 list;
#X obj 1186 668 route 0;
#X obj 1154 640 list split 3;
#X msg 262 321 1;
#X msg 1231 181 2;
#X obj 282 367 gate 2 1;
#X msg 229 321 0;
#X obj 119 157 t b s b;
#X obj 1105 667 route 0;
#X msg 1067 695 0;
#X obj 918 216 daw_storage \$1_\$0-seq;
#X obj 314 581 t s b;
#X obj 466 591 f;
#X obj 1235 563 list prepend;
#X obj 1059 483 t b;
#X obj 1059 509 spigot;
#X obj 1059 535 symbol;
#X msg 1085 484 1;
#X obj 1145 105 t s b;
#X msg 1108 480 0;
#X obj 995 142 t b s b s;
#X obj 1060 570 pack s s f;
#X obj 918 242 print DAWEDsequencer;
#X msg 314 256;
#X obj 918 267 t a b;
#X obj 918 294 list split 3;
#X obj 997 295 list;
#X obj 918 320 t b a;
#X connect 1 0 0 0 32.................G.........vA.........z.....;
#X connect 2 0 46 0 32.................S....XC...vD....1....XB....;
#X connect 2 0 1 0 32.................PB.........j..........R....;
#X connect 3 0 24 1 32.................V....nE...fE....ZA...DD....;
#X connect 3 0 60 1 48.................PB...jq....j....4J...7Q....QC...eD...Pz...vqA...;
#X connect 4 0 62 0 32.................h....Pl+++uH....j4+++aF....;
#X connect 5 0 11 0 32.................N.........fC.........rA....;
#X connect 6 0 7 0 32.................D..........A.........b.....;
#X connect 7 0 62 0 32.................q....bg++++J....W3+++SF....;
#X connect 7 1 8 0 32.................AB...n....Pf....J....DP....;
#X connect 8 0 21 1 32.................d....Dj+++uG....A4+++CE....;
#X connect 11 0 15 0 32.................R.........fD.........LB....;
#X connect 11 1 13 0 32.................E....r....PA....K....j.....;
#X connect 12 0 11 0 48......................H9+++O.....h++++y9+++Oo++++r++++S5+++O6++++;
#X connect 13 1 12 0 48......................DA.........Q....P8+++eH....T++++GB....0++++;
#X connect 14 0 10 0 32.................E.........PA.........j.....;
#X connect 15 0 16 0 32.................J.........fB.........PA....;
#X connect 15 1 14 1 32.................X....3.....F....N....7B....;
#X connect 16 0 14 0 32.................D..........A.........f.....;
#X connect 17 0 25 0 48......................H9+++O.....h++++y9+++Oo++++r++++S5+++O6++++;
#X connect 18 1 17 0 48......................DA.........Q....P8+++eH....T++++GB....0++++;
#X connect 19 1 20 0 32.................G.........vA.........3.....;
#X connect 19 1 27 0 48......................zt+++O.....s6+++y2+++ee8+++78+++2W+++Oe++++;
#X connect 20 0 1 0 32.................F....PH+++uA....Dx+++u.....;
#X connect 21 0 26 0 32.................L..........C.........fA....;
#X connect 22 0 21 0 32.................R.........fD.........LB....;
#X connect 23 0 24 2 32.................Y....Lx+++eF....i7+++uD....;
#X connect 23 0 60 2 48.................JA...Ta...fR....0F...LI....CB...SB...vf...PtA...;
#X connect 24 0 27 0 32.................D..........A.........b.....;
#X connect 25 0 22 0 32.................T..........E.........bB....;
#X connect 25 1 18 0 32.................E....r....PA....K....j.....;
#X connect 26 0 50 0 32.................D..........A.........b.....;
#X connect 26 1 51 1 32.................I....LG...PB....yA...DA....;
#X connect 27 0 62 0 32.................D..........A.........b.....;
#X connect 28 0 59 0 32.................D..........A.........b.....;
#X connect 29 0 57 0 32.................D..........A.........b.....;
#X connect 30 0 34 0 48......................H9+++O.....h++++y9+++Oo++++r++++S5+++O6++++;
#X connect 31 1 30 0 48......................DA.........Q....P8+++eH....T++++GB....0++++;
#X connect 32 0 53 0 48......................v7+++O.....L++++e7+++Ol++++G++++i4++++w++++;
#X connect 32 1 52 0 32.................K....b....vB....G....XA....;
#X connect 33 0 32 0 32.................R.........fD.........LB....;
#X connect 34 0 33 0 32.................T..........E.........bB....;
#X connect 34 1 31 0 32.................E....r....PA....K....j.....;
#X connect 35 0 62 0 32.................e....HL++++G....By+++yE....;
#X connect 35 0 42 0 32.................T....rH+++OE....Kx+++2I....;
#X connect 35 1 37 0 32.................WC........v0.........zZ....;
#X connect 35 2 38 0 48.................e....7F++++G....uw+++yE....66+++bA...v99++u8....;
#X connect 35 2 4 0 48......................7w+++O.....e7+++S9+++uO9+++j++++6i+++O4++++;
#X connect 35 3 62 0 32.................i....DI++++H....Qx+++yE....;
#X connect 35 4 32 1 32.................yB...DA...vr....Q....XV....;
#X connect 35 5 43 0 32.................I....D....PB....A....DA....;
#X connect 35 5 37 1 32.................WC...j7++++0....I++++2Z....;
#X connect 35 5 52 1 32.................HC...3C....x....9....7X....;
#X connect 36 0 52 1 48......................v8+++O.....b++++G++++Ot++++w++++i6+++e7++++;
#X connect 37 0 41 0 32.................N....n++++uC....5++++yA....;
#X connect 38 0 0 0 32.................E....z6+++eA....89+++q.....;
#X connect 39 0 41 0 48......................H9+++O.....h++++y9+++Oo++++r++++S5+++O6++++;
#X connect 40 0 48 0 32.................D....f3+++OA....H9+++i.....;
#X connect 40 1 39 0 48......................DA.........Q....P8+++eH....T++++GB....0++++;
#X connect 41 0 47 0 32.................D.....8+++OA....P++++i.....;
#X connect 41 1 40 0 32.................E....r....PA....K....j.....;
#X connect 41 2 48 0 32......................32+++O.....98+++SB....;
#X connect 42 0 44 0 32.................N....bA...fC....W....rA....;
#X connect 43 0 44 0 48......................bh+++O.....m3+++iC...fS7+++3....3D++++o....;
#X connect 44 0 25 0 32.................G.....B...vA....f....3.....;
#X connect 44 1 34 0 32.................L....H0....C....RM...fA....;
#X connect 45 0 44 0 32.................N....bC...fC....2....rA....;
#X connect 46 0 42 0 32.................1....vH...fM....LB...DI....;
#X connect 46 0 62 0 32.................a....LL...vF....CC....E....;
#X connect 46 1 24 0 32.................N....TK...fC....0B...vA....;
#X connect 46 2 45 0 32.................IA...7D...PR....OA...DI....;
#X connect 47 0 48 0 32.................E....j8+++eA....Y++++m.....;
#X connect 47 1 27 0 48.......................u+++O.....v6+++mi+++uy7+++43+++6L+++eN9+++;
#X connect 47 1 1 0 64......................zo+++O.....c5+++iw++++g7+++X7+++eH+++u59+++Uu+++qt+++e06+++p6+++C;
#X connect 48 0 49 0 48.................H7+++i9+++OB++++n+++++f+++ua++++O3+++61++++C9+++;
#X connect 49 0 61 0 32.................D..........A.........b.....;
#X connect 49 0 63 0 32.................P..........D..........B....;
#X connect 50 0 5 0 32.................L....T++++OC....0++++iA....;
#X connect 50 1 51 0 48......................7B.........u....f++++Oi....3++++yH....9++++;
#X connect 51 0 9 0 32.................Q....D....PD....A....DB....;
#X connect 52 0 37 1 32.................F....H7+++uA....B++++u.....;
#X connect 52 0 36 0 48.......................D..........A...r9+++Of....q++++CH...v5++++;
#X connect 53 0 54 0 32.................D..........A.........b.....;
#X connect 54 0 55 0 32.................D..........A.........b.....;
#X connect 55 0 60 0 32.................H....D.....B....A.....A....;
#X connect 55 0 60 1 32.................H....XA....B....V.....A....;
#X connect 56 0 54 1 32.................C.........v..........X.....;
#X connect 57 0 35 0 32.................K.........vB.........TA....;
#X connect 57 1 58 0 32.................xB...37+++ur....N++++SV....;
#X connect 58 0 54 1 32.................E....j9+++eA....o++++q.....;
#X connect 59 1 35 0 48......................PD.........DA...D+++++g....w++++eH...P7++++;
#X connect 59 2 45 0 32.................T....HN+++OE....hy+++CJ....;
#X connect 59 3 56 0 32.................hB...fB...fn....n....LT....;
#X connect 59 3 55 1 32.................6B...3B...vt....t....XW....;
#X connect 60 0 52 0 48......................fE.........XA...b9++++q....m+++++J...v4++++;
#X connect 62 0 49 0 48......................3R.........tD...X7+++OWB...F++++yk...fw++++;
#X connect 62 0 44 1 32.................t.........fK.........vE....;
#X connect 63 0 64 0 32.................D..........A.........f.....;
#X connect 63 1 4 0 64......................n5+++O.....p9+++W4++++T++++U9+++O0+++uZ++++17+++q1+++uM++++p8+++C;
#X connect 64 0 66 0 32.................D..........A.........b.....;
#X connect 64 1 65 1 48......................LB.........i....79+++eQ....u++++WD...v6++++;
#X connect 65 0 64 0 48......................j8+++O.....Y++++29+++ur++++s++++K6+++e6++++;
#X connect 66 0 65 0 48......................fB.........n....T8++++S....U+++++D...P0++++;
#X connect 66 1 19 0 32.................C.........v..........T.....;
#X restore 693 232 pd presets;
#X f 34;
#X obj 668 713 u_list2symbol;
#X msg 497 668 set;
#X msg 791 -57 set;
#X obj 720 44 t b s b;
#X msg 704 -22 set;
#X obj 1054 1571 list split 1;
#X obj 1055 1679 u_symbol2float;
#X obj 1073 1651 u_symbol2float;
#X obj 918 1628 f;
#X obj 918 1654 pipe;
#X msg 518 850 length \$1;
#X msg 466 815 callPreset \$2;
#X msg 693 815 writePreset \$1;
#X obj 693 195 changed;
#X obj 1082 201 t s b;
#X obj 1082 176 symbol;
#X msg 1118 86 symbol \$2;
#X obj 1182 175 symbol;
#X msg 1218 85 symbol \$2;
#X obj 1183 207 t b s;
#X msg 1031 817 deletePreset \$1;
#X msg 852 817 overwritePreset \$1;
#X obj 1082 147 spigot;
#X msg 1264 117 1;
#X obj 1182 142 spigot;
#X obj 1317 91 t b;
#X obj 1395 25 namecanvas \$0-Sequencer;
#X listbox 466 14 18 0 0 0 - - - 16;
#X obj 1283 155 t s;
#X obj 467 -110 route bang;
#X obj 1186 -212 sel 0;
#X msg 1186 -186 -1;
#X obj 1186 -100 pack f \$0;
#X obj 1186 -160 * 43;
#X msg 1204 116 0;
#X msg 1186 -74 \; \$2-overwrite pos 466 \$1 \; \$2-delete pos 623 \$1;
#X obj 904 159 pipe2 10;
#X obj 1040 1434 u_symbol2list _;
#X obj 1040 1460 u_listdrip;
#X obj 1041 1488 u_symbol2list -;
#X obj 916 1406 t a a;
#X obj 917 1506 f;
#X msg 927 1455 \$1;
#X obj 1041 1514 t b a;
#X obj 1016 1399 list split 1;
#X obj 989 -238 daw_storage \$0-selectedPreset;
#X msg 989 -270 \$1;
#X msg 989 -212 \$1;
#X obj 989 -182 pipe 20;
#X msg 1318 -154 \; Preset_r label Preset;
#X msg 881 -60 -1;
#X obj 881 -30 pipe 30;
#X obj 1405 70 declare -path scaleProvider;
#N canvas 0 22 450 300 set 0;
#X obj 331 58 inlet;
#X obj 331 84 t a a;
#X obj 418 109 list length;
#X obj 282 178 spigot;
#X obj 282 284 outlet add;
#X obj 412 188 spigot;
#X obj 441 267 outlet resize;
#X obj 310 147 == 3;
#X obj 440 157 == 4;
#X obj 647 271 outlet velocity;
#X obj 531 233 list split 3;
#X obj 412 214 t a a;
#X obj 284 214 t a a;
#X obj 307 242 list split 2;
#X connect 0 0 1 0 32.................D..........A.........b.....;
#X connect 1 0 3 0 32.................l.....8+++uI....P++++uD....;
#X connect 1 0 5 0 32.................q....DE...vJ....QA...TE....;
#X connect 1 1 2 0 32.................C....vD...v.....LA...X.....;
#X connect 2 0 7 0 32.................J....T4+++uB....U9+++OA....;
#X connect 2 0 8 0 32.................O....XA...vC....V....zA....;
#X connect 3 0 12 0 32.................I....H....PB....B....DA....;
#X connect 5 0 11 0 32.................D..........A.........b.....;
#X connect 7 0 3 1 32.................F....v++++uA....7++++y.....;
#X connect 8 0 5 1 32.................F....v++++uA....7++++y.....;
#X connect 10 1 9 0 32.................J....7E...fB....eA...LA....;
#X connect 11 0 6 0 32.................Q....zA...PD....c....HB....;
#X connect 11 1 10 0 32......................vF.........rA.........;
#X connect 12 0 4 0 32.................Z....7++++uF....+++++OC....;
#X connect 12 1 13 0 32.................E....v....PA....L....j.....;
#X connect 13 1 9 0 32.................E....7S...PA....+D...n.....;
#X restore 20 625 pd set;
#X obj -220 743 f;
#X obj 623 89 t b b;
#X msg -205 699 \$3;
#X obj -220 662 t b a;
#X obj 989 23 vanillaMenu \$0-Sequencer Preset 491 43 132 22;
#X msg 1438 276 \; Preset_r label Preset:\$1;
#X obj 1438 247 pipe2 10;
#X obj -19 -172 declare -path list-abs;
#X obj -8 -144 declare -path rjlib/rj;
#X obj 2 -114 declare -path rc/rc;
#X obj 12 -84 declare -path abs;
#X msg 623 283 symbol;
#X obj 981 -50 symbol;
#X obj -38 551 route float set clear call write overwrite delete length;
#X obj 518 -83 sChange;
#X obj -258 458 / 1.67;
#X obj -258 484 i;
#X obj -258 536 change;
#X obj -258 510 clip 1 127;
#N canvas 0 22 450 300 velColor 0;
#X obj 476 218 inlet;
#X obj 422 434 makefilename %02x;
#X obj 423 330 expr 147 - $f1;
#X obj 476 244 t f f;
#X obj 715 385 outlet velocity;
#X msg 422 512 symbol #\$1\$1\$1;
#X obj 422 538 outlet color;
#X obj 767 266 inlet setColor;
#X connect 0 0 3 0;
#X connect 1 0 5 0;
#X connect 2 0 1 0;
#X connect 3 0 2 0 32.................h....v7+++uH....L++++OD....;
#X connect 3 1 4 0 32.................o....PN...PJ....jC...nG....;
#X connect 5 0 6 0;
#X connect 7 0 2 0 32.................O....jp++++C....o5+++2B....;
#X restore -258 607 pd velColor;
#X obj -258 562 t b f;
#X obj -126 969 f;
#X obj -126 725 spigot;
#X msg -100 694 0;
#X obj 136 423 t b f;
#X msg -76 696 1;
#X obj 136 679 pack f f f;
#X msg 8 966 \$1 \$2-1-\$3;
#X msg -131 1126 \$2-\$3-\$4;
#X msg -49 1377 \$2 \$1-1-\$3;
#X msg -132 1486 \$2 \$1-\$3-\$4;
#X obj 1073 1600 list split 1;
#X obj 1092 1625 u_symbol2float;
#X obj 916 1532 pack f f f f;
#X msg 916 1558 \$2 \$1-\$3-\$4;
#X msg 478 1192 symbol \$2-\$3;
#X msg 127 1370 \$2 1-\$3;
#X msg 190 1345 \$1 1-\$3;
#X obj -258 414 spigot 1;
#X msg 668 686;
#X obj 704 12 del;
#X connect 0 0 159 0 80.......................K.........vB...fA....BA...X....fP...vK....fE...7B....XA...GA...fl...vQ....nI...TJ....;
#X connect 1 0 192 0 32.................1.........fM.........rF....;
#X connect 15 0 16 0 32.................X..........F.........7B....;
#X connect 16 0 19 1 32.................S....bB...vD....m....TB....;
#X connect 16 0 17 0 32.................h.........fH.........PD....;
#X connect 16 1 106 0 32.................D....LB....A....i....f.....;
#X connect 17 0 20 0 48......................nC.........5....z+++++b....8++++OG...P+++++;
#X connect 19 0 17 0 32.................F....T9+++uA....k++++y.....;
#X connect 20 0 25 0 32.................D..........A.........b.....;
#X connect 20 1 23 0 32.................u....jH...vK....IB...zF....;
#X connect 20 1 229 0 32.................L....jk+++OC....Y4+++iA....;
#X connect 21 0 22 0 32.................D..........A.........b.....;
#X connect 22 0 24 0 32.................H..........B.........7.....;
#X connect 23 0 21 0 32.................D..........A.........b.....;
#X connect 24 0 217 1 32.................Y....j1+++eF....o8+++uD....;
#X connect 25 0 215 0;
#X connect 26 0 25 1 32.................AA...Pv+++eP....D7+++6J....;
#X connect 26 0 147 0 32.................5D........fNA........Lm....;
#X connect 26 0 134 0 64......................zC.........8....34+++Ol....d9+++iI...fh++++1B...n3+++us....J9+++C;
#X connect 26 0 136 2 48......................LH.........CB...L....PAA...C....TP...PB....;
#X connect 27 0 217 0 32.................GA...f9++++Q....n++++2H....;
#X connect 28 0 27 0 32.................M....jA...PC....Y....nA....;
#X connect 28 0 109 1 32.................j....Pv+++OI....D7+++eD....;
#X connect 29 0 27 0 32.................M....n9+++eC....p++++mA....;
#X connect 29 0 107 0 32.................O....jr++++C....I6+++yB....;
#X connect 29 0 22 0 48.................J....vC...fB....7....jA...vc....Y....bG...PN....;
#X connect 30 0 112 1 32.................Q....Tw+++eD....U7+++KC....;
#X connect 30 1 132 0 48......................vC.........7....H2+++Od....x8+++iG...fb++++;
#X connect 32 0 33 1 32.................jA...j++++OY....4++++eL....;
#X connect 32 1 77 0 32.................D....H++++OA....x++++e.....;
#X connect 32 2 34 0 48.................F....P3+++uA....D9+++aC...vZ++++1....r1+++un....;
#X connect 33 0 220 0 32.................UC........P0.........jZ....;
#X connect 33 0 218 0 32.................G....jC...vA....4....3.....;
#X connect 33 0 128 0 32.................G....3z++++A....N8+++2.....;
#X connect 33 1 48 0 48......................zB.........s....T9+++uV....k++++qE...P4++++;
#X connect 34 0 33 0 32.................I....D9+++eB....g++++KA....;
#X connect 35 0 36 0 32.................D..........A.........b.....;
#X connect 36 0 49 0 32.................D..........A.........b.....;
#X connect 38 0 33 0 32.................J.........fB.........LA....;
#X connect 39 0 44 0 32.................C.........v..........T.....;
#X connect 40 0 55 1 32.................ZB...32+++ul....98+++2b....;
#X connect 40 0 100 1 48.................BA...36+++uP....99+++OF...vS++++iA...7z+++OBA...;
#X connect 40 0 85 1 32.................LA....D....S.....A...bI....;
#X connect 41 0 127 0 32.................C.........v..........X.....;
#X connect 42 0 43 0 32.................M.........PC.........jA....;
#X connect 43 0 41 0 32.................M.........PC.........jA....;
#X connect 44 0 64 0 32.................D..........A.........b.....;
#X connect 48 0 53 0 32.................JD....A...fBA...P....Pg....;
#X connect 48 1 57 0 48......................X5+++O.....l9+++2H...va++++MB...71+++OdA...;
#X connect 48 2 39 0 32.................H....Lv+++OB....C7+++iA....;
#X connect 48 3 54 0 32.................k....r....PI....K....nD....;
#X connect 48 3 40 0 32.................k....r9+++eI....q++++qD....;
#X connect 48 4 51 1 32.................gB...L5+++en....i9+++yZ....;
#X connect 48 4 58 0 32......................3R+++O.....tz+++6T....;
#X connect 48 4 50 1 48.................q....zu++++J....86+++WE....19+++UA...fs+++OUA...;
#X connect 48 4 53 1 32......................rO+++O.....6y+++Sg....;
#X connect 49 0 42 0 32.................D....L7+++OA....C++++e.....;
#X connect 49 1 226 0 32.................i....fO...vH....3C...XD....;
#X connect 49 1 50 1 48.................a....PG...vF....zA...XC...vVA...1....rU...Pn....;
#X connect 50 0 56 0 32.................H....rL....B....KC....A....;
#X connect 51 0 60 0 32.................H....Xy+++OB....17+++CA....;
#X connect 51 0 52 0 48......................vG.........7A...z7++++8....M++++eO...Py++++;
#X connect 52 0 51 1 32.................E....Tw+++eA....U7+++6.....;
#X connect 53 0 55 0 32.................B....fW...f.....3E...L.....;
#X connect 54 0 95 1 48......................n3+++O.....J9+++CH....X9+++.B....l+++uJA...;
#X connect 54 0 93 1 64......................D5+++O.....g9+++uB...Pf++++q....D3+++Of....A7+++CH...P.++++UE....;
#X connect 54 0 41 1 32......................ze+++O.....82+++WK....;
#X connect 55 0 30 1 48......................D9+++O.....g++++SP+++ev++++Dz+++G7+++OA8+++;
#X connect 56 0 51 0 32.................Q.........PD.........HB....;
#X connect 57 0 227 0 32.................F.........fA.........v.....;
#X connect 57 0 228 0 32.................D....7C....A....+....b.....;
#X connect 57 0 87 0 48......................v2+++O.....78+++mp+++um9+++o5+++6o+++es9+++;
#X connect 58 0 57 1 32.................L..........C.........bA....;
#X connect 59 0 57 1 32.................L....v9+++OC....r++++iA....;
#X connect 60 0 53 1 32.................Y....7h+++eF....u3+++KC....;
#X connect 61 0 63 1 32.................O.........vC.........zA....;
#X connect 62 0 85 0 32.................N....PD...fC....DA...rA....;
#X connect 62 0 100 0 32.................u....H2++++K....x8+++yH....;
#X connect 62 0 95 0 32.................KA...Pp++++R....j5+++6J....;
#X connect 63 0 62 0 32.................G.........vA.........z.....;
#X connect 64 0 35 0 32.................H..........B.........7.....;
#X connect 64 1 61 0 32.................M....HX...PC....BF...jA....;
#X connect 69 0 204 0 32.................D..........A.........f.....;
#X connect 70 0 30 0 48.................O....PP...vC....DD...vB....aA...r....vV...fY....;
#X connect 70 1 71 0 32.................L..........C.........bA....;
#X connect 71 0 112 0 32.................AA...TE...PP....UA...DH....;
#X connect 73 0 30 0 48......................3E.........dA...z8+++eFA...c++++mQ...P2++++;
#X connect 73 1 74 0 32.................D....H.....A....B....f.....;
#X connect 74 0 112 0 32.................C.........v..........X.....;
#X connect 75 0 131 0 32.................D..........A.........b.....;
#X connect 76 0 30 0 32.................h....r9+++uH....q++++SD....;
#X connect 77 0 73 0 32.................D....7++++OA....+++++i.....;
#X connect 85 0 103 0 32.................F.........fA.........v.....;
#X connect 86 0 92 3 48.................sD...3z+++eKA...N8+++Ob...v39+++CG...Lt+++urD...;
#X connect 86 0 96 0 32.................o....zD...PJ....MA...nG....;
#X connect 86 0 76 0 32.................SB...3t++++j....t6+++ia....;
#X connect 86 0 202 0 32.................d.........fG.........rC....;
#X connect 87 0 116 0 32.................H..........B.........7.....;
#X connect 92 0 87 0 48.................H....Pz+++OB....D8+++qi+++eB9+++53+++mf+++uM9+++;
#X connect 92 1 87 1 64......................3x+++O.....t7+++q7+++O59+++J++++it++++K9+++D2++++h+++Ow8+++13+++C;
#X connect 92 2 210 1 48.................Q1+++iu+++ej8+++36+++eJ+++ut8+++mx+++qa++++o7+++;
#X connect 93 0 92 1 32.................J....P6+++uB....z9+++KC....;
#X connect 94 0 93 0 32.................D..........A.........f.....;
#X connect 95 0 92 0 32.................k....PA...PI....T....jD....;
#X connect 96 0 97 0 32.................D..........A.........b.....;
#X connect 97 0 99 0 32.................D..........A.........b.....;
#X connect 98 0 104 0 32.................K....3Q...vB....dD...XA....;
#X connect 98 1 104 1 32.................K....zS...vB....8D...XA....;
#X connect 99 0 98 0 32.................H..........B..........A....;
#X connect 100 0 101 0 32.................D..........A.........b.....;
#X connect 101 0 92 4 32.................a....j4++++F....Y9+++GE....;
#X connect 103 0 30 0 64......................b1+++O.....m8+++2q+++OP++++85+++Cz++++F9+++l5+++ug+++uo9+++a3+++C;
#X connect 104 0 105 0 32.................I.........PB.........HA....;
#X connect 106 0 17 1 32.................U....P8+++eE....T++++mB....;
#X connect 106 1 29 0 32.................EA...DE...PQ....QA....J....;
#X connect 106 2 121 0 32.................E....n....PA....J....n.....;
#X connect 106 2 229 1 48......................33+++O.....N9+++GB....p9+++g....fp++++X....;
#X connect 107 0 109 0 32.................D..........A.........b.....;
#X connect 108 0 107 0 32.................G.........vA.........z.....;
#X connect 109 0 110 0 32.................D..........A.........b.....;
#X connect 110 0 111 0 32.................D..........A.........b.....;
#X connect 111 1 212 0 32.................mB...L9++++o....i++++6T....;
#X connect 112 0 133 0 32.................X..........F.........7B....;
#X connect 112 1 39 1 32.................q....3J...vJ....tB....H....;
#X connect 112 1 38 0 32.................S....X3++++D....F9+++iC....;
#X connect 112 2 113 0 32.................H....3J....B....tB....A....;
#X connect 113 0 118 0 32.................D..........A.........b.....;
#X connect 114 0 112 0 48......................zD.........MA...Tu+++ey....06+++2L...P89+++;
#X connect 115 0 30 0 64......................DE.........QA...Dw+++un....Q7+++KJ...Pl9+++lG...jo+++u4A...Y5+++C;
#X connect 116 0 115 0 32.................Q....PD...PD....DA...DB....;
#X connect 116 1 114 0 32.................E....bE...PA....WA...n.....;
#X connect 116 2 117 0 48......................jD.........IA...z....vU....M....bE...fI....;
#X connect 116 2 219 0 32.................h....PD...fH....DA...LD....;
#X connect 116 2 221 0 32.................VC...LD...f0....CA...rZ....;
#X connect 117 0 118 1 48......................fM.........XC...Xw++++qA...V7++++Z...fE++++;
#X connect 118 0 30 1 48.................K++++OC...vx++++y....v1+++eh....r8+++mH....a++++;
#X connect 121 0 19 0 48......................j8+++O.....Y++++69+++ur++++t++++K6+++u6++++;
#X connect 121 1 123 0 32.................c....D5+++eG....g9+++qC....;
#X connect 121 1 214 0 32.................VB...vv+++uk....L7+++6U....;
#X connect 122 0 124 0 48......................DA.........Q....X7+++eH....F++++GB...fw++++;
#X connect 122 0 28 0 32.................G....jE...vA....YA...PA....;
#X connect 122 1 125 0 32.................G....Hy++++A....x7+++SA....;
#X connect 123 0 122 0 32.................G.........vA.........3.....;
#X connect 124 0 122 0 32.................K.....9++++B....f++++WA....;
#X connect 124 0 125 1 48......................L7+++O.....C++++SA....R++++T....fz+++OO....;
#X connect 125 0 108 0 32.................G.........vA.........z.....;
#X connect 126 0 125 1 32.................p.........fJ.........PE....;
#X connect 126 0 229 1 32.................H....b3+++OB....G9+++iA....;
#X connect 127 0 50 0 32.................K....jY...vB....YF...XA....;
#X connect 127 1 130 0 32.................K....fF...vB....nA...XA....;
#X connect 128 0 87 0 32.................K.........vB.........XA....;
#X connect 128 1 129 0 48......................DA.........Q....T++++eH....0++++GB...P8++++;
#X connect 129 0 87 1 32.................H..........B.........7.....;
#X connect 130 0 63 0 48.................28+++2H...vc++++MB....z+++eRA....8+++mT....P++++;
#X connect 130 0 59 0 48......................38+++O.....d++++e9+++Ol++++m++++i4++++4++++;
#X connect 130 0 100 0 48......................3C.........9....7++++ut....+++++qK...v+++++;
#X connect 130 0 95 0 32.................P....z9+++OD....s++++CB....;
#X connect 130 0 126 0 64.................G0+++Kz++++Q8+++B8+++KM++++39+++Ry+++Ot+++uW7+++D5+++6E+++Og9+++dw+++C;
#X connect 131 0 230 0 48......................fG.........3A...T.....7....E.....O...vC....;
#X connect 131 1 30 0 32.................a....z3++++F....M9+++CE....;
#X connect 131 2 138 0 48......................PA.........T....3++++OJ....9++++iB...f+++++;
#X connect 132 0 230 0 32.................T....LI....E....SB...fB....;
#X connect 134 0 86 0 32.................l....P6+++uI....z9+++yD....;
#X connect 136 0 173 0 48......................7D.........OA...T5++++z....k9+++OM...Po++++;
#X connect 136 1 30 1 48.................+....Lv++++O....C7+++yK...PA9+++7B...Tf+++O8A...;
#X connect 136 1 177 0 32.................BI...b....fPB...G....LHA...;
#X connect 137 0 136 1 48......................HB.........h....zf+++OQ....M3+++SD...PC9+++;
#X connect 138 0 230 0 48......................jC.........4.........vp.........rJ.........;
#X connect 139 0 195 0 32.................e....XL...vG....FC...zC....;
#X connect 140 0 160 0 32.................a....zg...vF....cH...XC....;
#X connect 140 0 187 0 64......................TD.........EA...j5+++ub....o9+++KG...fg++++fB...X3+++On....F9+++C;
#X connect 140 0 231 0;
#X connect 140 1 150 0 32.................BA...f8+++uP....X++++SH....;
#X connect 140 1 154 1 32.................N....zc...fC....cG....G....;
#X connect 140 1 152 1 48.................S....7C...vD....+....XB...PdA...l....jW...Pb....;
#X connect 140 2 75 0 48.................dA...X4+++uW....V9+++yK....v9+++7B....r++++LB...;
#X connect 141 0 164 0 32.................I....Lw+++eB....S7+++GA....;
#X connect 142 0 143 0 32.................Y....D....PF....A....DC....;
#X connect 142 1 222 0;
#X connect 143 0 145 1 48......................D8+++O.....Q++++u6+++ej++++69+++G4++++t++++;
#X connect 143 0 224 1 48......................j8+++O.....Y++++u0++++k++++a8+++e4++++V++++;
#X connect 144 0 224 2 64......................38+++O.....d++++y9+++ey++++r++++27+++uf++++Y9+++K3+++el++++B9+++C;
#X connect 145 0 146 0 32.................D..........A.........b.....;
#X connect 146 0 92 0 64......................rx+++O.....q7+++Oy+++eU9+++y7+++Wk+++uB+++++0+++qv++++e8+++J7+++C;
#X connect 147 0 133 0 32.................I....Ti+++eB....03+++GA....;
#X connect 148 0 133 0 32.................Z....jl+++uF....o4+++SC....;
#X connect 149 0 133 0 32.................Z....XX+++uF....F1+++SC....;
#X connect 150 0 149 0 32.................sD........PKA........jk....;
#X connect 150 0 136 0 32.................I.........PB.........HA....;
#X connect 151 0 158 0 32.................GC...rw++++w....a7+++Wk....;
#X connect 151 0 136 4 32.................F....fx+++uA....n7+++y.....;
#X connect 151 0 197 0 48......................HK.........xB...j.....YA...I....PV...vF....;
#X connect 151 1 75 0 32.................XB...bV+++Ol....m0+++aY....;
#X connect 152 0 151 0 32.................C.........v..........X.....;
#X connect 153 0 152 1 32.................j....n++++OI....5++++eD....;
#X connect 154 0 156 0 32.................G....D....vA....A....z.....;
#X connect 155 0 154 1 32.................j....n++++OI....5++++eD....;
#X connect 156 0 86 0 48......................Xz+++O.....F8+++y++++ez8+++7++++Gc+++u4++++;
#X connect 156 1 157 0 32.................EC...z0+++ew....c8++++j....;
#X connect 156 1 136 5 32.................C....Lt++++.....i6+++a.....;
#X connect 157 0 133 0 32.................Y....PC+++eF....zv+++KC....;
#X connect 158 0 133 0 32.................Q....bN+++eD....my+++KC....;
#X connect 159 0 152 0 32.................E.........PA.........n.....;
#X connect 160 0 167 0 64.................Y7+++S++++eF++++z+++++s+++O5++++e6+++i9+++eo9+++19+++Wp+++us++++k5+++C;
#X connect 160 0 161 1 32.................C....j7++++.....I++++a.....;
#X connect 160 0 159 1 32.................F....T1+++uA....k8+++u.....;
#X connect 161 0 154 0 32.................G.........vA.........3.....;
#X connect 162 0 160 0 32.................D....j7+++OA....I++++e.....;
#X connect 164 0 166 0 48......................D..........A....b4+++e.....W9+++G....vk++++;
#X connect 165 0 154 1 32......................j6+++O.....49+++G.....;
#X connect 165 0 152 1 32.................A....T0+++e.....U8+++K.....;
#X connect 166 1 205 0;
#X connect 167 0 168 0 32.................D..........A.........b.....;
#X connect 167 0 186 0 32.................M....PH...PC....DB...bB....;
#X connect 167 1 170 0 32.................Q....H++++eD....x++++GB....;
#X connect 168 0 170 0 32.................D....D.....A....A....b.....;
#X connect 169 0 172 0 32.................D..........A.........b.....;
#X connect 170 0 169 0 32.................U.........PE.........jB....;
#X connect 171 0 161 1 32.................D....L.....A....C....b.....;
#X connect 171 0 159 1 32.................F.....5+++uA....f9+++y.....;
#X connect 171 0 167 0 48......................j++++O.....4++++ap+++e7++++l5+++G++++uo9+++;
#X connect 173 0 195 0 48......................rB.........q....X1+++eU....l8+++WE...fY++++;
#X connect 174 0 175 0 32.................D..........A.........b.....;
#X connect 175 0 176 0 32.................E....D....PA....A....j.....;
#X connect 176 0 180 0 32.................D..........A.........b.....;
#X connect 177 0 181 0 48......................HC.........x....b9+++OY....m++++SF...v4++++;
#X connect 177 1 179 0 32.................O.........vC.........3A....;
#X connect 178 0 224 0 32.................D..........A.........b.....;
#X connect 179 0 178 1 32.................P....D.....D....A.....B....;
#X connect 180 0 178 0 48......................L7+++O.....C++++a9+++eg++++l++++W3+++u4++++;
#X connect 180 0 145 0 32.................LA...X3+++OS....F9++++E....;
#X connect 180 1 142 0 32.................m....P+++++I....z++++6D....;
#X connect 181 1 174 0 32.................H....T.....B....E.....A....;
#X connect 182 0 184 0 32.................D..........A.........b.....;
#X connect 183 0 182 0 32.................G.........vA.........z.....;
#X connect 184 0 185 0 32.................F.........fA.........r.....;
#X connect 185 0 195 0 32.................cA........PW.........nK....;
#X connect 187 0 188 0 32.................F....D....fA....A....r.....;
#X connect 188 0 195 0 32.................Q....vF...PD....rA...HB....;
#X connect 190 0 32 0 32.................j....P9+++OI....j++++eD....;
#X connect 190 1 194 0 48......................z2+++O.....88+++a....v.++++F....Lv+++uD....;
#X connect 190 2 210 0 48.................j++++e1+++O4++++m8+++y8+++uy9+++b++++6r+++O2++++;
#X connect 191 0 212 0 32.................EA....F...PQ....fA...7L....;
#X connect 192 0 171 0 32.................D....Lj....A....CI...f.....;
#X connect 192 1 161 0 32.................Q....Hh...PD....hH...HB....;
#X connect 192 1 205 1 48......................HA.........R....Hz+++ur++++B8+++K6+++uP++++;
#X connect 193 0 191 1 32.................M....z++++eC....8++++mA....;
#X connect 194 0 191 0 32.................e.........vG.........3C....;
#X connect 194 1 193 0 32.................I....L....PB....C....HA....;
#X connect 194 1 87 4 32.................5A...TG...fd....0A...TT....;
#X connect 195 0 183 0 48......................................jr+++O.....I6+++C....Px9+++;
#X connect 195 0 153 0 32.................O....DH...vC....AB...vB....;
#X connect 195 0 155 0 32.................V....TN...fE....kC...rB....;
#X connect 195 0 148 0 32.................hD...Xe+++uHA...12+++Wv....;
#X connect 195 0 136 3 32.................GA...n0++++Q....Z8+++6K....;
#X connect 195 0 162 0 32.................Y....fT...PF....HE...DC....;
#X connect 197 0 196 0 32.................E.........PA.........n.....;
#X connect 202 0 136 1 48......................jC.........4....r6+++eb....69+++GG...vt++++;
#X connect 203 0 195 0 32.................a....f....vF....H....XC....;
#X connect 204 0 70 0 32.................d.........fG.........vC....;
#X connect 204 1 190 0 32.................b....XA....G....V....bC....;
#X connect 204 2 86 0 48......................zM.........cC...vq+++eSB...75+++2j...fi9+++;
#X connect 204 3 203 0 80.......................S.........vD...rr+++OxA...K6+++ib....Y9+++eI...Pl++++WB...U1++++3...Pk8+++ON...TY+++O;
#X connect 204 4 166 0 32.................A1+++iV...Pf8+++nE...DX+++O;
#X connect 204 5 152 0 48.......................V.........fE...bm++++pC...24+++u5...vc9+++;
#X connect 204 6 154 0 80......................fW.........3E...js+++u8A...Y6+++ae...vo9+++tM...bp+++uaC...14+++u9...fc9+++qO...Xm+++O;
#X connect 204 7 26 0 80......................rB.........q....b4+++Of....W9+++CH...vv9++++C...Lr+++++....N5+++qR...fi9+++pD...3n+++O;
#X connect 204 8 217 0 32.................u....f3++++K....H9+++2F....;
#X connect 205 0 165 0 32.................F....zu...fA....8K...rM....;
#X connect 205 0 140 0 48.................N....3G...fC....9A...jB...fx....o....nL....a....;
#X connect 206 0 207 0;
#X connect 207 0 209 0;
#X connect 208 0 211 0;
#X connect 209 0 208 0;
#X connect 210 0 87 2 32.................LB...HF....i....hA...PZ....;
#X connect 210 1 217 2 32.................a....rW...vF....6E...TC....;
#X connect 210 1 87 5 48.................+....LA...vO....S....7G...Pb....+A...DG....eA...;
#X connect 211 0 213 0 48......................fE.........XA....C....g....v....PH....j....;
#X connect 211 1 210 0 32.................M....X++++eC....1++++qA....;
#X connect 212 0 87 3;
#X connect 213 0 212 0;
#X connect 214 0 213 1;
#X connect 215 0 216 0 48......................z8+++O.....c++++qB...fJ++++p....nx+++u+....;
#X connect 215 1 122 1 48......................78+++O.....e++++q++++eu++++5++++26+++u9++++;
#X connect 216 0 213 1;
#X connect 217 0 32 0 32.................I.....2+++eB....v8+++GA....;
#X connect 218 0 30 1 32.................W7+++mX...vE++++IF...bw+++O;
#X connect 219 0 113 1 48......................DI.........QB...7s++++rA...e6+++Oa...v29+++;
#X connect 220 0 92 1 32.................J....jU...fB....YE...3A....;
#X connect 221 0 92 2 48......................DN.........gC...H6+++evA...x9+++Gb...fr++++;
#X connect 222 0 144 0;
#X connect 222 1 223 0;
#X connect 223 0 224 3 48.................j9+++u5+++Oo++++q9+++G4+++Of++++Q9+++C3+++ej++++;
#X connect 224 0 225 0 32.................D..........A.........b.....;
#X connect 225 0 92 1 64......................bu+++O.....26+++C3+++uQ9+++.9+++aj+++uZ++++U1+++q1+++ek8+++p8+++C;
#X connect 226 0 101 1 32.................5....DA...fN....Q....LG....;
#X connect 227 0 56 0 48.................G....vZ...vA....rF...n6+++ufB...59+++Kn...ft++++;
#X connect 228 0 94 0 64......................zC.........8....7++++ud....+++++qG...v7++++2B...L+++++s....y++++C;
#X connect 229 0 206 0;
#X connect 230 0 137 0 32.................D..........A.........f.....;
#X connect 231 0 141 0;
#X coords 0 0 1 1 664 237 2 -2 -2;
