#N canvas 0 22 217 285 10;
#X obj 40 40 inlet;
#X obj 40 199 outlet;
#X obj 40 81 t a a a;
#X obj 60 108 list-compare;
#X obj 40 159 spigot;
#X obj 60 132 == 0;
#X obj 129 78 inlet;
#X connect 0 0 2 0;
#X connect 2 0 4 0;
#X connect 2 1 3 1;
#X connect 2 2 3 0;
#X connect 3 0 5 0;
#X connect 4 0 1 0;
#X connect 5 0 4 1;
#X connect 6 0 3 1;
