#N struct 1123-symarray float x array symbols 1123-sym;
#N struct 1123-sym symbol name float on;
#N canvas 827 239 527 327 12;
#X obj 11 22 tgl 25 0 empty empty empty 27 12 0 12 #e4e4e4 #4d4d4d #373737 0 1;
#X obj 183 68 spigot;
#X obj 183 -51 notein;
#X msg 225 95 0;
#X obj 183 166 timer;
#X obj 34 78 inlet playing;
#X obj 34 147 sel 1;
#X obj 183 252 t b f;
#X msg 183 278 60000;
#X obj 183 344 /;
#X obj 183 390 i;
#X obj 183 416 - 50;
#X obj 689 -11 inlet direct;
#X obj 637 83 timer;
#X obj 689 55 t b a;
#X obj 637 119 pack f f f;
#X obj 637 145 prepend add2;
#X msg 1102 168;
#X msg 490 134 set;
#X obj 638 195 list split 3;
#X obj 748 200 list;
#X obj 637 223 route bang;
#X obj 697 277 list split 1;
#X obj 697 470 pack f f f;
#X obj 835 255 timer;
#X obj 34 173 t b b b;
#X obj 697 408 i;
#X msg -12 146 0;
#X obj 701 85 unpack;
#X obj 760 368 unpack;
#X obj 216 310 / 4;
#X obj 689 15 spigot;
#X obj 697 335 * 16;
#X obj 388 153 inlet length;
#X obj 451 204 inlet speed;
#X obj 451 270 t b f;
#X obj 183 482 ctlout 5;
#X msg 1102 76 set;
#N canvas 63 88 450 300 addOrChange 0;
#X obj 231 14 inlet;
#X obj 388 81 unpack f f f;
#X obj 388 181 pack;
#X obj 451 214 != 0;
#X obj 388 237 spigot;
#X obj 406 332 unpack;
#X obj 417 438 pack f s;
#X msg 388 207 \$2 \$1;
#X obj 388 263 t a a;
#X msg 388 289 \$1;
#X obj 161 166 unpack f f f;
#X obj 232 201 == 0;
#X obj 212 563 spigot;
#X obj 42 406 -;
#X msg 310 591 delete \$1;
#X obj 176 375 f;
#X obj 111 263 ==;
#X obj 139 320 sel 0 1;
#X obj 108 375 f;
#X obj 128 510 f;
#X obj 637 492 outlet add;
#X obj 57 779 outlet changeLength;
#X obj 57 521 pack f f f;
#X msg 57 547 \$2 \$3 \$1;
#N canvas 0 22 450 300 replaceNoteWithRow# 0;
#X obj 320 69 inlet;
#X obj 320 95 route list;
#X obj 320 121 t a a;
#X msg 272 222 \$2;
#X obj 467 263 inlet drumNotesList;
#X obj 272 385 outlet;
#X obj 272 293 list-abs/list-find;
#X obj 272 339 list-abs/list-replace 1;
#X connect 0 0 1 0;
#X connect 1 0 2 0;
#X connect 2 0 3 0;
#X connect 2 1 7 2;
#X connect 3 0 6 0;
#X connect 4 0 6 1;
#X connect 6 0 7 0;
#X connect 7 0 5 0;
#X restore 637 316 pd replaceNoteWithRow#;
#X obj 774 572 inlet list2replace;
#X msg 637 288 \$2 \$1;
#X obj 637 456 pack;
#X obj 683 373 t b f;
#X obj 683 425 -;
#X obj 637 342 unpack f f;
#X msg 685 399 7;
#N canvas 0 22 450 300 replaceNoteWithRow# 0;
#X obj 320 69 inlet;
#X obj 320 95 route list;
#X obj 320 121 t a a;
#X msg 272 222 \$2;
#X obj 467 263 inlet drumNotesList;
#X obj 272 385 outlet;
#X obj 272 293 list-abs/list-find;
#X obj 272 339 list-abs/list-replace 1;
#X connect 0 0 1 0;
#X connect 1 0 2 0;
#X connect 2 0 3 0;
#X connect 2 1 7 2;
#X connect 3 0 6 0;
#X connect 4 0 6 1;
#X connect 6 0 7 0;
#X connect 7 0 5 0;
#X restore 57 622 pd replaceNoteWithRow#;
#X obj 57 648 unpack f f f;
#X obj 57 756 pack f f f;
#X obj 84 673 t b f;
#X obj 84 725 -;
#X msg 86 699 7;
#X obj 482 571 print dump;
#X msg 329 487 dump;
#X msg 485 483 reset;
#X obj 282 262 t f f;
#X obj 42 432 sel 0;
#X obj 293 531 rjlib/rj/m_symbolarray \$0-inNotes;
#X obj 234 369 rc/rc/u_symbol2float;
#X obj 461 364 rc/rc/u_list2symbol;
#X connect 0 0 1 0 32.................X....zI....F....cB....C....;
#X connect 0 0 10 0 32.................CA...r6++++P....69+++WH....;
#X connect 1 0 2 0 32.................o.........PJ.........DE....;
#X connect 1 1 2 1 32.................o....T++++eJ....0++++GE....;
#X connect 1 2 3 0 32.................4....j....PN....I....HG....;
#X connect 2 0 7 0 32.................D..........A.........b.....;
#X connect 3 0 4 1 32.................B....j8+++u.....Y++++S.....;
#X connect 4 0 8 0 32.................D..........A.........b.....;
#X connect 5 0 6 0 32.................r....r.....K....K....bE....;
#X connect 5 1 45 0 32.................G....jA...vA....Y....z.....;
#X connect 6 0 43 1 32.................k....rC...PI....6....nD....;
#X connect 7 0 4 0 32.................F.........fA.........r.....;
#X connect 8 0 9 0 32.................D..........A.........b.....;
#X connect 8 1 5 0 32.................Y....b....PF....G....HC....;
#X connect 8 1 26 0 32.................C....3N...v.....tC...X.....;
#X connect 9 0 41 0 48......................v7+++O.....L++++O8++++k++++S++++e4++++z++++;
#X connect 10 0 18 1 32.................eA...b8++++W....W++++6K....;
#X connect 10 1 15 1 32.................eA........vW.........3K....;
#X connect 10 1 19 1 32.................iB....8++++n....P++++WT....;
#X connect 10 1 22 2 32.................vA...T5+++Ob....k9+++CU....;
#X connect 10 2 11 0 32.................H....DA....B....Q.....A....;
#X connect 11 0 12 1 32.................rB...L.....q....C....bU....;
#X connect 12 0 14 0 32.................C....HF...v.....hA...j.....;
#X connect 13 0 42 0 32.................D..........A.........b.....;
#X connect 14 0 43 0 48......................f++++O.....3++++K6+++O7++++x9+++C++++ur++++;
#X connect 15 0 12 0 32.................UA...PB...PU....j....jJ....;
#X connect 16 0 17 0 32.................S....vA...vD....b....XB....;
#X connect 17 0 19 0 32.................VA...X++++uU....1++++uJ....;
#X connect 17 0 18 0 32.................R....H9+++uD....h++++SB....;
#X connect 17 1 15 0 32.................R....bA...fD....W....PB....;
#X connect 18 0 13 0 32.................F....76+++uA....+9+++y.....;
#X connect 19 0 14 0 32.................U....XK...PE....1B...3C....;
#X connect 22 0 23 0 32.................D..........A.........b.....;
#X connect 23 0 32 0 32.................b..........G.........fC....;
#X connect 24 0 30 0 32.................D..........A.........b.....;
#X connect 25 0 24 1 48......................................3t+++++++++t6++++++++u69+++;
#X connect 25 0 32 1 32.................P....ra+++OD....61++++A....;
#X connect 26 0 24 0 32.................E.........PA.........j.....;
#X connect 27 0 20 0 32.................I.........PB.........DA....;
#X connect 28 0 31 0 32.................D..........A.........b.....;
#X connect 28 1 29 1 32.................Q.........PD.........DB....;
#X connect 29 0 27 1 32.................F....H9+++uA....h++++y.....;
#X connect 30 0 27 0 32.................v..........L.........7E....;
#X connect 30 1 28 0 32.................F.........fA.........v.....;
#X connect 31 0 29 0 32.................D..........A.........b.....;
#X connect 32 0 33 0 32.................D..........A.........b.....;
#X connect 33 0 34 0 32.................s.........PK.........jE....;
#X connect 33 1 35 0 32.................C.........v..........X.....;
#X connect 33 2 34 2 32.................s....H++++eK....x++++mE....;
#X connect 34 0 21 0 32.................B.........f..........P.....;
#X connect 35 0 37 0 32.................D..........A.........b.....;
#X connect 35 1 36 1 32.................Q.........PD.........DB....;
#X connect 36 0 34 1 32.................F....j++++uA....4++++y.....;
#X connect 37 0 36 0 32.................D..........A.........b.....;
#X connect 39 0 43 0 32.................M....z8+++eC....c++++mA....;
#X connect 40 0 43 0 48.................J....D1+++uB....g8++++....PP++++O....Dz+++eG....;
#X connect 41 0 16 0 48......................f7+++O.....H+++++9+++uU++++u++++a0++++6++++;
#X connect 41 1 22 2 32.................PA...vy+++OT....77+++CO....;
#X connect 41 1 43 0 32.................8A........Pe.........nO....;
#X connect 42 1 22 0 32.................i.........vH.........XD....;
#X connect 43 0 44 0 48......................L9+++O.....i++++yz+++uw++++L8+++a7+++OS++++;
#X connect 43 1 38 0 32.................K....X....vB....F....TA....;
#X connect 44 0 16 1 80......................D++++O.....w++++28+++e3++++c++++G9+++Op++++Q++++i5+++ez++++D9+++G4+++Og++++Q9+++S3+++O;
#X connect 44 0 13 1 32.................I....vz+++eB....L8+++KA....;
#X connect 44 0 22 1 32.................4....L1+++eN....i8+++WH....;
#X connect 45 0 6 1 32.................b....X++++OG....1++++eC....;
#X restore 697 499 pd addOrChange;
#X obj 888 464 inlet list2replace;
#X obj 697 585 outlet changeLength;
#X obj 785 627 outlet add;
#X obj 34 104 spigot;
#X obj 394 276 / 2;
#X obj 697 434 + 1;
#X obj 697 361 + 0.49;
#X obj 617 309 expr ($f1 / ($f2 / $f3)) / $f3;
#X obj 10 -117 inlet;
#X obj 183 -25 moses 5;
#X obj 183 94 t b b b;
#X obj 697 525 pack f f f f;
#X obj 784 524 pack f f f;
#X connect 0 0 1 1 32.................G....LL...vA....CC...TA....;
#X connect 0 0 31 1 48......................nN.........pC...D9+++euB...g++++2q...P3++++;
#X connect 0 0 37 0 32.................J....LDA..fB....CQ...zA....;
#X connect 0 0 42 1 32.................c....3B...PG....t....jC....;
#X connect 1 0 49 0 32.................D..........A.........b.....;
#X connect 2 0 48 0 32.................D..........A.........b.....;
#X connect 3 0 1 1 48......................f++++O.....3++++O8+++O7++++S++++C+++++z++++;
#X connect 4 0 7 0 32.................h.........fH.........LD....;
#X connect 5 0 42 0 32.................D..........A.........b.....;
#X connect 6 0 25 0 32.................D..........A.........b.....;
#X connect 6 0 27 0 48......................j9+++O.....o++++29+++ez++++s++++G8+++e6++++;
#X connect 7 0 8 0 32.................D..........A.........b.....;
#X connect 7 1 30 0 32.................T....XA....E....V....bB....;
#X connect 8 0 9 0 32.................X..........F.........7B....;
#X connect 9 0 10 0 32.................N.........fC.........rA....;
#X connect 10 0 11 0 32.................D..........A.........b.....;
#X connect 11 0 36 0 32.................X..........F.........7B....;
#X connect 12 0 31 0 32.................D..........A.........b.....;
#X connect 13 0 15 0 32.................I.........PB.........DA....;
#X connect 14 0 13 1 32.................E....z8+++eA....c++++m.....;
#X connect 14 1 28 0 32.................F.........fA.........r.....;
#X connect 15 0 16 0 32.................D..........A.........b.....;
#X connect 16 0 17 0 32.................A....Dc...P.....QG...P.....;
#X connect 17 0 19 0 32.................C....Di++++.....w3+++i.....;
#X connect 18 0 17 0 48......................HS.........xD...T.....YB...E....Pl...vC....;
#X connect 19 0 21 0 32.................E.........PA.........j.....;
#X connect 19 1 20 0 48......................3A.........d....L++++eV....y++++mE...v7++++;
#X connect 20 0 19 0 48......................v8+++O.....b++++m9++++j++++o++++O4+++e5++++;
#X connect 21 1 22 0 32.................R....n....fD....J....LB....;
#X connect 22 0 46 0 32.................G....D6++++A....w9+++2.....;
#X connect 22 1 29 0 32.................j....vB....I....r....fD....;
#X connect 23 0 38 0 32.................E.........PA.........n.....;
#X connect 24 0 46 1 32.................R.....2+++uD....v8+++OB....;
#X connect 25 0 4 1 48......................bC.........2....b9+++eo....m++++WJ...v4++++;
#X connect 25 1 17 0 48......................7f.........OH...j9+++uGD...o++++6AA..P5++++;
#X connect 25 2 24 1 48......................zf.........MH...TA....EC...U....Pw...vO....;
#X connect 26 0 44 0 32.................D..........A.........b.....;
#X connect 27 0 0 0 48......................z..........M....H2+++eF....x8+++mA...fb++++;
#X connect 28 0 15 1 32.................H....P8+++OB....T+++++.....;
#X connect 28 1 15 2 32.................H....n7+++OB....J+++++.....;
#X connect 29 0 23 1 32.................p....T8+++uJ....U++++OE....;
#X connect 29 1 23 2 32.................p....r7+++uJ....K++++OE....;
#X connect 29 1 50 3 32.................EA...L8+++eQ....S++++qH....;
#X connect 29 1 51 2 32.................EA...DB...PQ....g....jH....;
#X connect 30 0 9 1 32.................H....r9+++OB....q+++++.....;
#X connect 31 0 14 0 32.................K.........vB.........TA....;
#X connect 32 0 45 0 32.................D..........A.........b.....;
#X connect 33 0 43 0 32.................z....X.....M....F....fF....;
#X connect 33 0 32 1 32.......................T..........E...LJ....;
#X connect 34 0 35 0 32.................X..........F.........7B....;
#X connect 34 0 46 2 32.................c....fS...PG....3D...XE....;
#X connect 35 0 43 0 48......................P9+++O.....j++++S++++Ox++++z++++i7+++O8++++;
#X connect 35 1 43 1 48......................P9+++O.....j++++S++++Ox++++z++++i7+++O8++++;
#X connect 37 0 17 0 32.................k.........PI.........jD....;
#X connect 38 0 50 0 32.................D..........A.........b.....;
#X connect 38 1 51 0 32.................C.........v..........X.....;
#X connect 39 0 38 1 32.................H....j4+++OB....Y9+++CA....;
#X connect 42 0 6 0 32.................L..........C.........fA....;
#X connect 43 0 30 1 32.................E....n0+++eA....Z8++++.....;
#X connect 44 0 23 0 32.................I.........PB.........DA....;
#X connect 45 0 26 0 32.................N.........fC.........vA....;
#X connect 46 0 32 0 32.................D.....E....A....PA...b.....;
#X connect 47 0 0 0 32.................7....D.....O....A....fG....;
#X connect 48 1 1 0 32.................k....z8+++eI....c++++qD....;
#X connect 49 0 3 0 48......................PA.........T....79+++OJ....u++++iB...v6++++;
#X connect 49 0 4 0 32.................a.........vF.........TC....;
#X connect 49 0 24 0 48......................ri.........6H...TC....iB...0....vn...fi....;
#X connect 49 1 13 1 48......................fI.........XB...L9+++OxA...i++++ib...v3++++;
#X connect 49 2 18 0 48......................3B.........t....b....fEA...G....XQ...PE....;
#X connect 49 2 13 0 48......................3H.........NB...L9+++epA...i++++mZ...v3++++;
#X connect 50 0 40 0 32.................U.........PE.........jB....;
#X connect 51 0 41 0 32.................p....D....fJ....A....PE....;
#X coords 0 0 1 1 47 54 1 0 0;
