#N struct 1006-symarray float x array symbols 1006-sym;
#N struct 1006-sym symbol name float on;
#N struct 1005-symarray float x array symbols 1005-sym;
#N struct 1005-sym symbol name float on;
#N canvas 510 67 751 470 12;
#X obj 464 273 namecanvas vanillamenuhelp;
#N canvas 648 537 987 476 look 0;
#X msg 80 53 set;
#X msg 165 19 set one two three;
#X msg 182 79 set one two three four five six seven eight nine ten!;
#X floatatom 67 134 5 0 0 0 - - - 0;
#X msg 201 121 set one two three four five six seven eight nine ten and for even more you can scroll;
#X obj 754 281 vanillaMenu vanillamenuhelp menu_2 300 30 150 25;
#X floatatom 316 245 5 0 0 0 - - - 0;
#X msg 316 268 width \$1;
#X floatatom 393 248 5 0 0 0 - - - 0;
#X msg 393 271 height \$1;
#X msg 754 75 set 1 2 3 floats dont work;
#X obj 156 314 vanillaMenu vanillamenuhelp menu_1 30 30 250 30 content coming from args;
#X msg 331 18 add four five;
#X msg 270 166 add which is quite cool I think;
#X listbox 840 164 21 0 0 0 - - - 16;
#X msg 840 189 add \$1;
#X obj 771 506 namecanvas moreInfo;
#X obj 789 364 inlet;
#X msg 789 394 \; moreInfo vis 1, f 17;
#X msg 24 248 -1;
#X text 55 249 last;
#X obj 156 354 print menu_1;
#X obj 754 305 print menu_2;
#X connect 0 0 11 0;
#X connect 1 0 11 0;
#X connect 2 0 11 0;
#X connect 3 0 11 0;
#X connect 4 0 11 0;
#X connect 5 0 22 0;
#X connect 6 0 7 0;
#X connect 7 0 11 0;
#X connect 8 0 9 0;
#X connect 9 0 11 0;
#X connect 10 0 5 0;
#X connect 11 0 21 0;
#X connect 12 0 11 0;
#X connect 13 0 11 0;
#X connect 14 0 15 0;
#X connect 15 0 5 0;
#X connect 17 0 18 0;
#X connect 19 0 11 0;
#X restore 540 219 pd look in here;
#X obj 34 385 r menu_1;
#X listbox 34 409 20 0 0 0 - - - 0;
#X obj 34 432 bng 19 250 50 0 empty empty empty 0 -10 0 12 #fcfcfc #000000 #000000;
#X listbox 304 409 20 0 0 0 - - - 0;
#X obj 304 432 bng 19 250 50 0 empty empty empty 0 -10 0 12 #fcfcfc #000000 #000000;
#X obj 304 385 r menu_2;
#X obj 270 30 vsl 8 2 0 127 0 0 menu_1-1_s menu_1-1_r x 3 3 0 4 #d9d9d9 #d9d9d9 #606060 0 0;
#X obj 270 30 vsl 8 2 0 127 0 0 menu_1-2_s menu_1-2_r x 3 3 0 4 #d9d9d9 #d9d9d9 #606060 0 0;
#X obj 270 30 vsl 8 2 0 127 0 0 menu_1-3_s menu_1-3_r x 3 3 0 4 #d9d9d9 #d9d9d9 #606060 0 0;
#X obj 270 30 vsl 8 2 0 127 0 0 menu_1-4_s menu_1-4_r x 3 3 0 4 #d9d9d9 #d9d9d9 #606060 0 0;
#X obj 270 30 vsl 8 2 0 127 0 0 menu_1-5_s menu_1-5_r x 3 3 0 4 #d9d9d9 #d9d9d9 #606060 0 0;
#X obj 270 30 vsl 8 2 0 127 0 0 menu_1-6_s menu_1-6_r x 3 3 0 4 #d9d9d9 #d9d9d9 #606060 0 0;
#X obj 270 30 vsl 8 2 0 127 0 0 menu_1-7_s menu_1-7_r x 3 3 0 4 #d9d9d9 #d9d9d9 #606060 0 0;
#X obj 270 30 vsl 8 2 0 127 0 0 menu_1-8_s menu_1-8_r x 3 3 0 4 #d9d9d9 #d9d9d9 #606060 0 0;
#X obj 270 30 vsl 8 2 0 127 0 0 menu_1-9_s menu_1-9_r x 3 3 0 4 #d9d9d9 #d9d9d9 #606060 0 0;
#X obj 270 30 vsl 8 2 0 127 0 0 menu_1-10_s menu_1-10_r x 3 3 0 4 #d9d9d9 #d9d9d9 #606060 0 0;
#X obj 270 30 vsl 8 2 1 0 0 1 menu_1_scroll_s menu_1_scroll_r empty 0 -9 0 10 #dcdcdc #dfdfdf #000000 100 0;
#X obj 270 30 cnv 9 1 1 empty menu_1_scrollIndicator empty 20 12 0 14 #bbbbbb #404040 0;
#X obj 30 30 vsl 250 30 0 127 0 0 menu_1_s menu_1_r menu_1 3 13 0 27 #ffffff #fcfcfc #000000 0 0;
#X obj 440 30 vsl 8 2 0 127 0 0 menu_2-1_s menu_2-1_r x 3 3 0 4 #d9d9d9 #d9d9d9 #606060 0 0;
#X obj 440 30 vsl 8 2 0 127 0 0 menu_2-2_s menu_2-2_r x 3 3 0 4 #d9d9d9 #d9d9d9 #606060 0 0;
#X obj 440 30 vsl 8 2 0 127 0 0 menu_2-3_s menu_2-3_r x 3 3 0 4 #d9d9d9 #d9d9d9 #606060 0 0;
#X obj 440 30 vsl 8 2 0 127 0 0 menu_2-4_s menu_2-4_r x 3 3 0 4 #d9d9d9 #d9d9d9 #606060 0 0;
#X obj 440 30 vsl 8 2 0 127 0 0 menu_2-5_s menu_2-5_r x 3 3 0 4 #d9d9d9 #d9d9d9 #606060 0 0;
#X obj 440 30 vsl 8 2 0 127 0 0 menu_2-6_s menu_2-6_r x 3 3 0 4 #d9d9d9 #d9d9d9 #606060 0 0;
#X obj 440 30 vsl 8 2 0 127 0 0 menu_2-7_s menu_2-7_r x 3 3 0 4 #d9d9d9 #d9d9d9 #606060 0 0;
#X obj 440 30 vsl 8 2 0 127 0 0 menu_2-8_s menu_2-8_r x 3 3 0 4 #d9d9d9 #d9d9d9 #606060 0 0;
#X obj 440 30 vsl 8 2 0 127 0 0 menu_2-9_s menu_2-9_r x 3 3 0 4 #d9d9d9 #d9d9d9 #606060 0 0;
#X obj 440 30 vsl 8 2 0 127 0 0 menu_2-10_s menu_2-10_r x 3 3 0 4 #d9d9d9 #d9d9d9 #606060 0 0;
#X obj 440 30 vsl 8 2 1 0 0 1 menu_2_scroll_s menu_2_scroll_r empty 0 -9 0 10 #dcdcdc #dfdfdf #000000 0 0;
#X obj 440 30 cnv 9 1 1 empty menu_2_scrollIndicator empty 20 12 0 14 #bbbbbb #404040 0;
#X obj 300 30 vsl 150 25 0 127 0 0 menu_2_s menu_2_r menu_2 3 11 0 22 #ffffff #fcfcfc #000000 0 0;
#X obj 540 168 bng 25 250 50 0 empty empty more_Info 30 12 0 18 #333333 #eeeeee #525252;
#X connect 2 0 3 0;
#X connect 3 0 4 0;
#X connect 5 0 6 0;
#X connect 7 0 5 0;
#X connect 34 0 1 0;
